<svg id="Layer_1" data-name="Layer 1" xmlns="http://www.w3.org/2000/svg" xmlns:xlink="http://www.w3.org/1999/xlink" viewBox="0 0 100 100"><defs><style>.cls-1{fill:none;}.cls-2{fill:#2b83c5;}.cls-3{clip-path:url(#clip-path);}.cls-4{fill:#fff;}.cls-5{clip-path:url(#clip-path-3);}.cls-6{clip-path:url(#clip-path-4);}.cls-7{clip-path:url(#clip-path-5);}</style><clipPath id="clip-path"><rect class="cls-1" x="27.26" y="26.67" width="45.74" height="44.86"/></clipPath><clipPath id="clip-path-3"><path class="cls-2" d="M235.41,14.64a49.91,49.91,0,1,1-70.44,0A50.14,50.14,0,0,1,235.41,14.64Z"/></clipPath><clipPath id="clip-path-4"><circle class="cls-2" cx="49.85" cy="199.85" r="49.85" transform="translate(-126.72 93.79) rotate(-45)"/></clipPath><clipPath id="clip-path-5"><circle class="cls-2" cx="200.23" cy="199.85" r="49.85" transform="translate(-82.67 200.13) rotate(-45)"/></clipPath></defs><title>Artboard 1</title><g id="Alpha"><circle class="cls-2" cx="50" cy="50" r="50" transform="translate(-20.71 50) rotate(-45)"/><g class="cls-3"><g class="cls-3"><path class="cls-4" d="M73,70.41S59.75,41.32,57.6,36.31c-2.9-6.75-7.83-9.9-13.11-9.62C38,27,26.27,32.9,27.33,51.79,28.54,73.4,43.7,71.48,43.7,71.48s5.39.11,10.3-5.67C58.16,60.9,64.42,49.76,72.07,27.9c.12-.36-7.52-.4-7.52-.4s-10,38.59-21.38,38c-9.89-.47-10.6-31.56.26-33.19,2-.31,4.94,1.13,6.86,4.86,5,9.71,13.41,33.37,13.73,33.19Z"/></g></g></g><g id="Alpha_" data-name="Alpha+"><path class="cls-2" d="M235.41,14.64a49.91,49.91,0,1,1-70.44,0A50.14,50.14,0,0,1,235.41,14.64Z"/><g class="cls-5"><polygon class="cls-2" points="-813.33 664.09 812.38 429.5 868.88 -285.82 -813.33 -285.82 -813.33 664.09"/></g></g><g id="Beta"><circle class="cls-2" cx="49.85" cy="199.85" r="49.85" transform="translate(-126.72 93.79) rotate(-45)"/><g class="cls-6"><polygon class="cls-2" points="-1172.42 812.11 454.72 578.22 511.26 -134.96 -1172.42 -134.96 -1172.42 812.11"/></g></g><g id="Omega"><circle class="cls-2" cx="200.23" cy="199.85" r="49.85" transform="translate(-82.67 200.13) rotate(-45)"/><g class="cls-7"><polygon class="cls-2" points="-1225.65 812.11 401.49 578.22 458.03 -134.96 -1225.65 -134.96 -1225.65 812.11"/></g></g></svg>