<?xml version="1.0" encoding="utf-8"?>
<!-- Generator: Adobe Illustrator 21.0.0, SVG Export Plug-In . SVG Version: 6.00 Build 0)  -->
<svg version="1.1" xmlns="http://www.w3.org/2000/svg" xmlns:xlink="http://www.w3.org/1999/xlink" x="0px" y="0px"
	 viewBox="0 0 280 280" style="enable-background:new 0 0 280 280;" xml:space="preserve">
<style type="text/css">
	.st0{fill:#828282;}
	.st1{fill:#303030;}
	.st2{stroke:#000000;stroke-width:7.0579;stroke-miterlimit:10;}
	.st3{fill:#FFFFFF;stroke:#000000;stroke-width:7.098;stroke-miterlimit:10;}
	.st4{fill:none;stroke:#000000;stroke-width:7.098;stroke-linecap:round;stroke-miterlimit:10;}
	.st5{fill:#FFFFFF;}
	.st6{fill:none;stroke:#000000;stroke-width:9;stroke-miterlimit:10;}
	.st7{fill:none;stroke:#000000;stroke-width:5.9531;stroke-linecap:round;stroke-miterlimit:10;}
	.st8{fill:none;stroke:#000000;stroke-width:11.3958;stroke-linecap:round;stroke-miterlimit:10;}
	.st9{fill:none;stroke:#000000;stroke-width:10.2562;stroke-linecap:round;stroke-linejoin:round;stroke-miterlimit:10;}
	.st10{fill:none;stroke:#000000;stroke-width:7.977;stroke-miterlimit:10;}
</style>
<g id="DARTH_VADOR">
	<g id="RESPIRATOR">
	</g>
</g>
<g id="ASTRONAUT">
	<ellipse class="st2" cx="139" cy="158.7" rx="89.8" ry="86.3"/>
	<path class="st3" d="M54.7,153.8c2.3-7.6,11.2-21.9,17.6-25.5c29.4-16.6,101.4-14.6,131.6,0c6.1,3,15.8,15.1,18.4,21.7
		c1.9,4.8,8.4,22.4,0,34c-26.5,36.6-136.5,31.6-167.7,0C49.7,179,52.5,160.9,54.7,153.8z"/>
	<line class="st3" x1="139.5" y1="42.4" x2="139.5" y2="72.5"/>
	<circle class="st3" cx="139.9" cy="39.3" r="9.3"/>
	<g>
		<g>
			<path d="M224.4,130c-2-4.9,17.1,4,19.5,8.8c4.4,8.9,6,31.9,0,39.8c-3.4,4.4-21.4,14.3-20.3,8.8C227.1,169.8,230.6,145,224.4,130z
				"/>
		</g>
		<g>
			<path d="M51.3,130c2-4.9-17.1,4-19.5,8.8c-4.4,8.9-6,31.9,0,39.8c3.4,4.4,21.4,14.3,20.3,8.8C48.7,169.8,45.1,145,51.3,130z"/>
		</g>
	</g>
	<path class="st4" d="M76,164c0-16.4,14.8-24.3,26-26"/>
	<g>
		<circle class="st5" cx="176.2" cy="222.8" r="7.8"/>
		<path d="M176.2,215.5c4,0,7.2,3.3,7.2,7.2s-3.3,7.2-7.2,7.2s-7.2-3.3-7.2-7.2S172.3,215.5,176.2,215.5 M176.2,214.5
			c-4.6,0-8.2,3.7-8.2,8.2s3.7,8.2,8.2,8.2s8.2-3.7,8.2-8.2S180.8,214.5,176.2,214.5L176.2,214.5z"/>
	</g>
	<g>
		<circle class="st5" cx="186.2" cy="218.8" r="5.8"/>
		<path d="M186.2,213.5c2.9,0,5.2,2.4,5.2,5.2s-2.4,5.2-5.2,5.2s-5.2-2.4-5.2-5.2S183.4,213.5,186.2,213.5 M186.2,212.5
			c-3.5,0-6.2,2.8-6.2,6.2s2.8,6.2,6.2,6.2s6.2-2.8,6.2-6.2S189.7,212.5,186.2,212.5L186.2,212.5z"/>
	</g>
	<g>
		<circle class="st5" cx="193.2" cy="214.8" r="3.8"/>
		<path d="M193.2,211.5c1.8,0,3.2,1.5,3.2,3.2s-1.5,3.2-3.2,3.2s-3.2-1.5-3.2-3.2S191.5,211.5,193.2,211.5 M193.2,210.5
			c-2.3,0-4.2,1.9-4.2,4.2s1.9,4.2,4.2,4.2s4.2-1.9,4.2-4.2S195.6,210.5,193.2,210.5L193.2,210.5z"/>
	</g>
</g>
<g id="NO_BULL">
</g>
<g id="EINSTEIN">
</g>
</svg>
