<svg id="7267e0c2-add8-4f8b-a424-f6ac15aac484" data-name="12697b5a-223c-486b-806c-13b501f91d73" xmlns="http://www.w3.org/2000/svg" width="25.35mm" height="29.63mm" viewBox="0 0 71.85 84">
  <defs>
    <style>
      .\37 1e67d2a-248e-4beb-be19-8c66ad71b867 {
        fill: #231f20;
      }
    </style>
  </defs>
  <title>Battle_tested</title>
  <circle class="71e67d2a-248e-4beb-be19-8c66ad71b867" cx="47.82" cy="18.38" r="3.19"/>
  <g>
    <path class="71e67d2a-248e-4beb-be19-8c66ad71b867" d="M45.76,35.72H26.53a1.5,1.5,0,0,0,0,3H45.76a1.5,1.5,0,0,0,0-3Z" transform="translate(-0.22 0)"/>
    <path class="71e67d2a-248e-4beb-be19-8c66ad71b867" d="M45.76,42.13H26.53a1.5,1.5,0,0,0,0,3H45.76a1.5,1.5,0,0,0,0-3Z" transform="translate(-0.22 0)"/>
    <path class="71e67d2a-248e-4beb-be19-8c66ad71b867" d="M45.76,48.54H26.53a1.5,1.5,0,0,0,0,3H45.76a1.5,1.5,0,0,0,0-3Z" transform="translate(-0.22 0)"/>
    <path class="71e67d2a-248e-4beb-be19-8c66ad71b867" d="M36.14,4.7a5,5,0,1,0,5,5A5,5,0,0,0,36.14,4.7Zm0,6.93a2,2,0,1,1,2-2A2,2,0,0,1,36.14,11.63Z" transform="translate(-0.22 0)"/>
    <path class="71e67d2a-248e-4beb-be19-8c66ad71b867" d="M72,82l-2.67-7.72V33.64a7.48,7.48,0,0,0-9.25-7.29V23.93l0-.08A24,24,0,0,0,36.14,0h-.08A24,24,0,0,0,12.17,24.11h0v2.22A7.48,7.48,0,0,0,3,33.64V74.28L.31,82a1.5,1.5,0,0,0,1.42,2h17.5a1.5,1.5,0,0,0,1.42-2L18,74.28V69.62h.71l4.08,5.91a1.5,1.5,0,0,0,1.23.65h4L26,82a1.5,1.5,0,0,0,1.42,2h17.5a1.5,1.5,0,0,0,1.42-2l-2-5.81h3.16a1.5,1.5,0,0,0,1.16-.56l4.85-6h.84v4.66L51.64,82a1.5,1.5,0,0,0,1.42,2h17.5A1.5,1.5,0,0,0,72,82ZM57.31,69.62h2.75V29.49a4.5,4.5,0,0,1,6.25,4.15V72.33h-9ZM15.19,24.79v-.71A20.95,20.95,0,0,1,36.06,3h.1a21,21,0,0,1,21,20.79v2.34h-42ZM6,33.64a4.49,4.49,0,0,1,6.2-4.16V69.62H15v2.71H6ZM3.84,81l1.94-5.62h9.35l2,5.62Zm39,0H29.5l1.66-4.82h10ZM36.23,66.63h-21V29.13H57.08V66.62H36.23ZM55.17,81l1.94-5.62h9.35l2,5.62Z" transform="translate(-0.22 0)"/>
  </g>
</svg>
