<?xml version="1.0" encoding="utf-8"?>
<!-- Generator: Adobe Illustrator 20.1.0, SVG Export Plug-In . SVG Version: 6.00 Build 0)  -->
<!DOCTYPE svg PUBLIC "-//W3C//DTD SVG 1.1//EN" "http://www.w3.org/Graphics/SVG/1.1/DTD/svg11.dtd">
<svg version="1.1" id="_x37_267e0c2-add8-4f8b-a424-f6ac15aac484"
	 xmlns="http://www.w3.org/2000/svg" xmlns:xlink="http://www.w3.org/1999/xlink" x="0px" y="0px" viewBox="0 0 200 200"
	 style="enable-background:new 0 0 200 200;" xml:space="preserve">
<title>Battle_tested</title>
<circle cx="107.9" cy="77.7" r="3.2"/>
<g>
	<path d="M105.6,95.1H86.4c-0.8,0-1.5,0.7-1.5,1.5c0,0.8,0.7,1.5,1.5,1.5h19.2c0.8,0,1.5-0.7,1.5-1.5
		C107.1,95.8,106.4,95.1,105.6,95.1z"/>
	<path d="M105.6,101.5H86.4c-0.8,0-1.5,0.7-1.5,1.5c0,0.8,0.7,1.5,1.5,1.5h19.2c0.8,0,1.5-0.7,1.5-1.5
		C107.1,102.2,106.4,101.5,105.6,101.5z"/>
	<path d="M105.6,107.9H86.4c-0.8,0-1.5,0.7-1.5,1.5c0,0.8,0.7,1.5,1.5,1.5h19.2c0.8,0,1.5-0.7,1.5-1.5
		C107.1,108.6,106.4,107.9,105.6,107.9z"/>
	<path d="M96,64.1c-2.8,0-5,2.2-5,5s2.2,5,5,5c2.8,0,5-2.2,5-5S98.8,64.1,96,64.1z M96,71c-1.1,0-2-0.9-2-2s0.9-2,2-2
		c1.1,0,2,0.9,2,2S97.1,71,96,71C96,71,96,71,96,71z"/>
	<path d="M131.9,141.4l-2.7-7.7V93c0-4.1-3.3-7.5-7.5-7.5c-0.6,0-1.2,0.1-1.8,0.2v-2.4v-0.1C119.9,70,109.2,59.4,96,59.4h-0.1
		C82.7,59.4,72,70.2,72,83.5c0,0,0,0,0,0l0,0v2.2c-4-0.9-8,1.6-9,5.6c-0.1,0.6-0.2,1.1-0.2,1.7v40.6l-2.7,7.7
		c-0.3,0.8,0.1,1.6,0.9,1.9c0.2,0.1,0.3,0.1,0.5,0.1h17.5c0.8,0,1.5-0.7,1.5-1.5c0-0.2,0-0.3-0.1-0.5l-2.6-7.7V129h0.7l4.1,5.9
		c0.3,0.4,0.7,0.6,1.2,0.6h4l-2,5.8c-0.3,0.8,0.1,1.6,0.9,1.9c0.2,0.1,0.3,0.1,0.5,0.1h17.5c0.8,0,1.5-0.7,1.5-1.5
		c0-0.2,0-0.3-0.1-0.5l-2-5.8h3.2c0.5,0,0.9-0.2,1.2-0.6l4.8-6h0.8v4.7l-2.7,7.7c-0.3,0.8,0.1,1.6,0.9,1.9c0.2,0.1,0.3,0.1,0.5,0.1
		h17.5c0.8,0,1.5-0.6,1.5-1.5C131.9,141.7,131.9,141.5,131.9,141.4z M117.2,129h2.7V88.9c2.3-1,4.9,0.1,5.9,2.4
		c0.2,0.6,0.4,1.2,0.4,1.8v38.7h-9L117.2,129z M75.1,84.2v-0.7c-0.1-11.6,9.2-21,20.8-21.1c0,0,0,0,0.1,0H96
		c11.5,0,20.9,9.3,21,20.8v2.3H75L75.1,84.2z M65.9,93c0-2.5,2-4.5,4.5-4.5c0.6,0,1.2,0.1,1.7,0.3V129h2.8v2.7h-9V93z M63.7,140.4
		l1.9-5.6H75l2,5.6H63.7z M102.7,140.4H89.4l1.7-4.8h10L102.7,140.4z M96.1,126h-21V88.5h41.8V126L96.1,126L96.1,126z M115,140.4
		l1.9-5.6h9.3l2,5.6H115z"/>
</g>
</svg>
