<svg data-name="buildit" xmlns="http://www.w3.org/2000/svg" viewBox="0 0 1000 400">
  <title>BUILDIT LOGO</title>
  <g id="B">
    <path class="letter B" d="M179.4 108.91h77.05c31.19 0 52.29 10.4 52.29 41.85 0 16.55-8 28.14-22.24 35.23 20 5.91 30 21.75 30 42.8 0 34.28-28.21 48.94-57.79 48.94H179.4V108.91zm36 68.33h36.46c12.61 0 22-5.91 22-20.1 0-16.08-11.92-19.39-24.77-19.39H215.4v39.49zm0 71.64h38.53c14.22 0 26.6-4.73 26.6-22.23 0-17.26-10.55-24.12-25.91-24.12H215.4v46.34z"/>
  </g>
  <g id="u">
    <path class="letter u" d="M437.78 277.73h-31v-17.19h-.69a41.89 41.89 0 0 1-36.23 20.52c-34.63 0-43.34-20.29-43.34-50.83v-75.89h32.56V224c0 20.29 5.73 30.31 20.87 30.31 17.66 0 25.23-10.26 25.23-35.32v-64.65h32.56v123.39z"/>
  </g>
  <g id="i1">
    <path class="letter i1" d="M447.62 154.39h32.9v123.44h-32.9z"/>
  </g>
  <g id="i1-dot">
    <path class="letter i1-dot" d="M447.53 108.49h32.9v29.92h-32.9z"/>
  </g>
  <g id="l">
    <path class="letter l" d="M490.32 108.51h32.9v169.06h-32.9z"/>
  </g>
  <g id="d">
    <path class="letter d" d="M628.64 262.12h-.49c-8.08 13.27-22.29 19-38.45 19-38.21 0-56.82-31.74-56.82-65.62 0-32.93 18.86-63.49 56.08-63.49 14.94 0 29.63 6.16 37.47 18.24h.49v-61.64h34.78v169.14h-33.06v-15.63zm-30.37-84.8c-22.78 0-30.61 19-30.61 39.09 0 19.19 9.06 39.32 30.61 39.32 23 0 29.88-19.42 29.88-39.56 0-19.91-7.35-38.86-29.88-38.86z"/>
  </g>
  <g id="i2">
    <path class="letter i2" d="M671.53 154.39h32.9v123.44h-32.9z"/>
  </g>
  <g id="i2-dot">
    <path class="letter i2" d="M671.53 108.49h32.9v29.92h-32.9z"/>
  </g>
  <g id="t">
    <path class="letter t" d="M714.18 177.27v-22.86h17.27v-35.07h32.31v35.07H784v22.86h-20.24v66c0 5.09.68 8.27 1.94 9.55s5.32 1.9 11.94 1.9a67 67 0 0 0 6.4-.4v24.38l-15.47.73c-15.44.5-26-2.12-31.56-8-3.69-3.72-5.56-9.44-5.56-17.29v-76.87h-17.27z"/>
  </g>
</svg>
