<svg id="_x33_ce7cab1-feec-4919-be7c-f08d3c9c872b" xmlns="http://www.w3.org/2000/svg" width="653" height="173.4" viewBox="0 0 653 173.4"><style>.st0{fill:#FFFFFF;}</style><title>buildit-logo-trademark</title><path class="st0" d="M0 1.2h77.1c31.2 0 52.3 10.4 52.3 41.9 0 16.6-8 28.1-22.2 35.2 20 5.9 30 21.8 30 42.8 0 34.3-28.2 48.9-57.8 48.9H0V1.2zm36 68.4h36.5c12.6 0 22-5.9 22-20.1 0-16.1-11.9-19.4-24.8-19.4H36v39.5zm0 71.6h38.5c14.2 0 26.6-4.7 26.6-22.2 0-17.3-10.5-24.1-25.9-24.1H36v46.3zm222.4 28.9h-31v-17.2h-.7c-7.6 12.8-21.4 20.6-36.2 20.5-34.6 0-43.3-20.3-43.3-50.8V46.7h32.6v69.7c0 20.3 5.7 30.3 20.9 30.3 17.7 0 25.2-10.3 25.2-35.3V46.7h32.6l-.1 123.4zm190.8-15.7h-.5c-8.1 13.3-22.3 19-38.5 19-38.2 0-56.8-31.7-56.8-65.6 0-32.9 18.9-63.5 56.1-63.5 14.9 0 29.6 6.2 37.5 18.2h.5V.9h34.8V170h-33.1v-15.6zm-30.3-84.8c-22.8 0-30.6 19-30.6 39.1 0 19.2 9.1 39.3 30.6 39.3 23 0 29.9-19.4 29.9-39.6 0-19.8-7.4-38.8-29.9-38.8zM492.1.8H525v29.9h-32.9V.8zm0 45.9H525v123.4h-32.9V46.7zm42.7 22.9V46.7h17.3v-35h32.3v35.1h20.2v22.9h-20.2v66c0 5.1.7 8.3 1.9 9.6s5.3 1.9 11.9 1.9c1 0 2 0 3.2-.1 1.1 0 2.2-.1 3.2-.3V171l-15.5.7c-15.4.5-26-2.1-31.6-8-3.7-3.7-5.6-9.4-5.6-17.3V69.6h-17.1zM310.9.8h32.9v169.1h-32.9V.8zm-42.8 0H301v29.9h-32.9V.8zm.1 45.9h32.9v123.4h-32.9V46.7z"/></svg>