<svg id="svg2" xmlns="http://www.w3.org/2000/svg" viewBox="0 0 807.9 510.2"><defs><style>.cls-1{fill:none;stroke:#000;stroke-width:0.76px;}</style></defs><title>cynefin</title><path class="cls-1" d="M709,248c-36.2,19.3-110.8,17.3-150.9,17-95.8-.7-130.4-51.1-138.9-111.9-5.8-41.9-15.9-90.9-40.9-133.9"/><path class="cls-1" d="M418.9,392.3c-0.4-66.2-37.1-119.4-164.6-133.8-46-5.2-83.7-5.3-164,.7"/><path class="cls-1" d="M419.3,153s12.1,114.2-165,105.4"/><path class="cls-1" d="M358.3,490.2s49.1-19.3,60.6-97.9c13.8-94.5,37-117.9,139.2-127.4"/><path d="M150.1,119.6a1.94,1.94,0,0,0-1.7-1,2.46,2.46,0,0,0-1.5.5,3,3,0,0,0-.8,1.7,21.14,21.14,0,0,0-.4,3.3c-0.1,1.4-.1,3.1-0.1,5.3s0,3.9.1,5.3a21.14,21.14,0,0,0,.4,3.3,3.83,3.83,0,0,0,.8,1.7,2.46,2.46,0,0,0,1.5.5,1.59,1.59,0,0,0,1.2-.4,2,2,0,0,0,.7-1.3,11.87,11.87,0,0,0,.4-2.4c0.1-1,.1-2.2.1-3.7h7.9v2.3a13.83,13.83,0,0,1-.9,5.4,9.23,9.23,0,0,1-2.3,3.3,8.45,8.45,0,0,1-3.3,1.6,16.11,16.11,0,0,1-3.9.4,17.06,17.06,0,0,1-5.6-.8,6.75,6.75,0,0,1-3.4-2.8,13.29,13.29,0,0,1-1.7-5.1,57.25,57.25,0,0,1,0-15.1,13.26,13.26,0,0,1,1.9-5.1,7.44,7.44,0,0,1,3.5-2.8,13.64,13.64,0,0,1,5.3-.9,13.3,13.3,0,0,1,4.7.7,7.57,7.57,0,0,1,3.1,2,8.72,8.72,0,0,1,1.8,3.1,13.18,13.18,0,0,1,.5,4.1v2h-7.9v-1.8A7.13,7.13,0,0,0,150.1,119.6Z"/><path d="M161.4,121.9a13.26,13.26,0,0,1,1.9-5.1,7.64,7.64,0,0,1,3.5-2.9,13.64,13.64,0,0,1,5.3-.9,14,14,0,0,1,5.3.9,8.19,8.19,0,0,1,3.5,2.9,13.26,13.26,0,0,1,1.9,5.1,47.17,47.17,0,0,1,0,15,13.26,13.26,0,0,1-1.9,5.1,7.44,7.44,0,0,1-3.5,2.8,13.76,13.76,0,0,1-5.3.8,16.42,16.42,0,0,1-5.3-.8,8,8,0,0,1-3.5-2.8,13.26,13.26,0,0,1-1.9-5.1A47.17,47.17,0,0,1,161.4,121.9Zm7.9,12.8a21.14,21.14,0,0,0,.4,3.3,3.83,3.83,0,0,0,.8,1.7,2.5,2.5,0,0,0,3,0,3,3,0,0,0,.8-1.7,21.14,21.14,0,0,0,.4-3.3c0.1-1.4.1-3.1,0.1-5.3s0-3.9-.1-5.3a21.14,21.14,0,0,0-.4-3.3,3.83,3.83,0,0,0-.8-1.7,2.5,2.5,0,0,0-3,0,3,3,0,0,0-.8,1.7,21.14,21.14,0,0,0-.4,3.3c-0.1,1.4-.1,3.1-0.1,5.3S169.3,133.3,169.3,134.7Z"/><path d="M197.6,113.7l3.3,18.6H201l3.3-18.6H216v31.4h-7.7V121.7h-0.1l-4.4,23.4H198l-4.4-23.4h-0.1v23.4h-7.7V113.7h11.8Z"/><path d="M231.5,113.7a9.55,9.55,0,0,1,4,.7,7.38,7.38,0,0,1,4.4,5.1,11.66,11.66,0,0,1,.5,3.8c0,3.3-.9,5.7-2.6,7.3s-4.3,2.4-7.7,2.4h-2.9v12H219V113.6h12.5v0.1Zm-2.6,13.5a3.24,3.24,0,0,0,2.4-.9,4.56,4.56,0,0,0,.8-2.9c0-2.6-1.1-3.8-3.2-3.8h-1.5v7.7h1.5v-0.1Z"/><path d="M251.3,113.7v24.7h10.1v6.7H243.1V113.7h8.2Z"/><path d="M282.1,113.7v6.7H271.7v5.4h9.8v6.4h-9.8v6.2h10.8v6.7h-19V113.7h18.6Z"/><path d="M292.7,113.7l2.6,9.1h0.1l2.6-9.1h9.2l-6.8,15.5,7.3,15.9h-9.2l-3.1-9.5h-0.1l-3.1,9.5h-9l7.3-15.9-6.9-15.5h9.1Z"/><path d="M513.2,119.6a1.94,1.94,0,0,0-1.7-1,2.46,2.46,0,0,0-1.5.5,3,3,0,0,0-.8,1.7,21.14,21.14,0,0,0-.4,3.3c-0.1,1.4-.1,3.1-0.1,5.3s0,3.9.1,5.3a21.14,21.14,0,0,0,.4,3.3,3.83,3.83,0,0,0,.8,1.7,2.46,2.46,0,0,0,1.5.5,1.59,1.59,0,0,0,1.2-.4,2,2,0,0,0,.7-1.3,11.87,11.87,0,0,0,.4-2.4c0.1-1,.1-2.2.1-3.7h7.9v2.3a13.82,13.82,0,0,1-.9,5.4,9.23,9.23,0,0,1-2.3,3.3,8.45,8.45,0,0,1-3.3,1.6,15.81,15.81,0,0,1-3.8.4,17.06,17.06,0,0,1-5.6-.8,6.75,6.75,0,0,1-3.4-2.8,13.29,13.29,0,0,1-1.7-5.1,57.25,57.25,0,0,1,0-15.1,13.26,13.26,0,0,1,1.9-5.1,7.44,7.44,0,0,1,3.5-2.8,13.64,13.64,0,0,1,5.3-.9,13.3,13.3,0,0,1,4.7.7,7.57,7.57,0,0,1,3.1,2,8.72,8.72,0,0,1,1.8,3.1,13.09,13.09,0,0,1,.6,4.1v2h-7.9v-1.8A10.17,10.17,0,0,0,513.2,119.6Z"/><path d="M524.5,121.9a13.26,13.26,0,0,1,1.9-5.1,7.64,7.64,0,0,1,3.5-2.9,13.64,13.64,0,0,1,5.3-.9,14,14,0,0,1,5.3.9,8.19,8.19,0,0,1,3.5,2.9,13.26,13.26,0,0,1,1.9,5.1,47.18,47.18,0,0,1,0,15A13.26,13.26,0,0,1,544,142a7.44,7.44,0,0,1-3.5,2.8,13.76,13.76,0,0,1-5.3.8,16.42,16.42,0,0,1-5.3-.8,8,8,0,0,1-3.5-2.8,13.26,13.26,0,0,1-1.9-5.1A47.18,47.18,0,0,1,524.5,121.9Zm7.9,12.8a21.14,21.14,0,0,0,.4,3.3,3.83,3.83,0,0,0,.8,1.7,2.5,2.5,0,0,0,3,0,3,3,0,0,0,.8-1.7,21.14,21.14,0,0,0,.4-3.3c0.1-1.4.1-3.1,0.1-5.3s0-3.9-.1-5.3a21.14,21.14,0,0,0-.4-3.3,3.83,3.83,0,0,0-.8-1.7,2.5,2.5,0,0,0-3,0,3,3,0,0,0-.8,1.7,21.14,21.14,0,0,0-.4,3.3c-0.1,1.4-.1,3.1-0.1,5.3S532.4,133.3,532.4,134.7Z"/><path d="M560.7,113.7l3.3,18.6h0.1l3.3-18.6h11.7v31.4h-7.7V121.7h-0.1l-4.4,23.4H561l-4.4-23.4h-0.1v23.4H549V113.7h11.7Z"/><path d="M594.6,113.7a9.55,9.55,0,0,1,4,.7,8.36,8.36,0,0,1,2.8,2,10.3,10.3,0,0,1,1.7,3.1,11.65,11.65,0,0,1,.5,3.8c0,3.3-.9,5.7-2.6,7.3s-4.3,2.4-7.7,2.4h-2.9v12h-8.2V113.6h12.4v0.1ZM592,127.2a3.24,3.24,0,0,0,2.4-.9,4.56,4.56,0,0,0,.8-2.9c0-2.6-1.1-3.8-3.2-3.8h-1.5v7.7H592v-0.1Z"/><path d="M614.4,113.7v24.7h10.1v6.7H606.2V113.7h8.2Z"/><path d="M634.5,113.7v31.4h-8.2V113.7h8.2Z"/><path d="M650.1,119.6a1.94,1.94,0,0,0-1.7-1,2.46,2.46,0,0,0-1.5.5,3,3,0,0,0-.8,1.7,21.14,21.14,0,0,0-.4,3.3c-0.1,1.4-.1,3.1-0.1,5.3s0,3.9.1,5.3a21.14,21.14,0,0,0,.4,3.3,3.83,3.83,0,0,0,.8,1.7,2.46,2.46,0,0,0,1.5.5,1.59,1.59,0,0,0,1.2-.4,2,2,0,0,0,.7-1.3,11.87,11.87,0,0,0,.4-2.4c0.1-1,.1-2.2.1-3.7h7.9v2.3a13.82,13.82,0,0,1-.9,5.4,9.23,9.23,0,0,1-2.3,3.3,8.45,8.45,0,0,1-3.3,1.6,15.81,15.81,0,0,1-3.8.4,17.06,17.06,0,0,1-5.6-.8,6.75,6.75,0,0,1-3.4-2.8,13.29,13.29,0,0,1-1.7-5.1,57.25,57.25,0,0,1,0-15.1,13.26,13.26,0,0,1,1.9-5.1,7.44,7.44,0,0,1,3.5-2.8,13.64,13.64,0,0,1,5.3-.9,13.3,13.3,0,0,1,4.7.7,7.57,7.57,0,0,1,3.1,2,8.72,8.72,0,0,1,1.8,3.1,13.09,13.09,0,0,1,.6,4.1v2h-7.9v-1.8A10.17,10.17,0,0,0,650.1,119.6Z"/><path d="M677.1,113.7l7.7,31.4h-8.7l-0.8-5.5h-6.5l-0.8,5.5h-8.6l7.5-31.4h10.2Zm-5.2,6.4-2.2,13.3h4.6l-2.4-13.3h0Z"/><path d="M681.8,120.6v-7h20.4v7H696v24.5h-8.2V120.6h-6Z"/><path d="M722.7,113.7v6.7H712.3v5.4h9.8v6.4h-9.8v6.2h10.8v6.7h-19V113.7h18.6Z"/><path d="M737.9,113.7a9.52,9.52,0,0,1,5.5,1.3,8.53,8.53,0,0,1,3,3.5,13.13,13.13,0,0,1,1.2,5c0.1,1.9.2,3.9,0.2,5.9s-0.1,4-.2,5.9a12.69,12.69,0,0,1-1.2,5,9.22,9.22,0,0,1-3,3.5,9.74,9.74,0,0,1-5.5,1.3H726V113.7h11.9Zm-2,25.5a5,5,0,0,0,1.9-.3,2.33,2.33,0,0,0,1.1-1.4,15.35,15.35,0,0,0,.5-3c0.1-1.3.1-3,.1-5.1s0-3.8-.1-5.1a10.28,10.28,0,0,0-.5-3,2,2,0,0,0-1.1-1.4,5,5,0,0,0-1.9-.3h-1.6v19.6h1.6Z"/><path d="M168.4,369.5a1.94,1.94,0,0,0-1.7-1,2.46,2.46,0,0,0-1.5.5,3,3,0,0,0-.8,1.7,21.14,21.14,0,0,0-.4,3.3c-0.1,1.4-.1,3.1-0.1,5.3s0,3.9.1,5.3a21.14,21.14,0,0,0,.4,3.3,3.83,3.83,0,0,0,.8,1.7,2.46,2.46,0,0,0,1.5.5,1.59,1.59,0,0,0,1.2-.4,2.33,2.33,0,0,0,.7-1.3,11.87,11.87,0,0,0,.4-2.4c0.1-1,.1-2.2.1-3.7H177v2.3a13.83,13.83,0,0,1-.9,5.4,9.23,9.23,0,0,1-2.3,3.3,8.45,8.45,0,0,1-3.3,1.6,16.11,16.11,0,0,1-3.9.4,17.06,17.06,0,0,1-5.6-.8,6.75,6.75,0,0,1-3.4-2.8,13.29,13.29,0,0,1-1.7-5.1,57.25,57.25,0,0,1,0-15.1,13.26,13.26,0,0,1,1.9-5.1,7.44,7.44,0,0,1,3.5-2.8,13.64,13.64,0,0,1,5.3-.9,13.3,13.3,0,0,1,4.7.7,7.57,7.57,0,0,1,3.1,2,8.72,8.72,0,0,1,1.8,3.1,13.18,13.18,0,0,1,.5,4.1v2H169v-1.8A6.65,6.65,0,0,0,168.4,369.5Z"/><path d="M188.2,363.6v11.5h5V363.6h8.2V395h-8.2V382.1h-5V395H180V363.6h8.2Z"/><path d="M220.8,363.6l7.7,31.4h-8.7l-0.8-5.5h-6.5l-0.8,5.5h-8.6l7.5-31.4h10.2Zm-5.2,6.4-2.2,13.3H218L215.6,370h0Z"/><path d="M229.4,371.8a13.26,13.26,0,0,1,1.9-5.1,7.64,7.64,0,0,1,3.5-2.9,13.64,13.64,0,0,1,5.3-.9,14,14,0,0,1,5.3.9,8.19,8.19,0,0,1,3.5,2.9,13.26,13.26,0,0,1,1.9,5.1,47.17,47.17,0,0,1,0,15,13.26,13.26,0,0,1-1.9,5.1,7.44,7.44,0,0,1-3.5,2.8,13.76,13.76,0,0,1-5.3.8,16.42,16.42,0,0,1-5.3-.8,8,8,0,0,1-3.5-2.8,13.26,13.26,0,0,1-1.9-5.1,40.65,40.65,0,0,1-.6-7.5A51.77,51.77,0,0,1,229.4,371.8Zm8,12.7a21.14,21.14,0,0,0,.4,3.3,3.83,3.83,0,0,0,.8,1.7,2.5,2.5,0,0,0,3,0,3,3,0,0,0,.8-1.7,21.14,21.14,0,0,0,.4-3.3c0.1-1.4.1-3.1,0.1-5.3s0-3.9-.1-5.3a21.14,21.14,0,0,0-.4-3.3,3.83,3.83,0,0,0-.8-1.7,2.5,2.5,0,0,0-3,0,3,3,0,0,0-.8,1.7,21.14,21.14,0,0,0-.4,3.3c-0.1,1.4-.1,3.1-0.1,5.3S237.3,383.2,237.4,384.5Z"/><path d="M252.3,370.5v-7h20.4v7h-6.2V395h-8.2V370.5h-6Z"/><path d="M282.4,363.6V395h-8.2V363.6h8.2Z"/><path d="M298,369.5a1.94,1.94,0,0,0-1.7-1,2.46,2.46,0,0,0-1.5.5,3,3,0,0,0-.8,1.7,21.14,21.14,0,0,0-.4,3.3c-0.1,1.4-.1,3.1-0.1,5.3s0,3.9.1,5.3a21.14,21.14,0,0,0,.4,3.3,3.84,3.84,0,0,0,.8,1.7,2.46,2.46,0,0,0,1.5.5,1.59,1.59,0,0,0,1.2-.4,2.33,2.33,0,0,0,.7-1.3,11.87,11.87,0,0,0,.4-2.4c0.1-1,.1-2.2.1-3.7h7.9v2.3a13.82,13.82,0,0,1-.9,5.4,9.23,9.23,0,0,1-2.3,3.3,8.45,8.45,0,0,1-3.3,1.6,16.11,16.11,0,0,1-3.9.4,17.06,17.06,0,0,1-5.6-.8,6.75,6.75,0,0,1-3.4-2.8,13.29,13.29,0,0,1-1.7-5.1,57.25,57.25,0,0,1,0-15.1,13.26,13.26,0,0,1,1.9-5.1,7.44,7.44,0,0,1,3.5-2.8,13.64,13.64,0,0,1,5.3-.9,13.3,13.3,0,0,1,4.7.7,7.57,7.57,0,0,1,3.1,2,8.72,8.72,0,0,1,1.8,3.1,13.18,13.18,0,0,1,.5,4.1v2h-7.9v-1.8A6,6,0,0,0,298,369.5Z"/><path d="M500.8,371.8a13.26,13.26,0,0,1,1.9-5.1,7.64,7.64,0,0,1,3.5-2.9,13.64,13.64,0,0,1,5.3-.9,14,14,0,0,1,5.3.9,8.19,8.19,0,0,1,3.5,2.9,13.26,13.26,0,0,1,1.9,5.1,47.18,47.18,0,0,1,0,15,13.26,13.26,0,0,1-1.9,5.1,7.44,7.44,0,0,1-3.5,2.8,13.76,13.76,0,0,1-5.3.8,16.42,16.42,0,0,1-5.3-.8,8,8,0,0,1-3.5-2.8,13.26,13.26,0,0,1-1.9-5.1,40.65,40.65,0,0,1-.6-7.5A51.76,51.76,0,0,1,500.8,371.8Zm8,12.7a21.14,21.14,0,0,0,.4,3.3,3.84,3.84,0,0,0,.8,1.7,2.5,2.5,0,0,0,3,0,3,3,0,0,0,.8-1.7,21.14,21.14,0,0,0,.4-3.3c0.1-1.4.1-3.1,0.1-5.3s0-3.9-.1-5.3a21.14,21.14,0,0,0-.4-3.3,3.84,3.84,0,0,0-.8-1.7,2.5,2.5,0,0,0-3,0,3,3,0,0,0-.8,1.7,21.14,21.14,0,0,0-.4,3.3c-0.1,1.4-.1,3.1-0.1,5.3S508.7,383.2,508.8,384.5Z"/><path d="M538.3,363.6c2.9,0,5.1.7,6.5,2.1a7.7,7.7,0,0,1,2.1,5.7,9.86,9.86,0,0,1-.3,2.4,6.67,6.67,0,0,1-.9,2.1,5.73,5.73,0,0,1-1.5,1.6,7.26,7.26,0,0,1-2.2.9v0.1a6.63,6.63,0,0,1,2.6.8,7.28,7.28,0,0,1,1.8,1.7,6.25,6.25,0,0,1,1,2.2,9.86,9.86,0,0,1,.3,2.4,14.39,14.39,0,0,1-.5,3.7,7.67,7.67,0,0,1-1.7,2.9,7.33,7.33,0,0,1-2.9,1.9,11.61,11.61,0,0,1-4.4.7H525.8V363.4h12.5v0.2Zm-2.2,12.3a2.08,2.08,0,0,0,1.9-.9,4.1,4.1,0,0,0,.7-2.2,3.69,3.69,0,0,0-.7-2.3,2.17,2.17,0,0,0-1.9-1h-2v6.4h2Zm0.3,13.2a2.66,2.66,0,0,0,2-.9,4,4,0,0,0,.9-2.9,3.93,3.93,0,0,0-.9-2.8,3,3,0,0,0-2-1h-2.3v7.7h2.3v-0.1Z"/><path d="M557.1,363.6l3.3,23.7h0.1l3.3-23.7h8.7L565.7,395H555.1l-6.6-31.4h8.6Z"/><path d="M581.7,363.6V395h-8.2V363.6h8.2Z"/><path d="M584.9,371.8a13.26,13.26,0,0,1,1.9-5.1,7.64,7.64,0,0,1,3.5-2.9,13.64,13.64,0,0,1,5.3-.9,14,14,0,0,1,5.3.9,8.19,8.19,0,0,1,3.5,2.9,13.26,13.26,0,0,1,1.9,5.1,47.18,47.18,0,0,1,0,15,13.26,13.26,0,0,1-1.9,5.1,7.44,7.44,0,0,1-3.5,2.8,13.76,13.76,0,0,1-5.3.8,16.42,16.42,0,0,1-5.3-.8,8,8,0,0,1-3.5-2.8,13.26,13.26,0,0,1-1.9-5.1A47.18,47.18,0,0,1,584.9,371.8Zm7.9,12.7a21.14,21.14,0,0,0,.4,3.3,3.84,3.84,0,0,0,.8,1.7,2.5,2.5,0,0,0,3,0,3,3,0,0,0,.8-1.7,21.14,21.14,0,0,0,.4-3.3c0.1-1.4.1-3.1,0.1-5.3s0-3.9-.1-5.3a21.14,21.14,0,0,0-.4-3.3,3.84,3.84,0,0,0-.8-1.7,2.5,2.5,0,0,0-3,0,3,3,0,0,0-.8,1.7,21.14,21.14,0,0,0-.4,3.3c-0.1,1.4-.1,3.1-0.1,5.3S592.8,383.2,592.8,384.5Z"/><path d="M617.5,386.2a4.88,4.88,0,0,0,.7,3.1,2.42,2.42,0,0,0,3.6,0,5.17,5.17,0,0,0,.7-3.1V363.5h8.2v20.6a17.52,17.52,0,0,1-.7,5.5,9.76,9.76,0,0,1-2,3.5,6.69,6.69,0,0,1-3.3,1.8,20.21,20.21,0,0,1-4.6.5,21.61,21.61,0,0,1-4.6-.5,6.69,6.69,0,0,1-3.3-1.8,8.06,8.06,0,0,1-2-3.5,17.52,17.52,0,0,1-.7-5.5V363.5h8.2v22.7h-0.2Z"/><path d="M646.4,371.9a4.75,4.75,0,0,0-.6-2.4,1.9,1.9,0,0,0-1.8-1,2.08,2.08,0,0,0-1.9.9,3.29,3.29,0,0,0-.6,1.9,3,3,0,0,0,1,2.4,12,12,0,0,0,2.5,1.6c1,0.4,2.1.9,3.2,1.3a14.53,14.53,0,0,1,3.2,1.8,8.67,8.67,0,0,1,3.5,7.5c0,3.3-1,5.8-2.9,7.3s-4.7,2.3-8.3,2.3a20.34,20.34,0,0,1-4.5-.4,8.35,8.35,0,0,1-3.3-1.5,6,6,0,0,1-2-2.7,10,10,0,0,1-.7-4.1v-1.1h7.9v0.7a4.11,4.11,0,0,0,.7,2.8,2.56,2.56,0,0,0,1.9.8,2.38,2.38,0,0,0,2-.9,3.72,3.72,0,0,0-.2-4.6,7,7,0,0,0-2.4-1.5c-1-.4-2-0.9-3.1-1.3a13.45,13.45,0,0,1-3.1-1.7,8.29,8.29,0,0,1-2.4-2.8,9.45,9.45,0,0,1-.9-4.5c0-3.2.9-5.6,2.6-7.3s4.3-2.5,7.7-2.5c3.6,0,6.2.8,7.8,2.3s2.4,4,2.4,7.4h-7.7v-0.7h0Z"/><path d="M161.8,154.5a2.77,2.77,0,0,1,1.3.3,1.85,1.85,0,0,1,.8.7,3.13,3.13,0,0,1,.5,1,4.1,4.1,0,0,1,.1,1.1,4.44,4.44,0,0,1-.2,1.3,3.49,3.49,0,0,1-.6.9,3.13,3.13,0,0,1-1,.5,5.07,5.07,0,0,1-1.3.2h-1.1v4h-2v-10h3.5Zm-0.6,4.5a1.28,1.28,0,0,0,1-.4,1.91,1.91,0,0,0,.1-2.2,1.25,1.25,0,0,0-1.1-.4h-0.8v3h0.8Z"/><path d="M169.3,154.5a3.17,3.17,0,0,1,2,.6,2.35,2.35,0,0,1,.7,1.9,2.54,2.54,0,0,1-.4,1.6,2,2,0,0,1-1.3.8h0a1.63,1.63,0,0,1,1.1.5,2.14,2.14,0,0,1,.4,1.2v1.3a4.12,4.12,0,0,0,.1,1.2,0.92,0.92,0,0,0,.4.6v0.1h-2.2a0.76,0.76,0,0,1-.2-0.5,1.27,1.27,0,0,0-.1-0.6l-0.1-1.9a1.06,1.06,0,0,0-1.2-1.2h-1.1v4.2h-2v-10h3.9v0.2Zm-0.9,4.4a1.61,1.61,0,0,0,1.1-.3,1.34,1.34,0,0,0,.4-1.2,1.27,1.27,0,0,0-1.4-1.4h-1v2.9h0.9Z"/><path d="M173.3,157.4a3.77,3.77,0,0,1,.5-1.6,2.66,2.66,0,0,1,1-1.1,4.25,4.25,0,0,1,3.6,0,2.66,2.66,0,0,1,1,1.1,7.49,7.49,0,0,1,.5,1.6,22.1,22.1,0,0,1,0,4.2,3.77,3.77,0,0,1-.5,1.6,2,2,0,0,1-1,1,4.36,4.36,0,0,1-1.8.4,3.21,3.21,0,0,1-1.8-.4,2.41,2.41,0,0,1-1-1,7.49,7.49,0,0,1-.5-1.6,13.42,13.42,0,0,1-.1-2.1A7,7,0,0,1,173.3,157.4Zm1.9,3.8a2.68,2.68,0,0,0,.2,1.1,0.92,0.92,0,0,0,.4.6,1.33,1.33,0,0,0,1.4,0,0.92,0.92,0,0,0,.4-0.6,3.59,3.59,0,0,0,.2-1.1v-3.4a3.09,3.09,0,0,0-.2-1.1,1.61,1.61,0,0,0-.4-0.7,1.33,1.33,0,0,0-1.4,0,1.18,1.18,0,0,0-.4.7,3.6,3.6,0,0,0-.2,1.1v3.4Z"/><path d="M184.5,154.5a3.75,3.75,0,0,1,1.1.1,1.88,1.88,0,0,1,.9.4,2.41,2.41,0,0,1,.6.8,2.17,2.17,0,0,1,.2,1.2,2.3,2.3,0,0,1-.4,1.4,1.78,1.78,0,0,1-1.1.8h0a1.86,1.86,0,0,1,1.3.7,2.54,2.54,0,0,1,.5,1.6,3.6,3.6,0,0,1-.2,1.1,1.93,1.93,0,0,1-.5.9,1.7,1.7,0,0,1-1,.6,3.42,3.42,0,0,1-1.5.2H181v-10h3.5v0.2Zm-0.8,4.1a1.74,1.74,0,0,0,1.2-.3,1.45,1.45,0,0,0,0-2,1.61,1.61,0,0,0-1.1-.3h-0.7v2.6h0.6Zm0.2,4.4a2.13,2.13,0,0,0,1.2-.3,1.34,1.34,0,0,0,.4-1.2,1.48,1.48,0,0,0-.1-0.7c-0.1-.2-0.2-0.3-0.3-0.5a0.76,0.76,0,0,0-.5-0.2c-0.2,0-.4-0.1-0.6-0.1h-0.9v3h0.8Z"/><path d="M194.5,156.2h-3.6v2.4h3.4v1.7h-3.4V163h3.7v1.7h-5.7v-10h5.6v1.5Z"/><path d="M202.9,161.3H199v-1.7h3.9v1.7Z"/><path d="M209.2,161.7a1.27,1.27,0,0,0,.1.6,2.57,2.57,0,0,0,.2.5,1.38,1.38,0,0,0,.4.3,1.48,1.48,0,0,0,.7.1,1.14,1.14,0,0,0,.8-0.3,1.39,1.39,0,0,0,.3-1.5,1.38,1.38,0,0,0-.3-0.4,5.92,5.92,0,0,0-.6-0.4,6.89,6.89,0,0,0-.8-0.3,6.12,6.12,0,0,1-1.2-.5,2.76,2.76,0,0,1-.8-0.6,2.18,2.18,0,0,1-.5-0.8,3.59,3.59,0,0,1-.2-1.1,3,3,0,0,1,.8-2.2,3.17,3.17,0,0,1,2.3-.7,4.48,4.48,0,0,1,1.2.1,3.13,3.13,0,0,1,1,.5,1.56,1.56,0,0,1,.6.8,2.17,2.17,0,0,1,.2,1.2v0.3h-1.9a1.8,1.8,0,0,0-.3-1.1,0.81,0.81,0,0,0-.8-0.4,1.27,1.27,0,0,0-.6.1c-0.1.1-.3,0.2-0.4,0.3a1.47,1.47,0,0,0-.2.4V157a1.88,1.88,0,0,0,.2.8,1.83,1.83,0,0,0,.8.6l1.6,0.7a3.6,3.6,0,0,1,.9.5l0.6,0.6a4.87,4.87,0,0,1,.3.7,2.2,2.2,0,0,1,.1.8,2.74,2.74,0,0,1-.9,2.3,4,4,0,0,1-2.6.7,3.14,3.14,0,0,1-2.4-.7,2.82,2.82,0,0,1-.7-2.1v-0.4h2v0.2h0.1Z"/><path d="M220.4,156.2h-3.6v2.4h3.4v1.7h-3.4V163h3.7v1.7h-5.7v-10h5.6v1.5Z"/><path d="M226.3,161.3h0v-6.8h1.8v10h-2.3l-2.5-7h0v7h-1.8v-10h2.3Z"/><path d="M231.2,161.7a1.27,1.27,0,0,0,.1.6,2.57,2.57,0,0,0,.2.5,1.38,1.38,0,0,0,.4.3,1.48,1.48,0,0,0,.7.1,1.14,1.14,0,0,0,.8-0.3,1.39,1.39,0,0,0,.3-1.5,1.38,1.38,0,0,0-.3-0.4,5.92,5.92,0,0,0-.6-0.4,6.89,6.89,0,0,0-.8-0.3,6.12,6.12,0,0,1-1.2-.5,2.76,2.76,0,0,1-.8-0.6,2.18,2.18,0,0,1-.5-0.8,3.59,3.59,0,0,1-.2-1.1,3,3,0,0,1,.8-2.2,3.17,3.17,0,0,1,2.3-.7,4.48,4.48,0,0,1,1.2.1,3.13,3.13,0,0,1,1,.5,1.56,1.56,0,0,1,.6.8,2.17,2.17,0,0,1,.2,1.2v0.3h-1.9a1.8,1.8,0,0,0-.3-1.1,0.81,0.81,0,0,0-.8-0.4,1.27,1.27,0,0,0-.6.1c-0.1.1-.3,0.2-0.4,0.3a1.47,1.47,0,0,0-.2.4V157a1.88,1.88,0,0,0,.2.8,1.83,1.83,0,0,0,.8.6l1.6,0.7a3.6,3.6,0,0,1,.9.5l0.6,0.6a4.87,4.87,0,0,1,.3.7,2.2,2.2,0,0,1,.1.8,2.74,2.74,0,0,1-.9,2.3,4,4,0,0,1-2.6.7,3.14,3.14,0,0,1-2.4-.7,2.82,2.82,0,0,1-.7-2.1v-0.4h2v0.2h0.1Z"/><path d="M242.4,156.2h-3.6v2.4h3.4v1.7h-3.4V163h3.7v1.7h-5.7v-10h5.6v1.5Z"/><path d="M250.8,161.3h-3.9v-1.7h3.9v1.7Z"/><path d="M259.2,154.5a3.17,3.17,0,0,1,2,.6,2.35,2.35,0,0,1,.7,1.9,2.54,2.54,0,0,1-.4,1.6,2,2,0,0,1-1.3.8h0a1.63,1.63,0,0,1,1.1.5,2.14,2.14,0,0,1,.4,1.2v1.3a4.12,4.12,0,0,0,.1,1.2,0.92,0.92,0,0,0,.4.6v0.1H260a0.76,0.76,0,0,1-.2-0.5,1.27,1.27,0,0,0-.1-0.6l-0.1-1.9a1.06,1.06,0,0,0-1.2-1.2h-1.1v4.2h-2v-10h3.9v0.2Zm-0.8,4.4a1.61,1.61,0,0,0,1.1-.3,1.34,1.34,0,0,0,.4-1.2,1.27,1.27,0,0,0-1.4-1.4h-1v2.9h0.9Z"/><path d="M268.9,156.2h-3.6v2.4h3.4v1.7h-3.4V163H269v1.7h-5.7v-10h5.6v1.5Z"/><path d="M271.6,161.7a1.27,1.27,0,0,0,.1.6,2.57,2.57,0,0,0,.2.5,1.38,1.38,0,0,0,.4.3,1.48,1.48,0,0,0,.7.1,1.14,1.14,0,0,0,.8-0.3,1.39,1.39,0,0,0,.3-1.5,1.38,1.38,0,0,0-.3-0.4,5.92,5.92,0,0,0-.6-0.4,6.89,6.89,0,0,0-.8-0.3,6.12,6.12,0,0,1-1.2-.5,2.76,2.76,0,0,1-.8-0.6,2.18,2.18,0,0,1-.5-0.8,3.59,3.59,0,0,1-.2-1.1,3,3,0,0,1,.8-2.2,3.17,3.17,0,0,1,2.3-.7,4.48,4.48,0,0,1,1.2.1,3.13,3.13,0,0,1,1,.5,1.56,1.56,0,0,1,.6.8,2.17,2.17,0,0,1,.2,1.2v0.3H274a1.8,1.8,0,0,0-.3-1.1,0.81,0.81,0,0,0-.8-0.4,1.27,1.27,0,0,0-.6.1c-0.1.1-.3,0.2-0.4,0.3a1.47,1.47,0,0,0-.2.4V157a1.88,1.88,0,0,0,.2.8,1.83,1.83,0,0,0,.8.6l1.6,0.7a3.6,3.6,0,0,1,.9.5l0.6,0.6a4.87,4.87,0,0,1,.3.7,2.2,2.2,0,0,1,.1.8,2.74,2.74,0,0,1-.9,2.3,4,4,0,0,1-2.6.7,3.14,3.14,0,0,1-2.4-.7,2.82,2.82,0,0,1-.7-2.1v-0.4h2v0.2Z"/><path d="M280.8,154.5a2.77,2.77,0,0,1,1.3.3,1.85,1.85,0,0,1,.8.7,3.13,3.13,0,0,1,.5,1,4.1,4.1,0,0,1,.1,1.1,4.44,4.44,0,0,1-.2,1.3,3.49,3.49,0,0,1-.6.9,3.13,3.13,0,0,1-1,.5,5.07,5.07,0,0,1-1.3.2h-1.1v4h-2v-10h3.5Zm-0.6,4.5a1.28,1.28,0,0,0,1-.4,1.91,1.91,0,0,0,.1-2.2,1.25,1.25,0,0,0-1.1-.4h-0.8v3h0.8Z"/><path d="M284.4,157.4a3.77,3.77,0,0,1,.5-1.6,2.66,2.66,0,0,1,1-1.1,4.25,4.25,0,0,1,3.6,0,2.66,2.66,0,0,1,1,1.1,7.49,7.49,0,0,1,.5,1.6,22.1,22.1,0,0,1,0,4.2,3.77,3.77,0,0,1-.5,1.6,2,2,0,0,1-1,1,4.36,4.36,0,0,1-1.8.4,3.21,3.21,0,0,1-1.8-.4,2.41,2.41,0,0,1-1-1,7.49,7.49,0,0,1-.5-1.6,13.42,13.42,0,0,1-.1-2.1C284.3,158.7,284.4,158,284.4,157.4Zm2,3.8a2.68,2.68,0,0,0,.2,1.1,0.92,0.92,0,0,0,.4.6,1.33,1.33,0,0,0,1.4,0,0.92,0.92,0,0,0,.4-0.6,3.59,3.59,0,0,0,.2-1.1v-3.4a3.09,3.09,0,0,0-.2-1.1,1.61,1.61,0,0,0-.4-0.7,1.33,1.33,0,0,0-1.4,0,1.18,1.18,0,0,0-.4.7,3.59,3.59,0,0,0-.2,1.1v3.4Z"/><path d="M297.1,161.3h0v-6.8h1.8v10h-2.3l-2.5-7h0v7h-1.8v-10h2.3Z"/><path d="M303.8,154.5a4,4,0,0,1,1.7.3,2.41,2.41,0,0,1,1,1,5.27,5.27,0,0,1,.5,1.5,12.75,12.75,0,0,1,.1,2,15.15,15.15,0,0,1-.2,2.3,3.82,3.82,0,0,1-.6,1.6,2.84,2.84,0,0,1-1,.9,4,4,0,0,1-1.7.3h-3.2v-10h3.4v0.1Zm-0.4,8.5a2.39,2.39,0,0,0,.9-0.2,1,1,0,0,0,.5-0.6,8.11,8.11,0,0,0,.3-1.1c0-.5.1-1,0.1-1.7a6.62,6.62,0,0,0-.1-1.5,3.59,3.59,0,0,0-.2-1.1,1,1,0,0,0-.5-0.6,2,2,0,0,0-.9-0.2h-0.9v7h0.8Z"/><path d="M501.6,161.7a1.27,1.27,0,0,0,.1.6,2.57,2.57,0,0,0,.2.5,1.38,1.38,0,0,0,.4.3,1.48,1.48,0,0,0,.7.1,1.14,1.14,0,0,0,.8-0.3,1.39,1.39,0,0,0,.3-1.5,1.38,1.38,0,0,0-.3-0.4,5.92,5.92,0,0,0-.6-0.4,6.89,6.89,0,0,0-.8-0.3,6.12,6.12,0,0,1-1.2-.5,5.55,5.55,0,0,1-.8-0.6,2.18,2.18,0,0,1-.5-0.8,3.59,3.59,0,0,1-.2-1.1,3,3,0,0,1,.8-2.2,3.17,3.17,0,0,1,2.3-.7,4.48,4.48,0,0,1,1.2.1,3.13,3.13,0,0,1,1,.5,1.56,1.56,0,0,1,.6.8,2.17,2.17,0,0,1,.2,1.2v0.3h-1.9a1.8,1.8,0,0,0-.3-1.1,0.81,0.81,0,0,0-.8-0.4,1.27,1.27,0,0,0-.6.1,1.38,1.38,0,0,0-.4.3,1.47,1.47,0,0,0-.2.4V157a1.88,1.88,0,0,0,.2.8,1.83,1.83,0,0,0,.8.6l1.6,0.7a3.6,3.6,0,0,1,.9.5l0.6,0.6a4.87,4.87,0,0,1,.3.7,2.2,2.2,0,0,1,.1.8,2.74,2.74,0,0,1-.9,2.3,4,4,0,0,1-2.6.7,3.14,3.14,0,0,1-2.4-.7,3.3,3.3,0,0,1-.7-2.1v-0.4h2v0.2h0.1Z"/><path d="M512.8,156.2h-3.6v2.4h3.4v1.7h-3.4V163h3.7v1.7h-5.7v-10h5.6v1.5h0Z"/><path d="M518.7,161.3h0v-6.8h1.8v10h-2.3l-2.5-7h0v7h-1.8v-10h2.3Z"/><path d="M523.6,161.7a1.27,1.27,0,0,0,.1.6,2.56,2.56,0,0,0,.2.5,1.38,1.38,0,0,0,.4.3,1.48,1.48,0,0,0,.7.1,1.14,1.14,0,0,0,.8-0.3,1.39,1.39,0,0,0,.3-1.5,1.38,1.38,0,0,0-.3-0.4,5.92,5.92,0,0,0-.6-0.4,2.61,2.61,0,0,0-.8-0.3,6.12,6.12,0,0,1-1.2-.5,5.55,5.55,0,0,1-.8-0.6,2.18,2.18,0,0,1-.5-0.8,3.6,3.6,0,0,1-.2-1.1,3,3,0,0,1,.8-2.2,3.17,3.17,0,0,1,2.3-.7,4.48,4.48,0,0,1,1.2.1,4.67,4.67,0,0,1,1,.5,1.55,1.55,0,0,1,.6.8,3.73,3.73,0,0,1,.2,1.2v0.3H526a1.8,1.8,0,0,0-.3-1.1,0.81,0.81,0,0,0-.8-0.4,1.27,1.27,0,0,0-.6.1c-0.1.1-.3,0.2-0.4,0.3a1.47,1.47,0,0,0-.2.4V157a1.88,1.88,0,0,0,.2.8,1.83,1.83,0,0,0,.8.6l1.6,0.7a3.6,3.6,0,0,1,.9.5l0.6,0.6a1.49,1.49,0,0,1,.3.7,2.2,2.2,0,0,1,.1.8,2.74,2.74,0,0,1-.9,2.3,4,4,0,0,1-2.6.7,3.14,3.14,0,0,1-2.4-.7,2.82,2.82,0,0,1-.7-2.1v-0.4h2v0.2h0Z"/><path d="M534.8,156.2h-3.6v2.4h3.4v1.7h-3.4V163h3.7v1.7h-5.7v-10h5.6v1.5Z"/><path d="M543.2,161.3h-3.9v-1.7h3.9v1.7Z"/><path d="M551.8,154.5l2.6,10h-2.1l-0.5-2.1h-2.7l-0.5,2.1h-2.1l2.6-10h2.7Zm-0.3,6.2-1-4.5h0l-1,4.5h2Z"/><path d="M559.9,161.3h0v-6.8h1.8v10h-2.3l-2.5-7h0v7h-1.8v-10h2.3Z"/><path d="M567.6,154.5l2.6,10h-2.1l-0.5-2.1H565l-0.5,2.1h-2.1l2.6-10h2.6Zm-0.2,6.2-1-4.5h0l-1,4.5h2Z"/><path d="M571,154.5h2v8.3h3.6v1.7H571v-10Z"/><path d="M579.1,158.4h0l1.4-3.9h2.2l-2.6,6.1v3.9h-2v-3.9l-2.6-6.1h2.3Z"/><path d="M585.1,161.7a1.27,1.27,0,0,0,.1.6,2.56,2.56,0,0,0,.2.5,1.38,1.38,0,0,0,.4.3,1.48,1.48,0,0,0,.7.1,1.14,1.14,0,0,0,.8-0.3,1.39,1.39,0,0,0,.3-1.5,1.38,1.38,0,0,0-.3-0.4,5.92,5.92,0,0,0-.6-0.4,6.89,6.89,0,0,0-.8-0.3,6.12,6.12,0,0,1-1.2-.5,5.55,5.55,0,0,1-.8-0.6,2.18,2.18,0,0,1-.5-0.8,3.6,3.6,0,0,1-.2-1.1,3,3,0,0,1,.8-2.2,3.17,3.17,0,0,1,2.3-.7,4.48,4.48,0,0,1,1.2.1,3.13,3.13,0,0,1,1,.5,1.55,1.55,0,0,1,.6.8,2.17,2.17,0,0,1,.2,1.2v0.3h-1.9a1.8,1.8,0,0,0-.3-1.1,0.81,0.81,0,0,0-.8-0.4,1.27,1.27,0,0,0-.6.1,1.38,1.38,0,0,0-.4.3,1.47,1.47,0,0,0-.2.4V157a1.88,1.88,0,0,0,.2.8,1.83,1.83,0,0,0,.8.6l1.6,0.7a3.6,3.6,0,0,1,.9.5l0.6,0.6a4.87,4.87,0,0,1,.3.7,2.2,2.2,0,0,1,.1.8,2.74,2.74,0,0,1-.9,2.3,4,4,0,0,1-2.6.7,3.14,3.14,0,0,1-2.4-.7,3.3,3.3,0,0,1-.7-2.1v-0.4h2v0.2h0.1Z"/><path d="M596.3,156.2h-3.6v2.4h3.4v1.7h-3.4V163h3.7v1.7h-5.7v-10h5.6v1.5Z"/><path d="M604.7,161.3h-3.9v-1.7h3.9v1.7Z"/><path d="M613.1,154.5a3.17,3.17,0,0,1,2,.6,2.35,2.35,0,0,1,.7,1.9,2.54,2.54,0,0,1-.4,1.6,2,2,0,0,1-1.3.8h0a1.63,1.63,0,0,1,1.1.5,2.14,2.14,0,0,1,.4,1.2v1.3a4.12,4.12,0,0,0,.1,1.2,0.92,0.92,0,0,0,.4.6v0.1h-2.2a0.76,0.76,0,0,1-.2-0.5,1.27,1.27,0,0,0-.1-0.6l-0.1-1.9a1.06,1.06,0,0,0-1.2-1.2h-1.1v4.2h-2v-10h3.9v0.2Zm-0.9,4.4a1.61,1.61,0,0,0,1.1-.3,1.34,1.34,0,0,0,.4-1.2,1.27,1.27,0,0,0-1.4-1.4h-1v2.9h0.9Z"/><path d="M622.7,156.2h-3.6v2.4h3.4v1.7h-3.4V163h3.7v1.7h-5.7v-10h5.6v1.5Z"/><path d="M625.5,161.7a1.27,1.27,0,0,0,.1.6,2.56,2.56,0,0,0,.2.5,1.38,1.38,0,0,0,.4.3,1.48,1.48,0,0,0,.7.1,1.14,1.14,0,0,0,.8-0.3,1.39,1.39,0,0,0,.3-1.5,1.38,1.38,0,0,0-.3-0.4,5.92,5.92,0,0,0-.6-0.4,6.89,6.89,0,0,0-.8-0.3,6.12,6.12,0,0,1-1.2-.5,5.55,5.55,0,0,1-.8-0.6,2.18,2.18,0,0,1-.5-0.8,3.6,3.6,0,0,1-.2-1.1,3,3,0,0,1,.8-2.2,3.17,3.17,0,0,1,2.3-.7,4.48,4.48,0,0,1,1.2.1,3.13,3.13,0,0,1,1,.5,1.55,1.55,0,0,1,.6.8,2.17,2.17,0,0,1,.2,1.2v0.3h-1.9a1.8,1.8,0,0,0-.3-1.1,0.81,0.81,0,0,0-.8-0.4,1.27,1.27,0,0,0-.6.1,1.38,1.38,0,0,0-.4.3,1.47,1.47,0,0,0-.2.4V157a1.88,1.88,0,0,0,.2.8,1.83,1.83,0,0,0,.8.6l1.6,0.7a3.6,3.6,0,0,1,.9.5l0.6,0.6a4.87,4.87,0,0,1,.3.7,2.2,2.2,0,0,1,.1.8,2.74,2.74,0,0,1-.9,2.3,4,4,0,0,1-2.6.7,3.14,3.14,0,0,1-2.4-.7,3.3,3.3,0,0,1-.7-2.1v-0.4h2v0.2h0.1Z"/><path d="M634.7,154.5a2.77,2.77,0,0,1,1.3.3,2.7,2.7,0,0,1,.8.7,3.13,3.13,0,0,1,.5,1,4.1,4.1,0,0,1,.1,1.1,4.44,4.44,0,0,1-.2,1.3,2.84,2.84,0,0,1-.6.9,3.13,3.13,0,0,1-1,.5,5.07,5.07,0,0,1-1.3.2h-1.1v4h-2v-10h3.5ZM634,159a1.28,1.28,0,0,0,1-.4,1.37,1.37,0,0,0,.4-1.1,1.61,1.61,0,0,0-.3-1.1,1.25,1.25,0,0,0-1.1-.4h-0.8v3H634Z"/><path d="M638.3,157.4a3.77,3.77,0,0,1,.5-1.6,2.66,2.66,0,0,1,1-1.1,4.25,4.25,0,0,1,3.6,0,2.66,2.66,0,0,1,1,1.1,7.49,7.49,0,0,1,.5,1.6,22.11,22.11,0,0,1,0,4.2,3.77,3.77,0,0,1-.5,1.6,2,2,0,0,1-1,1,4.36,4.36,0,0,1-1.8.4,2.92,2.92,0,0,1-2.8-1.4,7.49,7.49,0,0,1-.5-1.6A22.11,22.11,0,0,1,638.3,157.4Zm1.9,3.8a2.68,2.68,0,0,0,.2,1.1,0.92,0.92,0,0,0,.4.6,1.33,1.33,0,0,0,1.4,0,0.92,0.92,0,0,0,.4-0.6,3.6,3.6,0,0,0,.2-1.1v-3.4a3.09,3.09,0,0,0-.2-1.1,1.61,1.61,0,0,0-.4-0.7,1.33,1.33,0,0,0-1.4,0,1.18,1.18,0,0,0-.4.7,3.6,3.6,0,0,0-.2,1.1v3.4Z"/><path d="M650.9,161.3h0v-6.8h1.8v10h-2.3l-2.5-7h0v7h-1.8v-10h2.3Z"/><path d="M657.6,154.5a4,4,0,0,1,1.7.3,2.41,2.41,0,0,1,1,1,5.27,5.27,0,0,1,.5,1.5,12.75,12.75,0,0,1,.1,2,15.15,15.15,0,0,1-.2,2.3,3.82,3.82,0,0,1-.6,1.6,2.84,2.84,0,0,1-1,.9,4,4,0,0,1-1.7.3h-3.2v-10h3.4v0.1Zm-0.4,8.5a2.39,2.39,0,0,0,.9-0.2,1,1,0,0,0,.5-0.6,8.11,8.11,0,0,0,.3-1.1c0-.5.1-1,0.1-1.7a6.62,6.62,0,0,0-.1-1.5,3.59,3.59,0,0,0-.2-1.1,1,1,0,0,0-.5-0.6,2,2,0,0,0-.9-0.2h-0.9v7h0.8Z"/><path d="M178.1,404.5l2.6,10h-2.1l-0.5-2.1h-2.7l-0.5,2.1h-2.1l2.6-10h2.7Zm-0.3,6.2-1-4.5h0l-1,4.5h2Z"/><path d="M185.4,406.3a1.05,1.05,0,0,0-.9-0.5,0.85,0.85,0,0,0-.6.2,1.18,1.18,0,0,0-.4.7,3.73,3.73,0,0,0-.2,1.2c0,0.5-.1,1.1-0.1,1.8a8.66,8.66,0,0,0,.1,1.8c0.1,0.4.1,0.8,0.2,1.1a0.7,0.7,0,0,0,.4.5,1.27,1.27,0,0,0,.6.1,0.9,0.9,0,0,0,.5-0.1,0.78,0.78,0,0,0,.4-0.4,3.39,3.39,0,0,0,.3-0.8,4.89,4.89,0,0,0,.1-1.3h2a7.08,7.08,0,0,1-.1,1.5,3.49,3.49,0,0,1-.5,1.3,2.93,2.93,0,0,1-1,.9,3.81,3.81,0,0,1-1.6.3,3,3,0,0,1-1.8-.4,2.41,2.41,0,0,1-1-1,7.49,7.49,0,0,1-.5-1.6,22.1,22.1,0,0,1,0-4.2,3.77,3.77,0,0,1,.5-1.6,2.66,2.66,0,0,1,1-1.1,3.21,3.21,0,0,1,1.8-.4,2.86,2.86,0,0,1,1.7.4,2,2,0,0,1,.9.9,4.23,4.23,0,0,1,.4,1.2,4.87,4.87,0,0,1,.1,1.2h-2A3.17,3.17,0,0,0,185.4,406.3Z"/><path d="M194.8,406.2h-2.2v8.3h-2v-8.3h-2.2v-1.7h6.4v1.7Z"/><path d="M202.9,411.3H199v-1.7h3.9v1.7Z"/><path d="M209.2,411.7a1.27,1.27,0,0,0,.1.6,2.57,2.57,0,0,0,.2.5,1.38,1.38,0,0,0,.4.3,1.48,1.48,0,0,0,.7.1,1.14,1.14,0,0,0,.8-0.3,1.39,1.39,0,0,0,.3-1.5,1.38,1.38,0,0,0-.3-0.4,5.92,5.92,0,0,0-.6-0.4,6.88,6.88,0,0,0-.8-0.3,6.12,6.12,0,0,1-1.2-.5,5.55,5.55,0,0,1-.8-0.6,2.18,2.18,0,0,1-.5-0.8,3.59,3.59,0,0,1-.2-1.1,3,3,0,0,1,.8-2.2,3.17,3.17,0,0,1,2.3-.7,4.48,4.48,0,0,1,1.2.1,3.13,3.13,0,0,1,1,.5,1.56,1.56,0,0,1,.6.8,2.17,2.17,0,0,1,.2,1.2v0.3h-1.9a1.8,1.8,0,0,0-.3-1.1,0.81,0.81,0,0,0-.8-0.4,1.27,1.27,0,0,0-.6.1c-0.1.1-.3,0.2-0.4,0.3a1.47,1.47,0,0,0-.2.4V407a1.88,1.88,0,0,0,.2.8,1.83,1.83,0,0,0,.8.6l1.6,0.7a3.6,3.6,0,0,1,.9.5l0.6,0.6a4.88,4.88,0,0,1,.3.7,2.2,2.2,0,0,1,.1.8,2.74,2.74,0,0,1-.9,2.3,4,4,0,0,1-2.6.7,3.14,3.14,0,0,1-2.4-.7,2.82,2.82,0,0,1-.7-2.1v-0.4h2v0.2h0.1Z"/><path d="M220.4,406.2h-3.6v2.4h3.4v1.7h-3.4V413h3.7v1.7h-5.7v-10h5.6v1.5Z"/><path d="M226.3,411.3h0v-6.8h1.8v10h-2.3l-2.5-7h0v7h-1.8v-10h2.3Z"/><path d="M231.2,411.7a1.27,1.27,0,0,0,.1.6,2.57,2.57,0,0,0,.2.5,1.38,1.38,0,0,0,.4.3,1.48,1.48,0,0,0,.7.1,1.14,1.14,0,0,0,.8-0.3,1.39,1.39,0,0,0,.3-1.5,1.38,1.38,0,0,0-.3-0.4,5.92,5.92,0,0,0-.6-0.4,6.88,6.88,0,0,0-.8-0.3,6.12,6.12,0,0,1-1.2-.5,5.55,5.55,0,0,1-.8-0.6,2.18,2.18,0,0,1-.5-0.8,3.59,3.59,0,0,1-.2-1.1,3,3,0,0,1,.8-2.2,3.17,3.17,0,0,1,2.3-.7,4.48,4.48,0,0,1,1.2.1,3.13,3.13,0,0,1,1,.5,1.56,1.56,0,0,1,.6.8,2.17,2.17,0,0,1,.2,1.2v0.3h-1.9a1.8,1.8,0,0,0-.3-1.1,0.81,0.81,0,0,0-.8-0.4,1.27,1.27,0,0,0-.6.1c-0.1.1-.3,0.2-0.4,0.3a1.47,1.47,0,0,0-.2.4V407a1.88,1.88,0,0,0,.2.8,1.83,1.83,0,0,0,.8.6l1.6,0.7a3.6,3.6,0,0,1,.9.5l0.6,0.6a4.88,4.88,0,0,1,.3.7,2.2,2.2,0,0,1,.1.8,2.74,2.74,0,0,1-.9,2.3,4,4,0,0,1-2.6.7,3.14,3.14,0,0,1-2.4-.7,2.82,2.82,0,0,1-.7-2.1v-0.4h2v0.2h0.1Z"/><path d="M242.4,406.2h-3.6v2.4h3.4v1.7h-3.4V413h3.7v1.7h-5.7v-10h5.6v1.5Z"/><path d="M250.8,411.3h-3.9v-1.7h3.9v1.7Z"/><path d="M259.2,404.5a3.17,3.17,0,0,1,2,.6,2.35,2.35,0,0,1,.7,1.9,2.54,2.54,0,0,1-.4,1.6,2,2,0,0,1-1.3.8h0a1.63,1.63,0,0,1,1.1.5,2.14,2.14,0,0,1,.4,1.2v1.3a4.12,4.12,0,0,0,.1,1.2,0.92,0.92,0,0,0,.4.6v0.1H260a0.76,0.76,0,0,1-.2-0.5,1.27,1.27,0,0,0-.1-0.6l-0.1-1.9a1.06,1.06,0,0,0-1.2-1.2h-1.1v4.2h-2v-10h3.9v0.2Zm-0.8,4.4a1.61,1.61,0,0,0,1.1-.3,1.34,1.34,0,0,0,.4-1.2,1.27,1.27,0,0,0-1.4-1.4h-1v2.9h0.9Z"/><path d="M268.9,406.2h-3.6v2.4h3.4v1.7h-3.4V413H269v1.7h-5.7v-10h5.6v1.5Z"/><path d="M271.6,411.7a1.27,1.27,0,0,0,.1.6,2.57,2.57,0,0,0,.2.5,1.38,1.38,0,0,0,.4.3,1.48,1.48,0,0,0,.7.1,1.14,1.14,0,0,0,.8-0.3,1.39,1.39,0,0,0,.3-1.5,1.38,1.38,0,0,0-.3-0.4,5.92,5.92,0,0,0-.6-0.4,6.89,6.89,0,0,0-.8-0.3,6.12,6.12,0,0,1-1.2-.5,5.55,5.55,0,0,1-.8-0.6,2.18,2.18,0,0,1-.5-0.8,3.59,3.59,0,0,1-.2-1.1,3,3,0,0,1,.8-2.2,3.17,3.17,0,0,1,2.3-.7,4.48,4.48,0,0,1,1.2.1,3.13,3.13,0,0,1,1,.5,1.56,1.56,0,0,1,.6.8,2.17,2.17,0,0,1,.2,1.2v0.3H274a1.8,1.8,0,0,0-.3-1.1,0.81,0.81,0,0,0-.8-0.4,1.27,1.27,0,0,0-.6.1c-0.1.1-.3,0.2-0.4,0.3a1.47,1.47,0,0,0-.2.4V407a1.88,1.88,0,0,0,.2.8,1.83,1.83,0,0,0,.8.6l1.6,0.7a3.6,3.6,0,0,1,.9.5l0.6,0.6a4.87,4.87,0,0,1,.3.7,2.2,2.2,0,0,1,.1.8,2.74,2.74,0,0,1-.9,2.3,4,4,0,0,1-2.6.7,3.14,3.14,0,0,1-2.4-.7,2.82,2.82,0,0,1-.7-2.1v-0.4h2v0.2Z"/><path d="M280.8,404.5a2.77,2.77,0,0,1,1.3.3,1.85,1.85,0,0,1,.8.7,3.13,3.13,0,0,1,.5,1,4.1,4.1,0,0,1,.1,1.1,4.44,4.44,0,0,1-.2,1.3,3.49,3.49,0,0,1-.6.9,3.13,3.13,0,0,1-1,.5,5.07,5.07,0,0,1-1.3.2h-1.1v4h-2v-10h3.5Zm-0.6,4.5a1.28,1.28,0,0,0,1-.4,1.46,1.46,0,0,0-1-2.6h-0.8v3h0.8Z"/><path d="M284.4,407.4a3.77,3.77,0,0,1,.5-1.6,2.66,2.66,0,0,1,1-1.1,4.25,4.25,0,0,1,3.6,0,2.66,2.66,0,0,1,1,1.1,7.49,7.49,0,0,1,.5,1.6,22.1,22.1,0,0,1,0,4.2,3.77,3.77,0,0,1-.5,1.6,2,2,0,0,1-1,1,4.36,4.36,0,0,1-1.8.4,3.21,3.21,0,0,1-1.8-.4,2.41,2.41,0,0,1-1-1,7.49,7.49,0,0,1-.5-1.6,13.42,13.42,0,0,1-.1-2.1C284.3,408.7,284.4,408,284.4,407.4Zm2,3.8a2.68,2.68,0,0,0,.2,1.1,0.92,0.92,0,0,0,.4.6,1.32,1.32,0,0,0,1.4,0,0.92,0.92,0,0,0,.4-0.6,3.59,3.59,0,0,0,.2-1.1v-3.4a3.09,3.09,0,0,0-.2-1.1,1.61,1.61,0,0,0-.4-0.7,1.32,1.32,0,0,0-1.4,0,1.18,1.18,0,0,0-.4.7,3.59,3.59,0,0,0-.2,1.1v3.4Z"/><path d="M297.1,411.3h0v-6.8h1.8v10h-2.3l-2.5-7h0v7h-1.8v-10h2.3Z"/><path d="M303.8,404.5a4,4,0,0,1,1.7.3,2.41,2.41,0,0,1,1,1,5.27,5.27,0,0,1,.5,1.5,12.75,12.75,0,0,1,.1,2,15.15,15.15,0,0,1-.2,2.3,3.82,3.82,0,0,1-.6,1.6,2.84,2.84,0,0,1-1,.9,4,4,0,0,1-1.7.3h-3.2v-10h3.4v0.1Zm-0.4,8.5a2.39,2.39,0,0,0,.9-0.2,0.77,0.77,0,0,0,.5-0.6,8.11,8.11,0,0,0,.3-1.1,8.62,8.62,0,0,0,.1-1.7,6.62,6.62,0,0,0-.1-1.5,3.59,3.59,0,0,0-.2-1.1,1,1,0,0,0-.5-0.6,2,2,0,0,0-.9-0.2h-0.9v7h0.8Z"/><path d="M501.6,411.7a1.27,1.27,0,0,0,.1.6,2.57,2.57,0,0,0,.2.5,1.38,1.38,0,0,0,.4.3,1.48,1.48,0,0,0,.7.1,1.14,1.14,0,0,0,.8-0.3,1.39,1.39,0,0,0,.3-1.5,1.38,1.38,0,0,0-.3-0.4,5.91,5.91,0,0,0-.6-0.4,6.89,6.89,0,0,0-.8-0.3,6.12,6.12,0,0,1-1.2-.5,5.55,5.55,0,0,1-.8-0.6,2.18,2.18,0,0,1-.5-0.8,3.59,3.59,0,0,1-.2-1.1,3,3,0,0,1,.8-2.2,3.17,3.17,0,0,1,2.3-.7,4.48,4.48,0,0,1,1.2.1,3.13,3.13,0,0,1,1,.5,1.56,1.56,0,0,1,.6.8,2.17,2.17,0,0,1,.2,1.2v0.3h-1.9a1.8,1.8,0,0,0-.3-1.1,0.81,0.81,0,0,0-.8-0.4,1.27,1.27,0,0,0-.6.1,1.38,1.38,0,0,0-.4.3,1.47,1.47,0,0,0-.2.4V407a1.88,1.88,0,0,0,.2.8,1.83,1.83,0,0,0,.8.6l1.6,0.7a3.6,3.6,0,0,1,.9.5l0.6,0.6a4.87,4.87,0,0,1,.3.7,2.2,2.2,0,0,1,.1.8,2.74,2.74,0,0,1-.9,2.3,4,4,0,0,1-2.6.7,3.14,3.14,0,0,1-2.4-.7,2.82,2.82,0,0,1-.7-2.1v-0.4h2v0.2h0.1Z"/><path d="M512.8,406.2h-3.6v2.4h3.4v1.7h-3.4V413h3.7v1.7h-5.7v-10h5.6v1.5h0Z"/><path d="M518.7,411.3h0v-6.8h1.8v10h-2.3l-2.5-7h0v7h-1.8v-10h2.3Z"/><path d="M523.6,411.7a1.27,1.27,0,0,0,.1.6,2.56,2.56,0,0,0,.2.5,1.38,1.38,0,0,0,.4.3,1.48,1.48,0,0,0,.7.1,1.14,1.14,0,0,0,.8-0.3,1.39,1.39,0,0,0,.3-1.5,1.38,1.38,0,0,0-.3-0.4,5.92,5.92,0,0,0-.6-0.4,2.61,2.61,0,0,0-.8-0.3,6.12,6.12,0,0,1-1.2-.5,5.55,5.55,0,0,1-.8-0.6,2.18,2.18,0,0,1-.5-0.8,3.6,3.6,0,0,1-.2-1.1,3,3,0,0,1,.8-2.2,3.17,3.17,0,0,1,2.3-.7,4.48,4.48,0,0,1,1.2.1,3.13,3.13,0,0,1,1,.5,1.56,1.56,0,0,1,.6.8,3.73,3.73,0,0,1,.2,1.2v0.3H526a1.8,1.8,0,0,0-.3-1.1,0.81,0.81,0,0,0-.8-0.4,1.27,1.27,0,0,0-.6.1c-0.1.1-.3,0.2-0.4,0.3a1.47,1.47,0,0,0-.2.4V407a1.88,1.88,0,0,0,.2.8,1.83,1.83,0,0,0,.8.6l1.6,0.7a3.6,3.6,0,0,1,.9.5l0.6,0.6a1.49,1.49,0,0,1,.3.7,2.2,2.2,0,0,1,.1.8,2.74,2.74,0,0,1-.9,2.3,4,4,0,0,1-2.6.7,3.14,3.14,0,0,1-2.4-.7,2.82,2.82,0,0,1-.7-2.1v-0.4h2v0.2h0Z"/><path d="M534.8,406.2h-3.6v2.4h3.4v1.7h-3.4V413h3.7v1.7h-5.7v-10h5.6v1.5Z"/><path d="M543.2,411.3h-3.9v-1.7h3.9v1.7Z"/><path d="M551.9,406.3a1.05,1.05,0,0,0-.9-0.5,0.85,0.85,0,0,0-.6.2,1.18,1.18,0,0,0-.4.7,3.73,3.73,0,0,0-.2,1.2c0,0.5-.1,1.1-0.1,1.8a8.67,8.67,0,0,0,.1,1.8c0.1,0.5.1,0.8,0.2,1.1a0.7,0.7,0,0,0,.4.5,1.27,1.27,0,0,0,.6.1,0.9,0.9,0,0,0,.5-0.1,0.78,0.78,0,0,0,.4-0.4,3.39,3.39,0,0,0,.3-0.8,4.89,4.89,0,0,0,.1-1.3h2a7.08,7.08,0,0,1-.1,1.5,3.49,3.49,0,0,1-.5,1.3,2.93,2.93,0,0,1-1,.9,3.81,3.81,0,0,1-1.6.3,3,3,0,0,1-1.8-.4,2.41,2.41,0,0,1-1-1,7.49,7.49,0,0,1-.5-1.6,22.11,22.11,0,0,1,0-4.2,3.77,3.77,0,0,1,.5-1.6,2.66,2.66,0,0,1,1-1.1,3.21,3.21,0,0,1,1.8-.4,2.86,2.86,0,0,1,1.7.4,2,2,0,0,1,.9.9,4.24,4.24,0,0,1,.4,1.2,4.87,4.87,0,0,1,.1,1.2h-2A4.64,4.64,0,0,0,551.9,406.3Z"/><path d="M559.8,404.5l2.6,10h-2.1l-0.5-2.1h-2.7l-0.5,2.1h-2.1l2.6-10h2.7Zm-0.2,6.2-1-4.5h0l-1,4.5h2Z"/><path d="M568.3,406.2h-2.2v8.3h-2v-8.3h-2.2v-1.7h6.4v1.7Z"/><path d="M574.7,406.2h-3.6v2.4h3.4v1.7h-3.4V413h3.7v1.7h-5.7v-10h5.6v1.5Z"/><path d="M580.2,406.9a0.76,0.76,0,0,0-.2-0.5,0.78,0.78,0,0,0-.4-0.4,1.06,1.06,0,0,0-.5-0.2,1.27,1.27,0,0,0-1.1.8,8.24,8.24,0,0,0-.3,2.7,8.08,8.08,0,0,0,.1,1.6c0.1,0.5.1,0.9,0.2,1.2a2,2,0,0,0,.4.8,0.91,0.91,0,0,0,.7.3,0.6,0.6,0,0,0,.4-0.1c0.1-.1.3-0.2,0.4-0.3a2.19,2.19,0,0,0,.3-0.5,1.48,1.48,0,0,0,.1-0.7v-1H579v-1.5h3.3v5.4h-1.5v-0.9h0a1.42,1.42,0,0,1-.9.8,2.17,2.17,0,0,1-1.2.2,3.34,3.34,0,0,1-1.5-.3,1.79,1.79,0,0,1-.9-1,3.87,3.87,0,0,1-.4-1.7,16.23,16.23,0,0,1-.1-2.3,13.78,13.78,0,0,1,.2-2.2,3.82,3.82,0,0,1,.6-1.6,4.74,4.74,0,0,1,1-1,2.71,2.71,0,0,1,1.6-.3,3.29,3.29,0,0,1,2.4.8,3.17,3.17,0,0,1,.7,2.3h-1.9A0.7,0.7,0,0,1,580.2,406.9Z"/><path d="M583.5,407.4a3.77,3.77,0,0,1,.5-1.6,2.66,2.66,0,0,1,1-1.1,4.25,4.25,0,0,1,3.6,0,2.66,2.66,0,0,1,1,1.1,7.49,7.49,0,0,1,.5,1.6,22.11,22.11,0,0,1,0,4.2,3.77,3.77,0,0,1-.5,1.6,2,2,0,0,1-1,1,4,4,0,0,1-1.8.4,3,3,0,0,1-1.8-.4,2.41,2.41,0,0,1-1-1,7.49,7.49,0,0,1-.5-1.6,13.43,13.43,0,0,1-.1-2.1C583.4,408.7,583.5,408,583.5,407.4Zm2,3.8a2.68,2.68,0,0,0,.2,1.1,0.92,0.92,0,0,0,.4.6,1.32,1.32,0,0,0,1.4,0,0.92,0.92,0,0,0,.4-0.6,3.6,3.6,0,0,0,.2-1.1v-3.4a3.09,3.09,0,0,0-.2-1.1,1.61,1.61,0,0,0-.4-0.7,1.32,1.32,0,0,0-1.4,0,1.18,1.18,0,0,0-.4.7,3.6,3.6,0,0,0-.2,1.1v3.4Z"/><path d="M595.2,404.5a3.17,3.17,0,0,1,2,.6,2.35,2.35,0,0,1,.7,1.9,2.54,2.54,0,0,1-.4,1.6,2,2,0,0,1-1.3.8h0a1.63,1.63,0,0,1,1.1.5,2.14,2.14,0,0,1,.4,1.2v1.3a4.12,4.12,0,0,0,.1,1.2,0.92,0.92,0,0,0,.4.6v0.1H596a0.76,0.76,0,0,1-.2-0.5,1.27,1.27,0,0,0-.1-0.6l-0.1-1.9a1.06,1.06,0,0,0-1.2-1.2h-1.1v4.2h-2v-10h3.9v0.2Zm-0.9,4.4a1.61,1.61,0,0,0,1.1-.3,1.34,1.34,0,0,0,.4-1.2,1.27,1.27,0,0,0-1.4-1.4h-1v2.9h0.9Z"/><path d="M599.3,404.5h2v10h-2v-10Z"/><path d="M604.5,411.7a1.27,1.27,0,0,0,.1.6,2.56,2.56,0,0,0,.2.5,1.38,1.38,0,0,0,.4.3,1.48,1.48,0,0,0,.7.1,1.14,1.14,0,0,0,.8-0.3,1.39,1.39,0,0,0,.3-1.5,1.38,1.38,0,0,0-.3-0.4,5.92,5.92,0,0,0-.6-0.4,6.89,6.89,0,0,0-.8-0.3,6.12,6.12,0,0,1-1.2-.5,5.55,5.55,0,0,1-.8-0.6,2.18,2.18,0,0,1-.5-0.8,3.6,3.6,0,0,1-.2-1.1,3,3,0,0,1,.8-2.2,3.17,3.17,0,0,1,2.3-.7,4.48,4.48,0,0,1,1.2.1,3.13,3.13,0,0,1,1,.5,1.56,1.56,0,0,1,.6.8,2.17,2.17,0,0,1,.2,1.2v0.3h-1.9a1.8,1.8,0,0,0-.3-1.1,0.81,0.81,0,0,0-.8-0.4,1.27,1.27,0,0,0-.6.1,1.38,1.38,0,0,0-.4.3,1.47,1.47,0,0,0-.2.4V407a1.88,1.88,0,0,0,.2.8,1.83,1.83,0,0,0,.8.6l1.6,0.7a3.6,3.6,0,0,1,.9.5l0.6,0.6a4.88,4.88,0,0,1,.3.7,2.2,2.2,0,0,1,.1.8,2.74,2.74,0,0,1-.9,2.3,4,4,0,0,1-2.6.7,3.14,3.14,0,0,1-2.4-.7,2.82,2.82,0,0,1-.7-2.1v-0.4h2v0.2h0.1Z"/><path d="M615.7,406.2h-3.6v2.4h3.4v1.7h-3.4V413h3.7v1.7h-5.7v-10h5.6v1.5Z"/><path d="M624.1,411.3h-3.9v-1.7h3.9v1.7Z"/><path d="M632.5,404.5a3.17,3.17,0,0,1,2,.6,2.35,2.35,0,0,1,.7,1.9,2.54,2.54,0,0,1-.4,1.6,2,2,0,0,1-1.3.8h0a1.63,1.63,0,0,1,1.1.5,2.14,2.14,0,0,1,.4,1.2v1.3a4.12,4.12,0,0,0,.1,1.2,0.92,0.92,0,0,0,.4.6v0.1h-2.2a0.76,0.76,0,0,1-.2-0.5,1.27,1.27,0,0,0-.1-0.6l-0.1-1.9a1.06,1.06,0,0,0-1.2-1.2h-1.1v4.2h-2v-10h3.9v0.2Zm-0.9,4.4a1.61,1.61,0,0,0,1.1-.3,1.34,1.34,0,0,0,.4-1.2,1.27,1.27,0,0,0-1.4-1.4h-1v2.9h0.9Z"/><path d="M642.1,406.2h-3.6v2.4h3.4v1.7h-3.4V413h3.7v1.7h-5.7v-10h5.6v1.5Z"/><path d="M644.9,411.7a1.27,1.27,0,0,0,.1.6,2.56,2.56,0,0,0,.2.5,1.38,1.38,0,0,0,.4.3,1.48,1.48,0,0,0,.7.1,1.14,1.14,0,0,0,.8-0.3,1.39,1.39,0,0,0,.3-1.5,1.38,1.38,0,0,0-.3-0.4,5.92,5.92,0,0,0-.6-0.4,6.89,6.89,0,0,0-.8-0.3,6.12,6.12,0,0,1-1.2-.5,5.55,5.55,0,0,1-.8-0.6,2.18,2.18,0,0,1-.5-0.8,3.6,3.6,0,0,1-.2-1.1,3,3,0,0,1,.8-2.2,3.17,3.17,0,0,1,2.3-.7,4.48,4.48,0,0,1,1.2.1,3.13,3.13,0,0,1,1,.5,1.56,1.56,0,0,1,.6.8,2.17,2.17,0,0,1,.2,1.2v0.3h-1.9a1.8,1.8,0,0,0-.3-1.1,0.81,0.81,0,0,0-.8-0.4,1.27,1.27,0,0,0-.6.1,1.38,1.38,0,0,0-.4.3,1.47,1.47,0,0,0-.2.4V407a1.88,1.88,0,0,0,.2.8,1.83,1.83,0,0,0,.8.6l1.6,0.7a3.6,3.6,0,0,1,.9.5l0.6,0.6a4.88,4.88,0,0,1,.3.7,2.2,2.2,0,0,1,.1.8,2.74,2.74,0,0,1-.9,2.3,4,4,0,0,1-2.6.7,3.14,3.14,0,0,1-2.4-.7,2.82,2.82,0,0,1-.7-2.1v-0.4h2v0.2h0.1Z"/><path d="M654,404.5a2.77,2.77,0,0,1,1.3.3,2.7,2.7,0,0,1,.8.7,3.13,3.13,0,0,1,.5,1,4.1,4.1,0,0,1,.1,1.1,4.44,4.44,0,0,1-.2,1.3,2.84,2.84,0,0,1-.6.9,3.13,3.13,0,0,1-1,.5,5.07,5.07,0,0,1-1.3.2h-1.1v4h-2v-10H654Zm-0.6,4.5a1.28,1.28,0,0,0,1-.4,1.46,1.46,0,0,0-1-2.6h-0.8v3h0.8Z"/><path d="M657.7,407.4a3.77,3.77,0,0,1,.5-1.6,5.24,5.24,0,0,1,1-1.1,4.25,4.25,0,0,1,3.6,0,2.66,2.66,0,0,1,1,1.1,7.49,7.49,0,0,1,.5,1.6,22.11,22.11,0,0,1,0,4.2,3.77,3.77,0,0,1-.5,1.6,2,2,0,0,1-1,1,4.36,4.36,0,0,1-1.8.4,3.21,3.21,0,0,1-1.8-.4,2.41,2.41,0,0,1-1-1,7.49,7.49,0,0,1-.5-1.6A22.11,22.11,0,0,1,657.7,407.4Zm1.9,3.8a2.68,2.68,0,0,0,.2,1.1,0.92,0.92,0,0,0,.4.6,1.32,1.32,0,0,0,1.4,0,0.92,0.92,0,0,0,.4-0.6,3.6,3.6,0,0,0,.2-1.1v-3.4a3.09,3.09,0,0,0-.2-1.1,1.61,1.61,0,0,0-.4-0.7,1.32,1.32,0,0,0-1.4,0,1.18,1.18,0,0,0-.4.7,3.6,3.6,0,0,0-.2,1.1v3.4Z"/><path d="M670.3,411.3h0v-6.8h1.8v10h-2.3l-2.5-7h0v7h-1.8v-10h2.3Z"/><path d="M677,404.5a4,4,0,0,1,1.7.3,2.41,2.41,0,0,1,1,1,5.27,5.27,0,0,1,.5,1.5,12.75,12.75,0,0,1,.1,2,15.15,15.15,0,0,1-.2,2.3,3.82,3.82,0,0,1-.6,1.6,2.84,2.84,0,0,1-1,.9,4,4,0,0,1-1.7.3h-3.2v-10H677v0.1Zm-0.4,8.5a2.39,2.39,0,0,0,.9-0.2,0.77,0.77,0,0,0,.5-0.6,8.11,8.11,0,0,0,.3-1.1,8.62,8.62,0,0,0,.1-1.7,6.62,6.62,0,0,0-.1-1.5c-0.1-.4-0.1-0.8-0.2-1.1a1,1,0,0,0-.5-0.6,2,2,0,0,0-.9-0.2h-0.9v7h0.8Z"/></svg>