<?xml version="1.0" encoding="utf-8"?>
<!-- Generator: Adobe Illustrator 21.0.0, SVG Export Plug-In . SVG Version: 6.00 Build 0)  -->
<svg version="1.1" xmlns="http://www.w3.org/2000/svg" xmlns:xlink="http://www.w3.org/1999/xlink" x="0px" y="0px"
	 viewBox="0 0 280 280" style="enable-background:new 0 0 280 280;" xml:space="preserve">
<style type="text/css">
	.st0{fill:#828282;}
	.st1{fill:#303030;}
	.st2{stroke:#000000;stroke-width:7.0579;stroke-miterlimit:10;}
	.st3{fill:#FFFFFF;stroke:#000000;stroke-width:7.098;stroke-miterlimit:10;}
	.st4{fill:none;stroke:#000000;stroke-width:7.098;stroke-linecap:round;stroke-miterlimit:10;}
	.st5{fill:#FFFFFF;}
	.st6{fill:none;stroke:#000000;stroke-width:9;stroke-miterlimit:10;}
	.st7{fill:none;stroke:#000000;stroke-width:5.9531;stroke-linecap:round;stroke-miterlimit:10;}
	.st8{fill:none;stroke:#000000;stroke-width:11.3958;stroke-linecap:round;stroke-miterlimit:10;}
	.st9{fill:none;stroke:#000000;stroke-width:10.2562;stroke-linecap:round;stroke-linejoin:round;stroke-miterlimit:10;}
	.st10{fill:none;stroke:#000000;stroke-width:7.977;stroke-miterlimit:10;}
</style>
<g id="DARTH_VADOR">
	<g id="RESPIRATOR">
		<polygon id="BG" class="st0" points="196.1,171.2 184.7,240.9 136.8,240.9 91.6,240.9 79.1,171.2 		"/>
		<polygon id="SHADOW" class="st1" points="128.5,179.4 101,203.9 79.1,171.2 137.3,166.1 196.1,171.2 174.3,203.9 146.7,179.4 		
			"/>
		<g id="RESPIRE">
			<polygon id="RESP_LEFT" points="170.7,240.9 170.7,205.1 152.4,190.7 152.4,240.9 			"/>
			<rect id="RESP_MIDDLE" x="128.4" y="188.6" width="18.3" height="52.2"/>
			<polygon id="RESP_RIGHT" points="104.5,240.9 104.5,205.1 122.7,190.7 122.7,240.9 			"/>
		</g>
		<circle id="BUTTON_LEFT" class="st1" cx="183.6" cy="239.3" r="7.7"/>
		<circle id="BUTTON_RIGHT" class="st1" cx="90.5" cy="239.3" r="7.7"/>
		<path id="NOSE" d="M128.4,179.4v-6.3c0-5.6,4.1-10.1,9.1-10.1h0c5,0,9.1,4.5,9.1,10.1v6.3H128.4z"/>
	</g>
	<g id="EYE_RIGHT_2_">
		<path d="M127.5,157c0,0,1.7-14.2,0-18.5c-12-29.3-42.4-5.4-47.8,0c-5.4,5.4,0,18.5,0,18.5H127.5z"/>
	</g>
	<g id="EYE_LEFT_1_">
		<path d="M146.8,157c0,0-1.7-14.2,0-18.5c12-29.3,42.4-5.4,47.8,0c5.4,5.4,0,18.5,0,18.5H146.8z"/>
	</g>
	<g id="HELMET_2_">
		<g>
			<path d="M39,222.1c-0.6,0.7-1.5,1-2.4,0.9c-3.8-0.7-5.6-8.2-7.6-11.9c-10.6-19.1,22.5-61.7,30.1-82.2
				c8.7-23.5-17.2-68.4,49.6-87.3c12.8-3.6,34.1-4.7,47.2-2.3c64,12,57.5,61.6,58.6,88.6c0.9,22.2,45,64.9,31.1,82.2
				c-3.4,4.3-6.3,13-11,13c-0.8,0-1,0-2-1h0c-5-16-23-117.3-64.1-112.2c-8.1,1-21.2,12.7-29.1,15c-1.4,0.4-4.6,0.5-6,0
				c-7.8-2.6-20.9-15.6-29.1-15c-39.8,2.8-62.6,100.6-64.9,111.3C39.1,221.8,39,222.1,39,222.1L39,222.1z"/>
		</g>
	</g>
</g>
<g id="ASTRONAUT">
</g>
<g id="NO_BULL">
</g>
<g id="EINSTEIN">
</g>
</svg>
