<?xml version="1.0" encoding="utf-8"?>
<!-- Generator: Adobe Illustrator 21.0.0, SVG Export Plug-In . SVG Version: 6.00 Build 0)  -->
<svg version="1.1" xmlns="http://www.w3.org/2000/svg" xmlns:xlink="http://www.w3.org/1999/xlink" x="0px" y="0px"
	 viewBox="0 0 280 280" style="enable-background:new 0 0 280 280;" xml:space="preserve">
<style type="text/css">
	.st0{fill:#828282;}
	.st1{fill:#303030;}
	.st2{stroke:#000000;stroke-width:7.0579;stroke-miterlimit:10;}
	.st3{fill:#FFFFFF;stroke:#000000;stroke-width:7.098;stroke-miterlimit:10;}
	.st4{fill:none;stroke:#000000;stroke-width:7.098;stroke-linecap:round;stroke-miterlimit:10;}
	.st5{fill:#FFFFFF;}
	.st6{fill:none;stroke:#000000;stroke-width:9;stroke-miterlimit:10;}
	.st7{fill:none;stroke:#000000;stroke-width:5.9531;stroke-linecap:round;stroke-miterlimit:10;}
	.st8{fill:none;stroke:#000000;stroke-width:11.3958;stroke-linecap:round;stroke-miterlimit:10;}
	.st9{fill:none;stroke:#000000;stroke-width:10.2562;stroke-linecap:round;stroke-linejoin:round;stroke-miterlimit:10;}
	.st10{fill:none;stroke:#000000;stroke-width:7.977;stroke-miterlimit:10;}
</style>
<g id="DARTH_VADOR">
	<g id="RESPIRATOR">
	</g>
</g>
<g id="ASTRONAUT">
</g>
<g id="NO_BULL">
</g>
<g id="EINSTEIN">
	<path id="face_outer_3_" class="st6" d="M84.6,216.3c4.6,8.1,21.2,8.9,29.2,13.8c3.8,2.3,12.5,12.6,16.4,14.7
		c4,2.1,14.4,2.5,18.2,0c2.7-1.8,11.4-10.3,14-12.3c7.8-5.8,24.5-4,30.5-11.7c6.3-8.1,1.1-41,1.1-41s6.5,4.7,13.5-1.3
		c4.3-3.7,6.7-31.7,4.6-37c-7.1-17.7-19.6-7-21.5,0.7c-2,8.1-0.3-25.9-5.1-32.5c-7.4-10-35-17.3-47.3-15.4
		c-13.4,2-42.1,11.2-49,22.8c-4,6.6-1.1,30.8-1.1,30.8s-9.5-13.4-14.5-3.6c-3.4,6.6-4.6,24.2-1.4,30.9c2,4.1,7.2,9.1,9.1,13.2
		C84,194.8,81.2,210.3,84.6,216.3z"/>
	<g id="tongue_outer_6_">
		<path d="M132.1,206.5l14.2,0.3c2.6,8.2,4.2,16.6,3.4,18.9c-1.8,2.1-8.1,5.3-11.3,5.3c-0.1,0-0.2,0-0.2,0c-2.6-0.4-7.7-4.4-9.3-6.2
			c-0.6-2.2,0.6-8.9,1.1-11.5c0.2-1.2,0.4-2.2,0.6-3.2C130.7,209.5,131.3,208.1,132.1,206.5 M128.6,200.7c0,0-3.5,6.3-3.8,8.4
			c-0.7,4.5-3.1,14.3-1.1,18.4c0.8,1.6,8.3,8.5,13.6,9.2c0.3,0,0.7,0.1,1.1,0.1c4.9,0,13.2-4,16-7.7c4.3-5.7-3.9-28-3.9-28
			L128.6,200.7L128.6,200.7z"/>
	</g>
	<line id="tongue_inner_3_" class="st7" x1="139.6" y1="204" x2="139.6" y2="221"/>
	<path id="moustahce_3_" d="M129.6,183.8c3.2,0,5.9,9.5,9.1,10c3.2,0.6,7-8.6,10.3-8.8c8.9-0.5,34,28.2,25.1,27.6
		c-34.8-2.1-64.8-3.1-69.9-1.5c-0.3,0.1-0.5-0.2-0.3-0.4C106.5,206.6,121.4,183.7,129.6,183.8z"/>
	<ellipse id="eye_right_3_" cx="125.5" cy="165.5" rx="4.6" ry="10.5"/>
	<ellipse id="eye_left_3_" cx="154.5" cy="168" rx="8.5" ry="4"/>
	<path id="eyebrow_right_3_" class="st8" d="M105.8,151c0,0,8-13.1,12.5-14.8c3.2-1.2,13.7,2.3,13.7-1.1"/>
	<path id="eyebrow_left_3_" class="st9" d="M176.8,161.4c-5.6-8.1-8.7-12.8-13.5-14.6c-3.2-1.2-12.6,1.8-12.6-1.6"/>
	<g id="hair_3_">
		<path d="M143.1,100.5c-1.8-0.6-4.7-0.4-6.4,0.3l-40.4,16.8c-1.7,0.7-3.2,2.8-3.2,4.7L93,154.8c0,1.9-0.6,2-1.2,0.2l-6.1-15.8
			c-0.7-1.8-2.7-2.7-4.5-2.1l-6.8,2.3c-1.8,0.6-3.6,2.6-4,4.4l-2.2,9.4c-0.4,1.8-0.5,4.8-0.2,6.7l3.7,19.5c0.3,1.8,2.2,3.3,4,3.2
			l2.6-0.1c1.9-0.1,3.4,1.4,3.4,3.3l0,16.2c0,1.9-1.5,3.9-3.2,4.5l-17.4,5.8c-1.8,0.6-3.2-0.5-3.2-2.3v-8c0-1.9-0.5-4.9-1.1-6.6
			l-5.6-16.2c-0.6-1.8-2.6-3.7-4.4-4.3l-21-7.1c-1.8-0.6-2-2.1-0.6-3.2L59.7,137c1.5-1.2,1.2-2.7-0.5-3.4l-35-13.4
			c-1.8-0.7-2.4-2.5-1.4-4.1l37.4-59.2c1-1.6,3-1.9,4.5-0.8l20.1,16.1c1.5,1.2,2.6,0.6,2.5-1.3l-2-41c-0.1-1.9,1.2-2.7,2.9-1.8
			L143,56.4c1.7,0.9,3.9,0.3,5-1.2l21.8-30.4c1.1-1.5,2.4-1.3,2.9,0.5l10.8,41.2c0.5,1.8,2.3,2.8,4.1,2.2l19.8-6.9
			c1.8-0.6,4.2,0.1,5.3,1.6l36.9,49.2c1.1,1.5,0.5,3.1-1.3,3.5l-29.8,6.5c-1.8,0.4-2,1.5-0.4,2.5l25.1,15.1c1.6,1,3.9,3,5.1,4.4
			l9.2,11.4c1.2,1.5,0.6,2.6-1.3,2.5l-26.2-0.9c-1.9-0.1-2.6,1.2-1.7,2.8l16,26.5c1,1.6,1.6,4.5,1.3,6.3l-1.6,12.1
			c-0.2,1.9-1.5,2.3-2.9,1L221,187.3c-1.4-1.3-2.6-0.8-2.9,1l-1.5,13.7c-0.2,1.9-1.7,4.1-3.4,5l-13.3,7.1c-1.7,0.9-2.9,0.1-2.6-1.8
			l2.7-24c0.2-1.9,1.8-2.9,3.6-2.2c0,0,2,0.7,3.5-0.1c9.8-5.6,10-35.3,5.8-46.3c-1.8-4.7-9.8-8.4-14.6-7.2c-3.8,0.9-7.7,9.5-7.7,9.5
			c-0.8,1.7-1.7,1.6-2-0.3l-4.6-25.1c-0.3-1.8-2.1-3.8-3.9-4.4L143.1,100.5z"/>
		<path class="st10" d="M143.1,100.5c-1.8-0.6-4.7-0.4-6.4,0.3l-40.4,16.8c-1.7,0.7-3.2,2.8-3.2,4.7L93,154.8c0,1.9-0.6,2-1.2,0.2
			l-6.1-15.8c-0.7-1.8-2.7-2.7-4.5-2.1l-6.8,2.3c-1.8,0.6-3.6,2.6-4,4.4l-2.2,9.4c-0.4,1.8-0.5,4.8-0.2,6.7l3.7,19.5
			c0.3,1.8,2.2,3.3,4,3.2l2.6-0.1c1.9-0.1,3.4,1.4,3.4,3.3l0,16.2c0,1.9-1.5,3.9-3.2,4.5l-17.4,5.8c-1.8,0.6-3.2-0.5-3.2-2.3v-8
			c0-1.9-0.5-4.9-1.1-6.6l-5.6-16.2c-0.6-1.8-2.6-3.7-4.4-4.3l-21-7.1c-1.8-0.6-2-2.1-0.6-3.2L59.7,137c1.5-1.2,1.2-2.7-0.5-3.4
			l-35-13.4c-1.8-0.7-2.4-2.5-1.4-4.1l37.4-59.2c1-1.6,3-1.9,4.5-0.8l20.1,16.1c1.5,1.2,2.6,0.6,2.5-1.3l-2-41
			c-0.1-1.9,1.2-2.7,2.9-1.8L143,56.4c1.7,0.9,3.9,0.3,5-1.2l21.8-30.4c1.1-1.5,2.4-1.3,2.9,0.5l10.8,41.2c0.5,1.8,2.3,2.8,4.1,2.2
			l19.8-6.9c1.8-0.6,4.2,0.1,5.3,1.6l36.9,49.2c1.1,1.5,0.5,3.1-1.3,3.5l-29.8,6.5c-1.8,0.4-2,1.5-0.4,2.5l25.1,15.1
			c1.6,1,3.9,3,5.1,4.4l9.2,11.4c1.2,1.5,0.6,2.6-1.3,2.5l-26.2-0.9c-1.9-0.1-2.6,1.2-1.7,2.8l16,26.5c1,1.6,1.6,4.5,1.3,6.3
			l-1.6,12.1c-0.2,1.9-1.5,2.3-2.9,1L221,187.3c-1.4-1.3-2.6-0.8-2.9,1l-1.5,13.7c-0.2,1.9-1.7,4.1-3.4,5l-13.3,7.1
			c-1.7,0.9-2.9,0.1-2.6-1.8l2.7-24c0.2-1.9,1.8-2.9,3.6-2.2c0,0,2,0.7,3.5-0.1c9.8-5.6,10-35.3,5.8-46.3c-1.8-4.7-9.8-8.4-14.6-7.2
			c-3.8,0.9-7.7,9.5-7.7,9.5c-0.8,1.7-1.7,1.6-2-0.3l-4.6-25.1c-0.3-1.8-2.1-3.8-3.9-4.4L143.1,100.5z"/>
	</g>
</g>
</svg>
