<?xml version="1.0" encoding="utf-8"?>
<!-- Generator: Adobe Illustrator 19.2.1, SVG Export Plug-In . SVG Version: 6.00 Build 0)  -->
<svg version="1.1" id="Isolation_Mode" xmlns="http://www.w3.org/2000/svg" xmlns:xlink="http://www.w3.org/1999/xlink" x="0px"
	 y="0px" viewBox="0 0 608.9 1086.5" style="enable-background:new 0 0 608.9 1086.5;" xml:space="preserve">
<style type="text/css">
	.st0{opacity:0.18;}
	.st1{fill:none;stroke:#00A4E4;stroke-width:1.2981;stroke-miterlimit:10;}
	.st2{fill:#81C9EF;}
</style>
<g class="st0">
	<polygon class="st1" points="17.4,212.6 241.8,314.7 434.8,225.8 527.1,84.2 536.6,-58.7 480.6,-212.9 310.4,-326.7 123,-191.3 
		48.1,-11.8 	"/>
	<polygon class="st1" points="-320.5,675.7 -200.7,682.9 57.2,593.8 100.8,313.9 17.4,212.6 -248.1,135.1 -324.8,239.8 -611.8,339 	
		"/>
	<polygon class="st1" points="55.9,595 -145.3,515.6 -319.7,677.8 -369.8,848.9 -328.9,978.5 -234.7,1044.1 29.7,1063.7 
		196.9,837.9 210.9,698.6 	"/>
	<polygon class="st1" points="443.4,490.1 240.4,314.1 100.2,315.4 -119.4,427 -201.2,684.4 -2.3,883.9 270.1,916.9 450.6,743.8 	
		"/>
	<polyline class="st1" points="347.4,-112.9 17.4,212.6 48.1,-11.8 240.4,314.1 55.9,595 450.6,743.8 196.9,837.9 270.1,916.9 
		443.4,490.1 -145.3,515.6 -2.3,883.9 -234.7,1044.1 -201.2,684.4 210.9,698.6 443.4,490.1 100.2,315.4 -145.3,515.6 -324.8,239.8 
		17.4,212.6 434.8,225.8 479.4,-63.4 48.1,-11.8 527.1,84.2 	"/>
	<polyline class="st1" points="-248.1,135.1 184.3,217.9 396.9,62.2 480.6,-212.9 123,-191.3 434.8,225.8 	"/>
	<polyline class="st1" points="-346.9,328.4 -119.4,427 -133.6,174.9 -498.5,437.6 -201.2,684.4 -369.8,848.9 -2.3,883.9 
		210.9,698.6 204.3,368.6 -119.4,427 -498.5,437.6 	"/>
	<polyline class="st1" points="17.4,212.6 -119.4,427 55.9,595 -2.3,883.9 29.7,1063.7 -328.9,978.5 -201.2,684.4 196.9,837.9 
		354.9,707.6 210.9,698.6 311.4,377.6 	"/>
</g>
<path class="st2" d="M-66.3,552.5c-0.9-0.4-1.3-1.4-1-2.3c0.4-0.9,1.4-1.3,2.3-1c0.9,0.4,1.3,1.4,1,2.3
	C-64.4,552.4-65.4,552.9-66.3,552.5z"/>
<path class="st2" d="M99.7,319.4c-1.8-0.7-2.6-2.8-1.9-4.6c0.7-1.8,2.8-2.6,4.6-1.9c1.8,0.7,2.6,2.8,1.9,4.6
	C103.5,319.3,101.4,320.1,99.7,319.4z"/>
<path class="st2" d="M183.6,221.2c-1.8-0.7-2.6-2.8-1.9-4.6c0.7-1.8,2.8-2.6,4.6-1.9c1.8,0.7,2.6,2.8,1.9,4.6
	C187.4,221.1,185.4,221.9,183.6,221.2z"/>
<path class="st2" d="M-45.9,513.6c-1.8-0.7-2.6-2.8-1.9-4.6c0.7-1.8,2.8-2.6,4.6-1.9c1.8,0.7,2.6,2.8,1.9,4.6
	C-42.1,513.5-44.1,514.3-45.9,513.6z"/>
<path class="st2" d="M240.7,456.7c-1.8-0.7-2.6-2.8-1.9-4.6c0.7-1.8,2.8-2.6,4.6-1.9c1.8,0.7,2.6,2.8,1.9,4.6
	C244.6,456.5,242.5,457.4,240.7,456.7z"/>
<path class="st2" d="M158.7,58.9c-0.9-0.4-1.3-1.4-1-2.3c0.4-0.9,1.4-1.3,2.3-1c0.9,0.4,1.3,1.4,1,2.3
	C160.6,58.9,159.6,59.3,158.7,58.9z"/>
</svg>
