<?xml version="1.0" encoding="utf-8"?>
<!-- Generator: Adobe Illustrator 19.2.1, SVG Export Plug-In . SVG Version: 6.00 Build 0)  -->
<svg version="1.1" id="Layer_2" xmlns="http://www.w3.org/2000/svg" xmlns:xlink="http://www.w3.org/1999/xlink" x="0px" y="0px"
	 viewBox="0 0 600 519.6" style="enable-background:new 0 0 600 519.6;" xml:space="preserve">
<g>
	<g>
		<g>
			<path d="M450,0H150L0,260.3l150,259.3h299l151-259.3L450,0z M565.1,251.2H394.9l-39.5-68.7l85-147.2L565.1,251.2z M425.4,26
				l-85,147.2h-79.6L175.9,26H425.4z M160.5,34.1l85,147.2l-40.6,69.8h-170L160.5,34.1z M34.9,268.5h170l40.6,69.8l-85.3,147.2
				L34.9,268.5z M175.6,493.6l85-147.2h80.1l85,147.2H175.6z M440.3,484.2l-85-147l39.5-68.7h170.2L440.3,484.2z"/>
		</g>
	</g>
</g>
</svg>
