<?xml version="1.0" encoding="utf-8"?>
<!-- Generator: Adobe Illustrator 20.1.0, SVG Export Plug-In . SVG Version: 6.00 Build 0)  -->
<!DOCTYPE svg PUBLIC "-//W3C//DTD SVG 1.1//EN" "http://www.w3.org/Graphics/SVG/1.1/DTD/svg11.dtd">
<svg version="1.1" id="_x35_697b6e4-cc9b-4f48-85ee-66619a549186"
	 xmlns="http://www.w3.org/2000/svg" xmlns:xlink="http://www.w3.org/1999/xlink" x="0px" y="0px" viewBox="0 0 200 200"
	 style="enable-background:new 0 0 200 200;" xml:space="preserve">
<style type="text/css">
	.st0{fill:#221F1F;}
	.st1{fill:#FFFFFF;}
	.st2{fill:#231F20;}
	.st3{fill:none;stroke:#231F20;stroke-width:3;stroke-linecap:round;stroke-miterlimit:10;}
</style>
<title>Innovative</title>
<g>
	<g>
		<circle class="st0" cx="120" cy="76.8" r="2.5"/>
	</g>
	<g>
		<path class="st0" d="M118.6,76.8c0,0.8,0.6,1.4,1.4,1.4s1.4-0.6,1.4-1.4s-0.6-1.4-1.4-1.4S118.6,76,118.6,76.8z"/>
	</g>
</g>
<g>
	<circle class="st1" cx="132" cy="68.1" r="3.5"/>
	<path class="st0" d="M127,68.1c0-2.8,2.3-5,5-5s5,2.3,5,5s-2.3,5-5,5S127,70.9,127,68.1z M130,68.1c0,1.1,0.9,2,2,2s2-0.9,2-2
		s-0.9-2-2-2S130,67,130,68.1z"/>
</g>
<path class="st2" d="M95,158.8l-3-8.7c-0.2-0.6-0.8-1-1.4-1h-1.3h-1.4H76.3c-0.8,0-1.5,0.7-1.5,1.5v8.7c0,0.8,0.7,1.5,1.5,1.5h15.6
	l0,0h1.7c0.5,0,0.9-0.2,1.2-0.6C95.1,159.8,95.1,159.3,95,158.8z M77.8,152.1h11.7l0,0l2,5.7h-12l0,0h-1.7V152.1z"/>
<g>
	<path class="st1" d="M96.9,107.9c0-7.3-5.9-13.3-13.3-13.3s-13.3,5.9-13.3,13.3c0,3.6,0,10.4,0,14c0,7.3,5.9,13.3,13.3,13.3
		s13.3-5.9,13.3-13.3C96.9,118.3,96.9,111.5,96.9,107.9z"/>
	<path class="st0" d="M83.7,136.6c-8.1,0-14.8-6.6-14.8-14.8v-14c0-8.1,6.6-14.8,14.8-14.8s14.8,6.6,14.8,14.8v14
		C98.4,130,91.8,136.6,83.7,136.6z M83.7,96.1c-6.5,0-11.8,5.3-11.8,11.8v14c0,6.5,5.3,11.8,11.8,11.8s11.8-5.3,11.8-11.8v-14
		C95.4,101.4,90.2,96.1,83.7,96.1z"/>
</g>
<g>
	<path class="st1" d="M96.9,107.9c0-7.3-5.9-13.3-13.3-13.3s-13.3,5.9-13.3,13.3c0,3.6,0,10.4,0,14c0,7.3,5.9,13.3,13.3,13.3
		s13.3-5.9,13.3-13.3C96.9,118.3,96.9,111.5,96.9,107.9z"/>
	<path class="st0" d="M83.7,136.6c-8.1,0-14.8-6.6-14.8-14.8v-14c0-8.1,6.6-14.8,14.8-14.8s14.8,6.6,14.8,14.8v14
		C98.4,130,91.8,136.6,83.7,136.6z M83.7,96.1c-6.5,0-11.8,5.3-11.8,11.8v14c0,6.5,5.3,11.8,11.8,11.8s11.8-5.3,11.8-11.8v-14
		C95.4,101.4,90.2,96.1,83.7,96.1z"/>
</g>
<g>
	<circle class="st1" cx="88.7" cy="82.9" r="17.8"/>
	<path class="st0" d="M88.7,102.2c-10.6,0-19.3-8.7-19.3-19.3s8.7-19.3,19.3-19.3S108,72.2,108,82.9C108,93.5,99.3,102.2,88.7,102.2
		z M88.7,66.6c-9,0-16.3,7.3-16.3,16.3s7.3,16.3,16.3,16.3S105,91.9,105,82.9S97.7,66.6,88.7,66.6z"/>
</g>
<g>
	<g>
		<path class="st0" d="M84,95.1c-2.8-0.2-4.9-2.6-4.6-5.4s2.6-4.9,5.4-4.6c2.8,0.2,4.9,2.6,4.6,5.4C89.2,93.2,86.8,95.3,84,95.1z
			 M84.6,88c-1.1-0.1-2.1,0.8-2.2,1.9s0.8,2.1,1.9,2.2s2.1-0.8,2.2-1.9S85.7,88.1,84.6,88z"/>
	</g>
	<g>
		<path class="st0" d="M84.9,86.5L88,88l0.1,2.3l-0.2,2l11,4.3l0.9,0.4c4.2-3,7.1-7.7,7.6-13.3c0.6-8.4-4.8-15.9-12.5-18.3l-0.1,0.1
			L84.9,86.5z"/>
	</g>
	<g>
		<g>
			<path class="st1" d="M102.3,79.1c-0.6,0-1.1-0.4-1.3-1c-0.9-2.4-2.4-4.4-4.5-5.8c-0.7-0.5-0.8-1.4-0.4-2.1s1.4-0.8,2.1-0.4
				c2.6,1.8,4.5,4.3,5.6,7.3c0.3,0.8-0.1,1.6-0.9,1.9C102.7,79.1,102.5,79.1,102.3,79.1z"/>
		</g>
	</g>
</g>
<g>
	<g>
		<path class="st1" d="M102.1,127.9c-2.3,2.3-6.1,2.3-8.5,0l-12.2-12.2c-2.3-2.3-2.3-6.1,0-8.5c2.3-2.3,6.1-2.3,8.5,0l12.2,12.2
			C104.4,121.7,104.4,125.5,102.1,127.9z"/>
		<path class="st0" d="M103.1,128.9c-2.9,2.9-7.7,2.9-10.6,0l-12.2-12.2c-2.9-2.9-2.9-7.7,0-10.6s7.7-2.9,10.6,0l12.2,12.2
			C106,121.2,106,126,103.1,128.9z M82.4,108.2c-1.8,1.8-1.8,4.6,0,6.4l12.2,12.2c1.8,1.8,4.6,1.8,6.4,0c1.8-1.8,1.8-4.6,0-6.4
			l-12.2-12.2C87,106.5,84.2,106.5,82.4,108.2z"/>
	</g>
</g>
<g>
	<polygon class="st0" points="75,133.3 75,151.7 78,149.9 78,133.3 	"/>
	<rect x="87" y="133.3" class="st0" width="3" height="16.6"/>
</g>
<path class="st2" d="M70,89.8c-0.1,0-0.1,0-0.2-0.1c-0.3-0.1-0.6-0.2-0.8-0.3c-0.1,0-0.2,0-0.3-0.1c-0.3-0.1-0.5-0.1-0.8-0.2
	c-0.1,0-0.2,0-0.3,0c-0.4,0-0.7-0.1-1.1-0.1l0,0h-0.1h-8.2c-0.8,0-1.5,0.7-1.5,1.5v10.2v6.2v11.7c0,0.8,0.7,1.5,1.5,1.5h8.2h0.1l0,0
	c0.4,0,0.8,0,1.1-0.1c0.1,0,0.2,0,0.3,0c0.3,0,0.5-0.1,0.8-0.2c0.1,0,0.2,0,0.3-0.1c0.3-0.1,0.6-0.2,0.8-0.3c0.1,0,0.1,0,0.2-0.1
	c3.6-1.4,6.2-5,6.2-9.1v-3.4v-6.2v-1.9C76.2,94.7,73.7,91.2,70,89.8z M73.2,106.9v3.4c0,2-0.9,3.8-2.3,5c-0.3,0.3-0.6,0.5-0.9,0.7
	l0,0c-0.3,0.2-0.6,0.4-1,0.5h-0.1c-0.3,0.1-0.7,0.2-1,0.3h-0.1c-0.4,0.1-0.8,0.1-1.1,0.1l0,0h-0.3h-6.7v-10.2v-6.2v-8.7h6.7h0.3l0,0
	c0.4,0,0.8,0.1,1.1,0.1h0.1c0.4,0.1,0.7,0.2,1,0.3H69c0.3,0.1,0.7,0.3,1,0.5l0,0c0.3,0.2,0.6,0.4,0.9,0.7c1.4,1.2,2.3,3,2.3,5v1.9
	V106.9z"/>
<path class="st1" d="M73.4,106.9v3.4c0,2-0.9,3.8-2.3,5c-0.3,0.3-0.6,0.5-0.9,0.7l0,0c-0.3,0.2-0.6,0.4-1,0.5h-0.1
	c-0.3,0.1-0.7,0.2-1,0.3H68c-0.4,0.1-0.8,0.1-1.1,0.1l0,0h-0.3h-6.7v-10.2v-6.2v-8.7h6.7h0.3l0,0c0.4,0,0.8,0.1,1.1,0.1h0.1
	c0.4,0.1,0.7,0.2,1,0.3h0.1c0.3,0.1,0.7,0.3,1,0.5l0,0c0.3,0.2,0.6,0.4,0.9,0.7c1.4,1.2,2.3,3,2.3,5v1.9V106.9z"/>
<line class="st3" x1="116" y1="56.1" x2="121" y2="61.1"/>
<line class="st3" x1="116" y1="61.1" x2="121" y2="56.1"/>
<line class="st3" x1="49.5" y1="80.1" x2="49.5" y2="73.1"/>
<line class="st3" x1="53" y1="76.6" x2="46" y2="76.6"/>
</svg>
