<svg id="5697b6e4-cc9b-4f48-85ee-66619a549186" data-name="Layer 1" xmlns="http://www.w3.org/2000/svg" width="32mm" height="41.14mm" viewBox="0 0 90.72 116.63">
  <defs>
    <style>
      .\36 dd6185d-f7d0-4dad-9d2c-18624bd91268 {
        fill: #231f20;
      }
    </style>
  </defs>
  <title>Innovative</title>
  <path class="6dd6185d-f7d0-4dad-9d2c-18624bd91268" d="M90.72,15.38a1.5,1.5,0,0,0-1.44-1.49h0A12.39,12.39,0,0,1,76.9,1.5h-.06a1.5,1.5,0,0,0-3,0A12.39,12.39,0,0,1,61.47,13.88h0a1.49,1.49,0,0,0,0,3h0A12.39,12.39,0,0,1,73.84,29.25h.06a1.5,1.5,0,0,0,3,0A12.39,12.39,0,0,1,89.28,16.88h0A1.5,1.5,0,0,0,90.72,15.38Zm-22.59,0a15.47,15.47,0,0,0,7.26-7.22,15.45,15.45,0,0,0,7.24,7.2,15.47,15.47,0,0,0-7.26,7.22A15.45,15.45,0,0,0,68.12,15.38Z"/>
  <path class="6dd6185d-f7d0-4dad-9d2c-18624bd91268" d="M52.05,41.88a19.3,19.3,0,1,0-38.59,0,19.06,19.06,0,0,0,1.72,7.9A9.75,9.75,0,0,0,0,57.88v11.5a9.73,9.73,0,0,0,13,9.2v2.29a14.75,14.75,0,0,0,6.1,11.94v16.32a7.51,7.51,0,0,0,7.5,7.5h5.88a7.5,7.5,0,0,0,1.62-14.82V94.19a14.78,14.78,0,0,0,8.44-13.32v-14a14.66,14.66,0,0,0-2-7.36A19.31,19.31,0,0,0,52.05,41.88ZM9.76,76.13A6.77,6.77,0,0,1,3,69.38V57.88a6.76,6.76,0,0,1,13.52,0v11.5A6.77,6.77,0,0,1,9.76,76.13ZM19.09,88.8A11.71,11.71,0,0,1,16,80.87v-4a9.78,9.78,0,0,0,3.1-4.66Zm8.67,6.83a14.72,14.72,0,0,0,3.33-.39v6.38H26.72a7.46,7.46,0,0,0-4.63,1.61V94.5A14.69,14.69,0,0,0,27.76,95.64Zm-5.62-8V70.38a4.48,4.48,0,1,1,9,0V88.1a4.49,4.49,0,0,1-9-.48ZM37,109.13a4.5,4.5,0,0,1-4.5,4.5H26.72a4.5,4.5,0,0,1,0-9h5.75A4.5,4.5,0,0,1,37,109.13Zm2.56-28.26a11.76,11.76,0,0,1-5.44,9.91V88.45a7.53,7.53,0,0,0,0-.83V70.38a7.51,7.51,0,0,0-7.5-7.5h0a7.51,7.51,0,0,0-7.08,5v-9.4a11.87,11.87,0,0,1,1.56-1.32,19,19,0,0,0,16.58,3.32,11.69,11.69,0,0,1,1.88,6.36Zm-6.77-22.7A16.3,16.3,0,1,1,36.32,26L29.13,44.92a5,5,0,0,0-.79-.08,5,5,0,1,0,4.49,7.27l9.47,2.95A16.19,16.19,0,0,1,32.76,58.17Zm-2.38-8.29a2,2,0,1,1-2-2A2,2,0,0,1,30.38,49.88Zm15-12.26A1.5,1.5,0,0,1,44,36.74a12.34,12.34,0,0,0-4.94-5.5,1.5,1.5,0,1,1,1.54-2.58,15.33,15.33,0,0,1,6.13,6.83,1.5,1.5,0,0,1-1.36,2.12Z"/>
</svg>
