<?xml version="1.0" encoding="utf-8"?>
<!-- Generator: Adobe Illustrator 20.1.0, SVG Export Plug-In . SVG Version: 6.00 Build 0)  -->
<!DOCTYPE svg PUBLIC "-//W3C//DTD SVG 1.1//EN" "http://www.w3.org/Graphics/SVG/1.1/DTD/svg11.dtd">
<svg version="1.1" id="_x35_697b6e4-cc9b-4f48-85ee-66619a549186"
	 xmlns="http://www.w3.org/2000/svg" xmlns:xlink="http://www.w3.org/1999/xlink" x="0px" y="0px" viewBox="0 0 200 200"
	 style="enable-background:new 0 0 200 200;" xml:space="preserve">
<title>Innovative</title>
<path d="M145.4,57.1c0-0.8-0.6-1.5-1.4-1.5l0,0c-6.8,0-12.4-5.6-12.4-12.4h-0.1c0-0.8-0.7-1.5-1.5-1.5s-1.5,0.7-1.5,1.5
	c0,6.8-5.5,12.4-12.4,12.4l0,0c-0.8,0-1.5,0.7-1.5,1.5s0.7,1.5,1.5,1.5l0,0c6.8,0,12.4,5.5,12.4,12.4h0.1c0,0.8,0.7,1.5,1.5,1.5
	s1.5-0.7,1.5-1.5c0-6.8,5.5-12.4,12.4-12.4l0,0C144.7,58.5,145.4,57.9,145.4,57.1z M122.8,57.1c3.2-1.5,5.7-4.1,7.3-7.2
	c1.5,3.2,4.1,5.7,7.2,7.2c-3.2,1.5-5.7,4.1-7.3,7.2C128.5,61.1,125.9,58.6,122.8,57.1L122.8,57.1z"/>
<path d="M106.7,83.6c0.2-10.7-8.2-19.5-18.9-19.7C77.2,63.6,68.3,72,68.1,82.7c0,0.3,0,0.6,0,0.9c0,2.7,0.6,5.4,1.7,7.9
	c-4.5-3-10.5-1.8-13.5,2.7c-1.1,1.6-1.7,3.5-1.7,5.4v11.5c0,5.4,4.3,9.7,9.7,9.8c1.1,0,2.2-0.2,3.3-0.6v2.3c0,4.7,2.3,9.2,6.1,11.9
	v16.3c0,4.1,3.4,7.5,7.5,7.5h5.9c4.1,0,7.5-3.4,7.5-7.5c0-3.5-2.4-6.5-5.9-7.3v-7.6c5.1-2.4,8.4-7.6,8.4-13.3v-14
	c0-2.6-0.7-5.1-2-7.4C102.2,98.1,106.7,91.2,106.7,83.6z M64.4,117.8c-3.7,0-6.7-3-6.8-6.7V99.6c0-3.7,3-6.8,6.8-6.8s6.8,3,6.8,6.8
	v11.5C71.2,114.8,68.1,117.8,64.4,117.8z M73.7,130.5c-2-2.2-3.1-5-3.1-7.9v-4c1.5-1.2,2.5-2.8,3.1-4.7L73.7,130.5z M82.4,137.3
	c1.1,0,2.2-0.1,3.3-0.4v6.4h-4.4c-1.7,0-3.3,0.6-4.6,1.6v-8.7C78.5,136.9,80.5,137.3,82.4,137.3L82.4,137.3z M76.8,129.3v-17.2
	c0-2.5,2-4.5,4.5-4.5s4.5,2,4.5,4.5v17.7c-0.1,2.5-2.3,4.4-4.7,4.3C78.6,133.9,76.7,131.8,76.8,129.3L76.8,129.3L76.8,129.3z
	 M91.6,150.8c0,2.5-2,4.5-4.5,4.5h-5.8c-2.5,0-4.5-2-4.5-4.5s2-4.5,4.5-4.5h5.7C89.6,146.3,91.6,148.3,91.6,150.8
	C91.6,150.8,91.6,150.8,91.6,150.8z M94.2,122.6c0,4-2.1,7.8-5.4,9.9v-2.3c0-0.3,0-0.6,0-0.8v-17.2c0-4.1-3.4-7.5-7.5-7.5l0,0
	c-3.2,0-6,2-7.1,5v-9.4c0.5-0.5,1-0.9,1.6-1.3c4.7,3.6,10.8,4.9,16.6,3.3c1.2,1.9,1.9,4.1,1.9,6.4V122.6z M87.4,99.9
	c-9,0.1-16.4-7.1-16.5-16.1s7.1-16.4,16.1-16.5c1.3,0,2.6,0.1,3.9,0.4l-7.2,18.9c-0.3,0-0.5-0.1-0.8-0.1c-2.8,0-5,2.3-5,5
	c0,2.8,2.3,5,5,5c1.9,0,3.6-1.1,4.4-2.7l9.5,2.9C94.2,98.8,90.8,99.9,87.4,99.9L87.4,99.9z M85.1,91.6c0,1.1-0.9,2-2,2s-2-0.9-2-2
	c0-1.1,0.9-2,2-2C84.1,89.6,85,90.5,85.1,91.6L85.1,91.6z M100,79.3c-0.6,0-1.2-0.3-1.4-0.9c-1-2.3-2.8-4.2-4.9-5.5
	c-0.7-0.4-0.9-1.3-0.5-2.1c0.4-0.7,1.3-0.9,2.1-0.5c2.7,1.6,4.8,4,6.1,6.8c0.3,0.8,0,1.6-0.7,2C100.4,79.3,100.2,79.3,100,79.3
	L100,79.3z"/>
</svg>
