<svg id="Layer_2" data-name="Layer 2" xmlns="http://www.w3.org/2000/svg" viewBox="0 0 600 519.6"><defs><style>.cls-1{fill:#2b2526;}.cls-2{fill:#334f60;}</style></defs><title>jenkins</title><g id="jenkins_bw" data-name="jenkins bw"><path class="cls-1" d="M294,510.66c-9.22-.92-14.1-5.62-16-14.71-1.51-7.19-4.77-14-6.54-21.15-2.82-11.42-4.86-23.15-21.33-19.62-1.08.23-2.4-.82-3.65-1.11-13.32-3-24.65-11.12-37.36-15.22-13.57-4.38-18.61-12-17-25.67,1.16-10.09-2.3-17.92-10.18-25.41-19.37-18.39-32.71-41-42.24-66.07-5-13.15-5.92-27.28-11.26-40.23-2.05-30.87-.72-32.87,2-48.34,0.95-6.19.75-7.51,1.53-11.34,7.5-37,24.26-69,51.22-95.37,6.35-6.21,11.15-12,12.14-21.55,1.26-12.1,23-44.14,33.87-51.66,18-12.46,37-23.14,58.26-29.42,0,0,19-4.1,31.67-4.31s30.68,1.73,30.68,1.73c36.34,8,75.84,43.42,78.15,95.63,0.24,5.31,2.21,8.77,5.72,12.41,23.46,24.34,38.85,53.08,46.9,85.95,0,0,3.21,19,4,31.06s0.09,32.27.09,32.27c-3.69,24.33-10.29,47.71-22.4,69.31-0.86,1.54-1.53,2.9.12,4.17,11.68,9.07,13.48,23.06,17,35.82,7.17,26.27-8.27,45.14-35.1,44.47-7.92-.2-14.08-5.07-21-6.94-18.31-5-32.89,10.9-28.92,29.66,0.93,4.4,2.15,8.77,2.73,13.22,1.59,12-.53,15.3-12.24,18.89-4,1.23-7.07,2.29-5.88,7.69,1.95,8.84-3.69,12.47-10.85,15.55,0,0-18.07,1.71-36.4,2.13A310.24,310.24,0,0,1,294,510.66ZM260.08,51.75l16.47-10.93C259.45,39.28,228.12,59.87,222.13,76L234.21,72c6.55,0.91,12.87,1.19,16.92-5.58C254.07,61.48,257.09,56.63,260.08,51.75Zm139,359.57c0.43,9.53,3.49,12.1,9.68,8.17,4.32-2.74,2.21-6.61,1.88-10.18,0.75-10.36-1.41-20.17-5-29.86-1.81-4.89-5.23-5.21-9.12-4.39-4.68,1-2.12,4.51-1.78,7C396.08,391.8,397.6,401.55,399.06,411.31ZM352.27,322l4.71,9.84c0.36,2.85,1.08,5.54,3.45,7.46a32.12,32.12,0,0,0,5.49,12.19c0.17,1.72,0,4.18,2.3,4s1.62-2.61,1.59-4.29c3.32-12.76,3.55-25.79,3.53-38.85,2.25-7.13-4.94-5-7.44-7.43-7-6.87-15.86-3.3-20.75.9-5.27,4.53,3.75,9.07,5.37,14.07A7.75,7.75,0,0,0,352.27,322Zm24.34,31.73c8.14-10,14.23-21.27,20.66-32.34,1.79-3.08,3.9-6.22.35-9.47s-7.82-5.69-13-5.1c-4.87.57-5.81,4.28-6.18,8.35-1.13,12.41-2.3,24.82-3.45,37.22l-0.52,2Zm8.28,35.65c-1.45-6.09,1.06-15.87-11-12.21-9,2.72-5,9.29-4.1,14.89,0.13,9.92.43,19.85,0.32,29.76-0.06,5.67,1.08,9.18,8,8.69,5.88-.42,9.66-1.55,9.68-8.7C387.78,410.9,386.41,400.16,384.9,389.41ZM244,85.79c1.68-6.19-1.92-6-6.34-5.55-19.55,2.14-32,16.42-33.48,38.6-0.18,1.91-.37,3.83-0.53,5.74-0.63,7.37,1,10.63,9.55,7.42,8.67-3.28,16.25.68,22.81,6.65,3.53,3.22,4.06,8.31,6.77,12.15,2.56-2,2.11-4.14,1.67-5.84-3.27-12.75-2-25.4-.45-38.27C244.8,99.9,247.26,92.72,244,85.79Zm172.38,286.7c-7.47,6.39-.77,12.7.09,19l0.45,4.16c0.21,4.15.73,8.32,0.55,12.45-0.33,7.73,3.36,9.5,10.48,8.84,7.57-.7,15.25-0.16,24.8-0.16-6.31,4.88-12.67,2.83-18,7.88,11.82,0.16,22.79,2.39,30.8-6.79,7.24-8.29,7.12-18.05,3.21-27.94a60.57,60.57,0,0,0-6.11-23.06c-2.9-5.9-8.11-10.53-14.68-7.86C437.34,363.35,425.84,365.64,416.34,372.48ZM401.59,265.71c1.66,11.71,2.83,23.41,0,35.15-0.41,1.7-.27,4.18.71,5.46,5,6.51,1.6,11.67-1.65,17.51-7.56,13.62-17.65,25.84-22.77,40.81l-0.38.58,0.35-.61c5.76-.31,11.56-0.36,17.28-1,5.2-.59,10-2.13,12.23-7.85,9.26-23.62,18.19-47.33,22.55-72.46,0.54-3.62.57-7.39-2.16-10-8.78-8.48-17.63-16.91-26.82-24.95-4.52-4-6.8,1.25-9.3,3.63-3.36,3.21.13,4.25,2.29,5.31C397.62,259.08,399.3,262.64,401.59,265.71ZM354.67,377c-28.73-3.87-57.14-.55-85.5,3.88-3.72.58-5.25,1.87-4.7,6.34,4.29,34.85,10.5,69.28,20.86,102.89,1,3.36,1.82,6.54,6.23,7.52,16.4,3.67,32.81,6.57,49.69,4.13,8.53,1.55,16.54-1.37,24.73-2.8,3.85-.67,4.18-2.78,3.93-6.13-2.59-36-5.18-71.93-7.37-107.92C362.21,379.07,360.35,376.57,354.67,377Zm-95,12.65c0.94-5.9-1.88-8.06-7.49-7.9-5.07.14-10.14-.07-15.21-0.13,2.06-6.07,14.35-8,5.36-18.58,15,6.48,15.7,6,15.66-9,0-5.46.21-10.93-1.34-16.3a13.3,13.3,0,0,1,1.76-11.17c2.58-3.76,3.21.24,4.29,1.81-0.27,11.74-.81,23.49-0.66,35.23,0.06,4.41,0,10.74,8,7.22,22.72-1.28,45.2-5,68.2-6-8.46-5.77-17.07-10-25.63-14.34-3.44-1.74-8.91-4.06-7.68-7.61,3.3-9.51-1.33-14-8.32-18.29-1.14-.69-1.91-2.76-2-4.26C292.56,296,278.25,282.08,256.6,274c-2.35-.88-4.34-2.73-6.5-4.13a54,54,0,0,1-3.28-4.71c-5.48-9.86-12.45-9.72-21.49-4.42-10.55,6.19-21.16,12.22-31,19.53-16.83,12.51-16.79,12.47-10.16,32.07,10.89,32.22,15.92,65.49,17.66,99.34,0.24,4.62-1.17,10.17,5.8,11.41,14.23,8.12,28.6,16,44.67,19.94,12.17,3,14.63.43,12.82-11.53C263,417.58,261.44,403.58,259.64,389.61ZM403.45,73.33c-10.93-16.52-23.7-28.69-41.66-35.87-39.13-15.65-83-3.52-107.33,30.89-2.54,3.58-5.52,7.06-3.66,12.29,2.69,7.53,1.76,15.36,0,22.89-3.55,15.57-5.36,31.05-.14,46.59,1.91,5.68.44,9.39-5.76,10.68-5.41,1.12-9.74,1.68-11.1-6-1.28-7.29-5.69-13.4-13.92-14-8.44-.62-14.88,3.66-19.07,10.85-7,12-2.56,23.15,3.58,33.69,6.67,11.45,15.72,13.53,27.45,7.2,1.87-1,4-3.22,6-1,1.79,2,.56,4.5-1.15,6-5.44,4.71-5.71,10.55-3.76,16.68,3.31,10.4,6.67,20.77,11.85,30.5,5.43,10.19,14.19,14.49,24.79,18.07,13.09,4.42,24.15-2.81,37-3.39-14.14-11.93-27.22-24.16-33.8-41.63,6.74,6.18,12.52,13.21,18.53,20,35.61,40.45,85.26,22.32,105.06-7.32C422,192.15,424.7,150,419.18,106.19a25.73,25.73,0,0,0-11-18.49c-7-4.94-14.22-6.43-22.57-2.39C387.85,75.33,389.58,74.21,403.45,73.33ZM187.92,377.14c1.14-5.18.15-9.77-.55-14.41-3.35-22.2-14.18-42-20-63.44-3.24-11.82-1.91-14.78,8.85-21.12,16.92-10,33.72-20.15,50.57-30.26,2.2-1.32,4.57-2.53,5.59-5.11s-12.28-33.67-15-35C192,195.47,181.65,167.9,193,142.31c1.44-3.25,2.77-6.21.39-9.71C122.22,194.14,122.75,315.86,187.92,377.14ZM415,359.85c6.39-2.73,10.13-4.53,14-5.93s7.93-3.13,12-3.46c7.15-.57,10.49-4.87,13.35-10.64,26.68-53.7,27.26-107.62,1.06-161.55-6.52-13.41-14.53-26-26.51-37.38-1.89,31.79-5.8,61.56-21.27,88.52-2.64,4.6-.71,8.68,3.05,12,7,6.17,13.73,12.67,21,18.48,8.49,6.77,10.29,15.11,7.27,25q-5.09,16.6-10.41,33.13C424.39,331.05,420.11,344.09,415,359.85Zm-73-74.67c-13.12-6.47-24.2-12.87-36.82-16-7.66-1.92-11.19,1.18-12.22,8-2.12,14.05.61,27.44,6.47,40.29,1.91,4.18,4.87,4.12,8.77,3.2,10.65-2.53,19.28-8.53,27.5-15.32,2.93-2.42,6.66-4.56,5.63-9.26-1.15-5.24-6.19-1.67-8.83-3.64-0.41-.3-0.46-1.08-0.85-2.07Zm18.67,75.13c-6.11-15.78-11.84-30.28-20.94-43.2-1.55-2.21-3.26-4.31-6.29-2.38-7.91,5-15.55,10.38-19.68,19.29-1.32,2.84-2,5.17,1.64,7.13C329.46,348.75,343.85,355.54,360.65,360.31Zm24.43-59c10.62,3.16,12.56-3,12-11.36a133.68,133.68,0,0,0-2.25-17.1c-0.88-4.44-3.5-7.82-8.69-7-8.55,1.32-15.31,6.57-21.85,11.54-5.15,3.91,1,6.12,2.73,8.91,0.12,0.19-.62.89-0.9,1.38-5,8.78-.1,11.2,7.58,12C377.52,300.09,381.29,300.75,385.08,301.3Zm3.49,168.25c-1.53-8.2-3.3-16.37-4.5-24.62-0.59-4.08-2.15-5.32-6.24-5-4.51.37-6.16,2.16-5.91,6.65,0.44,8,.31,16.09.78,24.12,0.22,3.74-1,9.19,6.12,8C384,477.78,389.6,477.41,388.58,469.55Zm-128-202.42c6.1,7.94,13.49,9.88,20.71,12,4.24,1.24,4.63-2.24,5.26-5,0.88-3.82-1.75-3.91-4.49-4.21C275.48,269.21,268.94,268.24,260.56,267.13Zm77.37,5.58c12.87,5.52,17.22,4.7,24.19-4.91C353.69,269.09,345.67,269.54,337.92,272.71Zm12,10.62c-2.87-.55-4.06,1.73-3.57,5.12,0.45,3.19-.47,8,4.52,7.85,3.08-.09,5.35-3,5.56-6.64C356.69,285.86,355,283.67,350,283.33Z"/><path d="M187.92,377.14c-65.17-61.28-65.7-183,5.46-244.54,2.38,3.51,1.05,6.46-.39,9.71-11.34,25.59-1,53.16,24.4,65.52,2.67,1.3,16,32.33,15,35s-3.39,3.79-5.59,5.11c-16.84,10.11-33.65,20.28-50.57,30.26-10.75,6.34-12.08,9.3-8.85,21.12,5.86,21.4,16.69,41.24,20,63.44C188.08,367.37,189.06,372,187.92,377.14Z"/><path d="M415,359.85c5.12-15.76,9.39-28.8,13.58-41.86q5.3-16.53,10.41-33.13c3-9.86,1.22-18.2-7.27-25-7.28-5.81-14-12.31-21-18.48-3.76-3.32-5.7-7.39-3.05-12,15.47-27,19.38-56.72,21.27-88.52,12,11.33,20,24,26.51,37.38,26.2,53.93,25.61,107.85-1.06,161.55-2.87,5.77-6.2,10.07-13.35,10.64-4.07.33-8.08,2-12,3.46S421.39,357.12,415,359.85Z"/><path d="M342,285.18l-10.35,5.14c0.39,1,.44,1.77.85,2.07,2.63,2,7.67-1.6,8.83,3.64,1,4.7-2.7,6.84-5.63,9.26-8.22,6.78-16.85,12.79-27.5,15.32-3.89.92-6.86,1-8.77-3.2-5.86-12.85-8.59-26.24-6.47-40.29,1-6.78,4.55-9.88,12.22-8C317.78,272.32,328.86,278.71,342,285.18Z"/><path d="M385.08,301.3c-3.79-.55-7.57-1.21-11.37-1.62-7.67-.83-12.62-3.25-7.58-12,0.28-.49,1-1.19.9-1.38-1.75-2.79-7.88-5-2.73-8.91,6.55-5,13.31-10.22,21.85-11.54,5.19-.8,7.81,2.58,8.69,7a133.68,133.68,0,0,1,2.25,17.1C397.64,298.27,395.71,304.46,385.08,301.3Z"/><path d="M350,283.33c5.07,0.34,6.72,2.53,6.51,6.33-0.21,3.62-2.48,6.55-5.56,6.64-5,.14-4.07-4.66-4.52-7.85C345.92,285.06,347.1,282.79,350,283.33Z"/><path class="cls-1" d="M351.37,179.45c2.89,12.72,11.4,11.15,19.58,8.83,5.83-1.65,11.4-4.33,16.91-6.92,8.19-3.84,9.28-8.54,3.52-15.83-8.37-10.59-17.61-20.53-23-33.21-2.11-5-3.36-10-1.7-15.6,8.59,18.43,21.68,33.16,35.26,47.58,4,4.29,1.74,14.78-4,18.56-11.4,7.55-23.63,13-37.67,13.19C350,196.18,347,191.4,351.37,179.45Z"/><path class="cls-1" d="M379.84,224.67c-4.62,8-11.3,7.63-17.47,8.8-19.25,3.65-32.12-5-41.56-20.81-0.82-1.36-2.17-2.66-.36-4.07a2.22,2.22,0,0,1,3.36.53c11.64,18.45,30.54,14.47,47.8,15.53C373.81,224.79,376,224.67,379.84,224.67Z"/><path class="cls-1" d="M326.67,197.5c14,4.84,27.33,5.09,40.62,4.83,6.17-.12,5.22,4.18,5.71,7.73,0.67,4.83-2.93,4-5.63,4-11.29,0-22.3-1.38-32.35-7C331.72,205.15,328.61,203,326.67,197.5Z"/><path class="cls-1" d="M328.14,114.41c3.56,7.76,9.79,13.68,13.52,21.09,2.46,4.89-1.79,8.56-6.13,10.38-6.2,2.6-12.68,1.75-18.9-.25-2.91-.94-5.21-3-4.39-6.51,0.89-3.76,4-2.28,6.36-2.11,1,0.07,1.88.46,2.83,0.6,4.13,0.59,9,2.09,11.76-1.69,2.25-3.15-1.8-6.25-3-9.36-1.43-3.61-3.17-7.11-4.78-10.65Z"/><path class="cls-1" d="M284,108.34C280,92.81,297.64,74.64,311,78.08c3.69,0.95,7,2.77,6.58,7-0.47,4.68-4.47,2.41-6.93,2.33-9.82-.29-16.27,5-21.46,12.49C287.58,102.22,286.2,104.71,284,108.34Z"/><path class="cls-1" d="M215,178.22c-2.93-5.81-3.5-10.75-2.51-15.93,0.35-1.82,1.44-3.56.24-5.52-1-1.57-5.61.79-3.79-3.13,1.42-3,4.66-4.13,8.17-4,9.08,0.24,15,9.05,13.29,20.13-4.42-2.32-3.93-11.8-10-9.44C213.78,162.86,217.86,171.28,215,178.22Z"/><path class="cls-1" d="M405.92,110.18c3,5.77,5.79,11.08,8.54,16.39,2,3.82,5.92,7.93-.3,11.26-5.85,3.13-11.89,7.18-18.75,2.44a5.83,5.83,0,0,1-2-4.07c-0.11-2.46,2.25-3.25,4-3.1,14.19,1.23,12.15-6.22,8.31-15A8.66,8.66,0,0,1,405.92,110.18Z"/><path class="cls-1" d="M406.21,192.73c-4.38,10.3-11.47,17.14-21.92,19.93-2.36.63-6.08,3-6.54-2-0.29-3.11-2.26-7.81,2.64-8.89C389.34,199.81,397.31,195.28,406.21,192.73Z"/><path class="cls-2" d="M429.49,388.78c6.46-4.92,13.15-3.05,19.83-1.76C442.94,390.38,436.09,389.41,429.49,388.78Z"/><path class="cls-1" d="M440.55,374.17c-4.92,5.39-9.72,7.51-16.79,8.21C428.43,376.5,433,374,440.55,374.17Z"/></g></svg>