<svg id="Production" xmlns="http://www.w3.org/2000/svg" viewBox="0 0 751.89 612.9"><defs><style>.cls-1{fill:#fff;}</style></defs><title>kke</title><path class="cls-1" d="M442.93,661c-165.79,0-300.66-134.88-300.66-300.66S277.15,59.64,442.93,59.64,743.59,194.52,743.59,360.31,608.72,661,442.93,661Zm0-581.19c-154.68,0-280.53,125.84-280.53,280.53S288.25,640.83,442.93,640.83,723.46,515,723.46,360.31,597.61,79.78,442.93,79.78Z" transform="translate(-18.26 -48.07)"/><path class="cls-1" d="M279.68,568.25a100,100,0,1,1,100-100A100.07,100.07,0,0,1,279.68,568.25Zm0-186.5a86.54,86.54,0,1,0,86.54,86.54A86.63,86.63,0,0,0,279.68,381.75Z" transform="translate(-18.26 -48.07)"/><path class="cls-1" d="M180.88,504.91c-27.78-41-56.25-61.33-78.09-55.89-17,4.23-29.3,23.87-32.22,51.25l-13.35-1.43C60.75,465.72,77,441.64,99.53,436c37.82-9.46,74.16,34.4,92.45,61.37Z" transform="translate(-18.26 -48.07)"/><circle class="cls-1" cx="186.43" cy="218.91" r="44.41" transform="matrix(0.01, -1, 1, 0.01, -52.37, 355.33)"/><path d="M163.39,211.65l2.52,0-.06,6.54,6.46-6.48,3.1,0-5.79,5.68,6.06,8.69-3.14,0-4.65-6.9-2.07,2,0,4.83-2.52,0Z" transform="translate(-18.26 -48.07)"/><path d="M178.56,221.54a2.77,2.77,0,0,0,2.77,3.1,2.41,2.41,0,0,0,2.55-1.71l2.17,0a4.56,4.56,0,0,1-4.74,3.5c-3.26,0-5.07-2.32-5-5.52,0-3,2-5.48,5.08-5.45,3.28,0,5.27,3,4.86,6.12Zm5.37-1.46a2.68,2.68,0,1,0-5.35,0Z" transform="translate(-18.26 -48.07)"/><path d="M189.76,221.64a2.77,2.77,0,0,0,2.77,3.1,2.41,2.41,0,0,0,2.55-1.71l2.17,0a4.56,4.56,0,0,1-4.74,3.5c-3.26,0-5.07-2.32-5-5.52,0-3,2-5.48,5.08-5.45,3.28,0,5.27,3,4.86,6.12Zm5.37-1.46a2.68,2.68,0,1,0-5.35,0Z" transform="translate(-18.26 -48.07)"/><path d="M199.28,215.93l2.17,0v1.41h0a3.47,3.47,0,0,1,3.23-1.66c3.28,0,4.85,2.54,4.82,5.58,0,2.8-1.46,5.42-4.54,5.39a4,4,0,0,1-3.47-1.66h0l0,5.19-2.3,0Zm5.12,1.57c-1.93,0-2.93,1.44-3,3.66s1,3.67,2.89,3.69c2.09,0,2.89-1.83,2.91-3.64S206.29,217.52,204.4,217.5Z" transform="translate(-18.26 -48.07)"/><circle class="cls-1" cx="333.43" cy="386.22" r="44.41" transform="translate(-73.97 668.17) rotate(-89.5)"/><path d="M305.36,379l10.34.09,0,2.17-7.83-.07,0,3.76,7.24.06,0,2.05L307.8,387l0,4.21,8,.07,0,2.17-10.48-.09Z" transform="translate(-18.26 -48.07)"/><path d="M316.66,383l2.5,0,2.57,8h0l2.61-8,2.37,0-3.82,10.37-2.58,0Z" transform="translate(-18.26 -48.07)"/><path d="M327.61,388.31c0-3.18,2-5.46,5.3-5.43s5.23,2.34,5.2,5.52-2,5.48-5.3,5.45S327.58,391.51,327.61,388.31Zm8.21.07c0-1.79-.87-3.67-2.93-3.69s-3,1.85-3,3.64.88,3.69,2.93,3.71S335.8,390.2,335.82,388.39Z" transform="translate(-18.26 -48.07)"/><path d="M340.17,379.27l2.3,0-.13,14.37-2.29,0Z" transform="translate(-18.26 -48.07)"/><path d="M343.9,383.26l2.5,0,2.57,8h0l2.61-8,2.37,0-3.82,10.37-2.58,0Z" transform="translate(-18.26 -48.07)"/><path d="M357.12,389.18a2.77,2.77,0,0,0,2.77,3.11,2.41,2.41,0,0,0,2.55-1.71l2.17,0a4.56,4.56,0,0,1-4.74,3.5c-3.26,0-5.07-2.32-5-5.52,0-3,2-5.48,5.08-5.45,3.28,0,5.27,3,4.86,6.12Zm5.37-1.46a2.68,2.68,0,1,0-5.35,0Z" transform="translate(-18.26 -48.07)"/><circle class="cls-1" cx="725.74" cy="299.39" r="44.41" transform="translate(401.72 974.4) rotate(-89.5)"/><path d="M702.7,292.13l7,.06c2.58,0,4.26,1.2,4.23,3.6a3.16,3.16,0,0,1-2.08,3v0a3.42,3.42,0,0,1,2.66,3.73c0,2.25-1.61,4-5.33,4l-6.6-.06Zm2.41,12.34,4.45,0a2.14,2.14,0,0,0,2.44-2.25,2.11,2.11,0,0,0-2.4-2.24l-4.45,0Zm.06-6.3,4.11,0a1.92,1.92,0,0,0,2.13-2c0-1.45-.73-2-2.1-2l-4.11,0Z" transform="translate(-18.26 -48.07)"/><path d="M725.57,306.7l-2.25,0v-1.45h0a3.5,3.5,0,0,1-3,1.71c-2.72,0-3.87-1.4-3.85-4.12l.06-6.6,2.29,0-.06,6.38c0,1.83.72,2.5,2,2.51,1.91,0,2.57-1.21,2.58-2.82l.05-6,2.29,0Z" transform="translate(-18.26 -48.07)"/><path d="M728.14,296.32l2.29,0-.09,10.41-2.29,0Zm0-4,2.29,0,0,2.17-2.29,0Z" transform="translate(-18.26 -48.07)"/><path d="M733,292.4l2.3,0-.13,14.37-2.29,0Z" transform="translate(-18.26 -48.07)"/><path d="M747.49,306.9l-2.17,0v-1.41h0a3.46,3.46,0,0,1-3.24,1.66c-3.28,0-4.85-2.48-4.82-5.6,0-3.76,2.28-5.39,4.56-5.38a4,4,0,0,1,3.45,1.66h0l0-5.31,2.29,0Zm-5.12-1.57c2.05,0,2.93-1.85,3-3.66,0-2.29-1.08-3.67-2.85-3.69-2.15,0-2.93,1.89-3,3.76S740.38,305.3,742.37,305.32Z" transform="translate(-18.26 -48.07)"/><circle class="cls-1" cx="648.01" cy="561.54" r="44.41" transform="matrix(0.01, -1, 1, 0.01, 62.53, 1156.51)"/><path d="M630.31,554.26l11.63.1,0,2.17-4.57,0-.11,12.2-2.51,0,.11-12.2-4.55,0Z" transform="translate(-18.26 -48.07)"/><path d="M642.77,564.13a2.77,2.77,0,0,0,2.77,3.1,2.41,2.41,0,0,0,2.55-1.71l2.17,0a4.56,4.56,0,0,1-4.74,3.5c-3.26,0-5.07-2.32-5-5.52,0-3,2-5.48,5.08-5.45,3.28,0,5.27,3,4.86,6.12Zm5.37-1.46a2.68,2.68,0,1,0-5.35,0Z" transform="translate(-18.26 -48.07)"/><path d="M653.89,565.5c.11,1.33,1.11,1.82,2.34,1.83.87,0,2.37-.16,2.33-1.35s-1.72-1.36-3.39-1.76-3.33-1-3.31-3.11c0-2.27,2.48-3,4.37-2.94,2.13,0,4.06.92,4.32,3.24l-2.4,0c-.19-1.09-1.09-1.4-2.1-1.41-.66,0-1.89.14-1.9,1.05,0,1.13,1.68,1.3,3.37,1.7s3.35,1,3.33,3.07c0,2.48-2.53,3.36-4.68,3.34-2.62,0-4.56-1.21-4.58-3.66Z" transform="translate(-18.26 -48.07)"/><path d="M661.63,558.5h1.73l0-3.12,2.29,0,0,3.12,2.07,0v1.71l-2.07,0,0,5.55c0,.95.07,1.43,1.09,1.44a3.86,3.86,0,0,0,1-.07l0,1.77c-.5,0-1,.11-1.49.11-2.39,0-2.83-1-2.85-2.68l.05-6.14h-1.73Z" transform="translate(-18.26 -48.07)"/><circle class="cls-1" cx="559.18" cy="92.49" r="44.41" transform="matrix(0.01, -1, 1, 0.01, 443.51, 602.76)"/><path d="M534.46,85.22l2.52,0-.11,12.2,7.31.06,0,2.17-9.82-.09Z" transform="translate(-18.26 -48.07)"/><path d="M547.4,95.1a2.77,2.77,0,0,0,2.77,3.1,2.41,2.41,0,0,0,2.55-1.71l2.17,0a4.56,4.56,0,0,1-4.74,3.5c-3.26,0-5.07-2.32-5-5.52,0-3,2-5.48,5.08-5.45,3.28,0,5.27,3,4.86,6.12Zm5.37-1.46a2.68,2.68,0,1,0-5.35,0Z" transform="translate(-18.26 -48.07)"/><path d="M565.5,97.55c0,.56.11.79.54.79a3.16,3.16,0,0,0,.56,0V99.9a5.74,5.74,0,0,1-1.45.25c-.93,0-1.59-.34-1.76-1.28a5.34,5.34,0,0,1-3.61,1.24c-1.87,0-3.55-1-3.53-3.07,0-2.6,2.1-3,4-3.21,1.65-.29,3.12-.09,3.13-1.44,0-1.19-1.21-1.42-2.14-1.43-1.29,0-2.2.5-2.31,1.63l-2.29,0c.19-2.68,2.47-3.44,4.76-3.42,2,0,4.16.86,4.14,3.06Zm-2.27-2.92a8.21,8.21,0,0,1-2.82.6c-1,.15-1.87.51-1.89,1.71,0,1,1.3,1.34,2.1,1.35,1,0,2.58-.5,2.59-1.95Z" transform="translate(-18.26 -48.07)"/><path d="M568.05,89.48l2.15,0,0,2h0a3.36,3.36,0,0,1,3.06-2.27,5.59,5.59,0,0,1,.86.07l0,2.21a8.08,8.08,0,0,0-1-.11c-1.57,0-2.83,1.24-2.85,3.54l0,5-2.29,0Z" transform="translate(-18.26 -48.07)"/><path d="M575.5,89.55l2.17,0V91.1l0,0A3.73,3.73,0,0,1,581,89.32c2.25,0,3.67,1.24,3.65,3.57l-.06,7.14-2.29,0,.06-6.54c0-1.63-.66-2.34-2-2.35a2.54,2.54,0,0,0-2.54,2.71L577.7,100l-2.29,0Z" transform="translate(-18.26 -48.07)"/><circle class="cls-1" cx="62.68" cy="561.54" r="44.41" transform="matrix(0.01, -1, 1, 0.01, -517.65, 571.2)"/><path d="M41.31,554.28l6,.05c4.43,0,6.31,3.28,6.28,7.24s-2,7.17-6.4,7.13l-6-.05Zm2.41,12.34,2.47,0c3.94,0,4.81-2.21,4.84-5.09s-.8-5.14-4.74-5.17l-2.47,0Z" transform="translate(-18.26 -48.07)"/><path d="M55.49,558.36l2.15,0,0,2h0a3.36,3.36,0,0,1,3.06-2.27,5.38,5.38,0,0,1,.86.07l0,2.21a8.38,8.38,0,0,0-1-.11c-1.57,0-2.83,1.24-2.85,3.54l0,5-2.29,0Z" transform="translate(-18.26 -48.07)"/><path d="M61.69,563.61c0-3.18,2-5.46,5.3-5.43s5.23,2.34,5.2,5.52-2,5.48-5.3,5.45S61.66,566.81,61.69,563.61Zm8.21.07c0-1.79-.87-3.67-2.93-3.69s-3,1.85-3,3.64.87,3.69,2.93,3.71S69.89,565.5,69.9,563.69Z" transform="translate(-18.26 -48.07)"/><path d="M74.22,558.53l2.17,0V560h0a3.47,3.47,0,0,1,3.23-1.66c3.28,0,4.85,2.54,4.82,5.58,0,2.8-1.46,5.42-4.54,5.39a4,4,0,0,1-3.47-1.66h0l0,5.19-2.3,0Zm5.12,1.57c-1.93,0-2.93,1.44-3,3.66s1,3.67,2.89,3.69c2.09,0,2.89-1.83,2.91-3.64S81.23,560.12,79.34,560.1Z" transform="translate(-18.26 -48.07)"/><polygon class="cls-1" points="161.85 298.91 143.1 276 136.85 268.36 129.21 274.61 106.3 293.36 135.46 282.25 161.85 298.91"/><polygon class="cls-1" points="606.54 123.96 642.79 130.07 654.88 132.1 656.91 120.02 663.02 83.77 644.83 117.98 606.54 123.96"/><polygon class="cls-1" points="674.77 356.32 695.17 384.99 701.97 394.54 711.53 387.74 740.19 367.34 704.73 378.19 674.77 356.32"/><polygon class="cls-1" points="202.77 370.65 204.96 353.25 205.69 347.44 199.89 346.71 182.48 344.51 199.16 352.51 202.77 370.65"/><polygon class="cls-1" points="25.89 435.23 40.39 453.4 45.22 459.46 51.27 454.63 69.44 440.13 46.44 448.57 25.89 435.23"/></svg>