<?xml version="1.0" encoding="utf-8"?>
<!-- Generator: Adobe Illustrator 20.1.0, SVG Export Plug-In . SVG Version: 6.00 Build 0)  -->
<!DOCTYPE svg PUBLIC "-//W3C//DTD SVG 1.1//EN" "http://www.w3.org/Graphics/SVG/1.1/DTD/svg11.dtd">
<svg version="1.1" id="_x33_ce7cab1-feec-4919-be7c-f08d3c9c872b"
	 xmlns="http://www.w3.org/2000/svg" xmlns:xlink="http://www.w3.org/1999/xlink" x="0px" y="0px" viewBox="0 0 604.6 263.4"
	 style="enable-background:new 0 0 604.6 263.4;" xml:space="preserve">
<style type="text/css">
	.st0{fill:#FFFFFF;}
</style>
<title>buildit-logo-trademark</title>
<path class="st0" d="M0,0.4h77.1c31.2,0,52.3,10.4,52.3,41.9c0,16.6-8,28.1-22.2,35.2c20,5.9,30,21.8,30,42.8
	c0,34.3-28.2,48.9-57.8,48.9H0V0.4z M36,68.8h36.5c12.6,0,22-5.9,22-20.1c0-16.1-11.9-19.4-24.8-19.4H36V68.8z M36,140.4h38.5
	c14.2,0,26.6-4.7,26.6-22.2c0-17.3-10.5-24.1-25.9-24.1H36V140.4z M258.4,169.3h-31v-17.2h-0.7c-7.6,12.8-21.4,20.6-36.2,20.5
	c-34.6,0-43.3-20.3-43.3-50.8V45.9h32.6v69.7c0,20.3,5.7,30.3,20.9,30.3c17.7,0,25.2-10.3,25.2-35.3V45.9h32.6L258.4,169.3
	L258.4,169.3z M449.2,153.6h-0.5c-8.1,13.3-22.3,19-38.5,19c-38.2,0-56.8-31.7-56.8-65.6c0-32.9,18.9-63.5,56.1-63.5
	c14.9,0,29.6,6.2,37.5,18.2h0.5V0.1h34.8v169.1h-33.1V153.6z M418.9,68.8c-22.8,0-30.6,19-30.6,39.1c0,19.2,9.1,39.3,30.6,39.3
	c23,0,29.9-19.4,29.9-39.6C448.8,87.8,441.4,68.8,418.9,68.8z M492.1,0H525v29.9h-32.9V0z M492.1,45.9H525v123.4h-32.9V45.9z
	 M534.8,68.8V45.9h17.3v-35h32.3V46h20.2v22.9h-20.2v66c0,5.1,0.7,8.3,1.9,9.6s5.3,1.9,11.9,1.9c1,0,2,0,3.2-0.1
	c1.1,0,2.2-0.1,3.2-0.3v24.2l-15.5,0.7c-15.4,0.5-26-2.1-31.6-8c-3.7-3.7-5.6-9.4-5.6-17.3V68.8H534.8L534.8,68.8z M310.9,0h32.9
	v169.1h-32.9V0z M268.1,0H301v29.9h-32.9V0z M268.2,45.9h32.9v123.4h-32.9V45.9z"/>
<path class="st0" d="M33.2,238.3c-0.2,0.6-0.2,1.1-0.2,1.6c0,1.4,0.5,2,1.6,2c1,0,2-0.5,3.1-1.4s2-2.1,2.9-3.5s1.6-3.1,2.2-4.9
	c0.6-1.8,0.9-3.6,0.9-5.3c0-2.6-0.5-4.9-1.5-7s-2.3-3.9-4-5.3c-1.7-1.5-3.6-2.6-5.7-3.4c-2.1-0.8-4.3-1.2-6.7-1.2
	c-2.8,0-5.4,0.6-7.8,1.7s-4.5,2.6-6.3,4.6c-1.8,1.9-3.2,4.2-4.2,6.7S6,228.1,6,231s0.5,5.7,1.6,8.2s2.5,4.7,4.4,6.6
	c1.9,1.9,4,3.3,6.5,4.4c2.4,1.1,5.1,1.6,7.8,1.6c3.1,0,6.2-0.7,9.1-2.2c2.9-1.4,5.3-3.4,7.2-5.8h4.1c-1,1.8-2.3,3.5-3.8,4.9
	s-3.1,2.6-4.9,3.6c-1.8,1-3.7,1.7-5.7,2.2s-4.1,0.8-6.2,0.8c-3.5,0-6.7-0.6-9.7-1.9c-3-1.3-5.6-3-7.8-5.2s-3.9-4.8-5.2-7.8
	s-1.9-6.2-1.9-9.7c0-3.4,0.6-6.5,1.9-9.5s3-5.5,5.2-7.7s4.8-3.9,7.7-5.2c3-1.3,6.1-1.9,9.4-1.9c3,0,5.9,0.5,8.6,1.5s5.1,2.4,7.1,4.2
	s3.6,3.9,4.8,6.4s1.8,5.2,1.8,8.2c0,2.8-0.5,5.4-1.5,7.8c-1,2.3-2.3,4.3-3.8,6s-3.2,3-5,3.9s-3.5,1.4-5,1.4c-1.1,0-2.1-0.3-2.9-1
	s-1.2-1.8-1.3-3.2h-0.2c-1,1.1-2.2,2.2-3.6,3c-1.4,0.9-2.9,1.3-4.5,1.3c-1.4,0-2.7-0.3-3.8-0.8c-1.2-0.5-2.1-1.3-3-2.2
	c-0.8-0.9-1.4-2-1.9-3.3s-0.7-2.6-0.7-4.1c0-2.3,0.4-4.5,1.1-6.8c0.7-2.2,1.8-4.2,3.1-6c1.3-1.7,3-3.2,4.9-4.3s4-1.6,6.3-1.6
	c1.5,0,3,0.4,4.3,1.2s2.3,2.2,3.1,4.2l1.5-4.1h4.1l-5.5,18.6C33.5,237.2,33.3,237.7,33.2,238.3z M22,222.5c-1.3,0.9-2.4,2-3.3,3.4
	s-1.6,2.8-2.2,4.4c-0.5,1.6-0.8,3.1-0.8,4.6c0,1.8,0.5,3.4,1.6,4.6c1,1.2,2.4,1.8,4.1,1.8c1.4,0,2.8-0.5,4-1.4s2.3-2.1,3.2-3.5
	c0.9-1.4,1.6-2.9,2.2-4.6c0.5-1.6,0.8-3.1,0.8-4.5c0-0.8-0.1-1.6-0.4-2.3s-0.7-1.4-1.2-1.9s-1.1-1-1.7-1.3s-1.3-0.5-2-0.5
	C24.6,221.2,23.2,221.6,22,222.5z"/>
<path class="st0" d="M84.9,249.7l-6.9-27h-0.1l-6.8,27h-6l-10.9-33.9h6.2l7.7,27.7h0.1l6.8-27.7h6.1l7.1,27.7h0.1l7.6-27.7h5.8
	l-10.8,33.9L84.9,249.7L84.9,249.7z"/>
<path class="st0" d="M109.3,209.7v-6.8h5.6v6.8H109.3z M114.9,215.8v33.9h-5.6v-33.9L114.9,215.8L114.9,215.8z"/>
<path class="st0" d="M131.3,215.8v4.6h0.1c0.9-1.9,2.4-3.2,4.3-4.1c2-0.9,4.1-1.3,6.5-1.3c2.6,0,4.9,0.5,6.9,1.4
	c1.9,1,3.6,2.3,4.9,3.9c1.3,1.6,2.3,3.5,2.9,5.7c0.7,2.1,1,4.4,1,6.8c0,2.4-0.3,4.7-1,6.8c-0.6,2.1-1.6,4-2.9,5.6
	c-1.3,1.6-2.9,2.9-4.9,3.8c-1.9,0.9-4.2,1.4-6.8,1.4c-0.8,0-1.8-0.1-2.8-0.3s-2-0.5-3-0.9s-2-0.9-2.9-1.6c-0.9-0.7-1.7-1.5-2.3-2.5
	h-0.1v17.4h-5.6v-46.8h5.7V215.8z M151.3,227.9c-0.4-1.5-1-2.9-1.9-4c-0.9-1.2-1.9-2.1-3.3-2.8c-1.3-0.7-2.9-1-4.7-1
	c-1.9,0-3.5,0.4-4.8,1.1c-1.3,0.7-2.4,1.7-3.2,2.9s-1.4,2.6-1.8,4.1c-0.4,1.5-0.6,3.1-0.6,4.7c0,1.7,0.2,3.3,0.6,4.8
	c0.4,1.6,1,2.9,1.9,4.1c0.9,1.2,2,2.1,3.3,2.9c1.4,0.7,3,1.1,4.9,1.1s3.5-0.4,4.8-1.1c1.3-0.7,2.3-1.7,3.1-3
	c0.8-1.2,1.4-2.6,1.7-4.2c0.3-1.6,0.5-3.2,0.5-4.9C151.9,230.9,151.7,229.4,151.3,227.9z"/>
<path class="st0" d="M171.4,215.8v7.1h0.1c1.4-2.8,3-4.8,5-6.1s4.5-1.9,7.5-1.8v5.9c-2.2,0-4.1,0.3-5.7,0.9s-2.8,1.5-3.8,2.7
	s-1.7,2.6-2.1,4.3c-0.4,1.7-0.7,3.6-0.7,5.8v15.1h-5.6v-33.9L171.4,215.8L171.4,215.8z"/>
<path class="st0" d="M188.2,225.8c0.7-2.2,1.7-4,3.1-5.6c1.4-1.6,3.1-2.9,5.2-3.8c2.1-0.9,4.4-1.4,7.1-1.4c2.7,0,5.1,0.5,7.1,1.4
	s3.7,2.2,5.1,3.8c1.4,1.6,2.4,3.5,3.1,5.6c0.7,2.2,1,4.5,1,7s-0.4,4.8-1,7c-0.7,2.1-1.7,4-3.1,5.6c-1.4,1.6-3.1,2.8-5.1,3.7
	s-4.4,1.3-7.1,1.3c-2.7,0-5-0.4-7.1-1.3c-2.1-0.9-3.8-2.1-5.2-3.7c-1.4-1.6-2.4-3.5-3.1-5.6c-0.7-2.1-1-4.5-1-7
	C187.1,230.3,187.5,228,188.2,225.8z M193.9,238.3c0.5,1.6,1.3,2.9,2.3,4s2.1,1.9,3.4,2.5c1.3,0.6,2.7,0.9,4.1,0.9s2.8-0.3,4.1-0.9
	c1.3-0.6,2.4-1.4,3.4-2.5s1.7-2.4,2.3-4c0.5-1.6,0.8-3.4,0.8-5.5s-0.3-3.9-0.8-5.5s-1.3-2.9-2.3-4s-2.1-1.9-3.4-2.5
	c-1.3-0.6-2.7-0.9-4.1-0.9s-2.8,0.3-4.1,0.9c-1.3,0.6-2.4,1.4-3.4,2.5s-1.7,2.4-2.3,4c-0.5,1.6-0.8,3.4-0.8,5.5
	C193,234.9,193.3,236.7,193.9,238.3z"/>
<path class="st0" d="M253.3,249.7v-4.6h-0.1c-0.9,1.9-2.4,3.2-4.3,4.1c-2,0.8-4.1,1.2-6.5,1.2c-2.6,0-4.9-0.5-6.9-1.4
	c-1.9-1-3.6-2.3-4.9-3.9c-1.3-1.6-2.3-3.5-2.9-5.6c-0.7-2.1-1-4.4-1-6.8s0.3-4.7,1-6.8c0.6-2.1,1.6-4,2.9-5.6
	c1.3-1.6,2.9-2.9,4.9-3.8c1.9-0.9,4.2-1.4,6.8-1.4c0.9,0,1.8,0.1,2.8,0.3s2,0.5,3,0.9s2,1,2.9,1.6c0.9,0.7,1.6,1.5,2.3,2.5h0.1V203
	h5.6v46.8h-5.7V249.7z M233.3,237.7c0.4,1.5,1,2.9,1.9,4c0.9,1.2,1.9,2.1,3.3,2.8c1.3,0.7,2.9,1,4.7,1c1.9,0,3.5-0.4,4.8-1.1
	c1.3-0.7,2.4-1.7,3.2-2.9s1.4-2.6,1.8-4.1c0.4-1.5,0.6-3.1,0.6-4.7c0-1.7-0.2-3.3-0.6-4.8c-0.4-1.6-1-2.9-1.9-4.1
	c-0.9-1.2-2-2.1-3.3-2.9c-1.4-0.7-3-1.1-4.9-1.1s-3.5,0.4-4.8,1.1c-1.3,0.7-2.4,1.7-3.1,3c-0.8,1.2-1.4,2.6-1.7,4.2
	c-0.4,1.6-0.5,3.2-0.5,4.9C232.6,234.7,232.9,236.2,233.3,237.7z"/>
<path class="st0" d="M269.8,209.7v-6.8h5.6v6.8H269.8z M275.3,215.8v33.9h-5.6v-33.9L275.3,215.8L275.3,215.8z"/>
<path class="st0" d="M311.4,259.3c-2.5,2.8-6.5,4.1-11.9,4.1c-1.6,0-3.2-0.2-4.8-0.5c-1.6-0.4-3.1-0.9-4.5-1.7
	c-1.3-0.8-2.4-1.8-3.3-3.1c-0.9-1.3-1.4-2.8-1.4-4.7h5.6c0,1,0.4,1.9,1,2.6s1.3,1.3,2.2,1.7c0.9,0.4,1.8,0.8,2.8,1
	c1,0.2,2,0.3,2.9,0.3c1.8,0,3.4-0.3,4.7-1c1.3-0.6,2.3-1.5,3.1-2.6c0.8-1.1,1.4-2.5,1.8-4c0.4-1.6,0.6-3.3,0.6-5.2V244h-0.1
	c-1,2.1-2.4,3.6-4.4,4.6c-1.9,1-4,1.5-6.2,1.5c-2.5,0-4.7-0.5-6.6-1.4s-3.5-2.2-4.7-3.7c-1.3-1.6-2.2-3.4-2.9-5.4
	c-0.6-2.1-1-4.3-1-6.6c0-2,0.3-4.1,0.8-6.2c0.5-2.1,1.4-4,2.6-5.8c1.2-1.7,2.8-3.1,4.9-4.3c2-1.1,4.5-1.7,7.4-1.7
	c2.1,0,4.1,0.5,5.9,1.4s3.2,2.4,4.2,4.2h0.1v-4.9h5.2v31C315.2,252.4,314,256.6,311.4,259.3z M304.3,244.1c1.3-0.8,2.3-1.8,3.1-3
	c0.8-1.2,1.4-2.7,1.7-4.2c0.4-1.6,0.6-3.1,0.6-4.7c0-1.5-0.2-3-0.5-4.4c-0.4-1.4-0.9-2.7-1.7-3.9c-0.8-1.2-1.8-2.1-3-2.8
	s-2.7-1-4.5-1s-3.3,0.3-4.6,1c-1.3,0.7-2.3,1.6-3.1,2.7c-0.8,1.1-1.4,2.4-1.8,3.9s-0.6,3-0.6,4.7c0,1.5,0.2,3.1,0.5,4.6
	s0.8,2.9,1.6,4.2c0.7,1.2,1.7,2.3,3,3c1.2,0.8,2.8,1.1,4.6,1.1C301.5,245.2,303,244.8,304.3,244.1z"/>
<path class="st0" d="M325.9,209.7v-6.8h5.6v6.8H325.9z M331.5,215.8v33.9h-5.6v-33.9L331.5,215.8L331.5,215.8z"/>
<path class="st0" d="M356.6,215.8v4.9h-6.8v21.1c0,0.7,0.1,1.2,0.2,1.6c0.1,0.4,0.3,0.7,0.6,0.9c0.3,0.2,0.7,0.4,1.3,0.4
	c0.5,0.1,1.3,0.1,2.1,0.1h2.6v4.9h-4.3c-1.4,0-2.7-0.1-3.7-0.3s-1.9-0.6-2.5-1.1s-1.1-1.3-1.4-2.2c-0.3-1-0.5-2.2-0.5-3.8v-21.6
	h-5.8v-4.9h5.8v-10.2h5.6v10.2L356.6,215.8L356.6,215.8z"/>
<path class="st0" d="M394.8,249.6c-1,0.6-2.3,0.9-4,0.9c-1.4,0-2.6-0.4-3.4-1.2c-0.9-0.8-1.3-2.1-1.3-4c-1.5,1.8-3.3,3.2-5.3,4
	s-4.2,1.2-6.6,1.2c-1.5,0-3-0.2-4.4-0.5s-2.6-0.9-3.6-1.6c-1-0.7-1.8-1.7-2.4-2.9s-0.9-2.7-0.9-4.4c0-1.9,0.3-3.5,1-4.7
	s1.5-2.2,2.6-3s2.3-1.3,3.7-1.7c1.4-0.4,2.8-0.7,4.2-1c1.5-0.3,3-0.5,4.4-0.7s2.6-0.4,3.6-0.7s1.9-0.7,2.5-1.2s0.9-1.3,0.9-2.4
	c0-1.2-0.2-2.2-0.7-3c-0.5-0.7-1-1.3-1.8-1.7c-0.7-0.4-1.5-0.7-2.4-0.8s-1.8-0.2-2.7-0.2c-2.4,0-4.3,0.4-5.9,1.3
	c-1.6,0.9-2.4,2.6-2.6,5.1h-5.6c0.1-2.1,0.5-3.9,1.3-5.3c0.8-1.4,1.8-2.6,3.1-3.5c1.3-0.9,2.8-1.5,4.5-1.9s3.5-0.6,5.4-0.6
	c1.5,0,3.1,0.1,4.6,0.3s2.9,0.7,4.1,1.3c1.2,0.7,2.2,1.6,3,2.8c0.7,1.2,1.1,2.8,1.1,4.8v17.4c0,1.3,0.1,2.3,0.2,2.9
	c0.2,0.6,0.7,0.9,1.5,0.9c0.5,0,1-0.1,1.7-0.3v4.4L394.8,249.6L394.8,249.6z M385.7,232.2c-0.7,0.5-1.6,0.9-2.8,1.1
	c-1.1,0.2-2.3,0.4-3.6,0.6c-1.2,0.2-2.5,0.3-3.8,0.5s-2.4,0.5-3.4,0.9s-1.8,1.1-2.5,1.9c-0.6,0.8-1,1.9-1,3.3c0,0.9,0.2,1.7,0.6,2.3
	s0.9,1.1,1.4,1.5c0.6,0.4,1.3,0.7,2.1,0.8s1.6,0.3,2.5,0.3c1.8,0,3.4-0.2,4.7-0.7s2.4-1.1,3.2-1.9c0.8-0.8,1.4-1.6,1.8-2.5
	s0.6-1.7,0.6-2.5v-5.6L385.7,232.2L385.7,232.2z"/>
<path class="st0" d="M407.8,202.9v46.8h-5.6v-46.8H407.8z"/>
</svg>
