<?xml version="1.0" encoding="utf-8"?>
<!-- Generator: Adobe Illustrator 20.1.0, SVG Export Plug-In . SVG Version: 6.00 Build 0)  -->
<!DOCTYPE svg PUBLIC "-//W3C//DTD SVG 1.1//EN" "http://www.w3.org/Graphics/SVG/1.1/DTD/svg11.dtd">
<svg version="1.1" id="LOGO" xmlns="http://www.w3.org/2000/svg" xmlns:xlink="http://www.w3.org/1999/xlink" x="0px" y="0px"
	 viewBox="0 0 478 50.6" style="enable-background:new 0 0 478 50.6;" xml:space="preserve">
<style type="text/css">
	.st0{fill:#231F20;}
</style>
<g id="XMLID_1_">
	<g id="XMLID_2_">
		<g id="XMLID_398_">
			<path id="XMLID_414_" class="st0" d="M363.9,34.4c-1,1.5-2.3,2.7-3.9,3.4c-1.6,0.8-3.3,1.2-5,1.2c-1.9,0-3.5-0.3-5-1
				c-1.5-0.6-2.8-1.5-3.8-2.6c-1.1-1.1-1.9-2.4-2.5-3.9c-0.6-1.5-0.9-3.2-0.9-4.9c0-1.8,0.3-3.4,0.9-4.9c0.6-1.5,1.4-2.8,2.5-3.9
				c1.1-1.1,2.3-2,3.8-2.6c1.5-0.6,3.2-1,5-1c1.7,0,3.4,0.4,5,1.2c1.6,0.8,2.9,2,3.9,3.5h0.1V0.2h3.4v38.2H364v-4H363.9z
				 M346.3,26.6c0,1.3,0.2,2.6,0.6,3.7c0.4,1.2,1,2.2,1.7,3c0.8,0.9,1.7,1.5,2.8,2c1.1,0.5,2.4,0.7,3.8,0.7c1.3,0,2.5-0.2,3.6-0.7
				c1.1-0.5,2.1-1.2,2.9-2c0.8-0.8,1.4-1.8,1.9-3c0.5-1.2,0.7-2.4,0.7-3.8c0-1.3-0.2-2.6-0.7-3.8c-0.5-1.2-1.1-2.2-1.9-3
				c-0.8-0.9-1.8-1.5-2.9-2c-1.1-0.5-2.3-0.7-3.6-0.7c-1.4,0-2.7,0.3-3.8,0.8c-1.1,0.5-2,1.2-2.8,2c-0.8,0.9-1.3,1.9-1.7,3
				C346.5,24,346.3,25.3,346.3,26.6z"/>
			<path id="XMLID_413_" class="st0" d="M379.8,5.7c0,0.7-0.3,1.3-0.8,1.7c-0.5,0.5-1.1,0.7-1.7,0.7c-0.6,0-1.2-0.2-1.7-0.7
				c-0.5-0.5-0.8-1-0.8-1.7s0.3-1.3,0.8-1.7c0.5-0.5,1.1-0.7,1.7-0.7c0.6,0,1.2,0.2,1.7,0.7C379.5,4.4,379.8,5,379.8,5.7z"/>
			<rect id="XMLID_412_" x="375.6" y="14.8" class="st0" width="3.4" height="23.7"/>
			<path id="XMLID_409_" class="st0" d="M388.3,43.2c0.9,1.2,2.2,2.2,3.9,3.1c1.6,0.8,3.4,1.3,5.2,1.3c1.7,0,3.1-0.2,4.3-0.7
				c1.2-0.5,2.1-1.2,2.9-2c0.7-0.8,1.3-1.8,1.6-3c0.3-1.1,0.5-2.3,0.5-3.6v-4.4h-0.1c-0.9,1.5-2.2,2.6-3.9,3.4
				c-1.7,0.8-3.4,1.2-5.1,1.2c-1.9,0-3.5-0.3-5-0.9c-1.5-0.6-2.8-1.4-3.8-2.5c-1.1-1.1-1.9-2.3-2.5-3.8c-0.6-1.5-0.9-3.1-0.9-4.8
				c0-1.7,0.3-3.3,0.9-4.8c0.6-1.5,1.4-2.8,2.5-3.9c1.1-1.1,2.3-2,3.8-2.6c1.5-0.6,3.2-1,5-1c1.7,0,3.4,0.4,5.1,1.2
				c1.7,0.8,2.9,2,3.9,3.5h0.1v-4.1h3.4v23.5c0,1.3-0.2,2.6-0.5,4.1c-0.4,1.4-1,2.8-2,4c-1,1.2-2.3,2.2-3.9,3
				c-1.7,0.8-3.8,1.2-6.4,1.2c-2.2,0-4.3-0.4-6.3-1.3c-2-0.8-3.7-2-5.1-3.5L388.3,43.2z M388.9,26.3c0,1.2,0.2,2.4,0.6,3.5
				c0.4,1.1,1,2.1,1.7,2.9c0.8,0.8,1.7,1.5,2.8,2c1.1,0.5,2.4,0.7,3.8,0.7c1.3,0,2.5-0.2,3.6-0.7c1.1-0.4,2.1-1.1,2.9-1.9
				c0.8-0.8,1.4-1.8,1.9-2.9c0.5-1.1,0.7-2.4,0.7-3.8c0-1.2-0.2-2.4-0.7-3.5c-0.5-1.1-1.1-2.1-1.9-2.9c-0.8-0.8-1.8-1.5-2.9-2
				c-1.1-0.5-2.3-0.8-3.6-0.8c-1.4,0-2.7,0.3-3.8,0.8c-1.1,0.5-2,1.2-2.8,2c-0.8,0.8-1.3,1.8-1.7,2.9
				C389.1,23.9,388.9,25,388.9,26.3z"/>
			<path id="XMLID_408_" class="st0" d="M422.6,5.7c0,0.7-0.3,1.3-0.8,1.7c-0.5,0.5-1.1,0.7-1.7,0.7c-0.6,0-1.2-0.2-1.7-0.7
				c-0.5-0.5-0.8-1-0.8-1.7s0.3-1.3,0.8-1.7c0.5-0.5,1.1-0.7,1.7-0.7c0.6,0,1.2,0.2,1.7,0.7C422.3,4.4,422.6,5,422.6,5.7z"/>
			<rect id="XMLID_407_" x="418.4" y="14.8" class="st0" width="3.4" height="23.7"/>
			<path id="XMLID_405_" class="st0" d="M442.6,17.6H436v13.8c0,0.9,0.1,1.6,0.3,2.2c0.2,0.6,0.4,1,0.7,1.3c0.3,0.3,0.7,0.5,1.1,0.7
				c0.4,0.1,0.9,0.2,1.4,0.2c0.5,0,1-0.1,1.5-0.2c0.5-0.1,1-0.3,1.5-0.6l0.2,3c-0.6,0.2-1.2,0.4-1.9,0.5c-0.7,0.1-1.4,0.2-2.1,0.2
				c-0.6,0-1.3-0.1-2-0.3c-0.7-0.2-1.4-0.5-2-1c-0.6-0.5-1.1-1.1-1.5-1.9c-0.4-0.8-0.6-1.9-0.6-3.2V17.6h-4.9v-2.9h4.9V8.1h3.4v6.7
				h6.7V17.6z"/>
			<path id="XMLID_402_" class="st0" d="M463.7,23.1c0-2-0.5-3.6-1.6-4.6c-1.1-1-2.6-1.5-4.7-1.5c-1.4,0-2.7,0.3-3.9,0.8
				c-1.2,0.5-2.2,1.2-3.1,2l-1.9-2.3c1-1,2.3-1.8,3.9-2.4c1.6-0.6,3.4-1,5.4-1c1.3,0,2.5,0.2,3.6,0.5c1.1,0.4,2.1,0.9,2.9,1.6
				c0.8,0.7,1.5,1.6,2,2.7c0.5,1.1,0.7,2.3,0.7,3.8v10.4c0,0.9,0,1.9,0.1,2.8c0.1,1,0.2,1.8,0.3,2.5h-3.1c-0.1-0.6-0.2-1.2-0.3-1.9
				c-0.1-0.7-0.1-1.3-0.1-2h-0.1c-1.1,1.6-2.3,2.7-3.7,3.4c-1.4,0.7-3,1-4.9,1c-0.9,0-1.8-0.1-2.8-0.4c-1-0.3-1.8-0.7-2.6-1.2
				c-0.8-0.6-1.4-1.3-2-2.2c-0.5-0.9-0.8-2-0.8-3.3c0-1.8,0.5-3.3,1.4-4.3c0.9-1.1,2.2-1.9,3.7-2.4c1.6-0.5,3.3-0.9,5.3-1
				c2-0.2,4.1-0.2,6.2-0.2V23.1z M462.7,26.6c-1.4,0-2.8,0.1-4.3,0.2c-1.4,0.1-2.7,0.4-3.9,0.7c-1.2,0.4-2.1,0.9-2.9,1.5
				c-0.7,0.7-1.1,1.6-1.1,2.7c0,0.8,0.2,1.6,0.5,2.1c0.3,0.6,0.8,1,1.3,1.4c0.5,0.4,1.1,0.6,1.8,0.8c0.7,0.2,1.3,0.2,2,0.2
				c1.2,0,2.3-0.2,3.2-0.6c0.9-0.4,1.7-1,2.4-1.7c0.6-0.7,1.1-1.6,1.5-2.5c0.3-0.9,0.5-1.9,0.5-3v-1.8H462.7z"/>
			<path id="XMLID_399_" class="st0" d="M478,38.4h-3.4V0.2h3.4V38.4z"/>
		</g>
		<g id="XMLID_3_">
			<path id="XMLID_3032_" class="st0" d="M227.7,38.4h-7.8l-4.7-14.7h-0.1l-4.6,14.7h-7.8l-8.2-23.7h8.4l4.1,15h0.1l4.2-15h7.8
				l4.4,15h0.1l4.1-15h8.1L227.7,38.4z"/>
			<g id="XMLID_4_">
				<path id="XMLID_3031_" class="st0" d="M248.8,7.2c0,0.6-0.1,1.2-0.4,1.7c-0.2,0.5-0.6,1-1,1.4c-0.4,0.4-0.9,0.7-1.4,0.9
					c-0.6,0.2-1.1,0.3-1.7,0.3c-1.3,0-2.3-0.4-3.2-1.3c-0.9-0.8-1.3-1.8-1.3-3c0-0.6,0.1-1.1,0.3-1.6c0.2-0.5,0.5-1,1-1.4
					c0.4-0.4,0.9-0.7,1.4-0.9c0.5-0.2,1.1-0.4,1.8-0.4c0.6,0,1.2,0.1,1.7,0.3c0.6,0.2,1,0.5,1.4,0.9c0.4,0.4,0.7,0.8,1,1.4
					C248.7,6,248.8,6.6,248.8,7.2z"/>
				<rect id="XMLID_3030_" x="240.5" y="14.7" class="st0" width="7.8" height="23.7"/>
			</g>
			<path id="XMLID_1260_" class="st0" d="M281.2,26.5c0,1.6-0.3,3.2-0.8,4.8c-0.5,1.5-1.2,2.9-2.2,4c-1,1.2-2.1,2.1-3.5,2.8
				c-1.4,0.7-3,1-4.8,1c-1.5,0-2.8-0.3-4.1-0.9c-1.3-0.6-2.3-1.4-3-2.4h-0.1v14h-7.8V14.7h7.4v2.9h0.1c0.7-1,1.7-1.8,3-2.5
				c1.3-0.7,2.8-1.1,4.5-1.1c1.7,0,3.3,0.3,4.7,1c1.4,0.7,2.6,1.6,3.5,2.7c1,1.1,1.7,2.5,2.2,4C281,23.3,281.2,24.8,281.2,26.5z
				 M273.7,26.5c0-0.8-0.1-1.5-0.4-2.2c-0.2-0.7-0.6-1.4-1-1.9c-0.5-0.6-1-1-1.7-1.4c-0.7-0.3-1.5-0.5-2.4-0.5
				c-0.9,0-1.7,0.2-2.4,0.5c-0.7,0.3-1.3,0.8-1.8,1.4c-0.5,0.6-0.9,1.2-1.1,2c-0.3,0.7-0.4,1.5-0.4,2.2c0,0.8,0.1,1.5,0.4,2.2
				c0.3,0.7,0.6,1.4,1.1,2c0.5,0.6,1.1,1,1.8,1.4c0.7,0.3,1.5,0.5,2.4,0.5c0.9,0,1.7-0.2,2.4-0.5c0.7-0.3,1.3-0.8,1.7-1.4
				c0.5-0.6,0.8-1.2,1-2C273.5,28,273.7,27.2,273.7,26.5z"/>
			<path id="XMLID_1258_" class="st0" d="M301.7,21.2c-0.3-0.1-0.7-0.2-1-0.2c-0.3,0-0.7,0-1,0c-1,0-1.9,0.2-2.6,0.6
				c-0.7,0.4-1.3,0.8-1.7,1.4c-0.4,0.5-0.7,1.1-0.9,1.8c-0.2,0.6-0.3,1.2-0.3,1.7v12.1h-7.8V14.8h7.5v3.4h0.1c0.6-1.2,1.5-2.2,2.6-3
				c1.1-0.8,2.4-1.2,3.9-1.2c0.3,0,0.6,0,0.9,0c0.3,0,0.5,0.1,0.7,0.1L301.7,21.2z"/>
			<path id="XMLID_920_" class="st0" d="M330.4,26.5c0,1.9-0.3,3.7-1,5.3c-0.7,1.6-1.6,2.9-2.9,4c-1.2,1.1-2.6,1.9-4.2,2.5
				c-1.6,0.6-3.3,0.9-5.1,0.9c-1.8,0-3.5-0.3-5.1-0.9c-1.6-0.6-3-1.5-4.2-2.5c-1.2-1.1-2.1-2.4-2.8-4c-0.7-1.6-1-3.3-1-5.3
				c0-1.9,0.3-3.7,1-5.2c0.7-1.6,1.6-2.9,2.8-3.9c1.2-1.1,2.6-1.9,4.2-2.5c1.6-0.6,3.3-0.9,5.1-0.9c1.8,0,3.5,0.3,5.1,0.9
				c1.6,0.6,3,1.4,4.2,2.5c1.2,1.1,2.2,2.4,2.9,3.9C330,22.8,330.4,24.5,330.4,26.5z M322.8,26.5c0-0.8-0.1-1.5-0.4-2.2
				c-0.3-0.7-0.6-1.4-1.1-1.9c-0.5-0.6-1.1-1-1.8-1.4c-0.7-0.3-1.5-0.5-2.4-0.5c-0.9,0-1.7,0.2-2.4,0.5c-0.7,0.3-1.3,0.8-1.7,1.4
				c-0.5,0.6-0.8,1.2-1,1.9c-0.2,0.7-0.4,1.5-0.4,2.2c0,0.8,0.1,1.5,0.4,2.2c0.2,0.7,0.6,1.4,1.1,2c0.5,0.6,1.1,1.1,1.8,1.4
				c0.7,0.3,1.5,0.5,2.4,0.5c0.9,0,1.7-0.2,2.4-0.5c0.7-0.3,1.3-0.8,1.8-1.4c0.5-0.6,0.8-1.2,1.1-2C322.7,28,322.8,27.2,322.8,26.5z
				"/>
		</g>
	</g>
</g>
<g>
	<path class="st0" d="M182.9,33.7c-2,2-4.3,3.5-6.9,4.5c-2.7,1-5.6,1.5-8.8,1.5c-2.9,0-5.5-0.5-7.8-1.4c-2.4-0.9-4.4-2.2-6-3.8
		c-1.7-1.6-3-3.6-3.9-5.9c-0.9-2.3-1.4-4.8-1.4-7.5c0-2.7,0.5-5.1,1.5-7.4c1-2.3,2.4-4.2,4.1-5.9c1.7-1.7,3.8-3,6.1-3.9
		c2.3-1,4.8-1.4,7.4-1.4c2.3,0,4.5,0.3,6.6,1c2.1,0.7,4,1.7,5.7,3c1.7,1.3,3,3,4,5c1,2,1.5,4.3,1.5,7c0,2-0.3,3.8-0.8,5.3
		c-0.5,1.5-1.2,2.8-2.1,3.9c-0.9,1-1.9,1.8-3.1,2.3c-1.2,0.5-2.4,0.8-3.7,0.8c-1.5,0-2.6-0.4-3.3-1.1c-0.7-0.7-1-1.6-1-2.5h-0.2
		c-0.2,0.4-0.4,0.8-0.8,1.2c-0.4,0.4-0.8,0.8-1.3,1.2c-0.5,0.4-1.1,0.7-1.8,0.9c-0.7,0.2-1.4,0.4-2.3,0.4c-1.1,0-2.1-0.2-3-0.6
		c-0.9-0.4-1.7-1-2.3-1.7c-0.6-0.7-1.1-1.6-1.4-2.6c-0.3-1-0.5-2.1-0.5-3.3c0-1.4,0.2-2.8,0.7-4.1s1.1-2.5,2-3.6
		c0.9-1,1.9-1.9,3.1-2.5c1.2-0.6,2.6-1,4.2-1c1.3,0,2.4,0.3,3.3,0.9c0.9,0.6,1.6,1.3,1.9,2.1h0.2L173,12h3.1l-2,9.3
		c-0.1,0.2-0.1,0.5-0.2,0.9s-0.1,0.7-0.2,1.1c-0.1,0.4-0.1,0.8-0.2,1.1c0,0.4,0,0.7,0,0.9c0,0.3,0,0.6,0.1,0.9
		c0,0.3,0.2,0.5,0.3,0.8c0.2,0.2,0.4,0.5,0.8,0.6c0.3,0.1,0.7,0.2,1.3,0.2c0.8,0,1.6-0.2,2.3-0.7c0.7-0.5,1.3-1.1,1.8-1.9
		s0.9-1.8,1.1-2.9s0.4-2.3,0.4-3.5c0-2.2-0.4-4.1-1.1-5.7s-1.7-3-3-4.2c-1.3-1.1-2.8-2-4.5-2.6c-1.8-0.6-3.7-0.9-5.8-0.9
		c-2.3,0-4.4,0.4-6.2,1.2c-1.9,0.8-3.5,1.9-4.8,3.3c-1.3,1.4-2.4,3.1-3.1,5c-0.7,1.9-1.1,4-1.1,6.2c0,2.4,0.4,4.5,1.2,6.4
		c0.8,1.9,1.8,3.5,3.2,4.9c1.4,1.3,3,2.4,5,3.1c1.9,0.7,4,1.1,6.4,1.1c3,0,5.5-0.5,7.7-1.4c2.2-0.9,4.1-2.2,5.8-3.9L182.9,33.7z
		 M166.9,14.3c-1,0-1.9,0.3-2.6,0.8c-0.8,0.5-1.4,1.2-1.9,2c-0.5,0.8-0.9,1.7-1.2,2.7c-0.3,1-0.4,2-0.4,3c0,0.5,0.1,1,0.2,1.6
		c0.1,0.6,0.3,1.2,0.6,1.7c0.3,0.5,0.7,1,1.2,1.3c0.5,0.3,1.2,0.5,2,0.5c1.1,0,2.1-0.3,2.9-0.9c0.8-0.6,1.5-1.3,2-2.1
		c0.5-0.9,0.9-1.8,1.1-2.7c0.2-1,0.4-1.9,0.4-2.7c0-0.6-0.1-1.3-0.2-1.9c-0.1-0.6-0.4-1.2-0.7-1.7c-0.3-0.5-0.7-0.9-1.3-1.2
		S167.7,14.3,166.9,14.3z"/>
</g>
<path class="st0" d="M0,0.1h17.5c7.1,0,11.8,2.4,11.8,9.5c0,3.8-1.8,6.4-5,8c4.5,1.3,6.8,4.9,6.8,9.7c0,7.8-6.4,11.1-13.1,11.1H0
	V0.1z M8.2,15.6h8.3c2.9,0,5-1.3,5-4.6c0-3.6-2.7-4.4-5.6-4.4H8.2V15.6z M8.2,31.8h8.7c3.2,0,6-1.1,6-5c0-3.9-2.4-5.5-5.9-5.5H8.2
	V31.8z M58.5,38.3h-7v-3.9h-0.2c-1.7,2.9-4.8,4.7-8.2,4.6c-7.8,0-9.8-4.6-9.8-11.5V10.4h7.4v15.8c0,4.6,1.3,6.9,4.7,6.9
	c4,0,5.7-2.3,5.7-8V10.4h7.4L58.5,38.3L58.5,38.3z M101.7,34.8h-0.1c-1.8,3-5,4.3-8.7,4.3c-8.6,0-12.9-7.2-12.9-14.9
	c0-7.4,4.3-14.4,12.7-14.4c3.4,0,6.7,1.4,8.5,4.1h0.1V0h7.9v38.3h-7.5V34.8z M94.9,15.6c-5.2,0-6.9,4.3-6.9,8.9
	c0,4.3,2.1,8.9,6.9,8.9c5.2,0,6.8-4.4,6.8-9C101.6,19.9,99.9,15.6,94.9,15.6z M111.4,0h7.4v6.8h-7.4V0z M111.4,10.4h7.4v27.9h-7.4
	V10.4z M121.1,15.6v-5.2h3.9V2.5h7.3v7.9h4.6v5.2h-4.6v14.9c0,1.2,0.2,1.9,0.4,2.2c0.3,0.3,1.2,0.4,2.7,0.4c0.2,0,0.5,0,0.7,0
	c0.2,0,0.5,0,0.7-0.1v5.5l-3.5,0.2c-3.5,0.1-5.9-0.5-7.2-1.8c-0.8-0.8-1.3-2.1-1.3-3.9V15.6L121.1,15.6L121.1,15.6z M70.4,0h7.4
	v38.3h-7.4V0z M60.7,0h7.4v6.8h-7.4V0z M60.7,10.4h7.4v27.9h-7.4V10.4z"/>
</svg>
