<?xml version="1.0" encoding="utf-8"?>
<!-- Generator: Adobe Illustrator 21.0.0, SVG Export Plug-In . SVG Version: 6.00 Build 0)  -->
<svg version="1.1" xmlns="http://www.w3.org/2000/svg" xmlns:xlink="http://www.w3.org/1999/xlink" x="0px" y="0px"
	 viewBox="0 0 280 280" style="enable-background:new 0 0 280 280;" xml:space="preserve">
<style type="text/css">
	.st0{fill:#828282;}
	.st1{fill:#303030;}
	.st2{stroke:#000000;stroke-width:7.0579;stroke-miterlimit:10;}
	.st3{fill:#FFFFFF;stroke:#000000;stroke-width:7.098;stroke-miterlimit:10;}
	.st4{fill:none;stroke:#000000;stroke-width:7.098;stroke-linecap:round;stroke-miterlimit:10;}
	.st5{fill:#FFFFFF;}
	.st6{fill:none;stroke:#000000;stroke-width:9;stroke-miterlimit:10;}
	.st7{fill:none;stroke:#000000;stroke-width:5.9531;stroke-linecap:round;stroke-miterlimit:10;}
	.st8{fill:none;stroke:#000000;stroke-width:11.3958;stroke-linecap:round;stroke-miterlimit:10;}
	.st9{fill:none;stroke:#000000;stroke-width:10.2562;stroke-linecap:round;stroke-linejoin:round;stroke-miterlimit:10;}
	.st10{fill:none;stroke:#000000;stroke-width:7.977;stroke-miterlimit:10;}
</style>
<g id="DARTH_VADOR">
	<g id="RESPIRATOR">
	</g>
</g>
<g id="ASTRONAUT">
</g>
<g id="NO_BULL">
	<g>
		<path d="M106,237c-1.7,0.4,6.3,8.5,8,9c13.4,4.1,42.9,4.9,56,0c1.7-0.6,6.7-4.7,5-5c-20-3-13.8-11-36-11C132,230,119,234,106,237z
			"/>
	</g>
	<path d="M140,222c-8.2-0.1-23.9,11.2-32,10c-8-1.2-23-10.9-27-18c-3.1-5.5-4.2-19.6-1-25c3-5,16.1-6.8,21-10
		c5.5-3.6,13.8-14.7,20-17c9.9-3.6,32.2-3.6,42,0c6.5,2.4,14.9,14.8,21,18c3.4,1.8,12.5,1,15,4c5,5.9,6.2,23.9,3,31
		c-3.3,7.3-16,11.8-24,13C168.8,229.4,149.3,222.1,140,222z"/>
	<path d="M198,169c0,0-10,0.2-13-1c-5.6-2.3-13.7-11.8-18-16c-6-5.9-17.4-19-20-27c-3.3-10.3,0.5-33.6,6-43c4.5-7.7,23.2-17.7,32-16
		c3.3,0.6,9,10,9,10s4.3,16.9,7,22c2.7,5,11.9,12.7,14,18c2.3,5.8,4,19.5,1,25c-2.4,4.4-16,12-16,12L198,169z"/>
	<path d="M86.4,167c0,0,10,0.2,13-1c5.6-2.3,13.7-11.8,18-16c6-5.9,8.2-26.2,7-37c-1.4-12-18.2-25.7-27-24c-3.3,0.6-8,0-8,0
		s-3.3,1.9-6,7c-2.7,5-11.9,12.7-14,18c-2.3,5.8-4,19.5-1,25c2.4,4.4,16,12,16,12L86.4,167z"/>
	<g>
		<path d="M80,75c0,0-21-27-70-5c5,43,49,52,50,50s1.9-10.3,4-13c2.3-3,10-5.8,12-9C79,93,80,75,80,75z"/>
	</g>
	<g>
		<path d="M199.6,77c0,0,15.5-30.5,67.8-18.3c3.3,43.2-42.2,64.4-43.5,62.6c-1.4-1.8-1.9-10.8-4.4-13c-2.8-2.5-9-6.8-11.5-9.5
			C204,94.5,199.6,77,199.6,77z"/>
	</g>
	<path class="st6" d="M176,54c0.3-5,12.3-10.5,17.5-10.9c2.4-0.2,8.1-0.1,9.6,1.7c1.5,1.8,0.8,7,0,9.2c-1.4,4-9.1,19.7-11.4,15.9
		C185.5,59.5,175.7,59.2,176,54z"/>
	<path class="st6" d="M106.8,54.8c1.5-1.3-8-10-18.6-10.7c-2.6-0.2-8.6-0.1-10.3,1.7c-1.6,1.7-0.8,6.9,0,9.1
		c1.5,3.9,11.2,19.1,14,15.7C100.3,60.4,97.8,62.4,106.8,54.8z"/>
	<path d="M81,98c-1.1-4,2.1-12.3,4-16c2.2-4.4,6.8-13.3,10-17c4-4.6,13.6-12.3,19-15c5.6-2.7,17.8-5.6,24-6c6-0.4,18.1,1.5,24,3
		c5.2,1.3,15.8,4.7,20,8c4.1,3.2,10,12.2,12,17c1.1,2.6,2.6,10.7,1,13c-1,1.4-4.6,0-6-1c-2.3-1.6-0.8-8.5-2-11c-1.8-3.6-11-12-11-12
		s-11.8-5.9-16-7c-5.6-1.4-17.2-2.3-23-2c-5.6,0.3-27.4,6.4-33,7c-9,1-9.3,9.2-6,10c0,0-5.2,10.1-7,14c-2.2,4.7-0.2,18.2-5,20
		C84.3,103.6,81.5,99.7,81,98z"/>
	<g>
		<path class="st5" d="M193.9,106.8c1.7,5.2-0.2,11.4-4.3,14c-4.1,2.6-8.8,0.5-10.5-4.7s0.2-11.4,4.3-14
			C187.5,99.5,192.2,101.6,193.9,106.8z"/>
	</g>
	<g>
		<path class="st5" d="M89.2,106.7c-1.8,5.1,0,11.4,4,14.1c4,2.6,8.8,0.6,10.6-4.5c1.8-5.1,0-11.4-4-14.1
			C95.8,99.5,91.1,101.6,89.2,106.7z"/>
	</g>
	<g>
		<ellipse cx="183" cy="114" rx="7" ry="6"/>
	</g>
	<g>
		<ellipse cx="100" cy="114" rx="7" ry="6"/>
	</g>
</g>
<g id="EINSTEIN">
</g>
</svg>
