<svg id="7360ae4d-22e5-4d06-be8b-b2ae7c0d3434" data-name="Layer 1" xmlns="http://www.w3.org/2000/svg" width="32.24mm" height="28.22mm" viewBox="0 0 91.39 80">
  <defs>
    <style>
      .\34 3392e40-a66d-47c0-ad82-89130c727b4b, .b12fd985-0ab7-461f-8095-ddb4418391f7 {
        fill: none;
        stroke: #231f20;
        stroke-width: 3px;
      }

      .\34 3392e40-a66d-47c0-ad82-89130c727b4b {
        stroke-linejoin: round;
      }

      .b12fd985-0ab7-461f-8095-ddb4418391f7 {
        stroke-miterlimit: 10;
      }

      .\31 2cb9038-2f1f-4473-a2dc-057d49c9652b {
        fill: #231f20;
      }
    </style>
  </defs>
  <title>No_bull</title>
  <path class="43392e40-a66d-47c0-ad82-89130c727b4b" d="M44.58,10.36"/>
  <path class="b12fd985-0ab7-461f-8095-ddb4418391f7" d="M38.49,49.23"/>
  <g>
    <circle class="12cb9038-2f1f-4473-a2dc-057d49c9652b" cx="27.99" cy="38.66" r="4.04"/>
    <path class="12cb9038-2f1f-4473-a2dc-057d49c9652b" d="M35.91,59.78a5,5,0,1,0,5,5A5,5,0,0,0,35.91,59.78Zm0,7.07a2,2,0,1,1,2-2A2,2,0,0,1,35.91,66.86Z"/>
    <path class="12cb9038-2f1f-4473-a2dc-057d49c9652b" d="M55.24,59.78a5,5,0,1,0,5,5A5,5,0,0,0,55.24,59.78Zm0,7.07a2,2,0,1,1,2-2A2,2,0,0,1,55.24,66.86Z"/>
    <path class="12cb9038-2f1f-4473-a2dc-057d49c9652b" d="M83.49,9.58c-4.95,0-9.13,3.72-10.48,8.24a10.92,10.92,0,0,0-8.45-4h-.75A15.35,15.35,0,0,0,70,1.5a1.5,1.5,0,0,0-3,0A12.39,12.39,0,0,1,55.89,13.81H35.5A12.39,12.39,0,0,1,24.37,1.5a1.5,1.5,0,0,0-3,0,15.35,15.35,0,0,0,6.2,12.31h-.75a10.92,10.92,0,0,0-8.45,4,11.1,11.1,0,0,0-10.48-8H0v8A11,11,0,0,0,10.94,28.76h4.94V45a10.94,10.94,0,0,0,6.58,10l.21.09.21,0a10.87,10.87,0,0,0-.61,3.58V69.06A11,11,0,0,0,32.81,80H58.18A11,11,0,0,0,69.12,69.06V58.77a10.87,10.87,0,0,0-.6-3.53,11,11,0,0,0,7-10.2V28.5h2.66c6,0,13.23-4.88,13.23-10.94v-8ZM24.39,52.33l-.93-.1A8,8,0,0,1,18.89,45V28.63H29A8,8,0,0,1,37,36.57V47.83H33.21A10.92,10.92,0,0,0,24.39,52.33ZM66.12,69.06A8,8,0,0,1,58.18,77h-25a8,8,0,0,1-7.94-7.94V58.77a8,8,0,0,1,7.94-7.94h25A7.73,7.73,0,0,1,65,54.93l.56,1a7.89,7.89,0,0,1,.52,2.81ZM63.4,42.7a4,4,0,1,1,4-4A4,4,0,0,1,63.4,42.7Zm9.1-17.14H62.22A11,11,0,0,0,51.27,36.51V47.83H40V36.57A11,11,0,0,0,29,25.63H18.89v-.87a8,8,0,0,1,7.94-7.94H64.56a8,8,0,0,1,7.94,7.94Zm15.89-8c0,4.2-5.72,7.94-10.23,7.94h-.79l-1.73,0-.09-.31V20.52a8,8,0,0,1,7.94-7.94h4.89Z"/>
  </g>
</svg>
