<?xml version="1.0" encoding="utf-8"?>
<!-- Generator: Adobe Illustrator 20.1.0, SVG Export Plug-In . SVG Version: 6.00 Build 0)  -->
<!DOCTYPE svg PUBLIC "-//W3C//DTD SVG 1.1//EN" "http://www.w3.org/Graphics/SVG/1.1/DTD/svg11.dtd">
<svg version="1.1" id="_x37_360ae4d-22e5-4d06-be8b-b2ae7c0d3434"
	 xmlns="http://www.w3.org/2000/svg" xmlns:xlink="http://www.w3.org/1999/xlink" x="0px" y="0px" viewBox="0 0 200 200"
	 style="enable-background:new 0 0 200 200;" xml:space="preserve">
<style type="text/css">
	.st0{fill:none;stroke:#231F20;stroke-width:3;stroke-miterlimit:10;}
</style>
<title>No_bull</title>
<path d="M98.9,70.4"/>
<path class="st0" d="M92.8,109.2"/>
<g>
	<circle cx="82.3" cy="98.7" r="4"/>
	<path d="M90.2,119.8c-2.8,0-5,2.2-5,5s2.2,5,5,5s5-2.2,5-5S93,119.8,90.2,119.8z M90.2,126.8c-1.1,0-2-0.9-2-2c0-1.1,0.9-2,2-2
		c1.1,0,2,0.9,2,2C92.2,126,91.3,126.9,90.2,126.8C90.2,126.9,90.2,126.9,90.2,126.8L90.2,126.8z"/>
	<path d="M109.5,119.8c-2.8,0-5,2.2-5,5s2.2,5,5,5s5-2.2,5-5S112.3,119.8,109.5,119.8z M109.5,126.8c-1.1,0-2-0.9-2-2
		c0-1.1,0.9-2,2-2s2,0.9,2,2C111.5,126,110.7,126.9,109.5,126.8C109.6,126.9,109.5,126.9,109.5,126.8L109.5,126.8z"/>
	<path d="M137.8,69.6c-4.9,0-9.1,3.7-10.5,8.2c-2.1-2.5-5.2-4-8.4-4h-0.7c3.9-2.9,6.2-7.5,6.2-12.3c0-0.8-0.7-1.5-1.5-1.5
		c-0.8,0-1.5,0.7-1.5,1.5c0,6.3-4.8,11.7-11.1,12.3H89.8c-6.3-0.6-11.1-6-11.1-12.3c0-0.8-0.7-1.5-1.5-1.5c-0.8,0-1.5,0.7-1.5,1.5
		c0,4.9,2.3,9.4,6.2,12.3h-0.7c-3.3,0-6.4,1.5-8.4,4c-1.4-4.7-5.6-7.9-10.5-8h-7.9v8c0,6,4.9,10.9,10.9,10.9h4.9V105
		c0,4.3,2.6,8.3,6.6,10l0.2,0.1h0.2c-0.4,1.2-0.6,2.4-0.6,3.6v10.4c0,5.9,4.7,10.7,10.5,10.9h25.4c6,0,10.9-4.9,10.9-10.9v-10.3
		c0-1.2-0.2-2.4-0.6-3.5c4.2-1.6,7-5.7,7-10.2V88.5h2.7c6,0,13.2-4.9,13.2-10.9v-8L137.8,69.6z M78.7,112.3l-0.9-0.1
		c-2.8-1.3-4.6-4.1-4.6-7.2V88.6h10.1c4.4,0,8,3.5,8,7.9v11.3h-3.8C84,107.8,80.7,109.5,78.7,112.3z M120.4,129.1
		c0,4.4-3.6,7.9-7.9,7.9h-25c-4.4,0-7.9-3.6-7.9-7.9v-10.3c0-4.4,3.6-7.9,7.9-7.9h25c2.9,0,5.5,1.6,6.8,4.1l0.6,1
		c0.3,0.9,0.5,1.8,0.5,2.8L120.4,129.1z M117.7,102.7c-2.2,0-4-1.8-4-4s1.8-4,4-4s4,1.8,4,4S119.9,102.7,117.7,102.7z M126.8,85.6
		h-10.3c-6,0-10.9,4.9-10.9,10.9v11.3H94.3V96.6c0-6.1-4.9-10.9-11-10.9H73.2v-0.9c0-4.4,3.6-7.9,7.9-7.9h37.7
		c4.4,0,7.9,3.6,7.9,7.9V85.6z M142.7,77.6c0,4.2-5.7,7.9-10.2,7.9h-0.8h-1.7l-0.1-0.3v-4.7c0-4.4,3.6-7.9,7.9-7.9h4.9L142.7,77.6z"
		/>
</g>
</svg>
