<svg id="Layer_2" data-name="Layer 2" xmlns="http://www.w3.org/2000/svg" xmlns:xlink="http://www.w3.org/1999/xlink" viewBox="0 0 600 519.6"><defs><style>.cls-1{fill:none;}.cls-2{clip-path:url(#clip-path);}.cls-3,.cls-5{fill:#699f63;}.cls-4{fill:#333;}.cls-4,.cls-5{fill-rule:evenodd;}.cls-6{clip-path:url(#clip-path-5);}.cls-7{fill:url(#linear-gradient);}.cls-8{clip-path:url(#clip-path-6);}.cls-9{opacity:0.66;}.cls-10{clip-path:url(#clip-path-7);}.cls-11{fill:#b4b4b4;}.cls-12{clip-path:url(#clip-path-8);}.cls-13{fill:url(#linear-gradient-2);}</style><clipPath id="clip-path"><rect class="cls-1" x="-63" y="-77.72" width="727" height="727"/></clipPath><clipPath id="clip-path-5"><path class="cls-1" d="M226.29,197.17l-50.91,29.39a6.15,6.15,0,0,0-3.08,5.33v58.82a6.15,6.15,0,0,0,3.07,5.33l50.91,29.41a6.16,6.16,0,0,0,6.15,0L283.37,296a6.15,6.15,0,0,0,3.08-5.33V231.89a6.15,6.15,0,0,0-3.08-5.33l-50.93-29.39a6.15,6.15,0,0,0-6.15,0"/></clipPath><linearGradient id="linear-gradient" x1="-0.23" y1="518.94" x2="0.98" y2="518.94" gradientTransform="matrix(94.2, 0, 0, -94.2, 194.2, 49147.74)" gradientUnits="userSpaceOnUse"><stop offset="0" stop-color="#231f20"/><stop offset="0.01" stop-color="#231f20"/><stop offset="0.2" stop-color="#393738"/><stop offset="0.55" stop-color="#5c5c5e"/><stop offset="0.82" stop-color="#717375"/><stop offset="1" stop-color="#797b7d"/></linearGradient><clipPath id="clip-path-6"><path class="cls-1" d="M226.3,197.17l-50.93,29.39a6.15,6.15,0,0,0-3.08,5.33v58.82a6.15,6.15,0,0,0,3.07,5.33l50.93,29.41a6.15,6.15,0,0,0,6.15,0L283.37,296a6.15,6.15,0,0,0,3.08-5.33V231.88a6.15,6.15,0,0,0-3.08-5.33l-50.92-29.39a6.15,6.15,0,0,0-6.15,0"/></clipPath><clipPath id="clip-path-7"><rect class="cls-1" x="173.5" y="196.53" width="111.17" height="129.73"/></clipPath><clipPath id="clip-path-8"><path class="cls-1" d="M229,196.36a6.15,6.15,0,0,0-2.69.81l-50.44,29.11,54.8,99.82a6.13,6.13,0,0,0,1.66-.65L283.13,296a5.94,5.94,0,0,0,2.83-5.33v-0.23l-55-93.9a6.28,6.28,0,0,0-1.69-.23H229"/></clipPath><linearGradient id="linear-gradient-2" x1="-0.23" y1="518.96" x2="0.98" y2="518.96" gradientTransform="matrix(97.18, 0, 0, -97.18, 193.55, 50692.91)" gradientUnits="userSpaceOnUse"><stop offset="0" stop-color="#797b7d"/><stop offset="0.18" stop-color="#717375"/><stop offset="0.45" stop-color="#5c5c5e"/><stop offset="0.8" stop-color="#393738"/><stop offset="0.99" stop-color="#231f20"/><stop offset="1" stop-color="#231f20"/></linearGradient></defs><title>nodejs</title><g class="cls-2"><g id="node_js_BW" data-name="node js BW"><g class="cls-2"><g class="cls-2"><g class="cls-2"><path class="cls-3" d="M296.48,449.63a10.15,10.15,0,0,1-5.08-1.36l-16.16-9.56c-2.41-1.35-1.23-1.83-.44-2.11a32.22,32.22,0,0,0,7.31-3.32,1.24,1.24,0,0,1,1.2.09l12.42,7.37a1.59,1.59,0,0,0,1.5,0l48.41-27.94a1.53,1.53,0,0,0,.74-1.31V355.62a1.56,1.56,0,0,0-.75-1.33l-48.39-27.92a1.52,1.52,0,0,0-1.49,0L247.37,354.3a1.56,1.56,0,0,0-.77,1.33v55.87a1.48,1.48,0,0,0,.76,1.29l13.26,7.66c7.2,3.6,11.6-.64,11.6-4.9V360.39a1.39,1.39,0,0,1,1.41-1.39h6.14a1.4,1.4,0,0,1,1.4,1.39v55.16c0,9.6-5.23,15.11-14.34,15.11-2.8,0-5,0-11.15-3L243,420.32a10.22,10.22,0,0,1-5.08-8.83V355.62A10.2,10.2,0,0,1,243,346.8l48.41-28a10.61,10.61,0,0,1,10.17,0l48.41,28a10.22,10.22,0,0,1,5.09,8.82v55.87a10.25,10.25,0,0,1-5.09,8.83l-48.41,27.95a10.17,10.17,0,0,1-5.1,1.36"/><path class="cls-3" d="M311.44,411.14c-21.18,0-25.62-9.72-25.62-17.88a1.39,1.39,0,0,1,1.4-1.4h6.26a1.4,1.4,0,0,1,1.39,1.19c0.95,6.37,3.76,9.59,16.57,9.59,10.2,0,14.54-2.31,14.54-7.72,0-3.12-1.23-5.44-17.08-7-13.25-1.31-21.44-4.24-21.44-14.83,0-9.77,8.23-15.59,22-15.59,15.51,0,23.18,5.38,24.15,16.93a1.4,1.4,0,0,1-1.39,1.52H326a1.39,1.39,0,0,1-1.36-1.09c-1.51-6.71-5.17-8.85-15.12-8.85-11.14,0-12.43,3.88-12.43,6.79,0,3.52,1.53,4.55,16.56,6.54,14.88,2,21.94,4.75,21.94,15.21s-8.8,16.59-24.14,16.59"/><path class="cls-3" d="M381.24,352.55a9.33,9.33,0,1,1-9.33-9.33,9.36,9.36,0,0,1,9.33,9.33m-17.15,0a7.82,7.82,0,1,0,7.8-7.8,7.83,7.83,0,0,0-7.8,7.8m4.32-5.21H372c1.23,0,3.65,0,3.65,2.77a2.4,2.4,0,0,1-2,2.57c1.43,0.1,1.53,1,1.73,2.37a10.27,10.27,0,0,0,.54,2.76h-2.22c-0.05-.49-0.4-3.16-0.4-3.31a0.94,0.94,0,0,0-1.09-.89h-1.82v4.19h-2V347.32Zm2,4.59H372a1.41,1.41,0,0,0,1.58-1.48,1.27,1.27,0,0,0-1.53-1.43h-1.68v2.91Z"/><path class="cls-4" d="M146.57,231.05a6.19,6.19,0,0,0-3.1-5.39L92.15,196.13a6,6,0,0,0-2.83-.82H88.79a6.14,6.14,0,0,0-2.83.82L34.63,225.67a6.22,6.22,0,0,0-3.1,5.39l0.11,79.54a3,3,0,0,0,1.55,2.68,3,3,0,0,0,3.08,0l30.5-17.47a6.25,6.25,0,0,0,3.1-5.38V253.26A6.17,6.17,0,0,1,73,247.9l13-7.48a6.16,6.16,0,0,1,3.11-.83,6.06,6.06,0,0,1,3.08.83l13,7.48a6.18,6.18,0,0,1,3.1,5.37v37.16a6.26,6.26,0,0,0,3.11,5.38l30.49,17.47a3,3,0,0,0,3.1,0,3.1,3.1,0,0,0,1.54-2.68Z"/><path class="cls-4" d="M393.53,121.72a3.1,3.1,0,0,0-4.61,2.71v78.77a2.17,2.17,0,0,1-3.25,1.88l-12.86-7.41a6.2,6.2,0,0,0-6.19,0L315.27,227.3a6.2,6.2,0,0,0-3.1,5.37v59.27a6.2,6.2,0,0,0,3.1,5.37L366.61,327a6.2,6.2,0,0,0,6.2,0l51.35-29.65a6.21,6.21,0,0,0,3.1-5.37V144.18a6.2,6.2,0,0,0-3.18-5.41Zm-4.76,150.75a1.55,1.55,0,0,1-.78,1.34L370.36,284a1.55,1.55,0,0,1-1.55,0l-17.63-10.16a1.54,1.54,0,0,1-.78-1.34V252.11a1.55,1.55,0,0,1,.77-1.34l17.63-10.18a1.55,1.55,0,0,1,1.55,0L388,250.77a1.55,1.55,0,0,1,.77,1.34v20.36Z"/><path class="cls-4" d="M564.5,251.58a6.2,6.2,0,0,0,3.08-5.36V231.85a6.2,6.2,0,0,0-3.09-5.36l-51-29.62a6.2,6.2,0,0,0-6.21,0l-51.33,29.63a6.2,6.2,0,0,0-3.1,5.37v59.26a6.2,6.2,0,0,0,3.13,5.39l51,29.07a6.19,6.19,0,0,0,6.08,0l30.85-17.15a3.1,3.1,0,0,0,0-5.4L492.3,273.42a3.1,3.1,0,0,1-1.56-2.69V252.15a3.1,3.1,0,0,1,1.55-2.69l16.08-9.27a3.1,3.1,0,0,1,3.09,0l16.08,9.27a3.1,3.1,0,0,1,1.55,2.69v14.61a3.1,3.1,0,0,0,4.66,2.68Z"/><path class="cls-5" d="M509.62,248.8a1.19,1.19,0,0,1,1.19,0l9.85,5.68a1.19,1.19,0,0,1,.59,1v11.38a1.19,1.19,0,0,1-.59,1l-9.85,5.68a1.19,1.19,0,0,1-1.19,0l-9.84-5.68a1.19,1.19,0,0,1-.59-1V255.52a1.19,1.19,0,0,1,.59-1Z"/></g><g class="cls-6"><rect class="cls-7" x="172.3" y="196.35" width="114.14" height="130.2"/></g><g class="cls-8"><g class="cls-9"><g class="cls-10"><path class="cls-11" d="M283.11,226.56l-50.7-29.39a6.13,6.13,0,0,0-1.61-.64l-57.31,98a6.47,6.47,0,0,0,1.73,1.47l51,29.41a6,6,0,0,0,4.9.52l53.54-98a5.4,5.4,0,0,0-1.56-1.37"/></g></g></g><g class="cls-12"><rect class="cls-13" x="175.86" y="196.35" width="110.1" height="129.75"/></g></g></g></g></g></svg>