<?xml version="1.0" encoding="utf-8"?>
<!-- Generator: Adobe Illustrator 20.1.0, SVG Export Plug-In . SVG Version: 6.00 Build 0)  -->
<!DOCTYPE svg PUBLIC "-//W3C//DTD SVG 1.1//EN" "http://www.w3.org/Graphics/SVG/1.1/DTD/svg11.dtd">
<svg version="1.1" id="_x31_62b438b-635c-4944-a74d-94d3da788c29"
	 xmlns="http://www.w3.org/2000/svg" xmlns:xlink="http://www.w3.org/1999/xlink" x="0px" y="0px" viewBox="0 0 200 200"
	 style="enable-background:new 0 0 200 200;" xml:space="preserve">
<style type="text/css">
	.st0{fill:#231F20;}
</style>
<title>Problem_solvers</title>
<path d="M132.4,67.6"/>
<rect x="112.5" y="117" transform="matrix(0.7071 -0.7071 0.7071 0.7071 -49.2414 118.1185)" class="st0" width="11" height="3"/>
<path d="M104.1,85.7"/>
<path d="M90.9,106.1"/>
<path class="st0" d="M128.9,100.4V81.3c4.8-0.8,8.1-5.4,7.2-10.2s-5.4-8.1-10.2-7.2c-3.7,0.6-6.6,3.5-7.2,7.2H99.6
	c-0.8-4.8-5.4-8.1-10.2-7.3c-4.8,0.8-8.1,5.4-7.3,10.2c0.2,1.3,0.7,2.6,1.5,3.7l-6.1,6.1c-4-2.8-9.5-1.9-12.3,2.1
	c-2.8,4-1.9,9.5,2.1,12.3c1.1,0.8,2.3,1.3,3.6,1.5v19.1c-4.8,0.8-8,5.4-7.2,10.2c0.8,4.8,5.4,8,10.2,7.2c3.7-0.6,6.6-3.5,7.2-7.2
	h19.1c0.7,4.2,4.4,7.3,8.7,7.3c4.6,0.1,8.4-3.5,8.5-8.2c0-0.1,0-0.2,0-0.4c0-1.8-0.5-3.6-1.5-5.2l6.3-6.3c4,2.8,9.5,1.9,12.3-2.1
	s1.9-9.5-2.1-12.3C131.4,101.1,130.2,100.6,128.9,100.4L128.9,100.4z M127.4,66.7c3.2,0,5.8,2.6,5.8,5.8c0,3.2-2.6,5.8-5.8,5.8
	c-3.2,0-5.8-2.6-5.8-5.8C121.6,69.3,124.2,66.7,127.4,66.7z M99.6,74.1h19.1c0.2,1.3,0.7,2.5,1.5,3.6l-6.1,6.1
	c-4-2.8-9.5-1.9-12.3,2.1c-0.8,1.1-1.3,2.3-1.5,3.6h-7.9v-8.2C96.1,80.6,99,77.7,99.6,74.1z M107.6,107.6h-7.9
	c-0.6-3.7-3.5-6.6-7.2-7.2v-7.9h7.9c0.6,3.7,3.5,6.5,7.2,7.2L107.6,107.6z M109.1,96.7c-3.2,0-5.8-2.6-5.8-5.8
	c0-3.2,2.6-5.8,5.8-5.8s5.8,2.6,5.8,5.8l0,0C114.9,94.1,112.3,96.7,109.1,96.7z M90.9,66.7c3.2,0,5.8,2.6,5.8,5.8s-2.6,5.8-5.8,5.8
	s-5.8-2.6-5.8-5.8l0,0C85.1,69.3,87.7,66.7,90.9,66.7z M85.8,79.7c1.1,0.8,2.3,1.3,3.6,1.5v8.2h-8.2c-0.2-1.3-0.8-2.5-1.5-3.5
	L85.8,79.7z M66.7,90.9c0-3.2,2.6-5.8,5.8-5.8s5.8,2.6,5.8,5.8s-2.6,5.8-5.8,5.8l0,0C69.3,96.8,66.7,94.2,66.7,90.9z M72.6,133.3
	c-3.2,0-5.8-2.6-5.8-5.8s2.6-5.8,5.8-5.8s5.8,2.6,5.8,5.8C78.4,130.7,75.8,133.3,72.6,133.3z M77.6,120.3c-1.1-0.8-2.3-1.3-3.6-1.6
	V99.6c3.7-0.6,6.6-3.5,7.2-7.2h8.2v7.9c-4.8,0.8-8,5.4-7.2,10.2c0.2,1.3,0.7,2.6,1.5,3.6L77.6,120.3z M100.3,126H81.3
	c-0.2-1.3-0.8-2.5-1.5-3.6l6.1-6.1c4,2.8,9.5,1.9,12.3-2c0.8-1.1,1.3-2.4,1.5-3.7h7.9v8.1C103.9,119.3,101,122.2,100.3,126
	L100.3,126z M109,133.3c-3.2,0-5.8-2.6-5.8-5.8c0-3.2,2.6-5.8,5.8-5.8c3.1,0,5.5,2.7,5.5,6.1c0.1,3-2.2,5.4-5.2,5.5
	C109.2,133.3,109.1,133.3,109,133.3L109,133.3z M114,120.4c-1-0.8-2.2-1.4-3.5-1.6v-8.1h8.2c0.2,1.3,0.7,2.5,1.5,3.6L114,120.4z
	 M118.7,107.6h-8.2v-7.9c4.8-0.8,8-5.4,7.2-10.2c-0.2-1.3-0.7-2.5-1.5-3.6l6.1-6.1c1.1,0.8,2.3,1.3,3.5,1.5v19.2
	C122.2,101,119.4,103.9,118.7,107.6z M127.4,114.9c-3.2,0-5.8-2.6-5.8-5.8c0-3.2,2.6-5.8,5.8-5.8c3.2,0,5.8,2.6,5.8,5.8l0,0
	C133.2,112.3,130.6,114.9,127.4,114.9C127.4,114.9,127.4,114.9,127.4,114.9L127.4,114.9z"/>
</svg>
