<svg id="162b438b-635c-4944-a74d-94d3da788c29" data-name="Layer 1" xmlns="http://www.w3.org/2000/svg" width="25.59mm" height="25.6mm" viewBox="0 0 72.55 72.56">
  <defs>
    <style>
      .\32 fb40e7c-e8b3-445c-a245-7b9f811459ce {
        fill: none;
      }

      .\32 fb40e7c-e8b3-445c-a245-7b9f811459ce, .\37 3d58be1-bea7-472c-9739-8dd863e04153 {
        stroke: #231f20;
        stroke-miterlimit: 10;
        stroke-width: 3px;
      }

      .\37 3d58be1-bea7-472c-9739-8dd863e04153, .c01735d3-d2dc-447e-af6c-e961f99bf383 {
        fill: #231f20;
      }
    </style>
  </defs>
  <title>Problem_solvers</title>
  <path class="2fb40e7c-e8b3-445c-a245-7b9f811459ce" d="M68.68,3.87"/>
  <rect class="c01735d3-d2dc-447e-af6c-e961f99bf383" x="48.73" y="53.28" width="11.02" height="3" transform="translate(-22.85 54.4) rotate(-45)"/>
  <path class="2fb40e7c-e8b3-445c-a245-7b9f811459ce" d="M40.34,22"/>
  <path class="73d58be1-bea7-472c-9739-8dd863e04153" d="M27.21,42.35"/>
  <path class="c01735d3-d2dc-447e-af6c-e961f99bf383" d="M65.17,36.65V17.54A8.83,8.83,0,1,0,55,7.35H35.9A8.83,8.83,0,1,0,20,13.93L13.92,20A8.83,8.83,0,1,0,7.33,35.92V55a8.83,8.83,0,1,0,10.2,10.2H36.6a8.84,8.84,0,0,0,8.7,7.33A8.35,8.35,0,0,0,53.84,64a9.5,9.5,0,0,0-1.52-5.19l6.27-6.27a8.83,8.83,0,1,0,6.59-15.91ZM63.71,3a5.83,5.83,0,1,1-5.83,5.83A5.84,5.84,0,0,1,63.71,3ZM35.9,10.35H55a8.8,8.8,0,0,0,1.49,3.57L50.43,20a8.81,8.81,0,0,0-13.79,5.73H28.71V17.55A8.85,8.85,0,0,0,35.9,10.35Zm7.94,33.5H35.9a8.84,8.84,0,0,0-7.2-7.2V28.72h7.94a8.85,8.85,0,0,0,7.19,7.18ZM45.34,33a5.83,5.83,0,1,1,5.83-5.83A5.84,5.84,0,0,1,45.34,33ZM27.21,3a5.83,5.83,0,1,1-5.83,5.83A5.84,5.84,0,0,1,27.21,3Zm-5.09,13a8.81,8.81,0,0,0,3.59,1.5v8.17H17.53A8.8,8.8,0,0,0,16,22.13ZM3,27.22a5.83,5.83,0,1,1,5.83,5.83A5.84,5.84,0,0,1,3,27.22ZM8.83,69.56a5.83,5.83,0,1,1,5.83-5.83A5.84,5.84,0,0,1,8.83,69.56Zm5.08-13A8.78,8.78,0,0,0,10.33,55V35.92a8.85,8.85,0,0,0,7.2-7.2h8.18v7.93A8.81,8.81,0,0,0,20,50.44Zm22.69,5.7H17.54A8.76,8.76,0,0,0,16,58.64l6.08-6.08A8.81,8.81,0,0,0,35.9,46.85h7.94V55A8.85,8.85,0,0,0,36.6,62.22Zm8.7,7.33a5.83,5.83,0,1,1,0-11.67c3.06,0,5.54,2.75,5.54,6.13A5.36,5.36,0,0,1,45.3,69.56Zm5-12.94A8.25,8.25,0,0,0,46.84,55V46.85H55a8.81,8.81,0,0,0,1.49,3.59ZM55,43.85H46.84V35.9a8.81,8.81,0,0,0,5.71-13.78L58.62,16a8.77,8.77,0,0,0,3.55,1.49V36.65A8.85,8.85,0,0,0,55,43.85Zm8.7,7.33a5.83,5.83,0,1,1,5.83-5.83A5.84,5.84,0,0,1,63.67,51.18Z"/>
</svg>
