<svg id="Layer_1" data-name="Layer 1" xmlns="http://www.w3.org/2000/svg" xmlns:xlink="http://www.w3.org/1999/xlink" viewBox="0 0 281.6 176.76"><defs><style>.cls-1{fill:none;}.cls-2,.cls-3{fill:#d4d6d5;stroke:#fff;stroke-miterlimit:10;}.cls-2{stroke-width:1.35px;}.cls-3{stroke-width:1.03px;}.cls-4{clip-path:url(#clip-path);}.cls-5{fill:#414142;}.cls-6{fill:#fff;}.cls-7{fill:#231f20;}</style><clipPath id="clip-path"><rect class="cls-1" x="8.67" y="21.4" width="254.71" height="124.65"/></clipPath></defs><title>alpha</title><rect class="cls-2" x="271.08" y="-7.73" width="16.6" height="189.82"/><polygon class="cls-3" points="271.99 84.95 271.99 -1.68 -3.24 -1.68 -3.24 180.82 271.99 180.82 271.99 93.34 277.76 88.89 271.99 84.95"/><g class="cls-4"><path class="cls-5" d="M263.38,132.62a13.31,13.31,0,1,1-13.31-13.12,13.21,13.21,0,0,1,13.31,13.12"/><path class="cls-5" d="M27.26,46.24a8.89,8.89,0,1,1-8.89-8.76,8.83,8.83,0,0,1,8.89,8.76"/><path class="cls-6" d="M22.31,49.76S20,45,19.68,44.16a2.33,2.33,0,0,0-2.23-1.58c-1.1.05-3.1,1-2.92,4.12,0.21,3.55,2.79,3.24,2.79,3.24A2.48,2.48,0,0,0,19.07,49c0.71-.81,1.78-2.64,3.08-6.23a9.15,9.15,0,0,0-1.28-.07S19.16,49.05,17.22,49c-1.68-.08-1.81-5.18,0-5.45a1.26,1.26,0,0,1,1.17.8c0.86,1.6,2.28,5.48,2.34,5.45h1.53Z"/><path class="cls-5" d="M27.26,75a8.89,8.89,0,1,1-8.89-8.76A8.83,8.83,0,0,1,27.26,75"/><path class="cls-6" d="M22.31,78.5s-2.26-4.78-2.62-5.6a2.33,2.33,0,0,0-2.23-1.58c-1.1.05-3.1,1-2.92,4.12,0.21,3.55,2.79,3.24,2.79,3.24a2.48,2.48,0,0,0,1.75-.93c0.71-.81,1.78-2.64,3.08-6.23a9.15,9.15,0,0,0-1.28-.07s-1.71,6.34-3.64,6.25c-1.68-.08-1.81-5.18,0-5.45a1.26,1.26,0,0,1,1.17.8c0.86,1.6,2.28,5.48,2.34,5.45h1.53Z"/><path class="cls-5" d="M27.26,103.56a8.89,8.89,0,1,1-8.89-8.76,8.83,8.83,0,0,1,8.89,8.76"/><path class="cls-6" d="M22.31,107.09s-2.26-4.78-2.62-5.6a2.33,2.33,0,0,0-2.23-1.58c-1.1.05-3.1,1-2.92,4.12,0.21,3.55,2.79,3.24,2.79,3.24a2.48,2.48,0,0,0,1.75-.93c0.71-.81,1.78-2.64,3.08-6.23a9.15,9.15,0,0,0-1.28-.07s-1.71,6.34-3.64,6.25c-1.68-.08-1.81-5.18,0-5.45a1.26,1.26,0,0,1,1.17.8c0.86,1.6,2.28,5.48,2.34,5.45h1.53Z"/><path class="cls-5" d="M27.26,132.29a8.89,8.89,0,1,1-8.89-8.76,8.83,8.83,0,0,1,8.89,8.76"/><path class="cls-6" d="M22.31,135.82S20,131,19.68,130.22a2.33,2.33,0,0,0-2.23-1.58c-1.1.05-3.1,1-2.92,4.12,0.21,3.55,2.79,3.24,2.79,3.24a2.48,2.48,0,0,0,1.75-.93c0.71-.81,1.78-2.64,3.08-6.23a9.15,9.15,0,0,0-1.28-.07s-1.71,6.34-3.64,6.25c-1.68-.08-1.81-5.18,0-5.45a1.26,1.26,0,0,1,1.17.8c0.86,1.6,2.28,5.48,2.34,5.45h1.53Z"/><path class="cls-5" d="M163.82,37.64A16.48,16.48,0,1,1,147.34,21.4a16.36,16.36,0,0,1,16.47,16.24"/><path class="cls-5" d="M197.77,80.77a15.15,15.15,0,1,1-15.15-14.93,15,15,0,0,1,15.15,14.93"/><path class="cls-5" d="M175.72,132.62a13.31,13.31,0,1,1-13.31-13.12,13.21,13.21,0,0,1,13.31,13.12"/><path class="cls-7" d="M45,52.36a0.27,0.27,0,0,1-.19-0.08,0.26,0.26,0,0,1,0-.38l5.68-5.6-5.8-5.72a0.26,0.26,0,0,1,0-.38,0.27,0.27,0,0,1,.38,0l6,5.91a0.26,0.26,0,0,1,0,.38l-5.88,5.79A0.27,0.27,0,0,1,45,52.36Z"/><path class="cls-7" d="M45,81.09A0.27,0.27,0,0,1,44.78,81a0.26,0.26,0,0,1,0-.38L50.47,75l-5.8-5.72a0.26,0.26,0,0,1,0-.38,0.27,0.27,0,0,1,.38,0l6,5.91a0.26,0.26,0,0,1,0,.38L45.17,81A0.27,0.27,0,0,1,45,81.09Z"/><path class="cls-7" d="M45,109.68a0.27,0.27,0,0,1-.19-0.08,0.26,0.26,0,0,1,0-.38l5.68-5.6-5.8-5.72a0.26,0.26,0,0,1,0-.38,0.27,0.27,0,0,1,.38,0l6,5.91a0.26,0.26,0,0,1,0,.38l-5.88,5.79A0.27,0.27,0,0,1,45,109.68Z"/><path class="cls-7" d="M45,138.41a0.27,0.27,0,0,1-.19-0.08,0.26,0.26,0,0,1,0-.38l5.68-5.6-5.8-5.72a0.26,0.26,0,0,1,0-.38,0.27,0.27,0,0,1,.38,0l6,5.91a0.26,0.26,0,0,1,0,.38l-5.88,5.79A0.27,0.27,0,0,1,45,138.41Z"/><path class="cls-7" d="M211.43,143.25a0.27,0.27,0,0,1-.19-0.08,0.26,0.26,0,0,1,0-.38l5.68-5.6-5.8-5.72a0.26,0.26,0,0,1,0-.38,0.27,0.27,0,0,1,.38,0l6,5.91a0.26,0.26,0,0,1,0,.38l-5.88,5.79A0.27,0.27,0,0,1,211.43,143.25Z"/><path class="cls-6" d="M149.29,45.68h-3.92a0.53,0.53,0,1,1,0-1.06h3.92A0.53,0.53,0,1,1,149.29,45.68Z"/><path class="cls-6" d="M149.55,43.13h-4.41a0.53,0.53,0,0,1-.48-0.31l-0.76-1.74a6.84,6.84,0,0,1-3.51-6,7,7,0,0,1,13.92,0,6.84,6.84,0,0,1-3.51,6L150,42.82A0.53,0.53,0,0,1,149.55,43.13Zm-4.06-1h3.71l0.7-1.59a0.52,0.52,0,0,1,.24-0.25,5.8,5.8,0,0,0,3.11-5.13,5.9,5.9,0,0,0-11.81,0,5.8,5.8,0,0,0,3.11,5.13,0.53,0.53,0,0,1,.24.25Z"/><path class="cls-6" d="M180.09,78.28A2.83,2.83,0,1,1,183,75.45,2.85,2.85,0,0,1,180.09,78.28Zm0-4.63a1.8,1.8,0,1,0,1.82,1.8A1.81,1.81,0,0,0,180.09,73.65Z"/><path class="cls-6" d="M181.78,89.45a2.83,2.83,0,1,1,2.87-2.83A2.85,2.85,0,0,1,181.78,89.45Zm0-4.63a1.8,1.8,0,1,0,1.82,1.8A1.81,1.81,0,0,0,181.78,84.83Z"/><path class="cls-6" d="M188.44,83.18a2.83,2.83,0,1,1,2.87-2.83A2.85,2.85,0,0,1,188.44,83.18Zm0-4.63a1.8,1.8,0,1,0,1.82,1.8A1.81,1.81,0,0,0,188.44,78.55Z"/><path class="cls-6" d="M186.27,79.57a0.53,0.53,0,0,1-.27-0.08l-4.28-2.6a0.51,0.51,0,0,1-.17-0.71,0.53,0.53,0,0,1,.72-0.17l4.28,2.6a0.51,0.51,0,0,1,.17.71A0.52,0.52,0,0,1,186.27,79.57Z"/><path class="cls-6" d="M183.38,85.55a0.52,0.52,0,0,1-.38-0.16,0.51,0.51,0,0,1,0-.73l3.33-3.09a0.53,0.53,0,0,1,.74,0,0.51,0.51,0,0,1,0,.73l-3.33,3.09A0.52,0.52,0,0,1,183.38,85.55Z"/><path class="cls-6" d="M160,139.71h0a0.54,0.54,0,0,1-.42-0.2l-4.32-5.32a0.53,0.53,0,0,1,.08-0.75,0.55,0.55,0,0,1,.76.08l3.91,4.81L168.75,128a0.54,0.54,0,0,1,.76-0.07,0.53,0.53,0,0,1,.07.75l-9.18,10.82A0.54,0.54,0,0,1,160,139.71Z"/><path class="cls-5" d="M140.28,143.46a0.72,0.72,0,1,0,.72-0.71,0.71,0.71,0,0,0-.72.71"/><path class="cls-5" d="M128.8,145.47a0.58,0.58,0,1,0,.58-0.58,0.58,0.58,0,0,0-.58.58"/><path class="cls-5" d="M117,144.88a0.51,0.51,0,1,0,.51-0.5,0.51,0.51,0,0,0-.51.5"/><path class="cls-5" d="M105.59,141.57a0.51,0.51,0,1,0,.51-0.5,0.51,0.51,0,0,0-.51.5"/><path class="cls-5" d="M94.93,136.07a0.61,0.61,0,1,0,.61-0.6,0.6,0.6,0,0,0-.61.6"/><path class="cls-5" d="M85.66,128.79a0.8,0.8,0,1,0,.8-0.79,0.8,0.8,0,0,0-.8.79"/><path class="cls-5" d="M77.91,119.66a1.12,1.12,0,1,0,1.12-1.1,1.11,1.11,0,0,0-1.12,1.1"/><path class="cls-5" d="M72.27,109.26a1.42,1.42,0,1,0,1.42-1.4,1.41,1.41,0,0,0-1.42,1.4"/><path class="cls-5" d="M68.92,98a1.77,1.77,0,1,0,1.77-1.74A1.76,1.76,0,0,0,68.92,98"/><path class="cls-5" d="M68,86.38a2.13,2.13,0,1,0,2.13-2.1A2.11,2.11,0,0,0,68,86.38"/><path class="cls-5" d="M69.58,74.79a2.49,2.49,0,1,0,2.49-2.45,2.47,2.47,0,0,0-2.49,2.45"/><path class="cls-5" d="M73.42,64a3,3,0,1,0,3-2.93,2.95,2.95,0,0,0-3,2.93"/><path class="cls-5" d="M79.45,54.16a3.32,3.32,0,1,0,3.32-3.27,3.29,3.29,0,0,0-3.32,3.27"/><path class="cls-5" d="M87.6,46a3.64,3.64,0,1,0,3.64-3.59A3.62,3.62,0,0,0,87.6,46"/><path class="cls-5" d="M97.23,39.75a4,4,0,1,0,4-3.94,4,4,0,0,0-4,3.94"/><path class="cls-5" d="M108.11,35.58a4.18,4.18,0,1,0,4.18-4.12,4.15,4.15,0,0,0-4.18,4.12"/><path class="cls-5" d="M119.63,33.8A4.36,4.36,0,1,0,124,29.5a4.33,4.33,0,0,0-4.36,4.3"/><path class="cls-5" d="M162.33,50.29a4.36,4.36,0,1,0,4.36-4.3,4.33,4.33,0,0,0-4.36,4.3"/><path class="cls-5" d="M170,59.41a4.2,4.2,0,1,0,4.2-4.14,4.17,4.17,0,0,0-4.2,4.14"/><path class="cls-5" d="M178.73,104.22a2.66,2.66,0,1,0,2.66-2.62,2.64,2.64,0,0,0-2.66,2.62"/><path class="cls-5" d="M174.77,115.18A2.25,2.25,0,1,0,177,113a2.24,2.24,0,0,0-2.25,2.22"/><path class="cls-6" d="M253.15,138.36a6.55,6.55,0,0,0,3.67-5.92,6.45,6.45,0,0,0-6.36-6.54h-0.4a6.45,6.45,0,0,0-6.36,6.54,6.55,6.55,0,0,0,3.67,5.92h-4v1.39h5.5v-1.62a6.48,6.48,0,0,1-2.94-5.23c-0.23-3,1.24-5.48,4.16-5.52h0.32c2.92,0,4.39,2.56,4.16,5.52a6.48,6.48,0,0,1-2.94,5.23v1.62h5.5v-1.39h-4Z"/></g></svg>