<svg id="Layer_2" data-name="Layer 2" xmlns="http://www.w3.org/2000/svg" viewBox="0 0 600 519.6"><defs><style>.cls-1{fill:#59afe0;}.cls-2{fill:#5aafe0;}</style></defs><title>atlassian</title><g id="atlassian"><path class="cls-1" d="M380,511.21c-9.8,0-19.61,0-29.41,0-6.3,0-10.43-3-11.08-9.47-4-39.26-24.2-70.65-48.38-100.07-21.48-26.14-45.53-49.91-69.2-74-25.67-26.14-51-52.64-72-82.78-20.18-28.85-35.3-59.88-40.4-95.14-0.81-5.6-2.2-11.49,3.19-15.75,5.1-4,10.16-1.51,15.32.35,17.94,6.45,36.06,12.36,54.72,16.39,8,1.72,13,5.72,16.09,13.62,10.5,26.55,28.13,48.52,47,69.45,13.63,15.13,28,29.6,42.17,44.24,7.86,8.13,11.6,8.14,19.31.36,25.59-25.85,51.3-51.6,72-81.79,7.29-10.66,13.85-21.78,18.29-34,2.38-6.53,6.72-9.9,13.32-11.4,20.36-4.64,40.22-11,59.9-17.93,10.59-3.74,17,.91,15.81,12.12-2.57,24.94-10.95,48.1-22.74,70.1-20.33,37.95-49.07,69.32-78.45,100.17-7.83,8.22-15.91,16.19-23.87,24.29-7,7.17-7.27,9.66-.91,17.75C380.48,383,397.7,409.8,409.19,440c7.19,18.87,12.14,38.29,12.71,58.6,0.25,9.09-3.19,12.53-12.46,12.62C399.64,511.28,389.83,511.21,380,511.21Z"/><path class="cls-2" d="M298.61,122.52c-99.28-1.25-188.52-30-268.28-87.65C25,31,21,26.56,22.55,19.39c1.9-8.57,10.95-12.26,19.67-7.67a552.16,552.16,0,0,0,61.15,27.86A532.81,532.81,0,0,0,240.54,71.79C350.11,82.61,454,63.88,551.71,12.58c8.85-4.64,15.68-3.55,19.75,2.92s2.08,13.33-5.9,19.12C503.24,79.81,434.11,108,357.69,118.17A553.15,553.15,0,0,1,298.61,122.52Z"/><path class="cls-1" d="M214.22,511.21c-9.53,0-19.06.1-28.59,0-8.72-.12-12.25-3.65-11.93-12.34C174.95,466,186,436,201.55,407.46c3.82-7,8-13.81,12.37-20.48,5.4-8.22,11.73-9,18.33-2.08,13.31,14,26.42,28.16,38.47,43.28,5,6.34,6,12.78,2,20a139.5,139.5,0,0,0-16.5,52.65c-0.8,7.2-4.84,10.41-11.84,10.4H214.22Z"/><path class="cls-2" d="M267.41,163.11a384.85,384.85,0,0,0,61,.06c12.2-.88,16.59,5.84,11.47,17A159.31,159.31,0,0,1,306.37,228c-6.34,6.2-10.86,6.16-17.25-.13A159.58,159.58,0,0,1,255.66,180C250.58,168.85,255,162.72,267.41,163.11Z"/></g><g id="atlassian_BW" data-name="atlassian BW"><path d="M380,511.21c-9.8,0-19.61,0-29.41,0-6.3,0-10.43-3-11.08-9.47-4-39.26-24.2-70.65-48.38-100.07-21.48-26.14-45.53-49.91-69.2-74-25.67-26.14-51-52.64-72-82.78-20.18-28.85-35.3-59.88-40.4-95.14-0.81-5.6-2.2-11.49,3.19-15.75,5.1-4,10.16-1.51,15.32.35,17.94,6.45,36.06,12.36,54.72,16.39,8,1.72,13,5.72,16.09,13.62,10.5,26.55,28.13,48.52,47,69.45,13.63,15.13,28,29.6,42.17,44.24,7.86,8.13,11.6,8.14,19.31.36,25.59-25.85,51.3-51.6,72-81.79,7.29-10.66,13.85-21.78,18.29-34,2.38-6.53,6.72-9.9,13.32-11.4,20.36-4.64,40.22-11,59.9-17.93,10.59-3.74,17,.91,15.81,12.12-2.57,24.94-10.95,48.1-22.74,70.1-20.33,37.95-49.07,69.32-78.45,100.17-7.83,8.22-15.91,16.19-23.87,24.29-7,7.17-7.27,9.66-.91,17.75C380.48,383,397.7,409.8,409.19,440c7.19,18.87,12.14,38.29,12.71,58.6,0.25,9.09-3.19,12.53-12.46,12.62C399.64,511.28,389.83,511.21,380,511.21Z"/><path d="M298.61,122.52c-99.28-1.25-188.52-30-268.28-87.65C25,31,21,26.56,22.55,19.39c1.9-8.57,10.95-12.26,19.67-7.67a552.16,552.16,0,0,0,61.15,27.86A532.81,532.81,0,0,0,240.54,71.79C350.11,82.61,454,63.88,551.71,12.58c8.85-4.64,15.68-3.55,19.75,2.92s2.08,13.33-5.9,19.12C503.24,79.81,434.11,108,357.69,118.17A553.15,553.15,0,0,1,298.61,122.52Z"/><path d="M214.22,511.21c-9.53,0-19.06.1-28.59,0-8.72-.12-12.25-3.65-11.93-12.34C174.95,466,186,436,201.55,407.46c3.82-7,8-13.81,12.37-20.48,5.4-8.22,11.73-9,18.33-2.08,13.31,14,26.42,28.16,38.47,43.28,5,6.34,6,12.78,2,20a139.5,139.5,0,0,0-16.5,52.65c-0.8,7.2-4.84,10.41-11.84,10.4H214.22Z"/><path d="M267.41,163.11a384.85,384.85,0,0,0,61,.06c12.2-.88,16.59,5.84,11.47,17A159.31,159.31,0,0,1,306.37,228c-6.34,6.2-10.86,6.16-17.25-.13A159.58,159.58,0,0,1,255.66,180C250.58,168.85,255,162.72,267.41,163.11Z"/></g></svg>