<?xml version="1.0" encoding="utf-8"?>
<!-- Generator: Adobe Illustrator 19.2.1, SVG Export Plug-In . SVG Version: 6.00 Build 0)  -->
<svg version="1.1" id="_x33_ce7cab1-feec-4919-be7c-f08d3c9c872b"
	 xmlns="http://www.w3.org/2000/svg" xmlns:xlink="http://www.w3.org/1999/xlink" x="0px" y="0px" viewBox="0 0 653 173.4"
	 style="enable-background:new 0 0 653 173.4;" xml:space="preserve">
<path d="M0,1.2h77.1c31.2,0,52.3,10.4,52.3,41.9c0,16.6-8,28.1-22.2,35.2c20,5.9,30,21.8,30,42.8c0,34.3-28.2,48.9-57.8,48.9H0V1.2z
	 M36,69.6h36.5c12.6,0,22-5.9,22-20.1c0-16.1-11.9-19.4-24.8-19.4H36V69.6z M36,141.2h38.5c14.2,0,26.6-4.7,26.6-22.2
	c0-17.3-10.5-24.1-25.9-24.1H36V141.2z M258.4,170.1h-31v-17.2h-0.7c-7.6,12.8-21.4,20.6-36.2,20.5c-34.6,0-43.3-20.3-43.3-50.8
	V46.7h32.6v69.7c0,20.3,5.7,30.3,20.9,30.3c17.7,0,25.2-10.3,25.2-35.3V46.7h32.6L258.4,170.1L258.4,170.1z M449.2,154.4h-0.5
	c-8.1,13.3-22.3,19-38.5,19c-38.2,0-56.8-31.7-56.8-65.6c0-32.9,18.9-63.5,56.1-63.5c14.9,0,29.6,6.2,37.5,18.2h0.5V0.9h34.8V170
	h-33.1V154.4z M418.9,69.6c-22.8,0-30.6,19-30.6,39.1c0,19.2,9.1,39.3,30.6,39.3c23,0,29.9-19.4,29.9-39.6
	C448.8,88.6,441.4,69.6,418.9,69.6z M492.1,0.8H525v29.9h-32.9V0.8z M492.1,46.7H525v123.4h-32.9V46.7z M534.8,69.6V46.7h17.3v-35
	h32.3v35.1h20.2v22.9h-20.2v66c0,5.1,0.7,8.3,1.9,9.6s5.3,1.9,11.9,1.9c1,0,2,0,3.2-0.1c1.1,0,2.2-0.1,3.2-0.3V171l-15.5,0.7
	c-15.4,0.5-26-2.1-31.6-8c-3.7-3.7-5.6-9.4-5.6-17.3V69.6H534.8L534.8,69.6z M310.9,0.8h32.9v169.1h-32.9V0.8z M268.1,0.8H301v29.9
	h-32.9V0.8z M268.2,46.7h32.9v123.4h-32.9V46.7z"/>
</svg>
