<svg id="Layer_2" data-name="Layer 2" xmlns="http://www.w3.org/2000/svg" xmlns:xlink="http://www.w3.org/1999/xlink" viewBox="0 0 600 519.6"><defs><style>.cls-1{clip-path:url(#clip-path);}</style><clipPath id="clip-path"><path d="M137.69,394c-16.24,0-31-13.28-31-29.52s13.28-29.52,31-29.52,31,13.28,31,29.52S153.92,394,137.69,394h0ZM518.52,233.08c-3-23.62-17.71-42.81-36.9-57.57l-7.38-5.9-5.9,7.38c-11.81,13.28-16.24,36.9-14.76,54.62,1.48,13.28,5.9,26.57,13.28,36.9-5.9,3-13.28,5.9-19.19,8.86-13.28,4.43-26.57,5.9-39.85,5.9H25.5L24,292.12a166.07,166.07,0,0,0,13.28,84.14l5.9,10.33v1.48c35.43,59,98.9,85.61,168.28,85.61,132.85,0,242.08-57.57,293.74-181.56,34,1.48,67.9-7.38,84.14-39.85l4.43-7.38-7.38-4.43c-19.19-11.81-45.76-13.28-67.9-7.38h0ZM328.1,209.46H270.53V267H328.1V209.46Zm0-72.33H270.53V194.7H328.1V137.13Zm0-73.8H270.53v57.57H328.1V63.32ZM399,209.46H341.39V267H399V209.46Zm-214,0H127.35V267h57.57V209.46Zm72.33,0H199.68V267h57.57V209.46Zm-143.18,0H56.5V267h57.57V209.46h0Zm143.18-72.33H199.68V194.7h57.57V137.13Zm-72.33,0H127.35V194.7h57.57V137.13Z"/></clipPath></defs><title>docker</title><g id="docker"><path id="SVGID" d="M137.69,394c-16.24,0-31-13.28-31-29.52s13.28-29.52,31-29.52,31,13.28,31,29.52S153.92,394,137.69,394h0ZM518.52,233.08c-3-23.62-17.71-42.81-36.9-57.57l-7.38-5.9-5.9,7.38c-11.81,13.28-16.24,36.9-14.76,54.62,1.48,13.28,5.9,26.57,13.28,36.9-5.9,3-13.28,5.9-19.19,8.86-13.28,4.43-26.57,5.9-39.85,5.9H25.5L24,292.12a166.07,166.07,0,0,0,13.28,84.14l5.9,10.33v1.48c35.43,59,98.9,85.61,168.28,85.61,132.85,0,242.08-57.57,293.74-181.56,34,1.48,67.9-7.38,84.14-39.85l4.43-7.38-7.38-4.43c-19.19-11.81-45.76-13.28-67.9-7.38h0ZM328.1,209.46H270.53V267H328.1V209.46Zm0-72.33H270.53V194.7H328.1V137.13Zm0-73.8H270.53v57.57H328.1V63.32ZM399,209.46H341.39V267H399V209.46Zm-214,0H127.35V267h57.57V209.46Zm72.33,0H199.68V267h57.57V209.46Zm-143.18,0H56.5V267h57.57V209.46h0Zm143.18-72.33H199.68V194.7h57.57V137.13Zm-72.33,0H127.35V194.7h57.57V137.13Z"/><path d="M137.69,394c-16.24,0-31-13.28-31-29.52s13.28-29.52,31-29.52,31,13.28,31,29.52S153.92,394,137.69,394h0ZM518.52,233.08c-3-23.62-17.71-42.81-36.9-57.57l-7.38-5.9-5.9,7.38c-11.81,13.28-16.24,36.9-14.76,54.62,1.48,13.28,5.9,26.57,13.28,36.9-5.9,3-13.28,5.9-19.19,8.86-13.28,4.43-26.57,5.9-39.85,5.9H25.5L24,292.12a166.07,166.07,0,0,0,13.28,84.14l5.9,10.33v1.48c35.43,59,98.9,85.61,168.28,85.61,132.85,0,242.08-57.57,293.74-181.56,34,1.48,67.9-7.38,84.14-39.85l4.43-7.38-7.38-4.43c-19.19-11.81-45.76-13.28-67.9-7.38h0ZM328.1,209.46H270.53V267H328.1V209.46Zm0-72.33H270.53V194.7H328.1V137.13Zm0-73.8H270.53v57.57H328.1V63.32ZM399,209.46H341.39V267H399V209.46Zm-214,0H127.35V267h57.57V209.46Zm72.33,0H199.68V267h57.57V209.46Zm-143.18,0H56.5V267h57.57V209.46h0Zm143.18-72.33H199.68V194.7h57.57V137.13Zm-72.33,0H127.35V194.7h57.57V137.13Z"/><g class="cls-1"><rect id="SVGID-2" data-name="SVGID" x="-711.07" y="-270.27" width="18817.31" height="2234.81"/></g></g></svg>