<?xml version="1.0" encoding="utf-8"?>
<!-- Generator: Adobe Illustrator 19.2.1, SVG Export Plug-In . SVG Version: 6.00 Build 0)  -->
<svg version="1.1" id="Isolation_Mode" xmlns="http://www.w3.org/2000/svg" xmlns:xlink="http://www.w3.org/1999/xlink" x="0px"
	 y="0px" viewBox="0 0 2902.7 1086.5" style="enable-background:new 0 0 2902.7 1086.5;" xml:space="preserve">
<style type="text/css">
	.st0{opacity:0.18;}
	.st1{fill:none;stroke:#00A4E4;stroke-width:1.3274;stroke-miterlimit:10;}
	.st2{fill:#81C9EF;}
</style>
<g>
	<g class="st0">
		<polygon class="st1" points="1024.6,569.1 919.4,798.2 958.6,862.2 1171.1,976.1 1326.2,925.3 1484.1,868.6 1242.4,549.1 
			1437.2,678.6 1183.1,893.4 		"/>
		<polygon class="st1" points="585.8,218 544.5,344.4 634.7,608.4 920.7,654 1024.6,569.1 1050.6,333.6 998,219.1 907.5,196.2 		"/>
		<polygon class="st1" points="633.4,607.1 715.4,401.6 583.7,218.8 375.3,170.9 242.7,212.2 175.2,308.3 154.2,578.6 384.5,750.4 
			526.9,765.2 		"/>
		<polygon class="st1" points="739.3,1003.7 920,796.8 919.2,653.4 805.9,428.4 542.9,343.9 338.2,546.5 303.5,825 479.8,1010.2 		
			"/>
		<polyline class="st1" points="1301.6,738.5 1024.6,569.1 1240.3,548.5 920,796.8 633.4,607.1 479.8,1010.2 384.5,750.4 303.5,825 
			739.3,1003.7 715.4,401.6 338.2,546.5 175.2,308.3 542.9,343.9 526.9,765.2 739.3,1003.7 919.2,653.4 715.4,401.6 998,219.1 
			1024.6,569.1 958.6,862.2 1358.9,915.1 1240.3,548.5 1171.1,976.1 		"/>
		<polyline class="st1" points="1215.5,693.9 1032.3,711.3 1203.1,782 1484.1,868.6 1437.2,678.6 1203.1,782 		"/>
		<polyline class="st1" points="907.5,196.2 805.9,428.4 1050.6,333.6 753.1,205.5 542.9,343.9 375.3,170.9 338.2,546.5 
			526.9,765.2 864.4,759.7 805.9,428.4 753.1,205.5 		"/>
		<polyline class="st1" points="1024.6,569.1 805.9,428.4 633.4,607.1 338.2,546.5 154.2,578.6 242.7,212.2 542.9,343.9 
			384.5,750.4 517.2,912.4 526.9,765.2 854.8,869.2 		"/>
	</g>
	<path class="st2" d="M631.1,608.1c0.4-0.9,1.4-1.3,2.4-1c0.9,0.4,1.3,1.4,1,2.4c-0.4,0.9-1.4,1.3-2.4,1
		C631.2,610.1,630.7,609,631.1,608.1z"/>
	<path class="st2" d="M915.1,652.9c0.7-1.8,2.9-2.6,4.7-1.9c1.8,0.7,2.6,2.9,1.9,4.7s-2.9,2.6-4.7,1.9
		C915.2,656.8,914.4,654.6,915.1,652.9z"/>
	<path class="st2" d="M916.1,796.1c0.7-1.8,2.9-2.6,4.7-1.9s2.6,2.9,1.9,4.7c-0.7,1.8-2.9,2.6-4.7,1.9
		C916.2,800,915.4,798,916.1,796.1z"/>
	<path class="st2" d="M540.2,342.7c0.7-1.8,2.9-2.6,4.7-1.9s2.6,2.9,1.9,4.7s-2.9,2.6-4.7,1.9C540.3,346.6,539.4,344.6,540.2,342.7z
		"/>
	<path class="st2" d="M1286,344c0.7-1.8,2.9-2.6,4.7-1.9s2.6,2.9,1.9,4.7c-0.7,1.8-2.9,2.6-4.7,1.9
		C1286.2,347.9,1285.3,345.8,1286,344z"/>
	<path class="st2" d="M1275.9,498.2c0.4-0.9,1.4-1.3,2.4-1c0.9,0.4,1.3,1.4,1,2.4c-0.4,0.9-1.4,1.3-2.4,1
		C1275.9,500.2,1275.5,499.2,1275.9,498.2z"/>
	<g class="st0">
		<polygon class="st1" points="1861.6,637.9 1879.7,386.5 1725.9,233 1557.4,194.8 1417,236.4 1289,344.9 1277.2,499 1436.7,680.1 
			1635.5,688.2 		"/>
		<polygon class="st1" points="2425.7,797.4 2390,680 2213,464.3 1861.6,637.9 1755.8,753.1 1881.5,920 2009.2,956.4 2260.6,1052.7 
					"/>
		<polygon class="st1" points="2214.6,465.2 2209.9,688.3 2427.4,795.9 2609.2,783.2 2719,697.9 2748.4,584.3 2673.3,323.8 
			2397.4,243.7 2258.9,279.7 		"/>
		<polygon class="st1" points="1976.3,130.8 1879.7,388 1917,610.6 2115.7,692.9 2391.6,679.9 2512.3,418.3 2447.2,145.4 2217,33.8 
					"/>
		<polyline class="st1" points="1289,344.9 1593,439.3 1754.3,753.3 1879.7,388 2214.6,465.2 2217,33.8 2397.4,243.7 2447.2,145.4 
			1976.3,130.8 2209.9,688.3 2512.3,418.3 2748.4,584.3 2391.6,679.9 2258.9,279.7 1976.3,130.8 2397.4,243.7 2209.9,688.3 
			2009.2,956.4 1861.6,637.9 1725.9,233 1277.2,499 1755.8,753.1 1725.9,233 		"/>
		<polyline class="st1" points="1881.5,920 1755.8,753.1 1436.7,680.1 1557.4,194.8 1289,344.9 1436.7,680.1 1725.9,233 		"/>
		<polyline class="st1" points="2009.2,956.4 2115.7,692.9 1755.8,753.1 2260.6,1052.7 2391.6,679.9 2609.2,783.2 2512.3,418.3 
			2258.9,279.7 1944.8,403.3 2115.7,692.9 2260.6,1052.7 		"/>
		<polyline class="st1" points="1861.6,637.9 2115.7,692.9 2214.6,465.2 2512.3,418.3 2673.3,323.8 2719,697.9 2391.6,679.9 
			2397.4,243.7 2216.3,138.4 2258.9,279.7 1915.3,297.4 		"/>
	</g>
	<path class="st2" d="M2212,688.4c-0.1,1.4-1.2,2.4-2.5,2.4c-1.4-0.1-2.4-1.2-2.4-2.5c0.1-1.4,1.2-2.4,2.5-2.4
		C2210.9,686,2212.1,687,2212,688.4z"/>
	<path class="st2" d="M1865.3,638c0,2-1.8,3.5-3.7,3.5c-2,0-3.5-1.8-3.5-3.7c0-2,1.8-3.5,3.7-3.5
		C1863.9,634.4,1865.4,636.1,1865.3,638z"/>
	<path class="st2" d="M1759,753.3c0,2-1.8,3.5-3.7,3.5s-3.5-1.8-3.5-3.7s1.8-3.5,3.7-3.5C1757.5,749.6,1759,751.3,1759,753.3z"/>
	<path class="st2" d="M1028.2,569.4c0,2-1.8,3.5-3.7,3.5s-3.5-1.8-3.5-3.7c0-2,1.8-3.5,3.7-3.5
		C1026.8,565.8,1028.3,567.4,1028.2,569.4z"/>
	<path class="st2" d="M1440.5,680.2c0,2-1.8,3.5-3.7,3.5s-3.5-1.8-3.5-3.7c0-2,1.8-3.5,3.7-3.5
		C1438.9,676.6,1440.5,678.2,1440.5,680.2z"/>
	<path class="st2" d="M1244,548.5c0,2-1.8,3.5-3.7,3.5s-3.5-1.8-3.5-3.7c0-2,1.8-3.5,3.7-3.5C1242.4,544.8,1244,546.5,1244,548.5z"
		/>
</g>
</svg>
