<svg id="Layer_2" data-name="Layer 2" xmlns="http://www.w3.org/2000/svg" viewBox="0 0 600 519.6"><defs><style>.cls-1{fill:#fff;}</style></defs><title>gulp</title><g id="ticZoc.tif"><path class="cls-1" d="M200.08,143.88V19.36H422.15v496H200.08q0-184.72,0-369.43c7.17,2.44,14.18,5.74,21.55,7.17a451.56,451.56,0,0,0,169.76,1.16c8.71-1.61,17.16-4.66,25.74-7l-0.61-3.56c-23-8.66-47.73-6.92-73.19-10.6,6.07-18.76,5.84-38.64,20.49-53.61,10.38-10.62,20-22,29.83-33.14,4.48-5.05,8.74-10.29,13-15.33-11.1-10.95-11.08-10.93-20.76-.69-6.17,6.53-12,13.42-18.72,19.4-22,19.65-38,42.38-40.53,72.82C325.89,131.45,321,134,312,134,274.4,133.93,236.72,133.33,200.08,143.88Zm44.75,160.68-27.55,12.3c1.92,20.47,4.37,41.76,5.73,63.12,0.66,10.31,5.4,16.31,14.83,18.41,13.09,2.92,26.26,6.06,39.57,7.3,32.47,3,64.93,2.68,96.82-5.36,13.33-3.36,17.16-8.55,18.25-21.46,0.76-8.93,2.08-17.81,3-26.72,1.8-16.58,3.52-33.16,5.39-50.91-6.47,3.95-11.09,8.28-16.46,9.62-5,1.25-10.84-.69-16.31-1.22,0.95-4.75.87-10.07,3.08-14.14,3.43-6.33,8.42-11.81,12.75-17.65-12.25,2.15-17.88,10.8-22.18,20.1-5.51,11.89-9.52,24.49-15.21,36.28-1.87,3.87-6.94,6.21-10.54,9.24-0.55-4.5-2.5-9.4-1.36-13.41,2.12-7.44,6.05-14.36,10.11-23.46-9.53,4.75-17.24,9.51-25.61,2.67-0.61-.5-2.65.37-3.81,1-7.35,4-13.71,3.76-16.9-3.15-6.95,2.1-12.65,4.59-18.58,5.41-6.14.86-11.17-3.44-9.6-9.16,3.53-12.8,8.64-25.19,13.67-37.52,0.57-1.4,4.72-1.34,7.22-2,0.66,2.71,2.49,5.79,1.76,8-1.68,5.21-4.94,9.88-6.89,15-1.32,3.47-1.5,7.38-2.2,11.09L287.1,300c4-4.23,8.81-8,11.95-12.81,3.72-5.73,5.62-12.61,9.15-18.49,1.41-2.34,5.08-3.33,7.72-4.93,0.86,3,2.7,6.2,2.34,9.09-0.45,3.63-2.88,7-4.14,10.54-1.85,5.23-3.42,10.56-5.11,15.84l3.9,2.21c3.05-3.9,7.12-7.37,9-11.77,7.82-18.42,14.68-37.25,22.64-55.61,1.53-3.54,6.4-5.63,9.73-8.39,0.52,4.19,2.59,9,1.28,12.48-6.28,16.8-13.53,33.24-20.3,49.87-1.3,3.2-2,6.64-3.87,12.87,13-7.83,22.41-14.08,26-26.48,2.29-7.83,6.65-12.48,14.52-4.82,2.06-1.29,3.74-3.19,5.56-3.33,5.74-.45,12.86-2.37,17,0.21,6.9,4.3,2.33,11.11-1,16.34-3.49,5.53-7.54,10.71-11.35,16,11-6.35,21.36-12,22.59-27,2.5-30.58,6.88-61,10.39-91.52,0.92-8,1.52-16,2.34-24.78-72.42,17.25-143.12,17.09-215.64,0l10.2,105.79c3.94-3.2,5.15-6.94,7.49-9.72,8.79-10.45,16.8-22,27.3-30.43s25.23-3.53,30.44,8.35c1.32,3-.55,7.42-1,11.18-3-1.31-7-1.82-8.94-4.06-7.45-8.53-11.42-9.46-19.22-1.34-14.24,14.83-23.37,32.48-25.79,53.08-0.39,3.3.85,8.68,3.07,9.86s7.36-.57,10.07-2.58a59.74,59.74,0,0,0,21.81-30.71c1.09-3.44,5.42-5.85,8.26-8.73,1.16,4.17,4.14,8.83,3.17,12.43-3.86,14.29-8.94,28.25-13.58,42.33-1.4,4.24-2.48,8.64-4.45,12.6-0.87,1.75-3.6,2.58-5.48,3.83-1.36-2.12-4-4.35-3.83-6.33C241.9,315.64,243.55,310.34,244.82,304.56Zm-9.39,98.11c3.14,11.82,7.43,23.31,9.06,35.16,2.35,17.08,2.59,34.44,4.15,51.65,0.31,3.45,1.63,8.65,4,9.76,10.83,5.07,21.9,11.18,33.45,12.74,16,2.15,32.44,1,48.66.42,21.65-.81,33.09-14.13,35-35.3,2.24-24.89-4-51.35,13.25-74.45C332.43,415.72,283.17,415.84,235.43,402.67Z"/><path d="M200.08,143.88c36.65-10.55,74.33-10,111.88-9.86,9,0,13.93-2.58,14.67-11.49,2.5-30.44,18.58-53.17,40.53-72.82,6.68-6,12.54-12.87,18.72-19.4,9.68-10.24,9.65-10.26,20.76.69-4.26,5-8.52,10.28-13,15.33-9.86,11.13-19.45,22.52-29.83,33.14-14.65,15-14.42,34.85-20.49,53.61,25.46,3.68,50.21,1.94,73.19,10.6l0.61,3.56c-8.57,2.38-17,5.43-25.74,7a451.56,451.56,0,0,1-169.76-1.16c-7.37-1.44-14.37-4.74-21.55-7.17v-2.08Zm142.59,4.22h-27.2C325.57,156.55,335.39,156.25,342.67,148.11Z"/><path d="M244.82,304.56c-1.28,5.78-2.92,11.08-3.38,16.47-0.17,2,2.47,4.22,3.83,6.33,1.88-1.25,4.61-2.08,5.48-3.83,2-4,3.05-8.36,4.45-12.6,4.64-14.08,9.73-28,13.58-42.33,1-3.6-2-8.26-3.17-12.43-2.84,2.88-7.18,5.29-8.26,8.73a59.74,59.74,0,0,1-21.81,30.71c-2.71,2-7.77,3.82-10.07,2.58s-3.46-6.57-3.07-9.86c2.41-20.6,11.55-38.25,25.79-53.08,7.8-8.12,11.77-7.19,19.22,1.34,2,2.24,5.9,2.76,8.94,4.06,0.41-3.77,2.28-8.17,1-11.18-5.21-11.88-19.84-16.82-30.44-8.35s-18.51,20-27.3,30.43c-2.34,2.79-3.55,6.53-7.49,9.72L201.86,155.5c72.52,17.1,143.23,17.26,215.64,0-0.82,8.8-1.42,16.81-2.34,24.78-3.52,30.5-7.89,60.93-10.39,91.52-1.23,15-11.61,20.66-22.59,27,3.81-5.33,7.86-10.51,11.35-16,3.29-5.23,7.87-12,1-16.34-4.14-2.58-11.26-.65-17-0.21-1.82.14-3.5,2-5.56,3.33-7.88-7.66-12.23-3-14.52,4.82-3.63,12.39-13,18.65-26,26.48,1.85-6.23,2.56-9.67,3.87-12.87,6.77-16.62,14-33.06,20.3-49.87,1.31-3.51-.76-8.28-1.28-12.48-3.33,2.76-8.19,4.85-9.73,8.39-8,18.36-14.82,37.19-22.64,55.61-1.87,4.4-5.93,7.87-9,11.77l-3.9-2.21c1.69-5.28,3.26-10.61,5.11-15.84,1.26-3.57,3.69-6.91,4.14-10.54,0.36-2.89-1.47-6-2.34-9.09-2.64,1.6-6.31,2.59-7.72,4.93-3.53,5.88-5.43,12.76-9.15,18.49-3.13,4.82-7.9,8.58-11.95,12.81l-3.24-1.91c0.69-3.71.88-7.62,2.2-11.09,2-5.14,5.21-9.82,6.89-15,0.73-2.26-1.1-5.34-1.76-8-2.49.62-6.65,0.55-7.22,2-5,12.33-10.14,24.72-13.67,37.52-1.58,5.72,3.46,10,9.6,9.16,5.93-.83,11.63-3.31,18.58-5.41,3.19,6.91,9.55,7.11,16.9,3.15,1.16-.63,3.2-1.5,3.81-1,8.37,6.84,16.08,2.07,25.61-2.67-4.05,9.1-8,16-10.11,23.46-1.15,4,.8,8.91,1.36,13.41,3.6-3,8.67-5.37,10.54-9.24,5.69-11.8,9.7-24.39,15.21-36.28,4.31-9.29,9.93-17.94,22.18-20.1-4.33,5.84-9.32,11.32-12.75,17.65-2.21,4.07-2.13,9.38-3.08,14.14,5.47,0.53,11.28,2.47,16.31,1.22,5.37-1.33,10-5.67,16.46-9.62-1.88,17.75-3.6,34.33-5.39,50.91-1,8.91-2.29,17.79-3,26.72-1.09,12.91-4.92,18.1-18.25,21.46-31.89,8-64.35,8.38-96.82,5.36-13.31-1.24-26.48-4.38-39.57-7.3-9.43-2.1-14.17-8.1-14.83-18.41-1.36-21.36-3.81-42.65-5.73-63.12Z"/><path d="M235.43,402.67c47.74,13.16,97,13,147.58,0-17.23,23.1-11,49.56-13.25,74.45-1.91,21.17-13.34,34.49-35,35.3-16.22.61-32.71,1.73-48.66-.42-11.55-1.55-22.62-7.67-33.45-12.74-2.38-1.12-3.7-6.31-4-9.76-1.56-17.2-1.81-34.57-4.15-51.65C242.86,426,238.57,414.5,235.43,402.67Z"/><path class="cls-1" d="M342.67,148.11c-7.28,8.15-17.1,8.44-27.2,0h27.2Z"/></g></svg>