<?xml version="1.0" encoding="utf-8"?>
<!-- Generator: Adobe Illustrator 19.2.1, SVG Export Plug-In . SVG Version: 6.00 Build 0)  -->
<svg version="1.1" id="Layer_2" xmlns="http://www.w3.org/2000/svg" xmlns:xlink="http://www.w3.org/1999/xlink" x="0px" y="0px"
	 viewBox="0 0 600 519.6" style="enable-background:new 0 0 600 519.6;" xml:space="preserve">
<style type="text/css">
	.st0{display:none;opacity:0.8;}
	.st1{display:inline;}
	.st2{fill:#FFFFFF;}
	.st3{display:none;}
	.st4{display:inline;fill:#FFFFFF;}
	.st5{display:inline;fill:#FBFDFD;}
	.st6{clip-path:url(#SVGID_4_);}
	.st7{clip-path:url(#SVGID_6_);}
	.st8{clip-path:url(#SVGID_8_);fill:#699F63;}
	.st9{clip-path:url(#SVGID_8_);fill-rule:evenodd;clip-rule:evenodd;fill:#333333;}
	.st10{clip-path:url(#SVGID_8_);fill-rule:evenodd;clip-rule:evenodd;fill:#699F63;}
	.st11{clip-path:url(#SVGID_10_);fill:url(#SVGID_11_);}
	.st12{opacity:0.66;clip-path:url(#SVGID_13_);}
	.st13{clip-path:url(#SVGID_15_);fill:#B4B4B4;}
	.st14{clip-path:url(#SVGID_17_);fill:url(#SVGID_18_);}
	.st15{display:inline;clip-path:url(#SVGID_20_);}
	.st16{clip-path:url(#SVGID_22_);}
	.st17{clip-path:url(#SVGID_24_);}
	.st18{clip-path:url(#SVGID_26_);fill:#699F63;}
	.st19{clip-path:url(#SVGID_26_);fill-rule:evenodd;clip-rule:evenodd;fill:#333333;}
	.st20{clip-path:url(#SVGID_26_);fill-rule:evenodd;clip-rule:evenodd;fill:#699F63;}
	.st21{clip-path:url(#SVGID_28_);fill:url(#SVGID_29_);}
	.st22{opacity:0.66;clip-path:url(#SVGID_31_);}
	.st23{clip-path:url(#SVGID_33_);fill:#B4B4B4;}
	.st24{clip-path:url(#SVGID_35_);fill:url(#SVGID_36_);}
	.st25{display:inline;fill:#2B2526;}
	.st26{display:inline;fill:#FDFDFD;}
	.st27{display:inline;fill:#476F87;}
	.st28{display:inline;fill:#334F60;}
	.st29{display:inline;fill:#ECD3B4;}
	.st30{display:inline;fill:#D03833;}
	.st31{fill:#FDFDFD;}
	.st32{fill:#476F87;}
	.st33{fill:#334F60;}
	.st34{fill:#ECD3B4;}
	.st35{display:inline;fill:#59AFE0;}
	.st36{display:inline;fill:#5AAFE0;}
	.st37{clip-path:url(#SVGID_38_);}
</style>
<g id="empire" class="st0">
	<g class="st1">
		<g>
			<path class="st2" d="M450,0H150L0,260.3l150,259.3h299l151-259.3L450,0z M565.1,251.2H394.9l-39.5-68.7l85-147.2L565.1,251.2z
				 M425.4,26l-85,147.2h-79.6L175.9,26H425.4z M160.5,34.1l85,147.2l-40.6,69.8h-170L160.5,34.1z M34.9,268.5h170l40.6,69.8
				l-85.3,147.2L34.9,268.5z M175.6,493.6l85-147.2h80.1l85,147.2L175.6,493.6L175.6,493.6z M440.3,484.2l-85-147l39.5-68.7H565
				L440.3,484.2z"/>
		</g>
	</g>
</g>
<g class="st3">
	<path class="st4" d="M46.6,514.5c0-167.2,0-334.4,0-501.6c167.2,0,334.4,0,501.6,0c0,167.2,0,334.4,0,501.6
		C381,514.5,213.8,514.5,46.6,514.5z M163.6,64.4c-0.3-0.1-0.5-0.2-0.8-0.4c-0.7,0.6-1.4,1.1-2,1.8c-21.5,23.1-33,50.5-34.4,82
		c-0.8,18.4,1.7,36.4,7.1,53.9c9.6,31.3,26.5,58.1,49.9,80.9c34.7,33.9,76.1,52.5,124.8,54.4c15.3,0.6,30.6-0.3,45.7-3.6
		c41.3-9.3,73.8-31.3,97.3-66.5c2.8-4.2,5-8.7,7.5-13c-1,0-1.5,0.4-1.9,0.8c-14.8,14.6-32.2,25.1-51.8,31.8
		c-23.8,8.2-48.2,10.8-73.3,8.5c-16.8-1.6-33.2-4.9-48.8-11.3c-26.2-10.8-49.5-26.2-70.4-45.3c-16.2-14.8-29.4-31.8-38.9-51.7
		c-16.3-34.2-18.7-70-12.8-106.8C161.6,74.7,162.7,69.6,163.6,64.4z M467.9,165.7c-0.5,0-0.7,0-0.9,0.1c-0.9,0.8-1.8,1.7-2.7,2.6
		c-27.2,26.4-59.9,36.4-97,30.3c-34.5-5.7-63.2-23-87.2-48.1C257.5,126.8,248,97.6,248.8,65c0.3-10.4,1.8-20.8,2.8-31.1
		c-7,8.2-13.2,17.3-17.4,27.6c-9.8,23.9-9.1,48.2-2.2,72.5c6.7,23.4,20.6,42.3,38.2,58.8c24.5,23,53.6,35.1,87.1,36.5
		c13.8,0.6,27.4-1.2,40.8-5c22.6-6.5,42.2-17.7,56.9-36.5C460.2,181.1,464.6,173.8,467.9,165.7z M208.8,460.4
		c0.5-1.4,0.8-2.4,1.1-3.3c3.5-11.2,7.4-22.3,10.3-33.7c2.7-10.7,0.5-21-6-30c-7.4-10.4-18.2-14.7-30.4-15.3
		c-19-1-35.1,5.2-46.5,21.1c-11.7,16.3-16.1,34.8-14.2,54.7c1.5,14.9,12,25.7,26.9,26.4c16.1,0.7,32.3,0.5,48.4,0.6
		c5.5,0,11,0,16.6,0c1.6-6.7,3.1-13.1,4.7-19.8C215.9,460.7,212.6,460.6,208.8,460.4z M379.5,462c-1.1-0.1-1.9-0.3-2.8-0.3
		c-8.2-0.1-16.5-0.2-24.7-0.4c-4.4-0.1-8.8-0.3-13.1-0.7c-6.3-0.5-9-4.4-7.6-10.3c0.4-1.7,1.1-2.3,2.8-2.2c0.7,0.1,1.5,0,2.2,0
		c14.9,0,29.8,0,44.7,0c1.3,0,2.7,0.3,3-1.7c1.1-7.6,2.7-15.2,3.3-22.9c0.9-11.4-4.7-19.6-15.6-23.1c-15.7-5.1-30.5-2.1-44.1,6.9
		c-5.3,3.5-9.1,8.5-11.5,14.5c-4.7,11.6-7.3,23.7-8.3,36.1c-1,12.1,6.3,21.1,18.4,22.1c11.3,0.9,22.7,0.7,34,0.8c5,0.1,10,0,15.1,0
		C376.8,474.4,378.1,468.3,379.5,462z M288,400.7c-0.3,1.1-0.6,2-0.8,3c-3.5,16-7,32-10.6,47.9c-0.6,2.8-0.6,6.7-2.4,8.1
		c-1.8,1.5-5.6,0.6-8.5,0.6c-4.5,0.1-9.1,0-13.8,0c-0.3-2.2-0.5-4-0.7-5.7c-0.8-10.5,1.8-20.5,4.1-30.6c1.7-7.7,3-15.4,4.6-23.7
		c-6.7,0-12.6,0.1-18.4,0c-2.1,0-3.1,0.4-3.6,2.7c-2.1,10.9-4.6,21.8-6.6,32.8c-1.4,8.2-2.8,16.5-3.1,24.8
		c-0.4,11.2,6.2,18.6,17.4,19.4c10.7,0.8,21.5,0.4,32.2,0.6c4.7,0.1,9.3,0,14.1,0c5.7-26.8,11.2-53.3,16.8-80
		C301.9,400.7,295,400.7,288,400.7z M452.8,107.1c-1.6,0.7-2.5,1.1-3.4,1.5c-16.4,7.4-33.3,10.3-51.1,6.5
		c-16.1-3.4-30-11.1-42.6-21.4c-20.3-16.8-31.3-38.1-30.6-64.8c0.1-4.6,0.6-9.3,1-14.5c-7.7,10.4-12.7,21.2-13.8,33.7
		c-1.4,15.1,3.3,28.7,10.5,41.7c21.5,39,62.7,50.3,97.3,41.8C434,128.2,444.5,119.6,452.8,107.1z M454.8,480.3c5.6,0,11.4,0,17.3,0
		c5.8,0,5.8,0,7.8-5.3c0.3-0.9,0.6-1.8,1-2.6c6.3-15.8,16.3-29.2,26.6-42.6c9.6-12.6,18.9-25.4,28.3-38.1c0.6-0.9,1-1.9,1.8-3.3
		c-8.1,0-15.6,0.1-23.1,0c-2.1,0-3.4,0.7-4.6,2.4c-9.7,14.3-19.6,28.5-29.4,42.8c-0.9,1.3-1.9,2.6-3.2,4.4c-1.3-4-2.2-7.4-3.4-10.7
		c-0.3-0.8-1.2-1.9-1.9-1.9c-7.3-0.1-14.5-0.1-22.1-0.1c0.2,1.3,0.2,2.2,0.5,3.1c1.8,6.6,3.7,13.2,5.6,19.8
		c1.8,6.4,3.3,12.8,2.2,19.4C457.4,471.9,456,475.9,454.8,480.3z M405.6,400c-5.7,27-11.4,53.6-17.1,80.6c7,0,13.6,0.1,20.3-0.1
		c0.6,0,1.6-1.4,1.8-2.3c1.7-7.5,3.3-15.1,4.9-22.6c2.5-11.8,5.1-23.6,7.6-35.7c16.3,0,32.4,0,48.9,0c-0.7-3.4-1.1-6.5-1.9-9.5
		c-1.8-6.6-4.9-9.4-11.7-9.8c-6.2-0.4-12.5-0.5-18.7-0.6C428.4,399.9,417.2,400,405.6,400z M115,425.2c-7.7,0-15,0-22.5,0
		c-0.7,1.8-1.5,3.6-2,5.5c-2.2,9.6-4.3,19.3-6.2,29c-2,10-4.1,20-9,29.1c-1.3,2.5-2.8,4.1-5.9,4c-2.2-0.1-4.4,0.4-6.5,0.8
		c-0.7,0.2-1.8,0.9-1.9,1.5c-1.5,5.9-2.9,11.9-4.5,18.7c5.7,0,10.9,0,16.1,0c14.6,0,22.1-5.3,26.1-19.3c2.9-10.2,5.4-20.5,7.8-30.9
		C109.4,451.1,112.1,438.3,115,425.2z M93.1,418.7c7.4,0,14.6,0,21.8-0.1c0.5,0,1.4-0.7,1.5-1.2c1.3-5.6,2.4-11.1,3.7-17.2
		c-7.5,0-14.5,0-21.6,0.1c-0.5,0-1.4,0.9-1.5,1.6C95.7,407.4,94.4,412.9,93.1,418.7z"/>
	<path class="st1" d="M163.6,64.4c-0.9,5.2-2,10.4-2.8,15.6c-6,36.8-3.6,72.7,12.8,106.8c9.5,19.8,22.7,36.9,38.9,51.7
		c20.9,19,44.3,34.4,70.4,45.3c15.6,6.5,32,9.8,48.8,11.3c25,2.3,49.5-0.3,73.3-8.5c19.6-6.8,37-17.2,51.8-31.8
		c0.4-0.4,0.9-0.8,1.9-0.8c-2.5,4.4-4.7,8.9-7.5,13c-23.4,35.3-56,57.3-97.3,66.5c-15,3.4-30.3,4.2-45.7,3.6
		c-48.6-1.9-90.1-20.5-124.8-54.4c-23.3-22.8-40.2-49.6-49.9-80.9c-5.4-17.6-8-35.6-7.1-53.9c1.4-31.5,12.9-58.9,34.4-82
		c0.6-0.7,1.3-1.2,2-1.8C163.1,64.1,163.4,64.3,163.6,64.4z"/>
	<path class="st1" d="M467.9,165.7c-3.4,8-7.7,15.3-13,22.1c-14.6,18.9-34.3,30.1-56.9,36.5c-13.3,3.8-27,5.6-40.8,5
		c-33.5-1.4-62.6-13.5-87.1-36.5c-17.6-16.5-31.5-35.4-38.2-58.8c-7-24.3-7.6-48.7,2.2-72.5c4.2-10.3,10.4-19.4,17.4-27.6
		c-1,10.3-2.5,20.6-2.8,31.1c-0.8,32.6,8.6,61.8,31.4,85.7c23.9,25,52.7,42.4,87.2,48.1c37,6.1,69.7-3.9,97-30.3
		c0.9-0.9,1.8-1.7,2.7-2.6C467.2,165.7,467.4,165.8,467.9,165.7z"/>
	<path class="st1" d="M208.8,460.4c3.8,0.2,7.1,0.4,11,0.6c-1.6,6.6-3.1,13-4.7,19.8c-5.6,0-11.1,0-16.6,0
		c-16.2-0.1-32.3,0.1-48.4-0.6c-14.9-0.7-25.5-11.5-26.9-26.4c-2-20,2.4-38.4,14.2-54.7c11.4-15.9,27.5-22,46.5-21.1
		c12.3,0.6,23,5,30.4,15.3c6.5,9,8.7,19.3,6,30c-2.9,11.4-6.8,22.5-10.3,33.7C209.6,458,209.2,458.9,208.8,460.4z M186.4,460.5
		c3.6-14.1,7.4-27.6,10.3-41.3c1.5-6.9-1.2-13.1-7.4-17c-9.4-5.9-27.9-3.9-33.8,10.2c-4.3,10.2-6.9,20.7-7.9,31.7
		c-0.8,8.1,3.4,14.2,11.4,15.2C167.9,460.4,177,460.2,186.4,460.5z"/>
	<path class="st1" d="M379.5,462c-1.4,6.3-2.7,12.4-4.1,18.9c-5.1,0-10.1,0.1-15.1,0c-11.3-0.2-22.7,0-34-0.8
		c-12.1-0.9-19.4-10-18.4-22.1c1-12.4,3.6-24.5,8.3-36.1c2.4-6,6.1-10.9,11.5-14.5c13.6-9,28.3-12,44.1-6.9
		c10.9,3.6,16.5,11.7,15.6,23.1c-0.6,7.7-2.2,15.2-3.3,22.9c-0.3,2-1.7,1.7-3,1.7c-14.9,0-29.8,0-44.7,0c-0.7,0-1.5,0.1-2.2,0
		c-1.6-0.2-2.4,0.5-2.8,2.2c-1.4,5.9,1.3,9.7,7.6,10.3c4.4,0.4,8.7,0.6,13.1,0.7c8.2,0.2,16.5,0.3,24.7,0.4
		C377.5,461.7,378.3,461.9,379.5,462z M363.9,430.5c1.3-4.7,0.1-8.4-3.2-10.6c-9.4-6-22.6-0.5-25.1,10.6
		C345.1,430.5,354.5,430.5,363.9,430.5z"/>
	<path class="st1" d="M288,400.7c7,0,13.8,0,20.9,0c-5.6,26.6-11.2,53.1-16.8,80c-4.8,0-9.4,0-14.1,0c-10.7-0.1-21.5,0.2-32.2-0.6
		c-11.1-0.8-17.7-8.1-17.4-19.4c0.3-8.3,1.6-16.6,3.1-24.8c1.9-11,4.5-21.8,6.6-32.8c0.4-2.3,1.5-2.8,3.6-2.7c5.8,0.1,11.6,0,18.4,0
		c-1.6,8.2-2.9,16-4.6,23.7c-2.3,10.1-4.8,20.1-4.1,30.6c0.1,1.8,0.4,3.5,0.7,5.7c4.7,0,9.2,0,13.8,0c2.9,0,6.6,0.8,8.5-0.6
		c1.8-1.4,1.8-5.3,2.4-8.1c3.5-16,7-32,10.6-47.9C287.4,402.8,287.8,401.8,288,400.7z"/>
	<path class="st1" d="M452.8,107.1c-8.3,12.6-18.9,21.1-32.8,24.5c-34.6,8.5-75.7-2.8-97.3-41.8c-7.2-13-11.8-26.6-10.5-41.7
		c1.1-12.5,6.1-23.3,13.8-33.7c-0.4,5.3-0.9,9.9-1,14.5c-0.7,26.7,10.3,48,30.6,64.8c12.5,10.4,26.5,18,42.6,21.4
		c17.8,3.8,34.7,0.9,51.1-6.5C450.3,108.2,451.2,107.8,452.8,107.1z"/>
	<path class="st1" d="M454.8,480.3c1.2-4.4,2.5-8.4,3.2-12.6c1.1-6.6-0.4-13.1-2.2-19.4c-1.8-6.6-3.7-13.2-5.6-19.8
		c-0.2-0.9-0.3-1.8-0.5-3.1c7.6,0,14.9-0.1,22.1,0.1c0.7,0,1.6,1.1,1.9,1.9c1.2,3.3,2.1,6.7,3.4,10.7c1.3-1.8,2.3-3.1,3.2-4.4
		c9.8-14.3,19.7-28.5,29.4-42.8c1.2-1.8,2.4-2.5,4.6-2.4c7.5,0.1,15,0,23.1,0c-0.8,1.4-1.2,2.4-1.8,3.3
		c-9.4,12.7-18.7,25.6-28.3,38.1c-10.2,13.3-20.2,26.8-26.6,42.6c-0.3,0.9-0.7,1.8-1,2.6c-2,5.3-2,5.3-7.8,5.3
		C466.3,480.3,460.5,480.3,454.8,480.3z"/>
	<path class="st1" d="M405.6,400c11.6,0,22.8-0.1,34.1,0c6.3,0,12.5,0.1,18.7,0.6c6.7,0.5,9.9,3.3,11.7,9.8c0.8,3,1.2,6.1,1.9,9.5
		c-16.5,0-32.6,0-48.9,0c-2.6,12.1-5.1,23.9-7.6,35.7c-1.6,7.5-3.2,15.1-4.9,22.6c-0.2,0.9-1.2,2.3-1.8,2.3
		c-6.6,0.2-13.3,0.1-20.3,0.1C394.2,453.6,399.8,427,405.6,400z"/>
	<path class="st1" d="M115,425.2c-2.9,13.1-5.5,25.8-8.5,38.5c-2.4,10.3-4.9,20.7-7.8,30.9c-4,14-11.5,19.3-26.1,19.3
		c-5.2,0-10.4,0-16.1,0c1.6-6.8,3-12.8,4.5-18.7c0.2-0.6,1.2-1.4,1.9-1.5c2.1-0.4,4.3-0.9,6.5-0.8c3.1,0.1,4.6-1.5,5.9-4
		c4.9-9.2,7-19.1,9-29.1c1.9-9.7,4.1-19.3,6.2-29c0.4-1.9,1.3-3.7,2-5.5C100,425.2,107.2,425.2,115,425.2z"/>
	<path class="st1" d="M93.1,418.7c1.3-5.8,2.5-11.3,3.9-16.7c0.2-0.6,1-1.6,1.5-1.6c7.1-0.1,14.1-0.1,21.6-0.1
		c-1.3,6-2.4,11.6-3.7,17.2c-0.1,0.5-1,1.2-1.5,1.2C107.7,418.8,100.6,418.7,93.1,418.7z"/>
	<path class="st4" d="M186.4,460.5c-9.4-0.4-18.5-0.1-27.5-1.2c-8.1-1-12.2-7.2-11.4-15.2c1-11,3.6-21.5,7.9-31.7
		c5.9-14.1,24.4-16.1,33.8-10.2c6.2,3.9,8.9,10.1,7.4,17C193.8,432.9,190,446.4,186.4,460.5z"/>
	<path class="st4" d="M363.9,430.5c-9.4,0-18.9,0-28.3,0c2.6-11,15.8-16.5,25.1-10.6C364.1,422.1,365.2,425.9,363.9,430.5z"/>
</g>
<g id="semantic_ui_BW" class="st3">
	<path class="st1" d="M299.8,497c-74,0-148.1-0.2-222.1,0.2c-9.2,0.1-11.3-2.1-11.3-11.3c0.3-149.3,0.3-298.6,0-448
		c0-9.2,2.1-11.3,11.3-11.3c149.3,0.3,298.6,0.3,448,0c9.2,0,11.3,2.1,11.3,11.3c-0.3,149.3-0.3,298.6,0,448
		c0,9.2-2.1,11.3-11.3,11.3C450.4,496.8,375.1,497,299.8,497z M306.6,417.6c24.4-0.4,47.5-5.4,68.4-18.2
		c31.4-19.2,46.7-47.1,45.1-84.2c-1.5-35.7-22.5-57.1-52.5-71.1c-27.1-12.6-55.1-23.2-82.6-35c-10.8-4.6-18.5-11.9-17.1-25.2
		c1.4-13.2,10.4-18.6,21.7-21.6c20.4-5.5,40-2.3,58.9,6.2c29.8,13.4,29.8,13.4,50.3-12.4c1.5-1.9,2.8-4.1,4.6-5.7
		c8.4-7.8,6.9-13.4-2.2-20.2c-40.5-30-85.1-38.5-133.6-25.9c-20.5,5.3-38.4,16-52,32.5c-37.1,45.3-22.1,106,33.4,132.5
		c25.3,12.1,51.8,21.8,77.5,33c12.4,5.4,22.8,13.2,20.8,28.8c-2,16.2-14.1,21.3-28.3,24.1c-21.3,4.1-40.9-1.3-60.6-8.9
		c-13.1-5-23.7-23-37.3-16.6c-12.1,5.7-19.5,21.3-28.9,32.5c-0.4,0.5-0.7,1-1.2,1.4c-7.6,6.3-6.6,11.2,1.2,17.2
		C226,406.9,264.4,418.1,306.6,417.6z"/>
	<path class="st5" d="M306.6,417.6c-42.2,0.5-80.5-10.7-114.4-36.7c-7.8-6-8.7-10.9-1.2-17.2c0.5-0.4,0.8-0.9,1.2-1.4
		c9.5-11.2,16.9-26.7,28.9-32.5c13.6-6.5,24.2,11.6,37.3,16.6c19.7,7.5,39.3,13,60.6,8.9c14.2-2.7,26.3-7.9,28.3-24.1
		c1.9-15.5-8.5-23.4-20.8-28.8c-25.8-11.2-52.2-21-77.5-33c-55.5-26.4-70.5-87.2-33.4-132.5c13.6-16.6,31.5-27.2,52-32.5
		c48.5-12.6,93-4.1,133.6,25.9c9.1,6.8,10.6,12.4,2.2,20.2c-1.8,1.6-3.1,3.8-4.6,5.7c-20.5,25.8-20.5,25.8-50.3,12.4
		c-18.9-8.5-38.5-11.7-58.9-6.2c-11.3,3-20.3,8.4-21.7,21.6c-1.4,13.3,6.3,20.5,17.1,25.2c27.5,11.8,55.5,22.5,82.6,35
		c30,13.9,51,35.4,52.5,71.1c1.6,37.1-13.7,65-45.1,84.2C354,412.2,330.9,417.2,306.6,417.6z"/>
</g>
<image style="display:none;overflow:visible;" width="680" height="417" id="all" xlink:href="../../../buildit-site-work/DevIcons-Custom.jpg"  transform="matrix(0.75 0 0 0.75 41 -374.72)">
</image>
<g id="node" class="st3">
	<g class="st1">
		<defs>
			<rect id="SVGID_2_" x="25" y="-32.7" width="600" height="600"/>
		</defs>
		<clipPath id="SVGID_4_">
			<use xlink:href="#SVGID_2_"  style="overflow:visible;"/>
		</clipPath>
		<g class="st6">
			<defs>
				<rect id="SVGID_5_" x="25" y="-32.7" width="600" height="600"/>
			</defs>
			<clipPath id="SVGID_6_">
				<use xlink:href="#SVGID_5_"  style="overflow:visible;"/>
			</clipPath>
			<g class="st7">
				<defs>
					<rect id="SVGID_7_" x="25" y="-32.7" width="600" height="600"/>
				</defs>
				<clipPath id="SVGID_8_">
					<use xlink:href="#SVGID_7_"  style="overflow:visible;"/>
				</clipPath>
				<path class="st8" d="M321.7,402.5c-1.5,0-2.9-0.4-4.2-1.1l-13.3-7.9c-2-1.1-1-1.5-0.4-1.7c2.7-0.9,3.2-1.1,6-2.7
					c0.3-0.2,0.7-0.1,1,0.1l10.2,6.1c0.4,0.2,0.9,0.2,1.2,0l40-23.1c0.4-0.2,0.6-0.6,0.6-1.1v-46.1c0-0.5-0.2-0.9-0.6-1.1l-39.9-23
					c-0.4-0.2-0.9-0.2-1.2,0l-39.9,23c-0.4,0.2-0.6,0.7-0.6,1.1V371c0,0.4,0.2,0.9,0.6,1.1l10.9,6.3c5.9,3,9.6-0.5,9.6-4v-45.5
					c0-0.6,0.5-1.2,1.2-1.2h5.1c0.6,0,1.2,0.5,1.2,1.2v45.5c0,7.9-4.3,12.5-11.8,12.5c-2.3,0-4.1,0-9.2-2.5l-10.5-6
					c-2.6-1.5-4.2-4.3-4.2-7.3v-46.1c0-3,1.6-5.8,4.2-7.3l40-23.1c2.5-1.4,5.9-1.4,8.4,0l40,23.1c2.6,1.5,4.2,4.3,4.2,7.3V371
					c0,3-1.6,5.8-4.2,7.3l-40,23.1C324.6,402.1,323.2,402.5,321.7,402.5"/>
				<path class="st8" d="M334,370.7c-17.5,0-21.1-8-21.1-14.8c0-0.6,0.5-1.2,1.2-1.2h5.2c0.6,0,1.1,0.4,1.1,1
					c0.8,5.3,3.1,7.9,13.7,7.9c8.4,0,12-1.9,12-6.4c0-2.6-1-4.5-14.1-5.8c-10.9-1.1-17.7-3.5-17.7-12.2c0-8.1,6.8-12.9,18.2-12.9
					c12.8,0,19.1,4.4,19.9,14c0,0.3-0.1,0.6-0.3,0.9c-0.2,0.2-0.5,0.4-0.8,0.4H346c-0.5,0-1-0.4-1.1-0.9c-1.2-5.5-4.3-7.3-12.5-7.3
					c-9.2,0-10.3,3.2-10.3,5.6c0,2.9,1.3,3.8,13.7,5.4c12.3,1.6,18.1,3.9,18.1,12.6C353.9,365.8,346.7,370.7,334,370.7"/>
				<path class="st8" d="M391.6,322.4c0,4.2-3.5,7.7-7.7,7.7c-4.2,0-7.7-3.4-7.7-7.7c0-4.4,3.6-7.7,7.7-7.7
					C388.1,314.7,391.6,318,391.6,322.4 M377.5,322.4c0,3.6,2.9,6.5,6.4,6.5c3.6,0,6.5-3,6.5-6.5c0-3.6-2.9-6.4-6.5-6.4
					C380.4,315.9,377.5,318.7,377.5,322.4 M381,318.1h3c1,0,3,0,3,2.3c0,1.6-1,1.9-1.6,2.1c1.2,0.1,1.3,0.9,1.4,2
					c0.1,0.7,0.2,1.9,0.4,2.3h-1.8c0-0.4-0.3-2.6-0.3-2.7c-0.1-0.5-0.3-0.7-0.9-0.7h-1.5v3.5H381V318.1z M382.7,321.9h1.3
					c1.1,0,1.3-0.8,1.3-1.2c0-1.2-0.8-1.2-1.3-1.2h-1.4V321.9z"/>
				<path class="st9" d="M198,222.1c0-1.8-1-3.5-2.6-4.4L153,193.3c-0.7-0.4-1.5-0.6-2.3-0.7h-0.4c-0.8,0-1.6,0.3-2.3,0.7
					l-42.4,24.4c-1.6,0.9-2.6,2.6-2.6,4.4l0.1,65.6c0,0.9,0.5,1.8,1.3,2.2c0.8,0.5,1.8,0.5,2.5,0l25.2-14.4c1.6-0.9,2.6-2.6,2.6-4.4
					v-30.7c0-1.8,1-3.5,2.6-4.4l10.7-6.2c0.8-0.5,1.7-0.7,2.6-0.7c0.9,0,1.8,0.2,2.5,0.7l10.7,6.2c1.6,0.9,2.6,2.6,2.6,4.4v30.7
					c0,1.8,1,3.5,2.6,4.4l25.2,14.4c0.8,0.5,1.8,0.5,2.6,0c0.8-0.4,1.3-1.3,1.3-2.2L198,222.1z"/>
				<path class="st9" d="M401.8,131.9c-0.8-0.4-1.8-0.4-2.5,0c-0.8,0.5-1.3,1.3-1.3,2.2v65c0,0.6-0.3,1.2-0.9,1.5
					c-0.6,0.3-1.2,0.3-1.8,0l-10.6-6.1c-1.6-0.9-3.5-0.9-5.1,0L337.2,219c-1.6,0.9-2.6,2.6-2.6,4.4v48.9c0,1.8,1,3.5,2.6,4.4
					l42.4,24.5c1.6,0.9,3.5,0.9,5.1,0l42.4-24.5c1.6-0.9,2.6-2.6,2.6-4.4V150.4c0-1.9-1-3.6-2.6-4.5L401.8,131.9z M397.8,256.3
					c0,0.5-0.2,0.9-0.6,1.1l-14.5,8.4c-0.4,0.2-0.9,0.2-1.3,0l-14.5-8.4c-0.4-0.2-0.6-0.6-0.6-1.1v-16.8c0-0.5,0.2-0.9,0.6-1.1
					l14.5-8.4c0.4-0.2,0.9-0.2,1.3,0l14.5,8.4c0.4,0.2,0.6,0.7,0.6,1.1V256.3z"/>
				<path class="st9" d="M542.9,239.1c1.6-0.9,2.5-2.6,2.5-4.4v-11.9c0-1.8-1-3.5-2.5-4.4l-42.1-24.4c-1.6-0.9-3.5-0.9-5.1,0
					l-42.4,24.5c-1.6,0.9-2.6,2.6-2.6,4.4v48.9c0,1.8,1,3.5,2.6,4.4l42.1,24c1.6,0.9,3.5,0.9,5,0l25.5-14.2c0.8-0.4,1.3-1.3,1.3-2.2
					c0-0.9-0.5-1.8-1.3-2.2l-42.6-24.5c-0.8-0.5-1.3-1.3-1.3-2.2v-15.3c0-0.9,0.5-1.8,1.3-2.2l13.3-7.6c0.8-0.5,1.8-0.5,2.6,0
					l13.3,7.6c0.8,0.5,1.3,1.3,1.3,2.2v12.1c0,0.9,0.5,1.8,1.3,2.2c0.8,0.5,1.8,0.5,2.6,0L542.9,239.1z"/>
				<path class="st10" d="M497.6,236.8c0.3-0.2,0.7-0.2,1,0l8.1,4.7c0.3,0.2,0.5,0.5,0.5,0.9v9.4c0,0.4-0.2,0.7-0.5,0.9l-8.1,4.7
					c-0.3,0.2-0.7,0.2-1,0l-8.1-4.7c-0.3-0.2-0.5-0.5-0.5-0.9v-9.4c0-0.4,0.2-0.7,0.5-0.9L497.6,236.8z"/>
			</g>
			<g class="st7">
				<defs>
					<path id="SVGID_9_" d="M263.8,194.1l-42,24.3c-1.6,0.9-2.5,2.6-2.5,4.4v48.5c0,1.8,1,3.5,2.5,4.4l42,24.3
						c1.6,0.9,3.5,0.9,5.1,0l42-24.3c1.6-0.9,2.5-2.6,2.5-4.4v-48.5c0-1.8-1-3.5-2.5-4.4l-42-24.3c-0.8-0.5-1.7-0.7-2.5-0.7
						C265.4,193.5,264.5,193.7,263.8,194.1"/>
				</defs>
				<clipPath id="SVGID_10_">
					<use xlink:href="#SVGID_9_"  style="overflow:visible;"/>
				</clipPath>
				
					<linearGradient id="SVGID_11_" gradientUnits="userSpaceOnUse" x1="0.2654" y1="519.0927" x2="1.2654" y2="519.0927" gradientTransform="matrix(94.2039 0 0 -94.2039 194.1963 49147.7422)">
					<stop  offset="0" style="stop-color:#231F20"/>
					<stop  offset="5.301340e-03" style="stop-color:#231F20"/>
					<stop  offset="0.2003" style="stop-color:#393738"/>
					<stop  offset="0.5457" style="stop-color:#5C5C5E"/>
					<stop  offset="0.8246" style="stop-color:#717375"/>
					<stop  offset="1" style="stop-color:#797B7D"/>
				</linearGradient>
				<rect x="219.2" y="193.5" class="st11" width="94.2" height="107.5"/>
			</g>
			<g class="st7">
				<defs>
					<path id="SVGID_12_" d="M263.8,194.1l-42,24.3c-1.6,0.9-2.5,2.6-2.5,4.4v48.5c0,1.8,1,3.5,2.5,4.4l42,24.3
						c1.6,0.9,3.5,0.9,5.1,0l42-24.3c1.6-0.9,2.5-2.6,2.5-4.4v-48.5c0-1.8-1-3.5-2.5-4.4l-42-24.3c-0.8-0.5-1.7-0.7-2.5-0.7
						C265.4,193.5,264.6,193.7,263.8,194.1"/>
				</defs>
				<clipPath id="SVGID_13_">
					<use xlink:href="#SVGID_12_"  style="overflow:visible;"/>
				</clipPath>
				<g class="st12">
					<g>
						<defs>
							<rect id="SVGID_14_" x="220.2" y="193.6" width="91.8" height="107.1"/>
						</defs>
						<clipPath id="SVGID_15_">
							<use xlink:href="#SVGID_14_"  style="overflow:visible;"/>
						</clipPath>
						<path class="st13" d="M310.6,218.4l-41.8-24.3c-0.4-0.2-0.9-0.4-1.3-0.5l-47.3,80.9c0.4,0.5,0.9,0.9,1.4,1.2l42.1,24.3
							c1.3,0.7,2.7,0.9,4,0.4l44.2-80.9C311.6,219.1,311.2,218.7,310.6,218.4"/>
					</g>
				</g>
			</g>
			<g class="st7">
				<defs>
					<path id="SVGID_16_" d="M266,193.5c-0.8,0-1.5,0.3-2.2,0.7l-41.6,24l45.2,82.4c0.5-0.1,0.9-0.3,1.4-0.5l41.9-24.3
						c1.6-0.9,2.3-2.6,2.3-4.4v-0.2l-45.4-77.5c-0.5-0.1-0.9-0.2-1.4-0.2C266.2,193.5,266.1,193.5,266,193.5"/>
				</defs>
				<clipPath id="SVGID_17_">
					<use xlink:href="#SVGID_16_"  style="overflow:visible;"/>
				</clipPath>
				
					<linearGradient id="SVGID_18_" gradientUnits="userSpaceOnUse" x1="0.2573" y1="519.1093" x2="1.2573" y2="519.1093" gradientTransform="matrix(97.1778 0 0 -97.1778 193.545 50692.9141)">
					<stop  offset="0" style="stop-color:#797B7D"/>
					<stop  offset="0.1754" style="stop-color:#717375"/>
					<stop  offset="0.4543" style="stop-color:#5C5C5E"/>
					<stop  offset="0.7997" style="stop-color:#393738"/>
					<stop  offset="0.9947" style="stop-color:#231F20"/>
					<stop  offset="1" style="stop-color:#231F20"/>
				</linearGradient>
				<rect x="222.1" y="193.5" class="st14" width="90.9" height="107.1"/>
			</g>
		</g>
	</g>
</g>
<g class="st3">
	<defs>
		<rect id="SVGID_19_" x="-63" y="-77.7" width="727" height="727"/>
	</defs>
	<clipPath id="SVGID_20_" class="st1">
		<use xlink:href="#SVGID_19_"  style="overflow:visible;"/>
	</clipPath>
	<g id="node_js_BW" class="st15">
		<g>
			<defs>
				<rect id="SVGID_21_" x="-63" y="-77.7" width="727" height="727"/>
			</defs>
			<clipPath id="SVGID_22_">
				<use xlink:href="#SVGID_21_"  style="overflow:visible;"/>
			</clipPath>
			<g class="st16">
				<defs>
					<rect id="SVGID_23_" x="-63" y="-77.7" width="727" height="727"/>
				</defs>
				<clipPath id="SVGID_24_">
					<use xlink:href="#SVGID_23_"  style="overflow:visible;"/>
				</clipPath>
				<g class="st17">
					<defs>
						<rect id="SVGID_25_" x="-63" y="-77.7" width="727" height="727"/>
					</defs>
					<clipPath id="SVGID_26_">
						<use xlink:href="#SVGID_25_"  style="overflow:visible;"/>
					</clipPath>
					<path class="st18" d="M296.5,449.6c-1.8,0-3.5-0.5-5.1-1.4l-16.2-9.6c-2.4-1.3-1.2-1.8-0.4-2.1c3.2-1.1,3.9-1.4,7.3-3.3
						c0.4-0.2,0.8-0.1,1.2,0.1l12.4,7.4c0.4,0.2,1.1,0.2,1.5,0l48.4-27.9c0.4-0.3,0.7-0.8,0.7-1.3v-55.9c0-0.5-0.3-1.1-0.8-1.3
						l-48.4-27.9c-0.4-0.3-1-0.3-1.5,0l-48.4,27.9c-0.5,0.3-0.8,0.8-0.8,1.3v55.9c0,0.5,0.3,1,0.8,1.3l13.3,7.7
						c7.2,3.6,11.6-0.6,11.6-4.9v-55.2c0-0.8,0.6-1.4,1.4-1.4h6.1c0.8,0,1.4,0.6,1.4,1.4v55.2c0,9.6-5.2,15.1-14.3,15.1
						c-2.8,0-5,0-11.2-3l-12.7-7.3c-3.1-1.8-5.1-5.2-5.1-8.8v-55.9c0-3.6,1.9-7,5.1-8.8l48.4-28c3.1-1.7,7.1-1.7,10.2,0l48.4,28
						c3.1,1.8,5.1,5.2,5.1,8.8v55.9c0,3.6-1.9,7-5.1,8.8l-48.4,27.9C300,449.2,298.3,449.6,296.5,449.6"/>
					<path class="st18" d="M311.4,411.1c-21.2,0-25.6-9.7-25.6-17.9c0-0.8,0.6-1.4,1.4-1.4h6.3c0.7,0,1.3,0.5,1.4,1.2
						c0.9,6.4,3.8,9.6,16.6,9.6c10.2,0,14.5-2.3,14.5-7.7c0-3.1-1.2-5.4-17.1-7c-13.2-1.3-21.4-4.2-21.4-14.8
						c0-9.8,8.2-15.6,22-15.6c15.5,0,23.2,5.4,24.2,16.9c0,0.4-0.1,0.8-0.4,1.1c-0.3,0.3-0.6,0.4-1,0.4H326c-0.7,0-1.2-0.5-1.4-1.1
						c-1.5-6.7-5.2-8.8-15.1-8.8c-11.1,0-12.4,3.9-12.4,6.8c0,3.5,1.5,4.5,16.6,6.5c14.9,2,21.9,4.8,21.9,15.2
						C335.6,405.1,326.8,411.1,311.4,411.1"/>
					<path class="st18" d="M381.2,352.6c0,5.1-4.2,9.3-9.3,9.3c-5.1,0-9.3-4.1-9.3-9.3c0-5.3,4.3-9.3,9.3-9.3
						C377,343.2,381.2,347.3,381.2,352.6 M364.1,352.5c0,4.3,3.5,7.9,7.8,7.9c4.3,0,7.9-3.6,7.9-7.9c0-4.3-3.6-7.8-7.9-7.8
						C367.6,344.7,364.1,348.1,364.1,352.5 M368.4,347.3h3.6c1.2,0,3.7,0,3.7,2.8c0,1.9-1.2,2.3-2,2.6c1.4,0.1,1.5,1,1.7,2.4
						c0.1,0.8,0.2,2.3,0.5,2.8h-2.2c-0.1-0.5-0.4-3.2-0.4-3.3c-0.1-0.6-0.3-0.9-1.1-0.9h-1.8v4.2h-2V347.3z M370.4,351.9h1.6
						c1.3,0,1.6-0.9,1.6-1.5c0-1.4-1-1.4-1.5-1.4h-1.7V351.9z"/>
					<path class="st19" d="M146.6,231.1c0-2.2-1.2-4.3-3.1-5.4l-51.3-29.5c-0.9-0.5-1.8-0.8-2.8-0.8h-0.5c-1,0-2,0.3-2.8,0.8
						l-51.3,29.5c-1.9,1.1-3.1,3.2-3.1,5.4l0.1,79.5c0,1.1,0.6,2.1,1.5,2.7c1,0.6,2.1,0.6,3.1,0l30.5-17.5c1.9-1.1,3.1-3.2,3.1-5.4
						v-37.2c0-2.2,1.2-4.3,3.1-5.4l13-7.5c1-0.6,2-0.8,3.1-0.8c1.1,0,2.1,0.3,3.1,0.8l13,7.5c1.9,1.1,3.1,3.2,3.1,5.4v37.2
						c0,2.2,1.2,4.2,3.1,5.4l30.5,17.5c1,0.6,2.2,0.6,3.1,0c0.9-0.5,1.5-1.6,1.5-2.7L146.6,231.1z"/>
					<path class="st19" d="M393.5,121.7c-1-0.5-2.1-0.5-3.1,0c-0.9,0.6-1.5,1.6-1.5,2.7v78.8c0,0.8-0.4,1.5-1.1,1.9
						c-0.7,0.4-1.5,0.4-2.2,0l-12.9-7.4c-1.9-1.1-4.3-1.1-6.2,0l-51.3,29.6c-1.9,1.1-3.1,3.2-3.1,5.4v59.3c0,2.2,1.2,4.3,3.1,5.4
						l51.3,29.7c1.9,1.1,4.3,1.1,6.2,0l51.4-29.7c1.9-1.1,3.1-3.2,3.1-5.4V144.2c0-2.2-1.2-4.3-3.2-5.4L393.5,121.7z M388.8,272.5
						c0,0.6-0.3,1.1-0.8,1.3L370.4,284c-0.5,0.3-1.1,0.3-1.5,0l-17.6-10.2c-0.5-0.3-0.8-0.8-0.8-1.3v-20.4c0-0.6,0.3-1.1,0.8-1.3
						l17.6-10.2c0.5-0.3,1.1-0.3,1.6,0l17.6,10.2c0.5,0.3,0.8,0.8,0.8,1.3V272.5z"/>
					<path class="st19" d="M564.5,251.6c1.9-1.1,3.1-3.2,3.1-5.4v-14.4c0-2.2-1.2-4.3-3.1-5.4l-51-29.6c-1.9-1.1-4.3-1.1-6.2,0
						l-51.3,29.6c-1.9,1.1-3.1,3.2-3.1,5.4v59.3c0,2.2,1.2,4.3,3.1,5.4l51,29.1c1.9,1.1,4.2,1.1,6.1,0l30.9-17.1
						c1-0.5,1.6-1.6,1.6-2.7c0-1.1-0.6-2.2-1.6-2.7l-51.7-29.6c-1-0.6-1.6-1.6-1.6-2.7v-18.6c0-1.1,0.6-2.1,1.6-2.7l16.1-9.3
						c1-0.6,2.1-0.6,3.1,0l16.1,9.3c1,0.6,1.6,1.6,1.6,2.7v14.6c0,1.1,0.6,2.1,1.6,2.7c1,0.6,2.1,0.6,3.1,0L564.5,251.6z"/>
					<path class="st20" d="M509.6,248.8c0.4-0.2,0.8-0.2,1.2,0l9.9,5.7c0.4,0.2,0.6,0.6,0.6,1v11.4c0,0.4-0.2,0.8-0.6,1l-9.9,5.7
						c-0.4,0.2-0.8,0.2-1.2,0l-9.8-5.7c-0.4-0.2-0.6-0.6-0.6-1v-11.4c0-0.4,0.2-0.8,0.6-1L509.6,248.8z"/>
				</g>
				<g class="st17">
					<defs>
						<path id="SVGID_27_" d="M226.3,197.2l-50.9,29.4c-1.9,1.1-3.1,3.1-3.1,5.3v58.8c0,2.2,1.2,4.2,3.1,5.3l50.9,29.4
							c1.9,1.1,4.2,1.1,6.2,0l50.9-29.4c1.9-1.1,3.1-3.1,3.1-5.3v-58.8c0-2.2-1.2-4.2-3.1-5.3l-50.9-29.4c-1-0.6-2-0.8-3.1-0.8
							C228.3,196.3,227.2,196.6,226.3,197.2"/>
					</defs>
					<clipPath id="SVGID_28_">
						<use xlink:href="#SVGID_27_"  style="overflow:visible;"/>
					</clipPath>
					
						<linearGradient id="SVGID_29_" gradientUnits="userSpaceOnUse" x1="-0.2324" y1="518.9414" x2="0.9792" y2="518.9414" gradientTransform="matrix(94.2039 0 0 -94.2039 194.1963 49147.7422)">
						<stop  offset="0" style="stop-color:#231F20"/>
						<stop  offset="5.301340e-03" style="stop-color:#231F20"/>
						<stop  offset="0.2003" style="stop-color:#393738"/>
						<stop  offset="0.5457" style="stop-color:#5C5C5E"/>
						<stop  offset="0.8246" style="stop-color:#717375"/>
						<stop  offset="1" style="stop-color:#797B7D"/>
					</linearGradient>
					<rect x="172.3" y="196.3" class="st21" width="114.1" height="130.2"/>
				</g>
				<g class="st17">
					<defs>
						<path id="SVGID_30_" d="M226.3,197.2l-50.9,29.4c-1.9,1.1-3.1,3.1-3.1,5.3v58.8c0,2.2,1.2,4.2,3.1,5.3l50.9,29.4
							c1.9,1.1,4.2,1.1,6.2,0l50.9-29.4c1.9-1.1,3.1-3.1,3.1-5.3v-58.8c0-2.2-1.2-4.2-3.1-5.3l-50.9-29.4c-1-0.6-2-0.8-3.1-0.8
							C228.3,196.3,227.3,196.6,226.3,197.2"/>
					</defs>
					<clipPath id="SVGID_31_">
						<use xlink:href="#SVGID_30_"  style="overflow:visible;"/>
					</clipPath>
					<g class="st22">
						<g>
							<defs>
								<rect id="SVGID_32_" x="173.5" y="196.5" width="111.2" height="129.7"/>
							</defs>
							<clipPath id="SVGID_33_">
								<use xlink:href="#SVGID_32_"  style="overflow:visible;"/>
							</clipPath>
							<path class="st23" d="M283.1,226.6l-50.7-29.4c-0.5-0.3-1.1-0.5-1.6-0.6l-57.3,98c0.5,0.6,1.1,1.1,1.7,1.5l51,29.4
								c1.5,0.9,3.3,1,4.9,0.5l53.5-98C284.2,227.4,283.7,226.9,283.1,226.6"/>
						</g>
					</g>
				</g>
				<g class="st17">
					<defs>
						<path id="SVGID_34_" d="M229,196.4c-0.9,0.1-1.9,0.3-2.7,0.8l-50.4,29.1l54.8,99.8c0.6-0.1,1.1-0.3,1.7-0.7l50.8-29.4
							c1.9-1.1,2.8-3.1,2.8-5.3v-0.2l-55-93.9c-0.6-0.2-1.1-0.2-1.7-0.2C229.2,196.3,229.1,196.4,229,196.4"/>
					</defs>
					<clipPath id="SVGID_35_">
						<use xlink:href="#SVGID_34_"  style="overflow:visible;"/>
					</clipPath>
					
						<linearGradient id="SVGID_36_" gradientUnits="userSpaceOnUse" x1="-0.2267" y1="518.9631" x2="0.9849" y2="518.9631" gradientTransform="matrix(97.1778 0 0 -97.1778 193.545 50692.9141)">
						<stop  offset="0" style="stop-color:#797B7D"/>
						<stop  offset="0.1754" style="stop-color:#717375"/>
						<stop  offset="0.4543" style="stop-color:#5C5C5E"/>
						<stop  offset="0.7997" style="stop-color:#393738"/>
						<stop  offset="0.9947" style="stop-color:#231F20"/>
						<stop  offset="1" style="stop-color:#231F20"/>
					</linearGradient>
					<rect x="175.9" y="196.3" class="st24" width="110.1" height="129.8"/>
				</g>
			</g>
		</g>
	</g>
</g>
<g id="jenkins" class="st3">
	<path class="st25" d="M354.6,513.5c-12.9,0-25.8,0-38.7,0c-2.6-2.3-5.2-3.5-7.7,0c-2.6,0-5.2,0-7.7,0c-1.1-3.3-4.4-2.7-6.5-2.9
		c-9.2-0.9-14.1-5.6-16-14.7c-1.5-7.2-4.8-14-6.5-21.1c-2.8-11.4-4.9-23.2-21.3-19.6c-1.1,0.2-2.4-0.8-3.6-1.1
		c-13.3-3-24.6-11.1-37.4-15.2c-13.6-4.4-18.6-12-17-25.7c1.2-10.1-2.3-17.9-10.2-25.4c-19.4-18.4-32.7-41-42.2-66.1
		c-5-13.1-5.9-27.3-11.3-40.2c0-16.1,0-32.2,0-48.3c3.7-3,2.8-7.5,3.5-11.3c7.5-37,24.3-69,51.2-95.4c6.3-6.2,11.1-12,12.1-21.6
		c1.3-12.1,23-44.1,33.9-51.7c18-12.5,37-23.1,58.3-29.4c6.3-1.9,13.1-1.6,18.9-5.3c3.2,0,6.4,0,9.7,0c4.5,2.7,9,2.8,13.5,0
		c2.6,0,5.2,0,7.7,0c3.5,3.8,8.4,2,12.5,2.7c36.6,6.7,75.8,43.4,78.2,95.6c0.2,5.3,2.2,8.8,5.7,12.4c23.5,24.3,38.8,53.1,46.9,85.9
		c2.1,8.5,1.2,17.7,5.6,25.7c0,2.6,0,5.2,0,7.7c-3.3,5.2-2.8,10.3,0,15.5c0,4.5,0,9,0,13.5c-0.5,0.3-1.5,0.6-1.5,0.9
		c-3.7,24.3-10.3,47.7-22.4,69.3c-0.9,1.5-1.5,2.9,0.1,4.2c11.7,9.1,13.5,23.1,17,35.8c7.2,26.3-8.3,45.1-35.1,44.5
		c-7.9-0.2-14.1-5.1-21-6.9c-18.3-5-32.9,10.9-28.9,29.7c0.9,4.4,2.1,8.8,2.7,13.2c1.6,12-0.5,15.3-12.2,18.9
		c-4,1.2-7.1,2.3-5.9,7.7c1.9,8.8-3.7,12.5-10.9,15.6C363.6,512.3,358.4,509.5,354.6,513.5z M260.1,51.7c5.2-3.4,10.4-6.9,16.5-10.9
		c-17.1-1.5-48.4,19.1-54.4,35.2c4.3-1.5,8.2-2.8,12.1-4.1c6.6,0.9,12.9,1.2,16.9-5.6C254.1,61.5,257.1,56.6,260.1,51.7z
		 M399.1,411.3c0.4,9.5,3.5,12.1,9.7,8.2c4.3-2.7,2.2-6.6,1.9-10.2c0.8-10.4-1.4-20.2-5-29.9c-1.8-4.9-5.2-5.2-9.1-4.4
		c-4.7,1-2.1,4.5-1.8,7C396.1,391.8,397.6,401.6,399.1,411.3z M352.3,322c1.6,3.3,3.1,6.6,4.7,9.8c0.4,2.8,1.1,5.5,3.5,7.5
		c0.9,4.5,2.9,8.5,5.5,12.2c0.2,1.7,0,4.2,2.3,4c2.3-0.2,1.6-2.6,1.6-4.3c3.3-12.8,3.6-25.8,3.5-38.9c2.3-7.1-4.9-5-7.4-7.4
		c-7-6.9-15.9-3.3-20.8,0.9c-5.3,4.5,3.7,9.1,5.4,14.1C350.8,320.7,351.7,321.3,352.3,322z M376.6,353.8c8.1-10,14.2-21.3,20.7-32.3
		c1.8-3.1,3.9-6.2,0.3-9.5c-3.7-3.3-7.8-5.7-13-5.1c-4.9,0.6-5.8,4.3-6.2,8.4c-1.1,12.4-2.3,24.8-3.5,37.2c-0.2,0.7-0.3,1.3-0.5,2
		C375.2,354.2,375.9,354,376.6,353.8z M384.9,389.4c-1.4-6.1,1.1-15.9-11-12.2c-9,2.7-5,9.3-4.1,14.9c0.1,9.9,0.4,19.8,0.3,29.8
		c-0.1,5.7,1.1,9.2,8,8.7c5.9-0.4,9.7-1.6,9.7-8.7C387.8,410.9,386.4,400.2,384.9,389.4z M244,85.8c1.7-6.2-1.9-6-6.3-5.6
		c-19.5,2.1-32,16.4-33.5,38.6c-0.2,1.9-0.4,3.8-0.5,5.7c-0.6,7.4,1,10.6,9.5,7.4c8.7-3.3,16.3,0.7,22.8,6.7
		c3.5,3.2,4.1,8.3,6.8,12.2c2.6-2,2.1-4.1,1.7-5.8c-3.3-12.7-2-25.4-0.5-38.3C244.8,99.9,247.3,92.7,244,85.8z M416.3,372.5
		c-7.5,6.4-0.8,12.7,0.1,19c0.2,1.4,0.3,2.8,0.5,4.2c0.2,4.2,0.7,8.3,0.5,12.5c-0.3,7.7,3.4,9.5,10.5,8.8c7.6-0.7,15.3-0.2,24.8-0.2
		c-6.3,4.9-12.7,2.8-18,7.9c11.8,0.2,22.8,2.4,30.8-6.8c7.2-8.3,7.1-18.1,3.2-27.9c-0.5-8.1-2.6-15.8-6.1-23.1
		c-2.9-5.9-8.1-10.5-14.7-7.9C437.3,363.3,425.8,365.6,416.3,372.5z M401.6,265.7c1.7,11.7,2.8,23.4,0,35.1
		c-0.4,1.7-0.3,4.2,0.7,5.5c5,6.5,1.6,11.7-1.6,17.5c-7.6,13.6-17.7,25.8-22.8,40.8c-0.1,0.2-0.3,0.4-0.4,0.6
		c0.1-0.2,0.2-0.4,0.4-0.6c5.8-0.3,11.6-0.4,17.3-1c5.2-0.6,10-2.1,12.2-7.9c9.3-23.6,18.2-47.3,22.5-72.5c0.5-3.6,0.6-7.4-2.2-10
		c-8.8-8.5-17.6-16.9-26.8-24.9c-4.5-4-6.8,1.2-9.3,3.6c-3.4,3.2,0.1,4.3,2.3,5.3C397.6,259.1,399.3,262.6,401.6,265.7z M354.7,377
		c-28.7-3.9-57.1-0.5-85.5,3.9c-3.7,0.6-5.3,1.9-4.7,6.3c4.3,34.8,10.5,69.3,20.9,102.9c1,3.4,1.8,6.5,6.2,7.5
		c16.4,3.7,32.8,6.6,49.7,4.1c8.5,1.5,16.5-1.4,24.7-2.8c3.9-0.7,4.2-2.8,3.9-6.1c-2.6-36-5.2-71.9-7.4-107.9
		C362.2,379.1,360.3,376.6,354.7,377z M259.6,389.6c0.9-5.9-1.9-8.1-7.5-7.9c-5.1,0.1-10.1-0.1-15.2-0.1c2.1-6.1,14.3-8,5.4-18.6
		c15,6.5,15.7,6,15.7-9c0-5.5,0.2-10.9-1.3-16.3c-1.1-3.9-0.4-8,1.8-11.2c2.6-3.8,3.2,0.2,4.3,1.8c-0.3,11.7-0.8,23.5-0.7,35.2
		c0.1,4.4,0,10.7,8,7.2c22.7-1.3,45.2-5,68.2-6c-8.5-5.8-17.1-10-25.6-14.3c-3.4-1.7-8.9-4.1-7.7-7.6c3.3-9.5-1.3-14-8.3-18.3
		c-1.1-0.7-1.9-2.8-2-4.3c-1.9-24.2-16.3-38.2-37.9-46.2c-2.4-0.9-4.3-2.7-6.5-4.1c-1.1-1.6-2.4-3-3.3-4.7
		c-5.5-9.9-12.4-9.7-21.5-4.4c-10.6,6.2-21.2,12.2-31,19.5c-16.8,12.5-16.8,12.5-10.2,32.1c10.9,32.2,15.9,65.5,17.7,99.3
		c0.2,4.6-1.2,10.2,5.8,11.4c14.2,8.1,28.6,16,44.7,19.9c12.2,3,14.6,0.4,12.8-11.5C263,417.6,261.4,403.6,259.6,389.6z M403.5,73.3
		c-10.9-16.5-23.7-28.7-41.7-35.9c-39.1-15.6-83-3.5-107.3,30.9c-2.5,3.6-5.5,7.1-3.7,12.3c2.7,7.5,1.8,15.4,0,22.9
		c-3.6,15.6-5.4,31.1-0.1,46.6c1.9,5.7,0.4,9.4-5.8,10.7c-5.4,1.1-9.7,1.7-11.1-6c-1.3-7.3-5.7-13.4-13.9-14
		c-8.4-0.6-14.9,3.7-19.1,10.8c-7,12-2.6,23.1,3.6,33.7c6.7,11.4,15.7,13.5,27.5,7.2c1.9-1,4-3.2,6-1c1.8,2,0.6,4.5-1.2,6
		c-5.4,4.7-5.7,10.6-3.8,16.7c3.3,10.4,6.7,20.8,11.9,30.5c5.4,10.2,14.2,14.5,24.8,18.1c13.1,4.4,24.1-2.8,37-3.4
		c-14.1-11.9-27.2-24.2-33.8-41.6c6.7,6.2,12.5,13.2,18.5,20c35.6,40.4,85.3,22.3,105.1-7.3c25.6-38.3,28.3-80.5,22.8-124.3
		c-1-7.6-4.5-13.9-11-18.5c-7-4.9-14.2-6.4-22.6-2.4C387.8,75.3,389.6,74.2,403.5,73.3z M187.9,377.1c1.1-5.2,0.2-9.8-0.5-14.4
		c-3.4-22.2-14.2-42-20-63.4c-3.2-11.8-1.9-14.8,8.8-21.1c16.9-10,33.7-20.2,50.6-30.3c2.2-1.3,4.6-2.5,5.6-5.1
		c1-2.6-12.3-33.7-15-35c-25.4-12.4-35.7-39.9-24.4-65.5c1.4-3.3,2.8-6.2,0.4-9.7C122.2,194.1,122.7,315.9,187.9,377.1z M415,359.9
		c6.4-2.7,10.1-4.5,14-5.9c3.9-1.4,7.9-3.1,12-3.5c7.2-0.6,10.5-4.9,13.4-10.6c26.7-53.7,27.3-107.6,1.1-161.6
		c-6.5-13.4-14.5-26-26.5-37.4c-1.9,31.8-5.8,61.6-21.3,88.5c-2.6,4.6-0.7,8.7,3.1,12c7,6.2,13.7,12.7,21,18.5
		c8.5,6.8,10.3,15.1,7.3,25c-3.4,11.1-6.9,22.1-10.4,33.1C424.4,331.1,420.1,344.1,415,359.9z M342,285.2
		c-13.1-6.5-24.2-12.9-36.8-16c-7.7-1.9-11.2,1.2-12.2,8c-2.1,14.1,0.6,27.4,6.5,40.3c1.9,4.2,4.9,4.1,8.8,3.2
		c10.7-2.5,19.3-8.5,27.5-15.3c2.9-2.4,6.7-4.6,5.6-9.3c-1.2-5.2-6.2-1.7-8.8-3.6c-0.4-0.3-0.5-1.1-0.8-2.1
		C334.6,288.8,337.6,287.3,342,285.2z M360.7,360.3c-6.1-15.8-11.8-30.3-20.9-43.2c-1.6-2.2-3.3-4.3-6.3-2.4
		c-7.9,5-15.5,10.4-19.7,19.3c-1.3,2.8-2,5.2,1.6,7.1C329.5,348.8,343.8,355.5,360.7,360.3z M385.1,301.3c10.6,3.2,12.6-3,12-11.4
		c-0.4-5.7-1.1-11.5-2.3-17.1c-0.9-4.4-3.5-7.8-8.7-7c-8.5,1.3-15.3,6.6-21.9,11.5c-5.1,3.9,1,6.1,2.7,8.9c0.1,0.2-0.6,0.9-0.9,1.4
		c-5,8.8-0.1,11.2,7.6,12C377.5,300.1,381.3,300.8,385.1,301.3z M388.6,469.6c-1.5-8.2-3.3-16.4-4.5-24.6c-0.6-4.1-2.1-5.3-6.2-5
		c-4.5,0.4-6.2,2.2-5.9,6.7c0.4,8,0.3,16.1,0.8,24.1c0.2,3.7-1,9.2,6.1,8C384,477.8,389.6,477.4,388.6,469.6z M260.6,267.1
		c6.1,7.9,13.5,9.9,20.7,12c4.2,1.2,4.6-2.2,5.3-5c0.9-3.8-1.7-3.9-4.5-4.2C275.5,269.2,268.9,268.2,260.6,267.1z M337.9,272.7
		c12.9,5.5,17.2,4.7,24.2-4.9C353.7,269.1,345.7,269.5,337.9,272.7z M350,283.3c-2.9-0.5-4.1,1.7-3.6,5.1c0.5,3.2-0.5,8,4.5,7.8
		c3.1-0.1,5.4-3,5.6-6.6C356.7,285.9,355,283.7,350,283.3z"/>
	<path class="st26" d="M128.4,281.5c5.3,13,6.3,27.1,11.3,40.2c9.5,25.1,22.9,47.7,42.2,66.1c7.9,7.5,11.3,15.3,10.2,25.4
		c-1.6,13.6,3.5,21.3,17,25.7c12.7,4.1,24,12.2,37.4,15.2c1.2,0.3,2.6,1.3,3.6,1.1c16.5-3.5,18.5,8.2,21.3,19.6
		c1.8,7.2,5,14,6.5,21.1c1.9,9.1,6.8,13.8,16,14.7c2.1,0.2,5.4-0.4,6.5,2.9c-55,0-110-0.1-164.9,0.2c-6.2,0-7.3-1.6-7.3-7.5
		C128.5,431.3,128.4,356.4,128.4,281.5z"/>
	<path class="st26" d="M306.3,18.5c-5.7,3.7-12.6,3.5-18.9,5.3c-21.3,6.3-40.2,17-58.3,29.4c-10.9,7.5-32.6,39.6-33.9,51.7
		c-1,9.5-5.8,15.3-12.1,21.6c-27,26.4-43.7,58.4-51.2,95.4c-0.8,3.8,0.2,8.4-3.5,11.3c0-69.3,0.1-138.6-0.2-207.9
		c0-5.8,1.2-7,6.9-6.9C192.2,18.6,249.2,18.5,306.3,18.5z"/>
	<path class="st26" d="M486.1,240.9c-4.4-8-3.5-17.1-5.6-25.7c-8.1-32.9-23.4-61.6-46.9-85.9c-3.5-3.6-5.5-7.1-5.7-12.4
		c-2.3-52.2-41.5-88.9-78.2-95.6c-4.1-0.8-9,1-12.5-2.7c47.4,0,94.8,0.1,142.1-0.2c5.8,0,7,1.2,6.9,6.9
		C486.1,97.1,486.1,169,486.1,240.9z"/>
	<path class="st26" d="M354.6,513.5c3.7-4,9-1.2,13.4-3.1c7.2-3.1,12.8-6.7,10.9-15.6c-1.2-5.4,1.9-6.5,5.9-7.7
		c11.7-3.6,13.8-6.9,12.2-18.9c-0.6-4.4-1.8-8.8-2.7-13.2c-4-18.8,10.6-34.6,28.9-29.7c6.9,1.9,13.1,6.7,21,6.9
		c26.8,0.7,42.3-18.2,35.1-44.5c-3.5-12.8-5.3-26.8-17-35.8c-1.6-1.3-1-2.6-0.1-4.2c12.1-21.6,18.7-45,22.4-69.3
		c0.1-0.4,1-0.6,1.5-0.9c0,76.4-0.1,152.8,0.2,229.2c0,5.8-1.2,7-6.9,6.9C437.8,513.4,396.2,513.5,354.6,513.5z"/>
	<path class="st27" d="M486.1,264.1c-2.8-5.2-3.3-10.3,0-15.5C486.1,253.8,486.1,258.9,486.1,264.1z"/>
	<path class="st28" d="M329.5,18.5c-4.5,2.8-9,2.7-13.5,0C320.5,18.5,325,18.5,329.5,18.5z"/>
	<path class="st27" d="M308.2,513.5c2.6-3.5,5.2-2.3,7.7,0C313.4,513.5,310.8,513.5,308.2,513.5z"/>
	<path class="st29" d="M403.5,73.3c-13.9,0.9-15.6,2-17.8,12c8.3-4,15.6-2.6,22.6,2.4c6.5,4.6,10.1,10.9,11,18.5
		c5.5,43.8,2.8,86-22.8,124.3c-19.8,29.6-69.5,47.8-105.1,7.3c-6-6.8-11.8-13.9-18.5-20c6.6,17.5,19.7,29.7,33.8,41.6
		c-12.9,0.6-24,7.8-37,3.4c-10.6-3.6-19.4-7.9-24.8-18.1c-5.2-9.7-8.5-20.1-11.9-30.5c-2-6.1-1.7-12,3.8-16.7c1.7-1.5,2.9-4,1.2-6
		c-2-2.2-4.1,0-6,1c-11.7,6.3-20.8,4.2-27.5-7.2c-6.1-10.5-10.6-21.7-3.6-33.7c4.2-7.2,10.6-11.5,19.1-10.8
		c8.2,0.6,12.6,6.7,13.9,14c1.4,7.7,5.7,7.1,11.1,6c6.2-1.3,7.7-5,5.8-10.7c-5.2-15.5-3.4-31,0.1-46.6c1.7-7.5,2.6-15.4,0-22.9
		c-1.9-5.2,1.1-8.7,3.7-12.3c24.3-34.4,68.2-46.5,107.3-30.9C379.8,44.6,392.5,56.8,403.5,73.3z M351.4,179.4
		c-4.3,11.9-1.4,16.7,9,16.6c14-0.2,26.3-5.6,37.7-13.2c5.7-3.8,8-14.3,4-18.6c-13.6-14.4-26.7-29.1-35.3-47.6
		c-1.7,5.6-0.4,10.6,1.7,15.6c5.3,12.7,14.6,22.6,23,33.2c5.8,7.3,4.7,12-3.5,15.8c-5.5,2.6-11.1,5.3-16.9,6.9
		C362.8,190.6,354.3,192.2,351.4,179.4z M379.8,224.7c-3.8,0-6,0.1-8.2,0c-17.3-1.1-36.2,2.9-47.8-15.5c-0.8-1.2-2.2-1.4-3.4-0.5
		c-1.8,1.4-0.5,2.7,0.4,4.1c9.4,15.8,22.3,24.5,41.6,20.8C368.5,232.3,375.2,232.7,379.8,224.7z M326.7,197.5
		c1.9,5.5,5.1,7.6,8.3,9.5c10,5.6,21.1,7.1,32.3,7c2.7,0,6.3,0.9,5.6-4c-0.5-3.6,0.5-7.9-5.7-7.7C354,202.6,340.7,202.3,326.7,197.5
		z M328.1,114.4c-0.9,0.5-1.9,1-2.8,1.5c1.6,3.5,3.3,7,4.8,10.7c1.2,3.1,5.3,6.2,3,9.4c-2.7,3.8-7.6,2.3-11.8,1.7
		c-1-0.1-1.9-0.5-2.8-0.6c-2.4-0.2-5.5-1.6-6.4,2.1c-0.8,3.5,1.5,5.6,4.4,6.5c6.2,2,12.7,2.9,18.9,0.3c4.3-1.8,8.6-5.5,6.1-10.4
		C337.9,128.1,331.7,122.2,328.1,114.4z M284,108.3c2.2-3.6,3.6-6.1,5.2-8.4c5.2-7.5,11.6-12.8,21.5-12.5c2.5,0.1,6.5,2.4,6.9-2.3
		c0.4-4.2-2.9-6-6.6-7C297.6,74.6,280,92.8,284,108.3z M215,178.2c2.8-6.9-1.2-15.4,5.4-17.9c6.1-2.4,5.6,7.1,10,9.4
		c1.7-11.1-4.2-19.9-13.3-20.1c-3.5-0.1-6.8,1-8.2,4c-1.8,3.9,2.8,1.6,3.8,3.1c1.2,2,0.1,3.7-0.2,5.5
		C211.5,167.5,212.1,172.4,215,178.2z M405.9,110.2c-1.6,3.2-1.1,5.7-0.2,8c3.8,8.8,5.9,16.2-8.3,15c-1.8-0.2-4.1,0.6-4,3.1
		c0.1,1.4,0.9,3.3,2,4.1c6.9,4.7,12.9,0.7,18.8-2.4c6.2-3.3,2.3-7.4,0.3-11.3C411.7,121.3,408.9,116,405.9,110.2z M406.2,192.7
		c-8.9,2.6-16.9,7.1-25.8,9.1c-4.9,1.1-2.9,5.8-2.6,8.9c0.5,5,4.2,2.6,6.5,2C394.7,209.9,401.8,203,406.2,192.7z"/>
	<path class="st28" d="M262.7,328.3c-1.1-1.6-1.7-5.6-4.3-1.8c-2.2,3.1-2.9,7.3-1.8,11.2c1.5,5.4,1.3,10.8,1.3,16.3
		c0,15-0.7,15.5-15.7,9c9,10.6-3.3,12.5-5.4,18.6c-1.9,5.1,2.9,5.2,5.2,5.6c5.8,1,11.5,3.4,17.5,2.5c1.8,14,3.4,28,5.5,41.9
		c1.8,12-0.7,14.5-12.8,11.5c-16.1-3.9-30.4-11.8-44.7-19.9c2.5-11.4,2.7-23,1.6-34.5c-2.8-29.4-7.5-58.5-14.5-87.2
		c-1-4.2-0.5-7.5,4.1-9.5c17.2-7.3,34.2-14.7,51.4-22c2.2,1.4,4.1,3.3,6.5,4.1c21.6,8.1,36,22,37.9,46.2c0.1,1.5,0.9,3.6,2,4.3
		c7,4.3,11.6,8.8,8.3,18.3c-1.2,3.6,4.2,5.9,7.7,7.6c8.6,4.3,17.2,8.6,25.6,14.3c-23,1.1-45.5,4.8-68.2,6
		c-0.1-10.6-0.2-21.1-0.3-31.7C269.6,334,269,329.3,262.7,328.3z"/>
	<path class="st26" d="M341.3,501.7c-16.9,2.4-33.3-0.5-49.7-4.1c-4.4-1-5.2-4.2-6.2-7.5c-10.4-33.6-16.6-68-20.9-102.9
		c-0.5-4.5,1-5.8,4.7-6.3c28.4-4.4,56.8-7.7,85.5-3.9c0.2,35.3-0.9,70.7,5.8,105.7c1,5-1,8.3-5.6,11
		C350.3,496.3,343.9,496,341.3,501.7z"/>
	<path class="st30" d="M187.9,377.1c-65.2-61.3-65.7-183,5.5-244.5c2.4,3.5,1.1,6.5-0.4,9.7c-11.3,25.6-1,53.2,24.4,65.5
		c2.7,1.3,16,32.3,15,35c-1,2.6-3.4,3.8-5.6,5.1c-16.8,10.1-33.6,20.3-50.6,30.3c-10.8,6.3-12.1,9.3-8.8,21.1
		c5.9,21.4,16.7,41.2,20,63.4C188.1,367.4,189.1,372,187.9,377.1z"/>
	<path class="st30" d="M415,359.9c5.1-15.8,9.4-28.8,13.6-41.9c3.5-11,7-22.1,10.4-33.1c3-9.9,1.2-18.2-7.3-25
		c-7.3-5.8-14-12.3-21-18.5c-3.8-3.3-5.7-7.4-3.1-12c15.5-27,19.4-56.7,21.3-88.5c12,11.3,20,24,26.5,37.4
		c26.2,53.9,25.6,107.8-1.1,161.6c-2.9,5.8-6.2,10.1-13.4,10.6c-4.1,0.3-8.1,2-12,3.5C425.1,355.3,421.4,357.1,415,359.9z"/>
	<path class="st27" d="M250.1,269.9c-17.1,7.4-34.2,14.8-51.4,22c-4.6,1.9-5.1,5.3-4.1,9.5c7.1,28.7,11.7,57.8,14.5,87.2
		c1.1,11.5,0.9,23.1-1.6,34.5c-7-1.2-5.6-6.8-5.8-11.4c-1.7-33.9-6.8-67.1-17.7-99.3c-6.6-19.6-6.7-19.6,10.2-32.1
		c9.8-7.3,20.4-13.3,31-19.5c9-5.3,16-5.4,21.5,4.4C247.7,266.8,249,268.3,250.1,269.9z"/>
	<path class="st28" d="M377.9,364.6c5.1-15,15.2-27.2,22.8-40.8c3.2-5.8,6.6-11,1.6-17.5c-1-1.3-1.1-3.8-0.7-5.5
		c2.9-11.7,1.7-23.4,0-35.1c3.5,0.9,6.3,3,9.2,5c6.3,4.3,11.4,10.5,19.1,12.5c-4.4,25.1-13.3,48.8-22.5,72.5
		c-2.2,5.7-7,7.3-12.2,7.9C389.4,364.3,383.6,364.3,377.9,364.6C377.8,364.6,377.9,364.6,377.9,364.6z"/>
	<path class="st26" d="M416.9,395.7c-0.2-1.4-0.3-2.8-0.5-4.2c4.1-6.4-2-12.7-0.1-19.1c9.5-6.8,21-9.1,31.6-13.4
		c6.6-2.7,11.8,2,14.7,7.9c3.5,7.2,5.6,15,6.1,23.1c-7,17.5-7,17.5-26.2,17.4c-0.6,0-1.3,0-1.9,0c-9.4-0.2-20.3,2.6-22.8-11.4
		C417.8,395.8,417.2,395.8,416.9,395.7z M429.5,388.8c6.6,0.6,13.4,1.6,19.8-1.8C442.6,385.7,435.9,383.9,429.5,388.8z M440.5,374.2
		c-7.5-0.2-12.1,2.3-16.8,8.2C430.8,381.7,435.6,379.6,440.5,374.2z"/>
	<path class="st30" d="M342,285.2c-4.3,2.2-7.4,3.7-10.3,5.1c0.4,1,0.4,1.8,0.8,2.1c2.6,2,7.7-1.6,8.8,3.6c1,4.7-2.7,6.8-5.6,9.3
		c-8.2,6.8-16.8,12.8-27.5,15.3c-3.9,0.9-6.9,1-8.8-3.2c-5.9-12.9-8.6-26.2-6.5-40.3c1-6.8,4.6-9.9,12.2-8
		C317.8,272.3,328.9,278.7,342,285.2z"/>
	<path class="st27" d="M244,85.8c3.3,6.9,0.8,14.1,0,20.9c-1.6,12.9-2.8,25.5,0.5,38.3c0.4,1.7,0.9,3.8-1.7,5.8
		c-2.7-3.8-3.2-8.9-6.8-12.2c-6.6-6-14.1-9.9-22.8-6.7c-8.5,3.2-10.2,0-9.5-7.4c0.2-1.9,0.4-3.8,0.5-5.7c4.4,0.8,3.2-2.9,3.9-5
		C213.7,96.3,225.2,87.4,244,85.8z"/>
	<path class="st29" d="M341.3,501.7c2.7-5.7,9-5.4,13.5-8.1c4.7-2.7,6.6-6,5.6-11c-6.7-35-5.6-70.4-5.8-105.7
		c5.7-0.4,7.5,2.1,7.9,7.9c2.2,36,4.8,72,7.4,107.9c0.2,3.4-0.1,5.5-3.9,6.1C357.8,500.3,349.8,503.3,341.3,501.7z"/>
	<path class="st27" d="M360.7,360.3c-16.8-4.8-31.2-11.6-45.3-19.2c-3.6-2-3-4.3-1.6-7.1c4.1-8.9,11.8-14.3,19.7-19.3
		c3-1.9,4.7,0.2,6.3,2.4C348.8,330,354.5,344.5,360.7,360.3z"/>
	<path class="st30" d="M385.1,301.3c-3.8-0.5-7.6-1.2-11.4-1.6c-7.7-0.8-12.6-3.2-7.6-12c0.3-0.5,1-1.2,0.9-1.4
		c-1.8-2.8-7.9-5-2.7-8.9c6.5-5,13.3-10.2,21.9-11.5c5.2-0.8,7.8,2.6,8.7,7c1.1,5.6,1.9,11.4,2.3,17.1
		C397.6,298.3,395.7,304.5,385.1,301.3z"/>
	<path class="st29" d="M416.9,395.7c0.3,0.1,0.9,0.1,0.9,0.3c2.5,14,13.4,11.2,22.8,11.4c0.6,0,1.3,0,1.9,0
		c19.2,0.1,19.2,0.1,26.2-17.4c3.9,9.9,4,19.7-3.2,27.9c-8,9.2-19,6.9-30.8,6.8c5.3-5.1,11.7-3,18-7.9c-9.5,0-17.2-0.5-24.8,0.2
		c-7.1,0.7-10.8-1.1-10.5-8.8C417.6,404,417.1,399.8,416.9,395.7z"/>
	<path class="st28" d="M384.9,389.4c1.5,10.8,2.9,21.5,2.8,32.4c0,7.2-3.8,8.3-9.7,8.7c-6.9,0.5-8-3-8-8.7
		c0.1-9.9-0.2-19.8-0.3-29.8C374.8,391.2,379.9,390.3,384.9,389.4z"/>
	<path class="st27" d="M375,352.4c1.2-12.4,2.3-24.8,3.5-37.2c0.4-4.1,1.3-7.8,6.2-8.4c5.2-0.6,9.3,1.8,13,5.1
		c3.6,3.2,1.4,6.4-0.3,9.5c-6.4,11.1-12.5,22.4-20.7,32.3C376.1,353.3,375.5,352.9,375,352.4z"/>
	<path class="st29" d="M388.6,469.6c1,7.9-4.6,8.2-9.8,9.1c-7.1,1.2-5.9-4.2-6.1-8c-0.5-8-0.3-16.1-0.8-24.1
		c-0.2-4.5,1.4-6.3,5.9-6.7c4.1-0.3,5.6,0.9,6.2,5C385.3,453.2,387,461.4,388.6,469.6z"/>
	<path class="st26" d="M373.3,312.4c0,13.1-0.2,26.1-3.5,38.9c-1.3,0.1-2.6,0.2-3.9,0.3c-2.6-3.7-4.6-7.7-5.5-12.2
		c2.6-0.9-0.4-5.4,3.7-5.6c1.7-0.1,5.5,1.2,4.3-2.7c-1-3.2-4.1-2.4-6.1-0.8c-1.7,1.3-3.4,1.5-5.3,1.8c-1.6-3.3-3.1-6.6-4.7-9.8
		c3-1.7,0.4-4,0.8-5.9c1-5,2.5-9.9,9.3-5.6c-0.5,0.4-1.2,0.7-1.4,1.1c-0.8,1.9-4.2,3.2-1,6c1.2,1,1.6,0.9,2.9,0.2
		c5.2-3-1.5-4.8-0.6-7.3C366,311.1,369.7,311.7,373.3,312.4z"/>
	<path class="st27" d="M429.9,283.3c-7.7-2.1-12.8-8.3-19.1-12.5c-2.9-2-5.7-4.1-9.2-5c-2.3-3.1-4-6.6-7.7-8.5
		c-2.2-1.1-5.6-2.1-2.3-5.3c2.5-2.4,4.8-7.6,9.3-3.6c9.2,8,18,16.5,26.8,24.9C430.5,275.9,430.4,279.7,429.9,283.3z"/>
	<path class="st26" d="M399.1,411.3c-1.5-9.8-3-19.5-4.3-29.3c-0.3-2.5-2.9-6,1.8-7c3.9-0.8,7.3-0.5,9.1,4.4
		c3.6,9.7,5.7,19.5,5,29.9C406.8,410,402.9,410.6,399.1,411.3z"/>
	<path class="st29" d="M234.2,72c-3.9,1.3-7.7,2.6-12.1,4.1c6-16.2,37.3-36.8,54.4-35.2c-6.1,4.1-11.3,7.5-16.5,10.9
		C248.8,55.1,240.4,62.1,234.2,72z"/>
	<path class="st29" d="M244,85.8c-18.8,1.6-30.3,10.6-35.9,28.1c-0.7,2.1,0.5,5.8-3.9,5c1.5-22.2,13.9-36.5,33.5-38.6
		C242,79.8,245.6,79.6,244,85.8z"/>
	<path class="st27" d="M262.7,328.3c6.3,1,6.9,5.6,7,10.7c0.1,10.6,0.2,21.1,0.3,31.7c-8,3.5-7.9-2.8-8-7.2
		C261.9,351.8,262.4,340.1,262.7,328.3z"/>
	<path class="st29" d="M373.3,312.4c-3.7-0.6-7.3-1.3-11-1.9c0,0,0.1,0,0.1,0c-6.8-4.3-8.3,0.6-9.3,5.6c-0.4,1.9,2.1,4.3-0.8,5.9
		c-0.6-0.7-1.5-1.3-1.7-2.1c-1.6-5-10.6-9.5-5.4-14.1c4.9-4.2,13.7-7.8,20.8-0.9C368.4,307.4,375.6,305.2,373.3,312.4z"/>
	<path class="st27" d="M384.9,389.4c-5,0.9-10.1,1.8-15.1,2.7c-0.9-5.6-4.9-12.2,4.1-14.9C386,373.5,383.5,383.3,384.9,389.4z"/>
	<path class="st27" d="M234.2,72c6.2-9.9,14.6-16.8,25.9-20.2c-3,4.9-6,9.7-8.9,14.6C247.1,73.2,240.8,72.9,234.2,72z"/>
	<path class="st26" d="M260.6,267.1c8.4,1.1,14.9,2.1,21.5,2.8c2.7,0.3,5.4,0.4,4.5,4.2c-0.6,2.7-1,6.2-5.3,5
		C274,277,266.7,275.1,260.6,267.1z"/>
	<path class="st27" d="M259.6,389.6c-6.1,0.9-11.7-1.5-17.5-2.5c-2.2-0.4-7-0.4-5.2-5.6c5.1,0.1,10.1,0.3,15.2,0.1
		C257.8,381.5,260.6,383.7,259.6,389.6z"/>
	<path class="st29" d="M337.9,272.7c7.7-3.2,15.8-3.6,24.2-4.9C355.1,277.4,350.8,278.2,337.9,272.7z"/>
	<path class="st29" d="M399.1,411.3c3.9-0.7,7.7-1.3,11.6-2c0.3,3.6,2.4,7.4-1.9,10.2C402.6,423.4,399.5,420.8,399.1,411.3z"/>
	<path class="st30" d="M350,283.3c5.1,0.3,6.7,2.5,6.5,6.3c-0.2,3.6-2.5,6.6-5.6,6.6c-5,0.1-4.1-4.7-4.5-7.8
		C345.9,285.1,347.1,282.8,350,283.3z"/>
	<path class="st29" d="M416.3,372.5c-1.9,6.4,4.2,12.7,0.1,19.1C415.6,385.2,408.9,378.9,416.3,372.5z"/>
	<path class="st29" d="M357,331.9c1.9-0.3,3.6-0.5,5.3-1.8c2-1.6,5.1-2.3,6.1,0.8c1.2,3.9-2.6,2.6-4.3,2.7c-4.1,0.3-1,4.7-3.7,5.6
		C358.1,337.4,357.3,334.7,357,331.9z"/>
	<path class="st29" d="M365.9,351.5c1.3-0.1,2.6-0.2,3.9-0.3c0,1.7,0.7,4.1-1.6,4.3C365.9,355.7,366.1,353.2,365.9,351.5z"/>
	<path class="st28" d="M377.8,364.6c-0.1,0.2-0.2,0.4-0.4,0.6C377.6,365,377.7,364.8,377.8,364.6
		C377.9,364.6,377.8,364.6,377.8,364.6z"/>
	<path class="st27" d="M376.6,353.8c-0.7,0.2-1.4,0.4-2.1,0.6c0.2-0.7,0.3-1.3,0.5-2C375.5,352.9,376.1,353.3,376.6,353.8z"/>
	<path class="st25" d="M351.4,179.4c2.9,12.7,11.4,11.2,19.6,8.8c5.8-1.7,11.4-4.3,16.9-6.9c8.2-3.8,9.3-8.5,3.5-15.8
		c-8.4-10.6-17.6-20.5-23-33.2c-2.1-5-3.4-10-1.7-15.6c8.6,18.4,21.7,33.2,35.3,47.6c4,4.3,1.7,14.8-4,18.6
		c-11.4,7.5-23.6,13-37.7,13.2C350,196.2,347,191.4,351.4,179.4z"/>
	<path class="st25" d="M379.8,224.7c-4.6,8-11.3,7.6-17.5,8.8c-19.2,3.6-32.1-5-41.6-20.8c-0.8-1.4-2.2-2.7-0.4-4.1
		c1.1-0.9,2.6-0.7,3.4,0.5c11.6,18.5,30.5,14.5,47.8,15.5C373.8,224.8,376,224.7,379.8,224.7z"/>
	<path class="st25" d="M326.7,197.5c14,4.8,27.3,5.1,40.6,4.8c6.2-0.1,5.2,4.2,5.7,7.7c0.7,4.8-2.9,4-5.6,4c-11.3,0-22.3-1.4-32.3-7
		C331.7,205.1,328.6,203,326.7,197.5z"/>
	<path class="st25" d="M328.1,114.4c3.6,7.8,9.8,13.7,13.5,21.1c2.5,4.9-1.8,8.6-6.1,10.4c-6.2,2.6-12.7,1.7-18.9-0.3
		c-2.9-0.9-5.2-3-4.4-6.5c0.9-3.8,4-2.3,6.4-2.1c1,0.1,1.9,0.5,2.8,0.6c4.1,0.6,9,2.1,11.8-1.7c2.3-3.1-1.8-6.2-3-9.4
		c-1.4-3.6-3.2-7.1-4.8-10.7C326.3,115.4,327.2,114.9,328.1,114.4z"/>
	<path class="st25" d="M284,108.3c-3.9-15.5,13.7-33.7,27-30.3c3.7,0.9,7,2.8,6.6,7c-0.5,4.7-4.5,2.4-6.9,2.3
		c-9.8-0.3-16.3,5-21.5,12.5C287.6,102.2,286.2,104.7,284,108.3z"/>
	<path class="st25" d="M215,178.2c-2.9-5.8-3.5-10.8-2.5-15.9c0.3-1.8,1.4-3.6,0.2-5.5c-1-1.6-5.6,0.8-3.8-3.1c1.4-3,4.7-4.1,8.2-4
		c9.1,0.2,15,9.1,13.3,20.1c-4.4-2.3-3.9-11.8-10-9.4C213.8,162.9,217.9,171.3,215,178.2z"/>
	<path class="st25" d="M405.9,110.2c3,5.8,5.8,11.1,8.5,16.4c2,3.8,5.9,7.9-0.3,11.3c-5.9,3.1-11.9,7.2-18.8,2.4
		c-1.1-0.8-2-2.7-2-4.1c-0.1-2.5,2.3-3.3,4-3.1c14.2,1.2,12.2-6.2,8.3-15C404.8,115.9,404.3,113.4,405.9,110.2z"/>
	<path class="st25" d="M406.2,192.7c-4.4,10.3-11.5,17.1-21.9,19.9c-2.4,0.6-6.1,3-6.5-2c-0.3-3.1-2.3-7.8,2.6-8.9
		C389.3,199.8,397.3,195.3,406.2,192.7z"/>
	<path class="st28" d="M429.5,388.8c6.5-4.9,13.2-3.1,19.8-1.8C442.9,390.4,436.1,389.4,429.5,388.8z"/>
	<path class="st25" d="M440.5,374.2c-4.9,5.4-9.7,7.5-16.8,8.2C428.4,376.5,433,374,440.5,374.2z"/>
	<path class="st29" d="M362.3,310.5c-0.9,2.5,5.8,4.3,0.6,7.3c-1.3,0.8-1.7,0.9-2.9-0.2c-3.2-2.7,0.1-4.1,1-6
		C361.2,311.1,361.9,310.9,362.3,310.5C362.4,310.5,362.3,310.5,362.3,310.5z"/>
</g>
<g id="jenkins_bw" class="st3">
	<path class="st25" d="M294,510.7c-9.2-0.9-14.1-5.6-16-14.7c-1.5-7.2-4.8-14-6.5-21.1c-2.8-11.4-4.9-23.2-21.3-19.6
		c-1.1,0.2-2.4-0.8-3.6-1.1c-13.3-3-24.6-11.1-37.4-15.2c-13.6-4.4-18.6-12-17-25.7c1.2-10.1-2.3-17.9-10.2-25.4
		c-19.4-18.4-32.7-41-42.2-66.1c-5-13.1-5.9-27.3-11.3-40.2c-2.1-30.9-0.7-32.9,2-48.3c0.9-6.2,0.8-7.5,1.5-11.3
		c7.5-37,24.3-69,51.2-95.4c6.3-6.2,11.1-12,12.1-21.6c1.3-12.1,23-44.1,33.9-51.7c18-12.5,37-23.1,58.3-29.4c0,0,19-4.1,31.7-4.3
		c12.7-0.2,30.7,1.7,30.7,1.7c36.3,8,75.8,43.4,78.2,95.6c0.2,5.3,2.2,8.8,5.7,12.4c23.5,24.3,38.8,53.1,46.9,85.9
		c0,0,3.2,19,4,31.1c0.8,12,0.1,32.3,0.1,32.3c-3.7,24.3-10.3,47.7-22.4,69.3c-0.9,1.5-1.5,2.9,0.1,4.2c11.7,9.1,13.5,23.1,17,35.8
		c7.2,26.3-8.3,45.1-35.1,44.5c-7.9-0.2-14.1-5.1-21-6.9c-18.3-5-32.9,10.9-28.9,29.7c0.9,4.4,2.1,8.8,2.7,13.2
		c1.6,12-0.5,15.3-12.2,18.9c-4,1.2-7.1,2.3-5.9,7.7c1.9,8.8-3.7,12.5-10.9,15.6c0,0-18.1,1.7-36.4,2.1
		C313.3,512.9,294,510.7,294,510.7z M260.1,51.7c5.2-3.4,10.4-6.9,16.5-10.9c-17.1-1.5-48.4,19.1-54.4,35.2
		c4.3-1.5,8.2-2.8,12.1-4.1c6.6,0.9,12.9,1.2,16.9-5.6C254.1,61.5,257.1,56.6,260.1,51.7z M399.1,411.3c0.4,9.5,3.5,12.1,9.7,8.2
		c4.3-2.7,2.2-6.6,1.9-10.2c0.8-10.4-1.4-20.2-5-29.9c-1.8-4.9-5.2-5.2-9.1-4.4c-4.7,1-2.1,4.5-1.8,7
		C396.1,391.8,397.6,401.6,399.1,411.3z M352.3,322c1.6,3.3,3.1,6.6,4.7,9.8c0.4,2.8,1.1,5.5,3.5,7.5c0.9,4.5,2.9,8.5,5.5,12.2
		c0.2,1.7,0,4.2,2.3,4c2.3-0.2,1.6-2.6,1.6-4.3c3.3-12.8,3.6-25.8,3.5-38.9c2.3-7.1-4.9-5-7.4-7.4c-7-6.9-15.9-3.3-20.8,0.9
		c-5.3,4.5,3.7,9.1,5.4,14.1C350.8,320.7,351.7,321.3,352.3,322z M376.6,353.8c8.1-10,14.2-21.3,20.7-32.3c1.8-3.1,3.9-6.2,0.3-9.5
		c-3.7-3.3-7.8-5.7-13-5.1c-4.9,0.6-5.8,4.3-6.2,8.4c-1.1,12.4-2.3,24.8-3.5,37.2c-0.2,0.7-0.3,1.3-0.5,2
		C375.2,354.2,375.9,354,376.6,353.8z M384.9,389.4c-1.4-6.1,1.1-15.9-11-12.2c-9,2.7-5,9.3-4.1,14.9c0.1,9.9,0.4,19.8,0.3,29.8
		c-0.1,5.7,1.1,9.2,8,8.7c5.9-0.4,9.7-1.6,9.7-8.7C387.8,410.9,386.4,400.2,384.9,389.4z M244,85.8c1.7-6.2-1.9-6-6.3-5.6
		c-19.5,2.1-32,16.4-33.5,38.6c-0.2,1.9-0.4,3.8-0.5,5.7c-0.6,7.4,1,10.6,9.5,7.4c8.7-3.3,16.3,0.7,22.8,6.7
		c3.5,3.2,4.1,8.3,6.8,12.2c2.6-2,2.1-4.1,1.7-5.8c-3.3-12.7-2-25.4-0.5-38.3C244.8,99.9,247.3,92.7,244,85.8z M416.3,372.5
		c-7.5,6.4-0.8,12.7,0.1,19c0.2,1.4,0.3,2.8,0.5,4.2c0.2,4.2,0.7,8.3,0.5,12.5c-0.3,7.7,3.4,9.5,10.5,8.8c7.6-0.7,15.3-0.2,24.8-0.2
		c-6.3,4.9-12.7,2.8-18,7.9c11.8,0.2,22.8,2.4,30.8-6.8c7.2-8.3,7.1-18.1,3.2-27.9c-0.5-8.1-2.6-15.8-6.1-23.1
		c-2.9-5.9-8.1-10.5-14.7-7.9C437.3,363.3,425.8,365.6,416.3,372.5z M401.6,265.7c1.7,11.7,2.8,23.4,0,35.1
		c-0.4,1.7-0.3,4.2,0.7,5.5c5,6.5,1.6,11.7-1.6,17.5c-7.6,13.6-17.7,25.8-22.8,40.8c-0.1,0.2-0.3,0.4-0.4,0.6
		c0.1-0.2,0.2-0.4,0.4-0.6c5.8-0.3,11.6-0.4,17.3-1c5.2-0.6,10-2.1,12.2-7.9c9.3-23.6,18.2-47.3,22.5-72.5c0.5-3.6,0.6-7.4-2.2-10
		c-8.8-8.5-17.6-16.9-26.8-24.9c-4.5-4-6.8,1.2-9.3,3.6c-3.4,3.2,0.1,4.3,2.3,5.3C397.6,259.1,399.3,262.6,401.6,265.7z M354.7,377
		c-28.7-3.9-57.1-0.5-85.5,3.9c-3.7,0.6-5.3,1.9-4.7,6.3c4.3,34.8,10.5,69.3,20.9,102.9c1,3.4,1.8,6.5,6.2,7.5
		c16.4,3.7,32.8,6.6,49.7,4.1c8.5,1.5,16.5-1.4,24.7-2.8c3.9-0.7,4.2-2.8,3.9-6.1c-2.6-36-5.2-71.9-7.4-107.9
		C362.2,379.1,360.3,376.6,354.7,377z M259.6,389.6c0.9-5.9-1.9-8.1-7.5-7.9c-5.1,0.1-10.1-0.1-15.2-0.1c2.1-6.1,14.3-8,5.4-18.6
		c15,6.5,15.7,6,15.7-9c0-5.5,0.2-10.9-1.3-16.3c-1.1-3.9-0.4-8,1.8-11.2c2.6-3.8,3.2,0.2,4.3,1.8c-0.3,11.7-0.8,23.5-0.7,35.2
		c0.1,4.4,0,10.7,8,7.2c22.7-1.3,45.2-5,68.2-6c-8.5-5.8-17.1-10-25.6-14.3c-3.4-1.7-8.9-4.1-7.7-7.6c3.3-9.5-1.3-14-8.3-18.3
		c-1.1-0.7-1.9-2.8-2-4.3c-1.9-24.2-16.3-38.2-37.9-46.2c-2.4-0.9-4.3-2.7-6.5-4.1c-1.1-1.6-2.4-3-3.3-4.7
		c-5.5-9.9-12.4-9.7-21.5-4.4c-10.6,6.2-21.2,12.2-31,19.5c-16.8,12.5-16.8,12.5-10.2,32.1c10.9,32.2,15.9,65.5,17.7,99.3
		c0.2,4.6-1.2,10.2,5.8,11.4c14.2,8.1,28.6,16,44.7,19.9c12.2,3,14.6,0.4,12.8-11.5C263,417.6,261.4,403.6,259.6,389.6z M403.5,73.3
		c-10.9-16.5-23.7-28.7-41.7-35.9c-39.1-15.6-83-3.5-107.3,30.9c-2.5,3.6-5.5,7.1-3.7,12.3c2.7,7.5,1.8,15.4,0,22.9
		c-3.6,15.6-5.4,31.1-0.1,46.6c1.9,5.7,0.4,9.4-5.8,10.7c-5.4,1.1-9.7,1.7-11.1-6c-1.3-7.3-5.7-13.4-13.9-14
		c-8.4-0.6-14.9,3.7-19.1,10.8c-7,12-2.6,23.1,3.6,33.7c6.7,11.4,15.7,13.5,27.5,7.2c1.9-1,4-3.2,6-1c1.8,2,0.6,4.5-1.2,6
		c-5.4,4.7-5.7,10.6-3.8,16.7c3.3,10.4,6.7,20.8,11.9,30.5c5.4,10.2,14.2,14.5,24.8,18.1c13.1,4.4,24.1-2.8,37-3.4
		c-14.1-11.9-27.2-24.2-33.8-41.6c6.7,6.2,12.5,13.2,18.5,20c35.6,40.4,85.3,22.3,105.1-7.3c25.6-38.3,28.3-80.5,22.8-124.3
		c-1-7.6-4.5-13.9-11-18.5c-7-4.9-14.2-6.4-22.6-2.4C387.8,75.3,389.6,74.2,403.5,73.3z M187.9,377.1c1.1-5.2,0.2-9.8-0.5-14.4
		c-3.4-22.2-14.2-42-20-63.4c-3.2-11.8-1.9-14.8,8.8-21.1c16.9-10,33.7-20.2,50.6-30.3c2.2-1.3,4.6-2.5,5.6-5.1
		c1-2.6-12.3-33.7-15-35c-25.4-12.4-35.7-39.9-24.4-65.5c1.4-3.3,2.8-6.2,0.4-9.7C122.2,194.1,122.7,315.9,187.9,377.1z M415,359.9
		c6.4-2.7,10.1-4.5,14-5.9c3.9-1.4,7.9-3.1,12-3.5c7.2-0.6,10.5-4.9,13.4-10.6c26.7-53.7,27.3-107.6,1.1-161.6
		c-6.5-13.4-14.5-26-26.5-37.4c-1.9,31.8-5.8,61.6-21.3,88.5c-2.6,4.6-0.7,8.7,3.1,12c7,6.2,13.7,12.7,21,18.5
		c8.5,6.8,10.3,15.1,7.3,25c-3.4,11.1-6.9,22.1-10.4,33.1C424.4,331.1,420.1,344.1,415,359.9z M342,285.2
		c-13.1-6.5-24.2-12.9-36.8-16c-7.7-1.9-11.2,1.2-12.2,8c-2.1,14.1,0.6,27.4,6.5,40.3c1.9,4.2,4.9,4.1,8.8,3.2
		c10.7-2.5,19.3-8.5,27.5-15.3c2.9-2.4,6.7-4.6,5.6-9.3c-1.2-5.2-6.2-1.7-8.8-3.6c-0.4-0.3-0.5-1.1-0.8-2.1
		C334.6,288.8,337.6,287.3,342,285.2z M360.7,360.3c-6.1-15.8-11.8-30.3-20.9-43.2c-1.6-2.2-3.3-4.3-6.3-2.4
		c-7.9,5-15.5,10.4-19.7,19.3c-1.3,2.8-2,5.2,1.6,7.1C329.5,348.8,343.8,355.5,360.7,360.3z M385.1,301.3c10.6,3.2,12.6-3,12-11.4
		c-0.4-5.7-1.1-11.5-2.3-17.1c-0.9-4.4-3.5-7.8-8.7-7c-8.5,1.3-15.3,6.6-21.9,11.5c-5.1,3.9,1,6.1,2.7,8.9c0.1,0.2-0.6,0.9-0.9,1.4
		c-5,8.8-0.1,11.2,7.6,12C377.5,300.1,381.3,300.8,385.1,301.3z M388.6,469.6c-1.5-8.2-3.3-16.4-4.5-24.6c-0.6-4.1-2.1-5.3-6.2-5
		c-4.5,0.4-6.2,2.2-5.9,6.7c0.4,8,0.3,16.1,0.8,24.1c0.2,3.7-1,9.2,6.1,8C384,477.8,389.6,477.4,388.6,469.6z M260.6,267.1
		c6.1,7.9,13.5,9.9,20.7,12c4.2,1.2,4.6-2.2,5.3-5c0.9-3.8-1.7-3.9-4.5-4.2C275.5,269.2,268.9,268.2,260.6,267.1z M337.9,272.7
		c12.9,5.5,17.2,4.7,24.2-4.9C353.7,269.1,345.7,269.5,337.9,272.7z M350,283.3c-2.9-0.5-4.1,1.7-3.6,5.1c0.5,3.2-0.5,8,4.5,7.8
		c3.1-0.1,5.4-3,5.6-6.6C356.7,285.9,355,283.7,350,283.3z"/>
	<path class="st31" d="M128.4,281.5c5.3,13,6.3,27.1,11.3,40.2c9.5,25.1,22.9,47.7,42.2,66.1c7.9,7.5,11.3,15.3,10.2,25.4
		c-1.6,13.6,3.5,21.3,17,25.7c12.7,4.1,24,12.2,37.4,15.2c1.2,0.3,2.6,1.3,3.6,1.1c16.5-3.5,18.5,8.2,21.3,19.6
		c1.8,7.2,5,14,6.5,21.1c1.9,9.1,6.8,13.8,16,14.7c2.1,0.2,5.4-0.4,6.5,2.9c-55,0-110-0.1-164.9,0.2c-6.2,0-7.3-1.6-7.3-7.5
		C128.5,431.3,128.4,356.4,128.4,281.5z"/>
	<path class="st31" d="M306.3,18.5c-5.7,3.7-12.6,3.5-18.9,5.3c-21.3,6.3-40.2,17-58.3,29.4c-10.9,7.5-32.6,39.6-33.9,51.7
		c-1,9.5-5.8,15.3-12.1,21.6c-27,26.4-43.7,58.4-51.2,95.4c-0.8,3.8,0.2,8.4-3.5,11.3c0-69.3,0.1-138.6-0.2-207.9
		c0-5.8,1.2-7,6.9-6.9C192.2,18.6,249.2,18.5,306.3,18.5z"/>
	<path class="st31" d="M486.1,240.9c-4.4-8-3.5-17.1-5.6-25.7c-8.1-32.9-23.4-61.6-46.9-85.9c-3.5-3.6-5.5-7.1-5.7-12.4
		c-2.3-52.2-41.5-88.9-78.2-95.6c-4.1-0.8-9,1-12.5-2.7c47.4,0,94.8,0.1,142.1-0.2c5.8,0,7,1.2,6.9,6.9
		C486.1,97.1,486.1,169,486.1,240.9z"/>
	<path class="st31" d="M354.6,513.5c3.7-4,9-1.2,13.4-3.1c7.2-3.1,12.8-6.7,10.9-15.6c-1.2-5.4,1.9-6.5,5.9-7.7
		c11.7-3.6,13.8-6.9,12.2-18.9c-0.6-4.4-1.8-8.8-2.7-13.2c-4-18.8,10.6-34.6,28.9-29.7c6.9,1.9,13.1,6.7,21,6.9
		c26.8,0.7,42.3-18.2,35.1-44.5c-3.5-12.8-5.3-26.8-17-35.8c-1.6-1.3-1-2.6-0.1-4.2c12.1-21.6,18.7-45,22.4-69.3
		c0.1-0.4,1-0.6,1.5-0.9c0,76.4-0.1,152.8,0.2,229.2c0,5.8-1.2,7-6.9,6.9C437.8,513.4,396.2,513.5,354.6,513.5z"/>
	<path class="st32" d="M486.1,264.1c-2.8-5.2-3.3-10.3,0-15.5C486.1,253.8,486.1,258.9,486.1,264.1z"/>
	<path class="st33" d="M329.5,18.5c-4.5,2.8-9,2.7-13.5,0C320.5,18.5,325,18.5,329.5,18.5z"/>
	<path class="st32" d="M308.2,513.5c2.6-3.5,5.2-2.3,7.7,0C313.4,513.5,310.8,513.5,308.2,513.5z"/>
	<path class="st34" d="M403.5,73.3c-13.9,0.9-15.6,2-17.8,12c8.3-4,15.6-2.6,22.6,2.4c6.5,4.6,10.1,10.9,11,18.5
		c5.5,43.8,2.8,86-22.8,124.3c-19.8,29.6-69.5,47.8-105.1,7.3c-6-6.8-11.8-13.9-18.5-20c6.6,17.5,19.7,29.7,33.8,41.6
		c-12.9,0.6-24,7.8-37,3.4c-10.6-3.6-19.4-7.9-24.8-18.1c-5.2-9.7-8.5-20.1-11.9-30.5c-2-6.1-1.7-12,3.8-16.7c1.7-1.5,2.9-4,1.2-6
		c-2-2.2-4.1,0-6,1c-11.7,6.3-20.8,4.2-27.5-7.2c-6.1-10.5-10.6-21.7-3.6-33.7c4.2-7.2,10.6-11.5,19.1-10.8
		c8.2,0.6,12.6,6.7,13.9,14c1.4,7.7,5.7,7.1,11.1,6c6.2-1.3,7.7-5,5.8-10.7c-5.2-15.5-3.4-31,0.1-46.6c1.7-7.5,2.6-15.4,0-22.9
		c-1.9-5.2,1.1-8.7,3.7-12.3c24.3-34.4,68.2-46.5,107.3-30.9C379.8,44.6,392.5,56.8,403.5,73.3z M351.4,179.4
		c-4.3,11.9-1.4,16.7,9,16.6c14-0.2,26.3-5.6,37.7-13.2c5.7-3.8,8-14.3,4-18.6c-13.6-14.4-26.7-29.1-35.3-47.6
		c-1.7,5.6-0.4,10.6,1.7,15.6c5.3,12.7,14.6,22.6,23,33.2c5.8,7.3,4.7,12-3.5,15.8c-5.5,2.6-11.1,5.3-16.9,6.9
		C362.8,190.6,354.3,192.2,351.4,179.4z M379.8,224.7c-3.8,0-6,0.1-8.2,0c-17.3-1.1-36.2,2.9-47.8-15.5c-0.8-1.2-2.2-1.4-3.4-0.5
		c-1.8,1.4-0.5,2.7,0.4,4.1c9.4,15.8,22.3,24.5,41.6,20.8C368.5,232.3,375.2,232.7,379.8,224.7z M326.7,197.5
		c1.9,5.5,5.1,7.6,8.3,9.5c10,5.6,21.1,7.1,32.3,7c2.7,0,6.3,0.9,5.6-4c-0.5-3.6,0.5-7.9-5.7-7.7C354,202.6,340.7,202.3,326.7,197.5
		z M328.1,114.4c-0.9,0.5-1.9,1-2.8,1.5c1.6,3.5,3.3,7,4.8,10.7c1.2,3.1,5.3,6.2,3,9.4c-2.7,3.8-7.6,2.3-11.8,1.7
		c-1-0.1-1.9-0.5-2.8-0.6c-2.4-0.2-5.5-1.6-6.4,2.1c-0.8,3.5,1.5,5.6,4.4,6.5c6.2,2,12.7,2.9,18.9,0.3c4.3-1.8,8.6-5.5,6.1-10.4
		C337.9,128.1,331.7,122.2,328.1,114.4z M284,108.3c2.2-3.6,3.6-6.1,5.2-8.4c5.2-7.5,11.6-12.8,21.5-12.5c2.5,0.1,6.5,2.4,6.9-2.3
		c0.4-4.2-2.9-6-6.6-7C297.6,74.6,280,92.8,284,108.3z M215,178.2c2.8-6.9-1.2-15.4,5.4-17.9c6.1-2.4,5.6,7.1,10,9.4
		c1.7-11.1-4.2-19.9-13.3-20.1c-3.5-0.1-6.8,1-8.2,4c-1.8,3.9,2.8,1.6,3.8,3.1c1.2,2,0.1,3.7-0.2,5.5
		C211.5,167.5,212.1,172.4,215,178.2z M405.9,110.2c-1.6,3.2-1.1,5.7-0.2,8c3.8,8.8,5.9,16.2-8.3,15c-1.8-0.2-4.1,0.6-4,3.1
		c0.1,1.4,0.9,3.3,2,4.1c6.9,4.7,12.9,0.7,18.8-2.4c6.2-3.3,2.3-7.4,0.3-11.3C411.7,121.3,408.9,116,405.9,110.2z M406.2,192.7
		c-8.9,2.6-16.9,7.1-25.8,9.1c-4.9,1.1-2.9,5.8-2.6,8.9c0.5,5,4.2,2.6,6.5,2C394.7,209.9,401.8,203,406.2,192.7z"/>
	<path class="st33" d="M262.7,328.3c-1.1-1.6-1.7-5.6-4.3-1.8c-2.2,3.1-2.9,7.3-1.8,11.2c1.5,5.4,1.3,10.8,1.3,16.3
		c0,15-0.7,15.5-15.7,9c9,10.6-3.3,12.5-5.4,18.6c-1.9,5.1,2.9,5.2,5.2,5.6c5.8,1,11.5,3.4,17.5,2.5c1.8,14,3.4,28,5.5,41.9
		c1.8,12-0.7,14.5-12.8,11.5c-16.1-3.9-30.4-11.8-44.7-19.9c2.5-11.4,2.7-23,1.6-34.5c-2.8-29.4-7.5-58.5-14.5-87.2
		c-1-4.2-0.5-7.5,4.1-9.5c17.2-7.3,34.2-14.7,51.4-22c2.2,1.4,4.1,3.3,6.5,4.1c21.6,8.1,36,22,37.9,46.2c0.1,1.5,0.9,3.6,2,4.3
		c7,4.3,11.6,8.8,8.3,18.3c-1.2,3.6,4.2,5.9,7.7,7.6c8.6,4.3,17.2,8.6,25.6,14.3c-23,1.1-45.5,4.8-68.2,6
		c-0.1-10.6-0.2-21.1-0.3-31.7C269.6,334,269,329.3,262.7,328.3z"/>
	<path class="st31" d="M341.3,501.7c-16.9,2.4-33.3-0.5-49.7-4.1c-4.4-1-5.2-4.2-6.2-7.5c-10.4-33.6-16.6-68-20.9-102.9
		c-0.5-4.5,1-5.8,4.7-6.3c28.4-4.4,56.8-7.7,85.5-3.9c0.2,35.3-0.9,70.7,5.8,105.7c1,5-1,8.3-5.6,11
		C350.3,496.3,343.9,496,341.3,501.7z"/>
	<path class="st1" d="M187.9,377.1c-65.2-61.3-65.7-183,5.5-244.5c2.4,3.5,1.1,6.5-0.4,9.7c-11.3,25.6-1,53.2,24.4,65.5
		c2.7,1.3,16,32.3,15,35c-1,2.6-3.4,3.8-5.6,5.1c-16.8,10.1-33.6,20.3-50.6,30.3c-10.8,6.3-12.1,9.3-8.8,21.1
		c5.9,21.4,16.7,41.2,20,63.4C188.1,367.4,189.1,372,187.9,377.1z"/>
	<path class="st1" d="M415,359.9c5.1-15.8,9.4-28.8,13.6-41.9c3.5-11,7-22.1,10.4-33.1c3-9.9,1.2-18.2-7.3-25
		c-7.3-5.8-14-12.3-21-18.5c-3.8-3.3-5.7-7.4-3.1-12c15.5-27,19.4-56.7,21.3-88.5c12,11.3,20,24,26.5,37.4
		c26.2,53.9,25.6,107.8-1.1,161.6c-2.9,5.8-6.2,10.1-13.4,10.6c-4.1,0.3-8.1,2-12,3.5C425.1,355.3,421.4,357.1,415,359.9z"/>
	<path class="st32" d="M250.1,269.9c-17.1,7.4-34.2,14.8-51.4,22c-4.6,1.9-5.1,5.3-4.1,9.5c7.1,28.7,11.7,57.8,14.5,87.2
		c1.1,11.5,0.9,23.1-1.6,34.5c-7-1.2-5.6-6.8-5.8-11.4c-1.7-33.9-6.8-67.1-17.7-99.3c-6.6-19.6-6.7-19.6,10.2-32.1
		c9.8-7.3,20.4-13.3,31-19.5c9-5.3,16-5.4,21.5,4.4C247.7,266.8,249,268.3,250.1,269.9z"/>
	<path class="st33" d="M377.9,364.6c5.1-15,15.2-27.2,22.8-40.8c3.2-5.8,6.6-11,1.6-17.5c-1-1.3-1.1-3.8-0.7-5.5
		c2.9-11.7,1.7-23.4,0-35.1c3.5,0.9,6.3,3,9.2,5c6.3,4.3,11.4,10.5,19.1,12.5c-4.4,25.1-13.3,48.8-22.5,72.5
		c-2.2,5.7-7,7.3-12.2,7.9C389.4,364.3,383.6,364.3,377.9,364.6C377.8,364.6,377.9,364.6,377.9,364.6z"/>
	<path class="st31" d="M416.9,395.7c-0.2-1.4-0.3-2.8-0.5-4.2c4.1-6.4-2-12.7-0.1-19.1c9.5-6.8,21-9.1,31.6-13.4
		c6.6-2.7,11.8,2,14.7,7.9c3.5,7.2,5.6,15,6.1,23.1c-7,17.5-7,17.5-26.2,17.4c-0.6,0-1.3,0-1.9,0c-9.4-0.2-20.3,2.6-22.8-11.4
		C417.8,395.8,417.2,395.8,416.9,395.7z M429.5,388.8c6.6,0.6,13.4,1.6,19.8-1.8C442.6,385.7,435.9,383.9,429.5,388.8z M440.5,374.2
		c-7.5-0.2-12.1,2.3-16.8,8.2C430.8,381.7,435.6,379.6,440.5,374.2z"/>
	<path class="st1" d="M342,285.2c-4.3,2.2-7.4,3.7-10.3,5.1c0.4,1,0.4,1.8,0.8,2.1c2.6,2,7.7-1.6,8.8,3.6c1,4.7-2.7,6.8-5.6,9.3
		c-8.2,6.8-16.8,12.8-27.5,15.3c-3.9,0.9-6.9,1-8.8-3.2c-5.9-12.9-8.6-26.2-6.5-40.3c1-6.8,4.6-9.9,12.2-8
		C317.8,272.3,328.9,278.7,342,285.2z"/>
	<path class="st32" d="M244,85.8c3.3,6.9,0.8,14.1,0,20.9c-1.6,12.9-2.8,25.5,0.5,38.3c0.4,1.7,0.9,3.8-1.7,5.8
		c-2.7-3.8-3.2-8.9-6.8-12.2c-6.6-6-14.1-9.9-22.8-6.7c-8.5,3.2-10.2,0-9.5-7.4c0.2-1.9,0.4-3.8,0.5-5.7c4.4,0.8,3.2-2.9,3.9-5
		C213.7,96.3,225.2,87.4,244,85.8z"/>
	<path class="st34" d="M341.3,501.7c2.7-5.7,9-5.4,13.5-8.1c4.7-2.7,6.6-6,5.6-11c-6.7-35-5.6-70.4-5.8-105.7
		c5.7-0.4,7.5,2.1,7.9,7.9c2.2,36,4.8,72,7.4,107.9c0.2,3.4-0.1,5.5-3.9,6.1C357.8,500.3,349.8,503.3,341.3,501.7z"/>
	<path class="st32" d="M360.7,360.3c-16.8-4.8-31.2-11.6-45.3-19.2c-3.6-2-3-4.3-1.6-7.1c4.1-8.9,11.8-14.3,19.7-19.3
		c3-1.9,4.7,0.2,6.3,2.4C348.8,330,354.5,344.5,360.7,360.3z"/>
	<path class="st1" d="M385.1,301.3c-3.8-0.5-7.6-1.2-11.4-1.6c-7.7-0.8-12.6-3.2-7.6-12c0.3-0.5,1-1.2,0.9-1.4
		c-1.8-2.8-7.9-5-2.7-8.9c6.5-5,13.3-10.2,21.9-11.5c5.2-0.8,7.8,2.6,8.7,7c1.1,5.6,1.9,11.4,2.3,17.1
		C397.6,298.3,395.7,304.5,385.1,301.3z"/>
	<path class="st34" d="M416.9,395.7c0.3,0.1,0.9,0.1,0.9,0.3c2.5,14,13.4,11.2,22.8,11.4c0.6,0,1.3,0,1.9,0
		c19.2,0.1,19.2,0.1,26.2-17.4c3.9,9.9,4,19.7-3.2,27.9c-8,9.2-19,6.9-30.8,6.8c5.3-5.1,11.7-3,18-7.9c-9.5,0-17.2-0.5-24.8,0.2
		c-7.1,0.7-10.8-1.1-10.5-8.8C417.6,404,417.1,399.8,416.9,395.7z"/>
	<path class="st33" d="M384.9,389.4c1.5,10.8,2.9,21.5,2.8,32.4c0,7.2-3.8,8.3-9.7,8.7c-6.9,0.5-8-3-8-8.7
		c0.1-9.9-0.2-19.8-0.3-29.8C374.8,391.2,379.9,390.3,384.9,389.4z"/>
	<path class="st32" d="M375,352.4c1.2-12.4,2.3-24.8,3.5-37.2c0.4-4.1,1.3-7.8,6.2-8.4c5.2-0.6,9.3,1.8,13,5.1
		c3.6,3.2,1.4,6.4-0.3,9.5c-6.4,11.1-12.5,22.4-20.7,32.3C376.1,353.3,375.5,352.9,375,352.4z"/>
	<path class="st34" d="M388.6,469.6c1,7.9-4.6,8.2-9.8,9.1c-7.1,1.2-5.9-4.2-6.1-8c-0.5-8-0.3-16.1-0.8-24.1
		c-0.2-4.5,1.4-6.3,5.9-6.7c4.1-0.3,5.6,0.9,6.2,5C385.3,453.2,387,461.4,388.6,469.6z"/>
	<path class="st31" d="M373.3,312.4c0,13.1-0.2,26.1-3.5,38.9c-1.3,0.1-2.6,0.2-3.9,0.3c-2.6-3.7-4.6-7.7-5.5-12.2
		c2.6-0.9-0.4-5.4,3.7-5.6c1.7-0.1,5.5,1.2,4.3-2.7c-1-3.2-4.1-2.4-6.1-0.8c-1.7,1.3-3.4,1.5-5.3,1.8c-1.6-3.3-3.1-6.6-4.7-9.8
		c3-1.7,0.4-4,0.8-5.9c1-5,2.5-9.9,9.3-5.6c-0.5,0.4-1.2,0.7-1.4,1.1c-0.8,1.9-4.2,3.2-1,6c1.2,1,1.6,0.9,2.9,0.2
		c5.2-3-1.5-4.8-0.6-7.3C366,311.1,369.7,311.7,373.3,312.4z"/>
	<path class="st32" d="M429.9,283.3c-7.7-2.1-12.8-8.3-19.1-12.5c-2.9-2-5.7-4.1-9.2-5c-2.3-3.1-4-6.6-7.7-8.5
		c-2.2-1.1-5.6-2.1-2.3-5.3c2.5-2.4,4.8-7.6,9.3-3.6c9.2,8,18,16.5,26.8,24.9C430.5,275.9,430.4,279.7,429.9,283.3z"/>
	<path class="st31" d="M399.1,411.3c-1.5-9.8-3-19.5-4.3-29.3c-0.3-2.5-2.9-6,1.8-7c3.9-0.8,7.3-0.5,9.1,4.4
		c3.6,9.7,5.7,19.5,5,29.9C406.8,410,402.9,410.6,399.1,411.3z"/>
	<path class="st34" d="M234.2,72c-3.9,1.3-7.7,2.6-12.1,4.1c6-16.2,37.3-36.8,54.4-35.2c-6.1,4.1-11.3,7.5-16.5,10.9
		C248.8,55.1,240.4,62.1,234.2,72z"/>
	<path class="st34" d="M244,85.8c-18.8,1.6-30.3,10.6-35.9,28.1c-0.7,2.1,0.5,5.8-3.9,5c1.5-22.2,13.9-36.5,33.5-38.6
		C242,79.8,245.6,79.6,244,85.8z"/>
	<path class="st32" d="M262.7,328.3c6.3,1,6.9,5.6,7,10.7c0.1,10.6,0.2,21.1,0.3,31.7c-8,3.5-7.9-2.8-8-7.2
		C261.9,351.8,262.4,340.1,262.7,328.3z"/>
	<path class="st34" d="M373.3,312.4c-3.7-0.6-7.3-1.3-11-1.9c0,0,0.1,0,0.1,0c-6.8-4.3-8.3,0.6-9.3,5.6c-0.4,1.9,2.1,4.3-0.8,5.9
		c-0.6-0.7-1.5-1.3-1.7-2.1c-1.6-5-10.6-9.5-5.4-14.1c4.9-4.2,13.7-7.8,20.8-0.9C368.4,307.4,375.6,305.2,373.3,312.4z"/>
	<path class="st32" d="M384.9,389.4c-5,0.9-10.1,1.8-15.1,2.7c-0.9-5.6-4.9-12.2,4.1-14.9C386,373.5,383.5,383.3,384.9,389.4z"/>
	<path class="st32" d="M234.2,72c6.2-9.9,14.6-16.8,25.9-20.2c-3,4.9-6,9.7-8.9,14.6C247.1,73.2,240.8,72.9,234.2,72z"/>
	<path class="st31" d="M260.6,267.1c8.4,1.1,14.9,2.1,21.5,2.8c2.7,0.3,5.4,0.4,4.5,4.2c-0.6,2.7-1,6.2-5.3,5
		C274,277,266.7,275.1,260.6,267.1z"/>
	<path class="st32" d="M259.6,389.6c-6.1,0.9-11.7-1.5-17.5-2.5c-2.2-0.4-7-0.4-5.2-5.6c5.1,0.1,10.1,0.3,15.2,0.1
		C257.8,381.5,260.6,383.7,259.6,389.6z"/>
	<path class="st34" d="M337.9,272.7c7.7-3.2,15.8-3.6,24.2-4.9C355.1,277.4,350.8,278.2,337.9,272.7z"/>
	<path class="st34" d="M399.1,411.3c3.9-0.7,7.7-1.3,11.6-2c0.3,3.6,2.4,7.4-1.9,10.2C402.6,423.4,399.5,420.8,399.1,411.3z"/>
	<path class="st1" d="M350,283.3c5.1,0.3,6.7,2.5,6.5,6.3c-0.2,3.6-2.5,6.6-5.6,6.6c-5,0.1-4.1-4.7-4.5-7.8
		C345.9,285.1,347.1,282.8,350,283.3z"/>
	<path class="st34" d="M416.3,372.5c-1.9,6.4,4.2,12.7,0.1,19.1C415.6,385.2,408.9,378.9,416.3,372.5z"/>
	<path class="st34" d="M357,331.9c1.9-0.3,3.6-0.5,5.3-1.8c2-1.6,5.1-2.3,6.1,0.8c1.2,3.9-2.6,2.6-4.3,2.7c-4.1,0.3-1,4.7-3.7,5.6
		C358.1,337.4,357.3,334.7,357,331.9z"/>
	<path class="st34" d="M365.9,351.5c1.3-0.1,2.6-0.2,3.9-0.3c0,1.7,0.7,4.1-1.6,4.3C365.9,355.7,366.1,353.2,365.9,351.5z"/>
	<path class="st33" d="M377.8,364.6c-0.1,0.2-0.2,0.4-0.4,0.6C377.6,365,377.7,364.8,377.8,364.6
		C377.9,364.6,377.8,364.6,377.8,364.6z"/>
	<path class="st32" d="M376.6,353.8c-0.7,0.2-1.4,0.4-2.1,0.6c0.2-0.7,0.3-1.3,0.5-2C375.5,352.9,376.1,353.3,376.6,353.8z"/>
	<path class="st25" d="M351.4,179.4c2.9,12.7,11.4,11.2,19.6,8.8c5.8-1.7,11.4-4.3,16.9-6.9c8.2-3.8,9.3-8.5,3.5-15.8
		c-8.4-10.6-17.6-20.5-23-33.2c-2.1-5-3.4-10-1.7-15.6c8.6,18.4,21.7,33.2,35.3,47.6c4,4.3,1.7,14.8-4,18.6
		c-11.4,7.5-23.6,13-37.7,13.2C350,196.2,347,191.4,351.4,179.4z"/>
	<path class="st25" d="M379.8,224.7c-4.6,8-11.3,7.6-17.5,8.8c-19.2,3.6-32.1-5-41.6-20.8c-0.8-1.4-2.2-2.7-0.4-4.1
		c1.1-0.9,2.6-0.7,3.4,0.5c11.6,18.5,30.5,14.5,47.8,15.5C373.8,224.8,376,224.7,379.8,224.7z"/>
	<path class="st25" d="M326.7,197.5c14,4.8,27.3,5.1,40.6,4.8c6.2-0.1,5.2,4.2,5.7,7.7c0.7,4.8-2.9,4-5.6,4c-11.3,0-22.3-1.4-32.3-7
		C331.7,205.1,328.6,203,326.7,197.5z"/>
	<path class="st25" d="M328.1,114.4c3.6,7.8,9.8,13.7,13.5,21.1c2.5,4.9-1.8,8.6-6.1,10.4c-6.2,2.6-12.7,1.7-18.9-0.3
		c-2.9-0.9-5.2-3-4.4-6.5c0.9-3.8,4-2.3,6.4-2.1c1,0.1,1.9,0.5,2.8,0.6c4.1,0.6,9,2.1,11.8-1.7c2.3-3.1-1.8-6.2-3-9.4
		c-1.4-3.6-3.2-7.1-4.8-10.7C326.3,115.4,327.2,114.9,328.1,114.4z"/>
	<path class="st25" d="M284,108.3c-3.9-15.5,13.7-33.7,27-30.3c3.7,0.9,7,2.8,6.6,7c-0.5,4.7-4.5,2.4-6.9,2.3
		c-9.8-0.3-16.3,5-21.5,12.5C287.6,102.2,286.2,104.7,284,108.3z"/>
	<path class="st25" d="M215,178.2c-2.9-5.8-3.5-10.8-2.5-15.9c0.3-1.8,1.4-3.6,0.2-5.5c-1-1.6-5.6,0.8-3.8-3.1c1.4-3,4.7-4.1,8.2-4
		c9.1,0.2,15,9.1,13.3,20.1c-4.4-2.3-3.9-11.8-10-9.4C213.8,162.9,217.9,171.3,215,178.2z"/>
	<path class="st25" d="M405.9,110.2c3,5.8,5.8,11.1,8.5,16.4c2,3.8,5.9,7.9-0.3,11.3c-5.9,3.1-11.9,7.2-18.8,2.4
		c-1.1-0.8-2-2.7-2-4.1c-0.1-2.5,2.3-3.3,4-3.1c14.2,1.2,12.2-6.2,8.3-15C404.8,115.9,404.3,113.4,405.9,110.2z"/>
	<path class="st25" d="M406.2,192.7c-4.4,10.3-11.5,17.1-21.9,19.9c-2.4,0.6-6.1,3-6.5-2c-0.3-3.1-2.3-7.8,2.6-8.9
		C389.3,199.8,397.3,195.3,406.2,192.7z"/>
	<path class="st28" d="M429.5,388.8c6.5-4.9,13.2-3.1,19.8-1.8C442.9,390.4,436.1,389.4,429.5,388.8z"/>
	<path class="st25" d="M440.5,374.2c-4.9,5.4-9.7,7.5-16.8,8.2C428.4,376.5,433,374,440.5,374.2z"/>
	<path class="st34" d="M362.3,310.5c-0.9,2.5,5.8,4.3,0.6,7.3c-1.3,0.8-1.7,0.9-2.9-0.2c-3.2-2.7,0.1-4.1,1-6
		C361.2,311.1,361.9,310.9,362.3,310.5C362.4,310.5,362.3,310.5,362.3,310.5z"/>
</g>
<g id="atlassian" class="st3">
	<path class="st35" d="M380,511.2c-9.8,0-19.6,0-29.4,0c-6.3,0-10.4-3-11.1-9.5c-4-39.3-24.2-70.6-48.4-100.1
		c-21.5-26.1-45.5-49.9-69.2-74c-25.7-26.1-51-52.6-72-82.8c-20.2-28.9-35.3-59.9-40.4-95.1c-0.8-5.6-2.2-11.5,3.2-15.8
		c5.1-4,10.2-1.5,15.3,0.3c17.9,6.4,36.1,12.4,54.7,16.4c8,1.7,13,5.7,16.1,13.6c10.5,26.5,28.1,48.5,47,69.4
		c13.6,15.1,28,29.6,42.2,44.2c7.9,8.1,11.6,8.1,19.3,0.4c25.6-25.8,51.3-51.6,72-81.8c7.3-10.7,13.9-21.8,18.3-34
		c2.4-6.5,6.7-9.9,13.3-11.4c20.4-4.6,40.2-11,59.9-17.9c10.6-3.7,17,0.9,15.8,12.1c-2.6,24.9-10.9,48.1-22.7,70.1
		c-20.3,37.9-49.1,69.3-78.4,100.2c-7.8,8.2-15.9,16.2-23.9,24.3c-7,7.2-7.3,9.7-0.9,17.8c19.9,25.3,37.1,52.1,48.6,82.2
		c7.2,18.9,12.1,38.3,12.7,58.6c0.3,9.1-3.2,12.5-12.5,12.6C399.6,511.3,389.8,511.2,380,511.2z"/>
	<path class="st36" d="M298.6,122.5c-99.3-1.2-188.5-30-268.3-87.6C25,31,21,26.6,22.5,19.4c1.9-8.6,10.9-12.3,19.7-7.7
		c19.9,10.4,40.2,19.9,61.2,27.9c44.3,16.8,90,27.5,137.2,32.2C350.1,82.6,454,63.9,551.7,12.6c8.8-4.6,15.7-3.6,19.8,2.9
		c4.1,6.5,2.1,13.3-5.9,19.1c-62.3,45.2-131.4,73.4-207.9,83.6C337.7,120.8,317.7,122,298.6,122.5z"/>
	<path class="st35" d="M214.2,511.2c-9.5,0-19.1,0.1-28.6,0c-8.7-0.1-12.3-3.6-11.9-12.3c1.2-32.9,12.3-62.9,27.8-91.4
		c3.8-7,8-13.8,12.4-20.5c5.4-8.2,11.7-9,18.3-2.1c13.3,14,26.4,28.2,38.5,43.3c5,6.3,6,12.8,2,20c-9.1,16.4-14.4,34-16.5,52.7
		c-0.8,7.2-4.8,10.4-11.8,10.4C234.3,511.2,224.3,511.2,214.2,511.2z"/>
	<path class="st36" d="M267.4,163.1c20.3,1.8,40.7,1.5,61,0.1c12.2-0.9,16.6,5.8,11.5,17c-8.3,18-19.4,34-33.5,47.9
		c-6.3,6.2-10.9,6.2-17.3-0.1C275,214,263.9,198,255.7,180C250.6,168.8,255,162.7,267.4,163.1z"/>
</g>
<g id="atlassian_BW" class="st3">
	<path class="st1" d="M380,511.2c-9.8,0-19.6,0-29.4,0c-6.3,0-10.4-3-11.1-9.5c-4-39.3-24.2-70.6-48.4-100.1
		c-21.5-26.1-45.5-49.9-69.2-74c-25.7-26.1-51-52.6-72-82.8c-20.2-28.9-35.3-59.9-40.4-95.1c-0.8-5.6-2.2-11.5,3.2-15.8
		c5.1-4,10.2-1.5,15.3,0.3c17.9,6.4,36.1,12.4,54.7,16.4c8,1.7,13,5.7,16.1,13.6c10.5,26.5,28.1,48.5,47,69.4
		c13.6,15.1,28,29.6,42.2,44.2c7.9,8.1,11.6,8.1,19.3,0.4c25.6-25.8,51.3-51.6,72-81.8c7.3-10.7,13.9-21.8,18.3-34
		c2.4-6.5,6.7-9.9,13.3-11.4c20.4-4.6,40.2-11,59.9-17.9c10.6-3.7,17,0.9,15.8,12.1c-2.6,24.9-10.9,48.1-22.7,70.1
		c-20.3,37.9-49.1,69.3-78.4,100.2c-7.8,8.2-15.9,16.2-23.9,24.3c-7,7.2-7.3,9.7-0.9,17.8c19.9,25.3,37.1,52.1,48.6,82.2
		c7.2,18.9,12.1,38.3,12.7,58.6c0.3,9.1-3.2,12.5-12.5,12.6C399.6,511.3,389.8,511.2,380,511.2z"/>
	<path class="st1" d="M298.6,122.5c-99.3-1.2-188.5-30-268.3-87.6C25,31,21,26.6,22.5,19.4c1.9-8.6,10.9-12.3,19.7-7.7
		c19.9,10.4,40.2,19.9,61.2,27.9c44.3,16.8,90,27.5,137.2,32.2C350.1,82.6,454,63.9,551.7,12.6c8.8-4.6,15.7-3.6,19.8,2.9
		c4.1,6.5,2.1,13.3-5.9,19.1c-62.3,45.2-131.4,73.4-207.9,83.6C337.7,120.8,317.7,122,298.6,122.5z"/>
	<path class="st1" d="M214.2,511.2c-9.5,0-19.1,0.1-28.6,0c-8.7-0.1-12.3-3.6-11.9-12.3c1.2-32.9,12.3-62.9,27.8-91.4
		c3.8-7,8-13.8,12.4-20.5c5.4-8.2,11.7-9,18.3-2.1c13.3,14,26.4,28.2,38.5,43.3c5,6.3,6,12.8,2,20c-9.1,16.4-14.4,34-16.5,52.7
		c-0.8,7.2-4.8,10.4-11.8,10.4C234.3,511.2,224.3,511.2,214.2,511.2z"/>
	<path class="st1" d="M267.4,163.1c20.3,1.8,40.7,1.5,61,0.1c12.2-0.9,16.6,5.8,11.5,17c-8.3,18-19.4,34-33.5,47.9
		c-6.3,6.2-10.9,6.2-17.3-0.1C275,214,263.9,198,255.7,180C250.6,168.8,255,162.7,267.4,163.1z"/>
</g>
<g id="gulp_bw" class="st3">
	<g class="st1">
		<g>
			<path class="st2" d="M200.1,143.9c0-41.5,0-83,0-124.5c74,0,148.1,0,222.1,0c0,165.3,0,330.7,0,496c-74,0-148.1,0-222.1,0
				c0-123.1,0-246.3,0-369.4c7.2,2.4,14.2,5.7,21.5,7.2c56.5,11,113.1,11.6,169.8,1.2c8.7-1.6,17.2-4.7,25.7-7
				c-0.2-1.2-0.4-2.4-0.6-3.6c-23-8.7-47.7-6.9-73.2-10.6c6.1-18.8,5.8-38.6,20.5-53.6c10.4-10.6,20-22,29.8-33.1
				c4.5-5.1,8.7-10.3,13-15.3c-11.1-10.9-11.1-10.9-20.8-0.7c-6.2,6.5-12,13.4-18.7,19.4c-22,19.6-38,42.4-40.5,72.8
				c-0.7,8.9-5.7,11.5-14.7,11.5C274.4,133.9,236.7,133.3,200.1,143.9z M244.8,304.6c-9.3,4.2-18.2,8.1-27.6,12.3
				c1.9,20.5,4.4,41.8,5.7,63.1c0.7,10.3,5.4,16.3,14.8,18.4c13.1,2.9,26.3,6.1,39.6,7.3c32.5,3,64.9,2.7,96.8-5.4
				c13.3-3.4,17.2-8.5,18.3-21.5c0.8-8.9,2.1-17.8,3-26.7c1.8-16.6,3.5-33.2,5.4-50.9c-6.5,3.9-11.1,8.3-16.5,9.6
				c-5,1.2-10.8-0.7-16.3-1.2c0.9-4.8,0.9-10.1,3.1-14.1c3.4-6.3,8.4-11.8,12.8-17.6c-12.3,2.2-17.9,10.8-22.2,20.1
				c-5.5,11.9-9.5,24.5-15.2,36.3c-1.9,3.9-6.9,6.2-10.5,9.2c-0.6-4.5-2.5-9.4-1.4-13.4c2.1-7.4,6.1-14.4,10.1-23.5
				c-9.5,4.7-17.2,9.5-25.6,2.7c-0.6-0.5-2.6,0.4-3.8,1c-7.4,4-13.7,3.8-16.9-3.2c-6.9,2.1-12.6,4.6-18.6,5.4
				c-6.1,0.9-11.2-3.4-9.6-9.2c3.5-12.8,8.6-25.2,13.7-37.5c0.6-1.4,4.7-1.3,7.2-2c0.7,2.7,2.5,5.8,1.8,8c-1.7,5.2-4.9,9.9-6.9,15
				c-1.3,3.5-1.5,7.4-2.2,11.1c1.1,0.6,2.2,1.3,3.2,1.9c4-4.2,8.8-8,11.9-12.8c3.7-5.7,5.6-12.6,9.2-18.5c1.4-2.3,5.1-3.3,7.7-4.9
				c0.9,3,2.7,6.2,2.3,9.1c-0.5,3.6-2.9,7-4.1,10.5c-1.8,5.2-3.4,10.6-5.1,15.8c1.3,0.7,2.6,1.5,3.9,2.2c3.1-3.9,7.1-7.4,9-11.8
				c7.8-18.4,14.7-37.3,22.6-55.6c1.5-3.5,6.4-5.6,9.7-8.4c0.5,4.2,2.6,9,1.3,12.5c-6.3,16.8-13.5,33.2-20.3,49.9
				c-1.3,3.2-2,6.6-3.9,12.9c13-7.8,22.4-14.1,26-26.5c2.3-7.8,6.6-12.5,14.5-4.8c2.1-1.3,3.7-3.2,5.6-3.3c5.7-0.4,12.9-2.4,17,0.2
				c6.9,4.3,2.3,11.1-1,16.3c-3.5,5.5-7.5,10.7-11.3,16c11-6.3,21.4-12,22.6-27c2.5-30.6,6.9-61,10.4-91.5c0.9-8,1.5-16,2.3-24.8
				c-72.4,17.2-143.1,17.1-215.6,0c3.5,36.1,6.8,70.9,10.2,105.8c3.9-3.2,5.1-6.9,7.5-9.7c8.8-10.4,16.8-22,27.3-30.4
				c10.6-8.5,25.2-3.5,30.4,8.4c1.3,3-0.6,7.4-1,11.2c-3-1.3-7-1.8-8.9-4.1c-7.5-8.5-11.4-9.5-19.2-1.3
				c-14.2,14.8-23.4,32.5-25.8,53.1c-0.4,3.3,0.9,8.7,3.1,9.9c2.3,1.2,7.4-0.6,10.1-2.6c10.5-7.8,17.8-18,21.8-30.7
				c1.1-3.4,5.4-5.8,8.3-8.7c1.2,4.2,4.1,8.8,3.2,12.4c-3.9,14.3-8.9,28.3-13.6,42.3c-1.4,4.2-2.5,8.6-4.4,12.6
				c-0.9,1.8-3.6,2.6-5.5,3.8c-1.4-2.1-4-4.3-3.8-6.3C241.9,315.6,243.5,310.3,244.8,304.6z M235.4,402.7
				c3.1,11.8,7.4,23.3,9.1,35.2c2.3,17.1,2.6,34.4,4.2,51.6c0.3,3.5,1.6,8.6,4,9.8c10.8,5.1,21.9,11.2,33.4,12.7
				c16,2.1,32.4,1,48.7,0.4c21.7-0.8,33.1-14.1,35-35.3c2.2-24.9-4-51.4,13.3-74.5C332.4,415.7,283.2,415.8,235.4,402.7z"/>
			<path d="M200.1,143.9c36.6-10.6,74.3-10,111.9-9.9c9,0,13.9-2.6,14.7-11.5c2.5-30.4,18.6-53.2,40.5-72.8
				c6.7-6,12.5-12.9,18.7-19.4c9.7-10.2,9.7-10.3,20.8,0.7c-4.3,5-8.5,10.3-13,15.3c-9.9,11.1-19.4,22.5-29.8,33.1
				c-14.6,15-14.4,34.9-20.5,53.6c25.5,3.7,50.2,1.9,73.2,10.6c0.2,1.2,0.4,2.4,0.6,3.6c-8.6,2.4-17,5.4-25.7,7
				c-56.6,10.5-113.3,9.8-169.8-1.2c-7.4-1.4-14.4-4.7-21.5-7.2C200.1,145.3,200.1,144.6,200.1,143.9z M342.7,148.1
				c-8.9,0-17.4,0-27.2,0C325.6,156.5,335.4,156.3,342.7,148.1z"/>
			<path d="M244.8,304.6c-1.3,5.8-2.9,11.1-3.4,16.5c-0.2,2,2.5,4.2,3.8,6.3c1.9-1.2,4.6-2.1,5.5-3.8c2-4,3.1-8.4,4.4-12.6
				c4.6-14.1,9.7-28,13.6-42.3c1-3.6-2-8.3-3.2-12.4c-2.8,2.9-7.2,5.3-8.3,8.7c-4,12.7-11.3,22.9-21.8,30.7c-2.7,2-7.8,3.8-10.1,2.6
				c-2.2-1.2-3.5-6.6-3.1-9.9c2.4-20.6,11.5-38.3,25.8-53.1c7.8-8.1,11.8-7.2,19.2,1.3c2,2.2,5.9,2.8,8.9,4.1
				c0.4-3.8,2.3-8.2,1-11.2c-5.2-11.9-19.8-16.8-30.4-8.4c-10.5,8.4-18.5,20-27.3,30.4c-2.3,2.8-3.6,6.5-7.5,9.7
				c-3.4-34.9-6.7-69.7-10.2-105.8c72.5,17.1,143.2,17.3,215.6,0c-0.8,8.8-1.4,16.8-2.3,24.8c-3.5,30.5-7.9,60.9-10.4,91.5
				c-1.2,15-11.6,20.7-22.6,27c3.8-5.3,7.9-10.5,11.3-16c3.3-5.2,7.9-12,1-16.3c-4.1-2.6-11.3-0.7-17-0.2c-1.8,0.1-3.5,2-5.6,3.3
				c-7.9-7.7-12.2-3-14.5,4.8c-3.6,12.4-13,18.6-26,26.5c1.8-6.2,2.6-9.7,3.9-12.9c6.8-16.6,14-33.1,20.3-49.9
				c1.3-3.5-0.8-8.3-1.3-12.5c-3.3,2.8-8.2,4.9-9.7,8.4c-8,18.4-14.8,37.2-22.6,55.6c-1.9,4.4-5.9,7.9-9,11.8
				c-1.3-0.7-2.6-1.5-3.9-2.2c1.7-5.3,3.3-10.6,5.1-15.8c1.3-3.6,3.7-6.9,4.1-10.5c0.4-2.9-1.5-6-2.3-9.1c-2.6,1.6-6.3,2.6-7.7,4.9
				c-3.5,5.9-5.4,12.8-9.2,18.5c-3.1,4.8-7.9,8.6-11.9,12.8c-1.1-0.6-2.2-1.3-3.2-1.9c0.7-3.7,0.9-7.6,2.2-11.1
				c2-5.1,5.2-9.8,6.9-15c0.7-2.3-1.1-5.3-1.8-8c-2.5,0.6-6.6,0.6-7.2,2c-5,12.3-10.1,24.7-13.7,37.5c-1.6,5.7,3.5,10,9.6,9.2
				c5.9-0.8,11.6-3.3,18.6-5.4c3.2,6.9,9.6,7.1,16.9,3.2c1.2-0.6,3.2-1.5,3.8-1c8.4,6.8,16.1,2.1,25.6-2.7c-4.1,9.1-8,16-10.1,23.5
				c-1.1,4,0.8,8.9,1.4,13.4c3.6-3,8.7-5.4,10.5-9.2c5.7-11.8,9.7-24.4,15.2-36.3c4.3-9.3,9.9-17.9,22.2-20.1
				c-4.3,5.8-9.3,11.3-12.8,17.6c-2.2,4.1-2.1,9.4-3.1,14.1c5.5,0.5,11.3,2.5,16.3,1.2c5.4-1.3,10-5.7,16.5-9.6
				c-1.9,17.7-3.6,34.3-5.4,50.9c-1,8.9-2.3,17.8-3,26.7c-1.1,12.9-4.9,18.1-18.3,21.5c-31.9,8-64.4,8.4-96.8,5.4
				c-13.3-1.2-26.5-4.4-39.6-7.3c-9.4-2.1-14.2-8.1-14.8-18.4c-1.4-21.4-3.8-42.7-5.7-63.1C226.7,312.7,235.5,308.7,244.8,304.6z"/>
			<path d="M235.4,402.7c47.7,13.2,97,13,147.6,0c-17.2,23.1-11,49.6-13.3,74.5c-1.9,21.2-13.3,34.5-35,35.3
				c-16.2,0.6-32.7,1.7-48.7-0.4c-11.5-1.6-22.6-7.7-33.4-12.7c-2.4-1.1-3.7-6.3-4-9.8c-1.6-17.2-1.8-34.6-4.2-51.6
				C242.9,426,238.6,414.5,235.4,402.7z"/>
			<path class="st2" d="M342.7,148.1c-7.3,8.1-17.1,8.4-27.2,0C325.2,148.1,333.8,148.1,342.7,148.1z"/>
		</g>
	</g>
</g>
<g id="docker">
	<g>
		<g>
			<title>Group 3</title>
			<desc>Created with Sketch.</desc>
			<g>
				<g>
					<g>
						<path id="SVGID_1_" d="M137.7,394c-16.2,0-31-13.3-31-29.5c0-16.2,13.3-29.5,31-29.5s31,13.3,31,29.5
							C168.7,380.7,153.9,394,137.7,394L137.7,394z M518.5,233.1c-3-23.6-17.7-42.8-36.9-57.6l-7.4-5.9l-5.9,7.4
							c-11.8,13.3-16.2,36.9-14.8,54.6c1.5,13.3,5.9,26.6,13.3,36.9c-5.9,3-13.3,5.9-19.2,8.9c-13.3,4.4-26.6,5.9-39.9,5.9H25.5
							l-1.5,8.9c-3,28,1.5,57.6,13.3,84.1l5.9,10.3v1.5c35.4,59,98.9,85.6,168.3,85.6c132.8,0,242.1-57.6,293.7-181.6
							c34,1.5,67.9-7.4,84.1-39.9l4.4-7.4l-7.4-4.4C567.2,228.6,540.7,227.2,518.5,233.1L518.5,233.1z M328.1,209.5h-57.6V267h57.6
							V209.5z M328.1,137.1h-57.6v57.6h57.6V137.1z M328.1,63.3h-57.6v57.6h57.6V63.3z M399,209.5h-57.6V267H399V209.5z
							 M184.9,209.5h-57.6V267h57.6V209.5z M257.2,209.5h-57.6V267h57.6V209.5z M114.1,209.5H56.5V267h57.6L114.1,209.5L114.1,209.5
							z M257.2,137.1h-57.6v57.6h57.6V137.1z M184.9,137.1h-57.6v57.6h57.6V137.1z"/>
					</g>
					<g>
						<g>
							<g>
								<defs>
									<path id="SVGID_37_" d="M137.7,394c-16.2,0-31-13.3-31-29.5c0-16.2,13.3-29.5,31-29.5s31,13.3,31,29.5
										C168.7,380.7,153.9,394,137.7,394L137.7,394z M518.5,233.1c-3-23.6-17.7-42.8-36.9-57.6l-7.4-5.9l-5.9,7.4
										c-11.8,13.3-16.2,36.9-14.8,54.6c1.5,13.3,5.9,26.6,13.3,36.9c-5.9,3-13.3,5.9-19.2,8.9c-13.3,4.4-26.6,5.9-39.9,5.9H25.5
										l-1.5,8.9c-3,28,1.5,57.6,13.3,84.1l5.9,10.3v1.5c35.4,59,98.9,85.6,168.3,85.6c132.8,0,242.1-57.6,293.7-181.6
										c34,1.5,67.9-7.4,84.1-39.9l4.4-7.4l-7.4-4.4C567.2,228.6,540.7,227.2,518.5,233.1L518.5,233.1z M328.1,209.5h-57.6V267
										h57.6V209.5z M328.1,137.1h-57.6v57.6h57.6V137.1z M328.1,63.3h-57.6v57.6h57.6V63.3z M399,209.5h-57.6V267H399V209.5z
										 M184.9,209.5h-57.6V267h57.6V209.5z M257.2,209.5h-57.6V267h57.6V209.5z M114.1,209.5H56.5V267h57.6L114.1,209.5
										L114.1,209.5z M257.2,137.1h-57.6v57.6h57.6V137.1z M184.9,137.1h-57.6v57.6h57.6V137.1z"/>
								</defs>
								<use xlink:href="#SVGID_37_"  style="overflow:visible;"/>
								<clipPath id="SVGID_38_">
									<use xlink:href="#SVGID_37_"  style="overflow:visible;"/>
								</clipPath>
								<g class="st37">
									<g>
										<g>
											<rect id="SVGID_3_" x="-711.1" y="-270.3" width="18817.3" height="2234.8"/>
										</g>
									</g>
								</g>
							</g>
						</g>
					</g>
				</g>
			</g>
		</g>
	</g>
</g>
</svg>
