<svg id="Layer_2" data-name="Layer 2" xmlns="http://www.w3.org/2000/svg" viewBox="0 0 501.63 501.63"><defs><style>.cls-1{fill:#fff;}</style></defs><title>jquery</title><path class="cls-1" d="M46.63,514.53V12.91H548.25V514.53H46.63Zm117-450.15L162.86,64c-0.67.6-1.4,1.15-2,1.8q-32.3,34.69-34.43,82a158.6,158.6,0,0,0,7.15,53.93c9.62,31.26,26.51,58.08,49.85,80.85,34.71,33.86,76.15,52.46,124.77,54.39,15.34,0.61,30.63-.26,45.67-3.64,41.26-9.26,73.85-31.25,97.29-66.54,2.77-4.16,5-8.68,7.49-13a2.56,2.56,0,0,0-1.95.85,136,136,0,0,1-51.78,31.85A172.73,172.73,0,0,1,331.68,295c-16.8-1.56-33.2-4.85-48.78-11.31-26.16-10.85-49.51-26.23-70.41-45.27-16.2-14.76-29.44-31.82-38.93-51.66-16.33-34.15-18.74-70-12.77-106.83C161.63,74.74,162.67,69.57,163.62,64.38ZM467.94,165.75a2.31,2.31,0,0,0-.86.08c-0.92.84-1.82,1.71-2.72,2.58-27.23,26.39-59.92,36.42-97,30.32-34.46-5.67-63.24-23-87.17-48.06C257.45,126.82,248,97.58,248.85,65c0.26-10.42,1.83-20.81,2.78-31.07a102,102,0,0,0-17.39,27.57c-9.8,23.88-9.14,48.21-2.18,72.55,6.7,23.42,20.64,42.31,38.22,58.78q36.77,34.46,87.07,36.51a127.75,127.75,0,0,0,40.76-5c22.61-6.47,42.23-17.65,56.87-36.54A97.59,97.59,0,0,0,467.94,165.75ZM208.77,460.36c0.48-1.41.82-2.37,1.12-3.34,3.49-11.23,7.44-22.34,10.33-33.72,2.72-10.7.47-21-6-30C206.76,382.93,196,378.57,183.75,378c-19-1-35.14,5.21-46.52,21.08-11.72,16.35-16.12,34.76-14.17,54.72,1.45,14.86,12,25.68,26.93,26.36,16.13,0.73,32.3.46,48.45,0.6,5.5,0,11,0,16.6,0L219.78,461ZM379.48,462c-1.14-.12-1.95-0.27-2.75-0.28-8.23-.14-16.47-0.19-24.7-0.39-4.37-.1-8.75-0.31-13.11-0.69-6.27-.55-9-4.42-7.55-10.28,0.4-1.65,1.13-2.32,2.77-2.16,0.72,0.07,1.46,0,2.19,0h44.75c1.32,0,2.74.31,3-1.73,1.09-7.62,2.73-15.2,3.31-22.85,0.86-11.41-4.71-19.59-15.63-23.14-15.74-5.12-30.45-2.14-44.06,6.88a30.5,30.5,0,0,0-11.49,14.47,123.41,123.41,0,0,0-8.29,36.11c-1,12.09,6.25,21.14,18.36,22.07,11.3,0.87,22.68.65,34,.85,5,0.09,10,0,15.09,0ZM288,400.73c-0.29,1.07-.61,2-0.83,3q-5.29,24-10.57,47.93c-0.63,2.82-.58,6.66-2.38,8.11s-5.56.59-8.45,0.62c-4.54.06-9.09,0-13.76,0-0.27-2.22-.54-4-0.67-5.72-0.77-10.47,1.81-20.48,4.06-30.56,1.71-7.67,3-15.44,4.58-23.65-6.74,0-12.56.09-18.38,0-2.12,0-3.14.45-3.58,2.73C236,414.13,233.42,425,231.49,436a176.4,176.4,0,0,0-3.06,24.78c-0.35,11.24,6.23,18.59,17.36,19.39,10.69,0.77,21.47.44,32.21,0.56,4.66,0.05,9.33,0,14.08,0l16.85-80H288Zm164.8-293.67-3.43,1.54C433,116,416.08,118.89,398.3,115.13c-16.06-3.39-30-11.06-42.57-21.41-20.29-16.77-31.29-38.07-30.59-64.79,0.12-4.64.64-9.26,1-14.53-7.71,10.37-12.71,21.23-13.84,33.7-1.37,15.13,3.27,28.68,10.48,41.73,21.53,39,62.71,50.31,97.26,41.77C434,128.17,444.54,119.63,452.84,107.06Zm2,373.26H472.1c5.84,0,5.84,0,7.79-5.31,0.32-.88.65-1.76,1-2.63,6.32-15.77,16.32-29.21,26.55-42.56,9.63-12.57,18.92-25.4,28.33-38.14a31.68,31.68,0,0,0,1.81-3.25c-8.14,0-15.64.07-23.14,0a4.81,4.81,0,0,0-4.57,2.44c-9.74,14.31-19.59,28.54-29.4,42.79-0.92,1.33-1.87,2.63-3.17,4.45-1.26-4-2.23-7.39-3.4-10.68-0.28-.79-1.24-1.88-1.91-1.9-7.27-.14-14.54-0.09-22.13-0.09a28.88,28.88,0,0,0,.47,3.09c1.83,6.62,3.72,13.23,5.56,19.85,1.76,6.35,3.28,12.79,2.17,19.4C457.37,471.9,456,475.93,454.84,480.32ZM405.59,400l-17.14,80.55c7,0,13.64.06,20.28-.1,0.64,0,1.61-1.39,1.81-2.27,1.72-7.51,3.3-15.06,4.92-22.6,2.53-11.81,5.06-23.61,7.64-35.68H472c-0.67-3.41-1.1-6.51-1.91-9.51-1.77-6.55-4.95-9.35-11.67-9.83-6.23-.44-12.5-0.51-18.75-0.55C428.42,399.94,417.16,400,405.59,400ZM115,425.24H92.47a46.11,46.11,0,0,0-2,5.52c-2.16,9.64-4.31,19.28-6.25,29-2,10-4.12,20-9,29.13-1.33,2.51-2.84,4.09-5.94,4a28,28,0,0,0-6.49.81,2.84,2.84,0,0,0-1.93,1.5c-1.53,5.91-2.89,11.85-4.52,18.7h16.1c14.62,0,22.1-5.33,26.14-19.29,2.95-10.19,5.42-20.53,7.83-30.86C109.42,451.06,112.08,438.34,115,425.24Zm-21.83-6.5c7.45,0,14.62,0,21.79-.05a2,2,0,0,0,1.52-1.16c1.26-5.55,2.41-11.13,3.68-17.16-7.47,0-14.53,0-21.58.07A2.38,2.38,0,0,0,97,402C95.65,407.45,94.45,412.93,93.13,418.74Z" transform="translate(-46.63 -12.91)"/><path d="M163.62,64.38c-0.95,5.19-2,10.36-2.83,15.57-6,36.83-3.55,72.68,12.77,106.83,9.48,19.83,22.73,36.9,38.93,51.66,20.91,19,44.26,34.43,70.41,45.27,15.58,6.46,32,9.75,48.78,11.31a172.73,172.73,0,0,0,73.25-8.48,136,136,0,0,0,51.78-31.85,2.56,2.56,0,0,1,1.95-.85c-2.48,4.35-4.73,8.86-7.49,13-23.44,35.29-56,57.29-97.29,66.54-15,3.37-30.33,4.25-45.67,3.64-48.62-1.93-90.06-20.53-124.77-54.39-23.35-22.77-40.23-49.6-49.85-80.85a158.6,158.6,0,0,1-7.15-53.93q2.09-47.28,34.43-82c0.61-.66,1.34-1.21,2-1.8Z" transform="translate(-46.63 -12.91)"/><path d="M467.94,165.75a97.59,97.59,0,0,1-13,22.06c-14.64,18.88-34.26,30.07-56.87,36.54a127.75,127.75,0,0,1-40.76,5q-50.2-2.15-87.07-36.51c-17.57-16.47-31.52-35.35-38.22-58.78-7-24.33-7.62-48.67,2.18-72.55A102,102,0,0,1,251.63,33.9c-1,10.26-2.52,20.65-2.78,31.07-0.82,32.61,8.61,61.85,31.39,85.69,23.93,25,52.71,42.39,87.17,48.06,37,6.1,69.73-3.93,97-30.32,0.9-.87,1.8-1.74,2.72-2.58A2.31,2.31,0,0,1,467.94,165.75Z" transform="translate(-46.63 -12.91)"/><path d="M208.77,460.36l11,0.6L215,480.72c-5.6,0-11.1,0-16.6,0-16.15-.14-32.32.13-48.45-0.6-14.95-.67-25.47-11.5-26.93-26.36-2-20,2.44-38.38,14.17-54.72,11.38-15.87,27.49-22,46.52-21.08,12.29,0.62,23,5,30.45,15.34,6.49,9,8.74,19.29,6,30-2.89,11.38-6.84,22.49-10.33,33.72C209.59,458,209.24,458.94,208.77,460.36Zm-22.33.18c3.56-14.1,7.37-27.63,10.28-41.35,1.46-6.87-1.23-13.09-7.44-17-9.43-5.92-27.91-3.94-33.85,10.15a106.53,106.53,0,0,0-7.9,31.69c-0.75,8.07,3.37,14.23,11.45,15.25C167.92,460.42,177,460.17,186.44,460.54Z" transform="translate(-46.63 -12.91)"/><path d="M379.48,462l-4.07,18.88c-5.12,0-10.11.07-15.09,0-11.34-.2-22.73,0-34-0.85-12.11-.93-19.35-10-18.36-22.07a123.41,123.41,0,0,1,8.29-36.11,30.5,30.5,0,0,1,11.49-14.47c13.6-9,28.31-12,44.06-6.88,10.92,3.55,16.49,11.73,15.63,23.14-0.57,7.66-2.21,15.23-3.31,22.85-0.29,2-1.71,1.73-3,1.73H336.32c-0.73,0-1.47.06-2.19,0-1.64-.16-2.37.51-2.77,2.16-1.41,5.86,1.28,9.73,7.55,10.28,4.36,0.38,8.73.59,13.11,0.69,8.23,0.2,16.47.25,24.7,0.39C377.53,461.72,378.34,461.87,379.48,462Zm-15.56-31.46c1.3-4.67.13-8.42-3.22-10.55-9.36-6-22.57-.47-25.13,10.55h28.35Z" transform="translate(-46.63 -12.91)"/><path d="M288,400.73h20.89l-16.85,80c-4.75,0-9.42,0-14.08,0-10.74-.12-21.52.21-32.21-0.56-11.13-.8-17.72-8.15-17.36-19.39A176.4,176.4,0,0,1,231.49,436c1.92-11,4.46-21.84,6.57-32.79,0.44-2.28,1.46-2.78,3.58-2.73,5.82,0.13,11.64,0,18.38,0-1.57,8.22-2.86,16-4.58,23.65-2.25,10.08-4.83,20.09-4.06,30.56,0.13,1.76.41,3.5,0.67,5.72,4.67,0,9.22,0,13.76,0,2.9,0,6.64.84,8.45-.62s1.76-5.29,2.38-8.11q5.31-24,10.57-47.93C287.44,402.77,287.75,401.8,288,400.73Z" transform="translate(-46.63 -12.91)"/><path d="M452.84,107.06c-8.31,12.57-18.86,21.11-32.77,24.55-34.55,8.54-75.73-2.82-97.26-41.77-7.21-13-11.84-26.6-10.48-41.73,1.13-12.47,6.13-23.33,13.84-33.7-0.38,5.27-.9,9.89-1,14.53-0.7,26.72,10.3,48,30.59,64.79,12.53,10.35,26.51,18,42.57,21.41,17.78,3.75,34.75.9,51.12-6.54Z" transform="translate(-46.63 -12.91)"/><path d="M454.84,480.32c1.15-4.38,2.53-8.42,3.23-12.58,1.11-6.61-.41-13.05-2.17-19.4-1.84-6.62-3.73-13.22-5.56-19.85a28.88,28.88,0,0,1-.47-3.09c7.58,0,14.86-.05,22.13.09,0.67,0,1.63,1.11,1.91,1.9,1.18,3.29,2.14,6.66,3.4,10.68,1.29-1.82,2.25-3.12,3.17-4.45,9.82-14.25,19.67-28.48,29.4-42.79a4.81,4.81,0,0,1,4.57-2.44c7.5,0.12,15,0,23.14,0a31.68,31.68,0,0,1-1.81,3.25c-9.41,12.74-18.7,25.57-28.33,38.14-10.23,13.35-20.23,26.79-26.55,42.56-0.35.87-.67,1.75-1,2.63-2,5.31-2,5.31-7.79,5.31H454.84Z" transform="translate(-46.63 -12.91)"/><path d="M405.59,400c11.56,0,22.82-.06,34.08,0,6.25,0,12.52.11,18.75,0.55,6.72,0.47,9.89,3.27,11.67,9.83,0.81,3,1.24,6.1,1.91,9.51H423.1c-2.58,12.06-5.11,23.87-7.64,35.68-1.62,7.54-3.2,15.08-4.92,22.6-0.2.88-1.17,2.25-1.81,2.27-6.64.17-13.28,0.1-20.28,0.1Z" transform="translate(-46.63 -12.91)"/><path d="M115,425.24c-2.88,13.1-5.54,25.82-8.49,38.47-2.41,10.34-4.88,20.67-7.83,30.86-4,14-11.53,19.26-26.14,19.29H56.39c1.63-6.85,3-12.79,4.52-18.7a2.84,2.84,0,0,1,1.93-1.5,28,28,0,0,1,6.49-.81c3.1,0.11,4.6-1.47,5.94-4,4.87-9.15,7-19.11,9-29.13,1.93-9.69,4.09-19.33,6.25-29a46.11,46.11,0,0,1,2-5.52H115Z" transform="translate(-46.63 -12.91)"/><path d="M93.13,418.74c1.32-5.81,2.53-11.29,3.86-16.74a2.38,2.38,0,0,1,1.55-1.56c7.05-.11,14.11-0.07,21.58-0.07-1.27,6-2.42,11.61-3.68,17.16a2,2,0,0,1-1.52,1.16C107.75,418.76,100.57,418.74,93.13,418.74Z" transform="translate(-46.63 -12.91)"/><path class="cls-1" d="M186.44,460.54c-9.41-.36-18.52-0.12-27.45-1.24-8.07-1-12.2-7.18-11.45-15.25a106.53,106.53,0,0,1,7.9-31.69c5.93-14.09,24.42-16.08,33.85-10.15,6.21,3.9,8.9,10.12,7.44,17C193.81,432.91,190,446.44,186.44,460.54Z" transform="translate(-46.63 -12.91)"/><path class="cls-1" d="M363.92,430.53H335.58c2.56-11,15.77-16.52,25.13-10.55C364.06,422.12,365.22,425.86,363.92,430.53Z" transform="translate(-46.63 -12.91)"/></svg>