<svg id="Layer_2" data-name="Layer 2" xmlns="http://www.w3.org/2000/svg" viewBox="0 0 470.47 470.48"><defs><style>.cls-1{fill:#fbfdfd;}</style></defs><title>semantic-ui</title><path d="M299.84,497c-74,0-148.1-.19-222.15.24-9.19.05-11.27-2.08-11.25-11.26q0.5-224,0-448c0-9.18,2.07-11.27,11.25-11.25q224,0.5,448,0c9.18,0,11.27,2.07,11.25,11.25q-0.5,224,0,448c0,9.18-2.07,11.31-11.25,11.26C450.38,496.76,375.11,497,299.84,497Zm6.74-79.33c24.35-.44,47.48-5.4,68.36-18.19,31.36-19.21,46.67-47.08,45.1-84.2-1.5-35.69-22.46-57.14-52.48-71.06-27.11-12.57-55.09-23.25-82.57-35-10.83-4.65-18.54-11.88-17.14-25.17s10.41-18.56,21.72-21.6c20.41-5.49,40-2.32,58.92,6.18,29.83,13.39,29.81,13.42,50.29-12.42a48.17,48.17,0,0,1,4.61-5.69c8.44-7.81,6.93-13.41-2.2-20.17q-60.79-45-133.55-25.93c-20.55,5.33-38.44,16-52,32.54-37.13,45.29-22.08,106,33.4,132.48,25.33,12.07,51.75,21.84,77.51,33,12.36,5.38,22.77,13.22,20.84,28.77-2,16.18-14.09,21.35-28.27,24.09-21.35,4.13-40.88-1.35-60.62-8.88-13.14-5-23.66-23-37.3-16.58-12.06,5.72-19.47,21.26-28.93,32.47a10.7,10.7,0,0,1-1.17,1.4c-7.55,6.29-6.65,11.21,1.16,17.21C226,406.9,264.42,418.09,306.57,417.63Z" transform="translate(-66.44 -26.72)"/><path class="cls-1" d="M306.57,417.63c-42.16.46-80.55-10.73-114.39-36.74-7.8-6-8.71-10.92-1.16-17.21a10.7,10.7,0,0,0,1.17-1.4c9.46-11.21,16.87-26.75,28.93-32.47,13.64-6.47,24.16,11.57,37.3,16.58,19.75,7.53,39.28,13,60.62,8.88,14.18-2.75,26.26-7.91,28.27-24.09,1.93-15.54-8.47-23.39-20.84-28.77-25.76-11.2-52.18-21-77.51-33-55.48-26.45-70.53-87.19-33.4-132.48,13.59-16.58,31.49-27.2,52-32.54q72.75-18.89,133.55,25.93c9.14,6.76,10.64,12.36,2.2,20.17a48.17,48.17,0,0,0-4.61,5.69c-20.47,25.84-20.46,25.81-50.29,12.42-18.95-8.5-38.51-11.67-58.92-6.18-11.31,3-20.33,8.45-21.72,21.6s6.31,20.53,17.14,25.17c27.48,11.79,55.46,22.47,82.57,35,30,13.92,51,35.38,52.48,71.06,1.57,37.12-13.74,65-45.1,84.2C354,412.23,330.92,417.18,306.57,417.63Z" transform="translate(-66.44 -26.72)"/></svg>