<?xml version="1.0" encoding="utf-8"?>
<!-- Generator: Adobe Illustrator 19.2.1, SVG Export Plug-In . SVG Version: 6.00 Build 0)  -->
<svg version="1.1" xmlns="http://www.w3.org/2000/svg" xmlns:xlink="http://www.w3.org/1999/xlink" x="0px" y="0px"
	 viewBox="0 0 595 520" style="enable-background:new 0 0 595 520;" xml:space="preserve">
<style type="text/css">
	.st0{fill:none;stroke:#000000;stroke-miterlimit:10;}
</style>
<g id="Layer_1">
	<path id="path9087" marker-start="none" marker-end="none" marker-mid="none" d="M497.1,438.6c10.6,12.8,24.5,12.4,20.2,41.5
		c-45,17.7-138.4-5.3-138.4-5.3l1.1-10.6L497.1,438.6z"/>
	<path id="path9085" marker-start="none" marker-end="none" marker-mid="none" d="M84.8,416.2c-10.6,12.8-24.5,12.4-20.2,41.5
		c45,17.7,138.4-5.3,138.4-5.3l-1.1-10.6L84.8,416.2z"/>
	<path id="path9046" marker-start="none" marker-end="none" marker-mid="none" class="st0" d="M77.5,93.5
		c63.9-38,409.1-129.3,469.9,31.9c63.9,193.1-5.4,277.6-24.3,301.1c-54.7,59.3-325.5,54.7-471.5-15.2
		C-15.2,291.2,43.3,113.9,77.5,93.5L77.5,93.5L77.5,93.5z"/>
	<path id="path9048" marker-start="none" marker-end="none" marker-mid="none" d="M95.1,128.9c45.9-29.6,294.2-100.8,338,24.9
		c45.9,150.6-3.9,216.4-17.5,234.7c-39.4,46.2-234.1,42.7-339.1-11.9C28.4,283,70.5,144.8,95.1,128.9L95.1,128.9L95.1,128.9z"/>
</g>
<g id="Layer_2">
	<g>
	</g>
	<g>
	</g>
	<g>
	</g>
	<g>
	</g>
	<g>
	</g>
	<g>
	</g>
	<g>
	</g>
	<g>
	</g>
	<g>
	</g>
	<g>
	</g>
	<g>
	</g>
	<g>
	</g>
	<g>
	</g>
	<g>
	</g>
	<g>
	</g>
</g>
</svg>
