<?xml version="1.0" encoding="utf-8"?>
<!-- Generator: Adobe Illustrator 23.0.6, SVG Export Plug-In . SVG Version: 6.00 Build 0)  -->
<svg version="1.1" id="Layer_1" xmlns="http://www.w3.org/2000/svg" xmlns:xlink="http://www.w3.org/1999/xlink" x="0px" y="0px"
	 viewBox="0 0 1500 1500" style="enable-background:new 0 0 1500 1500;" xml:space="preserve">
<style type="text/css">
	.st0{fill:#008D7C;}
	.st1{fill:#FFFFFF;}
	.st2{fill:#FFFFFF;fill-opacity:0.9412;}
</style>
<g>
	<rect class="st0" width="1500" height="1500"/>
</g>
<g id="g1102" transform="matrix(1.0734816,0,0,1.0734816,-18.811302,-23.872263)">
	<g id="g931">
		<path id="path4852" class="st1" d="M950.9,794.1h18.2v18.2h-18.2V794.1z M950.9,925.9v-92.5h18.2v92.5H950.9z M1092,794.1h18.2
			v18.2H1092V794.1z M1092,925.9v-92.5h18.2v92.5H1092z M912.3,913.8c-2.9,4.6-6.8,8.2-11.8,10.7c-5.4,2.5-10.4,3.6-15.7,3.6
			c-5.7,0-10.7-0.7-15-2.5s-7.9-4.3-11.1-7.5c-4.3-4.6-7.9-10-10-16.8s-3.2-13.9-3.2-21.4c0-8.2,1.1-15.4,3.6-22.5
			c2.5-6.8,5.7-12.5,10.4-17.2c3.2-2.9,6.8-5,10.7-6.8c4.3-1.8,8.9-2.5,14.6-2.5c2.5,0,5,0.4,7.9,1.1c2.5,0.7,5,1.4,7.5,2.5
			s4.6,2.5,6.8,4.3c2.1,1.8,3.6,3.6,5,5.7v-50.4h15.7v132.2l-14.3-0.4L912.3,913.8z M912.3,879.8c0-5.7-0.7-11.4-2.1-16.4
			c-1.4-5.4-4.3-9.6-8.2-12.9c-1.8-1.8-3.9-3.2-6.4-4.3s-5.4-1.8-8.6-1.8c-5,0-9.3,1.1-12.9,3.2c-3.6,2.1-6.1,4.6-8.2,8.2
			c-1.8,3.6-3.2,7.1-4.3,11.4c-0.7,4.3-1.1,8.6-1.1,12.9s0.4,8.6,1.1,12.9c0.7,4.3,2.1,7.9,4.3,11.4c1.8,3.6,4.6,6.1,8.2,8.2
			c3.6,2.1,7.9,3.2,12.9,3.2c3.6,0,6.4-0.7,8.6-1.8c2.5-1.1,4.6-2.5,6.4-4.3c3.9-3.6,6.4-7.9,8.2-12.9
			C911.6,891.2,912.3,885.5,912.3,879.8L912.3,879.8z M1073.8,939.8c0,3.9-0.7,7.5-2.1,10.7s-3.2,5.7-5.7,7.9
			c-2.1,2.1-4.6,3.9-7.9,5.4c-2.9,1.4-6.1,2.5-9.3,3.2c-3.2,0.7-6.8,1.4-10,1.8c-3.6,0.4-6.8,0.4-10,0.4s-6.1,0-9.3-0.4
			s-6.4-0.7-9.3-1.8c-3.2-0.7-6.1-1.8-8.9-3.2c-2.9-1.4-5.4-3.2-7.5-5.4c-1.8-1.8-3.6-4.3-4.6-6.8c-1.1-2.9-1.8-5.7-1.8-9.6
			c0-5,1.4-8.9,3.9-12.5s5.7-6.1,9.3-7.9c-3.2-1.1-5.7-3.2-7.9-6.1c-2.1-2.9-2.9-6.1-2.9-9.6c0-4.3,1.1-7.9,3.6-10.7
			c2.1-3.2,5.4-5.4,8.9-7.1c-3.6-3.2-6.1-6.8-7.9-11.1c-1.8-4.3-2.9-8.6-2.9-12.9c0-5,0.7-9.3,2.5-12.9c1.4-3.6,3.6-6.8,6.4-9.6
			c3.2-3.2,7.1-5.7,11.4-7.9c4.3-1.8,9.6-2.9,16.1-2.9c4.3,0,8.2,0.4,11.8,1.4c3.6,1,6.8,2.1,9.3,3.9c1.4-4.3,3.9-7.5,7.5-9.6
			c3.2-2.1,7.1-3.2,11.8-3.2c0.7,0,1.4,0,2.1,0s1.4,0,2.1,0.4v12.5c-0.4,0-1.1-0.4-1.8-0.4h-1.8c-3.2,0-5.7,0.7-7.5,2.1
			c-2.1,1.4-3.2,3.6-3.6,6.1c1.8,2.5,3.6,5.4,4.6,8.2c1.1,3.2,1.4,6.8,1.4,10.7c0,4.3-0.7,8.6-2.1,12.1c-1.4,3.9-3.6,7.1-6.1,10
			c-3.2,3.2-6.8,6.1-11.4,7.9c-4.6,2.1-10,2.9-16.1,2.9c-3.2,0-5.7-0.4-7.9-0.7s-4.6-1.1-7.5-2.1c-1.8,0.7-3.6,1.4-5.4,2.9
			s-2.5,3.2-2.5,5.4c0,2.1,0.4,3.6,1.4,5c1.1,1.1,2.1,2.1,3.2,2.9c1.4,0.7,2.9,1.1,4.6,1.4c1.8,0.4,3.2,0.4,4.6,0.4h18.2
			c5.4,0,11.1,0.7,16.8,2.1s10.4,3.9,13.9,7.9c2.1,2.1,3.9,4.6,5.4,7.9C1073.1,932.3,1073.8,935.9,1073.8,939.8L1073.8,939.8z
			 M1058.4,939.8c0-3.6-0.7-6.1-2.1-8.2c-1.4-1.8-3.6-3.6-5.7-4.3c-2.5-1.1-5-1.4-7.9-1.8c-2.9-0.4-5.7-0.4-8.6-0.4h-21.4
			c-3.2,1.1-6.1,2.9-8.2,5.4c-2.1,2.5-3.6,5.7-3.6,9.3c0,3.9,1.4,7.1,3.9,9.6c1.4,1.4,3.2,2.5,5.4,3.6c2.1,0.7,4.3,1.4,6.4,1.8
			s4.3,0.7,6.8,0.7c2.1,0,4.3,0.4,6.4,0.4c1.8,0,3.9,0,6.4-0.4c2.1,0,4.6-0.4,6.8-1.1c2.1-0.4,4.6-1.1,6.4-2.1
			c2.1-0.7,3.9-2.1,5.4-3.6C1057.4,946.6,1058.4,943.4,1058.4,939.8L1058.4,939.8z M1047.7,864.1c0-5.7-1.8-10.7-5.7-14.6
			c-3.6-3.9-8.9-5.7-15.4-5.7c-6.4,0-11.4,1.8-15.4,5.7c-3.9,3.9-5.7,8.6-5.7,14.6c0,5.7,1.8,10.7,5.7,14.6
			c3.6,3.9,8.9,6.1,15.4,6.1c6.4,0,11.4-2.1,15.4-6.1C1046,874.7,1047.7,869.8,1047.7,864.1z M1185.3,926.6
			c-2.9,0.7-6.8,0.7-10.7,0.7c-5,0-9.3-0.7-12.5-2.1s-5.7-3.2-7.9-5.7c-1.8-2.1-3.2-5-3.9-7.9s-1.1-6.1-1.1-9.3v-55.4h-17.9v-13.2
			h17.9v-23.9l15.7-3.6v27.2h27.5v13.2h-27.5v53.6c0,4.6,1.1,7.9,2.9,9.6c2.1,1.8,5,2.9,9.3,2.9c1.8,0,3.6,0,5.4-0.4
			c1.8,0,3.6-0.4,5-0.7c1.8-0.4,3.6-0.7,5.4-1.1v14.3C1190.6,925.5,1188.1,925.9,1185.3,926.6L1185.3,926.6z M1296.8,925.2
			c-1.8,0.7-3.2,1.4-5,1.8c-1.4,0.4-3.2,0.4-5.4,0.4c-4.3,0-7.5-1.4-9.6-4.3c-2.5-2.9-3.6-6.1-3.6-10h-0.4
			c-2.9,4.6-6.8,8.2-12.1,11.1c-5.4,2.9-11.1,4.3-17.9,4.3c-5.4,0-10-0.7-13.9-2.5s-7.1-3.9-10-6.4c-2.5-2.9-4.6-5.7-6.1-9.3
			c-1.4-3.6-2.1-6.8-2.1-10.4c0-2.9,0.4-6.1,1.4-9.3c1.1-3.2,2.9-6.4,5.4-8.9c2.5-2.9,6.1-5,10-7.1c4.3-1.8,9.6-3.2,15.7-3.6
			l28.2-1.8v-6.8c0-2.1-0.4-4.6-0.7-7.1c-0.7-2.5-1.8-4.6-3.9-6.8c-1.4-1.4-3.6-2.5-6.1-3.6c-2.5-0.7-5.4-1.4-9.3-1.4
			c-4.3,0-7.9,0.4-10.4,1.4c-2.9,1.1-4.6,2.5-6.4,3.9c-3.2,3.2-4.6,6.8-4.6,11.1h-15.4c0-4.3,0.7-7.9,2.1-11.1s3.2-5.7,5.7-8.2
			c3.2-3.2,7.1-5.7,12.5-7.5c5-1.8,10.4-2.5,16.1-2.5c8.9,0,16.1,1.8,21.4,5c5.4,3.2,8.9,7.5,11.1,12.9c1.8,4.3,2.9,8.9,2.9,14.3
			v44.7c0,2.5,0.4,3.9,1.4,5c1.1,0.7,2.1,1.4,3.6,1.4h1.4c0.4,0,1.1,0,1.4-0.4l1.4-0.4v12.1L1296.8,925.2z M1247.1,882.7
			c-2.1,0-4.6,0.4-7.1,1.1c-2.5,0.7-4.6,1.8-6.4,2.9c-1.8,1.4-3.6,2.9-4.6,5c-1.1,2.1-1.8,4.6-1.8,7.5c0,4.3,1.4,7.9,4.3,11.1
			c2.9,3.2,7.5,5,13.9,5c3.6,0,7.1-0.7,10.4-1.8c3.2-1.1,6.1-3.2,8.6-5.7c2.9-2.9,4.6-6.1,6.1-9.6c1.1-3.6,1.8-7.5,1.8-11.4v-5.4
			L1247.1,882.7z M1338.2,925.9c-0.7,0.4-1.8,0.4-2.9,0.7c-1.8,0.4-4.6,0.7-8.2,0.7c-6.8,0-11.8-1.8-14.6-5.7
			c-3.2-3.9-4.6-9.6-4.6-16.8V794.1h15.7v109.7c0,3.2,0.7,5.7,1.8,7.1c1.1,1.4,3.6,2.5,6.4,2.5h5c0.4,0,1.1,0,1.4-0.4L1338.2,925.9
			L1338.2,925.9z"/>
		<path id="path4854" class="st1" d="M741.9,825.5c-27.5,0-50,23.2-50,51.5c0,28.6,22.5,51.5,50,51.5s50-23.2,50-51.5
			C792.2,848.7,769.7,825.5,741.9,825.5 M741.9,904.5c-14.3,0-25.7-12.1-25.7-27.2c0-15,11.4-27.2,25.7-27.2s25.7,12.1,25.7,27.2
			C767.6,892.3,756.2,904.5,741.9,904.5 M427.4,828.4h-18.6c-1.4,0-3.2,1.1-3.6,2.9l-15.4,47.2l-26-50.5c-0.7-1.4-2.5-2.5-4.3-2.5
			h-1.8c-1.4,0-3.6,1.1-4.3,2.5l-26.1,50.4L312,831.2c-0.4-1.4-2.1-2.9-3.6-2.9h-18.6c-2.5,0-3.6,1.8-2.9,3.9l30,93.6
			c0.4,1.4,2.1,2.9,3.6,2.9h2.9c1.4,0,3.6-1.1,4.3-2.5l30.7-59.3l30.7,59.3c0.7,1.4,2.5,2.5,4.3,2.5h2.9c1.4,0,3.2-1.1,3.6-2.9
			l30-93.6C431,830.5,429.6,828.4,427.4,828.4 M470.3,828.4h-18.6c-2.5,0-4.3,1.8-4.3,4.3v89c0,2.5,1.8,4.3,4.3,4.3h18.6
			c2.5,0,4.3-1.8,4.3-4.3v-89C474.6,830.5,472.8,828.4,470.3,828.4 M551.8,825.5c-12.9,0-24.3,5.7-32.9,14.6l0,0l-3.2-8.9
			c-0.7-1.4-2.1-2.9-3.9-2.9h-8.6c-2.5,0-4.3,1.8-4.3,4.3V973c0,2.5,1.8,4.3,4.3,4.3h18.6c2.5,0,4.3-1.8,4.3-4.3v-48.6
			c7.9,2.9,16.4,4.3,25.7,4.3c26.1,0,47.2-23.2,47.2-51.5C598.9,848.7,577.9,825.5,551.8,825.5 M546.8,904.5c-7.9,0-15-2.1-20.7-5.4
			v-37.2c4.6-7.1,12.1-12.1,20.7-12.1c13.9,0,25,12.1,25,27.2C571.8,892.3,560.7,904.5,546.8,904.5 M667.9,825.5
			c-17.9,0-28.2,14.6-28.2,14.6l-3.2-8.9c-0.7-1.4-2.1-2.9-3.9-2.9h-8.9c-2.5,0-4.3,1.8-4.3,4.3v89c0,2.5,1.8,4.3,4.3,4.3h18.6
			c2.5,0,4.3-1.8,4.3-4.3v-62.2c10.7-13.2,24.7-8.6,27.5-7.5c2.9,1.1,5-0.4,5.7-2.1c0.7-1.8,5-11.1,6.4-14.6
			C687.9,831.9,685.8,825.5,667.9,825.5 M465,782.6c-7.9-2.1-16.4,2.5-18.6,10.7c-2.1,7.9,2.5,16.4,10.7,18.6
			c7.9,2.1,16.4-2.5,18.6-10.7C477.8,793.3,473.2,784.8,465,782.6"/>
	</g>
	<g id="g1094">
		<path id="path4850" class="st2" d="M237.7,856.6c0,5.4-0.7,11.1-2.1,16.8c-1.4,5.7-3.6,11.1-6.4,15.7c-2.9,4.6-6.8,8.6-11.4,11.8
			c-4.6,3.2-10.4,4.6-17.2,4.6c-4.6,0-8.6-1.1-11.8-3.2c-3.2-2.1-5.4-5.7-6.1-10.4c-1.8,4.3-4.6,7.5-8.9,10
			c-4.3,2.5-8.6,3.6-12.9,3.6c-4.6,0-8.9-0.7-12.5-2.5s-6.4-4.3-8.9-7.1c-2.5-3.2-4.3-6.8-5.4-11.1c-1.1-4.3-1.8-8.9-1.8-13.9
			s0.7-10,2.1-14.6c1.4-4.6,3.6-8.6,6.4-11.8s6.4-6.1,10.4-7.9c4.3-2.1,8.9-2.9,14.3-2.9c3.6,0,6.8,0.7,10,2.5s5.7,3.9,7.5,7.1
			l2.1-7.5h12.1l-3.2,46.1c0,1.4,0,2.9,0,3.9c0,1.4,0.4,2.5,1.1,3.6c0.7,1.1,1.4,2.1,2.5,2.5c1.1,0.7,2.5,1.1,3.9,1.1
			c3.9,0,7.5-1.4,10-3.9s5-5.7,6.4-9.6c1.4-3.9,2.9-7.5,3.6-11.8c0.7-4.3,1.1-7.9,1.1-10.7c0-7.5-1.1-14.3-3.6-19.7
			c-2.1-5.7-5.4-10.4-9.6-14.6c-4.6-4.6-10.4-8.2-17.2-10.7s-14.3-3.6-22.9-3.6s-16.1,1.4-23.2,3.9c-6.8,2.5-12.9,6.1-17.9,10.7
			c-6.1,5.4-11.1,12.1-14.3,20c-3.2,7.9-5,17.2-5,27.2c0,8.6,1.4,16.4,4.3,23.6s6.8,13.6,11.8,18.9c5,5,10.7,8.9,17.2,11.4
			c6.8,2.9,13.9,3.9,22.2,3.9c8.3,0,16.1-0.7,23.2-1.8c7.1-1.4,14.6-3.6,22.5-6.8v12.9c-7.1,3.6-14.6,6.1-22.5,7.1
			c-7.5,1.4-15.4,1.8-23.6,1.8c-10,0-18.9-1.4-27.2-4.6c-8.2-3.2-15.4-7.5-21.4-12.9c-7.1-6.4-12.9-14.6-16.4-24.3
			c-3.5-9.7-5.4-19.7-5.4-31.4c0-11.4,1.8-21.4,5.7-30c3.6-8.9,8.9-16.4,15.7-22.9c6.8-6.4,14.6-11.8,23.9-15.4
			c9.3-3.6,19.3-5.4,30.7-5.4c10.4,0,20,1.8,28.9,5c8.6,3.2,16.1,7.9,22.5,14.3c5.4,5.4,9.6,11.4,12.5,18.6
			C236.3,839.1,237.7,847.3,237.7,856.6L237.7,856.6z M182,866.6c0-2.5-0.4-5.4-0.7-7.9c-0.7-2.5-1.4-4.6-2.9-6.8
			c-1.4-1.8-2.9-3.6-5-4.6c-2.1-1.1-4.6-1.8-7.9-1.8c-3.3,0-6.1,0.7-8.2,2.5c-2.1,1.4-3.9,3.6-5.4,6.1c-1.4,2.5-2.5,5-2.9,7.9
			c-0.7,2.9-0.7,5.7-0.7,8.6c0,2.5,0.4,5,0.7,7.5c0.4,2.5,1.4,5,2.5,6.8c1.1,2.1,2.9,3.6,4.6,5c2.1,1.4,4.6,1.8,7.5,1.8
			c3.6,0,6.8-0.7,8.9-2.1c2.1-1.4,4.3-3.6,5.7-6.1s2.5-5,2.9-8.2C181.6,872.7,182,869.4,182,866.6z"/>
		<path id="path4848" class="st2" d="M930.4,640.9l-2.1-23.3c-4.8,8.9-13,15.8-22.6,20.6c-10.3,4.8-19.9,6.9-30.2,6.9
			c-11,0-20.6-1.4-28.8-4.8c-8.9-3.4-15.8-8.2-21.3-14.4c-8.2-8.9-15.1-19.2-19.2-32.2c-4.1-13-6.2-26.8-6.2-41.2
			c0-15.1,2.1-29.5,6.9-42.5c4.8-13,11-24,19.9-32.9c5.5-5.5,13-9.6,20.6-13c8.2-3.4,17.2-4.8,28.1-4.8c4.8,0,9.6,0.7,15.1,2.1
			c4.8,1.4,9.6,2.7,14.4,4.8c4.8,2.1,8.9,4.8,13,7.5c4.1,3.4,6.9,6.9,9.6,11v-96.1h29.5v252.5h-26.7V640.9z M928.3,552.4
			c0-11-1.4-22-4.1-31.6c-2.7-9.6-8.2-17.8-15.1-24.7c-3.4-3.4-7.5-6.2-12.4-8.2c-4.8-2.1-10.3-3.4-16.5-3.4
			c-9.6,0-17.8,2.1-24.7,6.2s-11.7,8.9-15.1,15.8c-3.4,6.9-6.2,13.7-7.5,22c-1.4,8.2-2.1,16.5-2.1,24c0,8.2,0.7,16.5,2.1,24
			c1.4,8.2,4.1,15.1,7.5,22s8.9,11.7,15.1,15.8c6.9,4.1,14.4,6.2,24.7,6.2c6.9,0,12.4-1.4,16.5-3.4c4.8-2.1,8.2-4.8,12.4-8.2
			c7.5-6.9,12.4-14.4,15.1-24.7C927,573.7,928.3,563.4,928.3,552.4z M633.3,422.7v-35h34.3v35H633.3z M635.3,640.9v-177h30.2v177
			H635.3z M397.2,552.4c0,14.4-2.1,28.1-6.2,41.2c-4.1,13-11,23.3-19.2,32.2c-6.2,6.2-13,11-21.3,14.4c-8.2,3.4-17.8,4.8-28.8,4.8
			c-10.3,0-19.9-2.1-30.2-6.9c-10.3-4.8-17.8-11.7-22.6-20.6l-2.1,23.3h-26.1V387.7h29.5v96.1c2.1-4.1,5.5-7.5,9.6-11
			c4.1-3.4,8.2-5.5,13-7.5c4.8-2.1,9.6-3.4,14.4-4.8s10.3-2.1,15.1-2.1c10.3,0,19.9,1.4,28.1,4.8s15.1,7.5,20.6,13
			c8.9,8.9,15.8,19.2,19.9,32.9C395.2,522.9,397.2,537.3,397.2,552.4L397.2,552.4z M367.1,552.4c0-8.2-0.7-16.5-2.1-24
			c-1.4-8.2-4.1-15.1-7.5-22c-3.4-6.9-8.9-11.7-15.1-15.8c-6.9-4.1-14.4-6.2-24.7-6.2c-6.9,0-12.4,1.4-16.5,3.4
			c-4.8,2.1-8.2,4.8-12.4,8.2c-7.5,6.9-12.4,15.1-15.1,24.7c-2.7,9.6-4.1,20.6-4.1,31.6s1.4,22,4.1,31.6s8.2,17.8,15.1,24.7
			c2.7,3.4,6.9,6.2,11.7,8.2c4.8,2.1,10.3,3.4,16.5,3.4c9.6,0,17.8-2.1,24.7-6.2c6.9-4.1,11.7-8.9,15.1-15.8
			c3.4-6.9,6.2-13.7,7.5-22C366.4,568.2,367.1,560.6,367.1,552.4L367.1,552.4z M553,640.9l-2.7-26.8c-4.8,10.3-11.7,17.8-22,23.3
			c-9.6,5.5-19.9,7.5-30.9,7.5c-20.6,0-35.7-5.5-45.3-17.2c-10.3-11.7-15.1-27.4-15.1-48v-116h30.2v111.8c0,13,2.7,24,8.2,30.9
			c5.5,7.5,15.1,11,29.5,11c6.2,0,11.7-1.4,16.5-3.4c4.8-2.7,8.9-5.5,13-9.6c5.5-5.5,9.6-13,11.7-22c2.1-8.9,3.4-17.8,3.4-26.8
			v-91.9H579v177h-26V640.9z M778.7,640.9c-1.4,0.7-3.4,0.7-5.5,1.4c-3.4,0.7-8.9,1.4-15.8,1.4c-13,0-22.6-3.4-28.1-11
			c-6.2-7.5-8.9-18.5-8.9-32.2V387.7h29.5V597c0,6.2,1.4,10.3,3.4,13.7c2.1,2.7,6.9,4.8,12.4,4.8h9.6c0.7,0,2.1,0,2.7-0.7v26.1
			L778.7,640.9z M1010.7,422.7v-35h34.3v35H1010.7z M1012.7,640.9v-177h30.2v177H1012.7z M1191.1,638.2c-4.1,1.4-8.9,2.1-14.4,3.4
			c-5.5,1.4-12.4,1.4-20.6,1.4c-9.6,0-17.2-1.4-24-4.1c-6.9-2.7-11-6.2-15.1-11c-3.4-4.1-6.2-9.6-7.5-15.1
			c-1.4-5.5-2.1-11.7-2.1-17.8V489.3h-34.3v-25.4h34.3v-45.3l29.5-6.9v52.1h52.1v25.4h-52.1v102.2c0,8.9,2.1,15.1,5.5,18.5
			c4.1,3.4,9.6,5.5,17.8,5.5c3.4,0,6.9,0,10.3-0.7c3.4,0,6.9-0.7,9.6-1.4c3.4-0.7,6.9-1.4,10.3-2.1V638L1191.1,638.2z"/>
	</g>
</g>
</svg>
