<?xml version="1.0" encoding="utf-8"?>
<!-- Generator: Adobe Illustrator 23.0.6, SVG Export Plug-In . SVG Version: 6.00 Build 0)  -->
<svg version="1.1" id="Layer_1" xmlns="http://www.w3.org/2000/svg" xmlns:xlink="http://www.w3.org/1999/xlink" x="0px" y="0px"
	 viewBox="0 0 96 96" style="enable-background:new 0 0 96 96;" xml:space="preserve">
<style type="text/css">
	.st0{fill:#008D7C;}
	.st1{fill:#FFFFFF;fill-opacity:0.9412;}
</style>
<g>
	<rect class="st0" width="96" height="96"/>
</g>
<g>
	<path class="st1" d="M67.2,35.4c-1.6-1.7-3.9-3-6.4-4.1c-2.6-1-5.6-1.5-8.9-1.5c-1.5,0-3.3,0.2-4.8,0.6s-3,0.9-4.5,1.5
		s-2.9,1.4-4.1,2.4c-1.3,1.1-2.4,2.1-3,3.5V7.6h-9.3v79.5h8.3l0.6-7.3c1.5,2.8,3.9,4.9,7,6.4c3.3,1.5,6.3,2.1,9.5,2.1
		c3.4,0,6.4-0.5,9-1.5c2.5-1.1,4.8-2.6,6.6-4.5c2.6-2.9,4.8-6,6-10.1c1.4-4.1,1.9-8.4,1.9-12.9l0,0c0-4.8-0.6-9.3-1.9-13.5
		C72.1,41.4,70.1,38.2,67.2,35.4z M65.1,66.8c-0.5,2.6-1.4,4.8-2.4,6.9c-1.1,2.1-2.6,3.6-4.8,5c-2.1,1.3-4.8,1.9-7.8,1.9
		c-2,0-3.6-0.4-5.1-1.1c-1.5-0.6-2.9-1.5-3.6-2.5c-2.1-2.1-3.9-4.8-4.8-7.8s-1.3-6.5-1.3-9.9c0-3.4,0.4-6.9,1.3-9.9s2.4-5.6,4.8-7.8
		c1.4-1.1,2.4-1.9,3.9-2.6c1.3-0.6,3-1,5.1-1c3.3,0,5.6,0.6,7.8,2c1.9,1.3,3.6,2.8,4.8,4.9c1,2.1,1.9,4.4,2.4,6.9
		c0.5,2.4,0.6,5,0.6,7.5C66,61.8,65.7,64.2,65.1,66.8z"/>
</g>
</svg>
