<?xml version="1.0" standalone="no"?>
<!DOCTYPE svg PUBLIC "-//W3C//DTD SVG 20010904//EN"
 "http://www.w3.org/TR/2001/REC-SVG-20010904/DTD/svg10.dtd">
<svg version="1.0" xmlns="http://www.w3.org/2000/svg"
 width="700.000000pt" height="700.000000pt" viewBox="0 0 700.000000 700.000000"
 preserveAspectRatio="xMidYMid meet">
<metadata>
Created by potrace 1.11, written by Peter Selinger 2001-2013
</metadata>
<g transform="translate(0.000000,700.000000) scale(0.100000,-0.100000)"
fill="#000000" stroke="none">
<path d="M3285 6644 c-159 -13 -565 -81 -581 -97 -2 -2 -3 -401 -2 -886 l3
-883 50 39 c328 257 782 347 1208 239 602 -153 1012 -740 1044 -1496 17 -406
-87 -801 -294 -1114 -79 -120 -262 -309 -368 -378 -148 -97 -326 -169 -495
-199 -116 -21 -421 -18 -545 5 -217 40 -430 136 -578 259 -26 22 -50 38 -52
35 -2 -2 -9 -44 -15 -93 -5 -50 -13 -107 -16 -127 l-6 -38 -324 0 -324 0 0
2175 c0 1196 -2 2175 -5 2175 -10 0 -208 -121 -275 -168 -441 -309 -787 -707
-1024 -1179 -164 -327 -263 -660 -318 -1063 -16 -125 -16 -575 0 -700 55 -403
154 -736 318 -1063 445 -887 1277 -1508 2259 -1686 214 -38 298 -45 555 -45
257 0 341 7 555 45 982 178 1814 799 2259 1686 164 327 263 660 318 1063 7 56
12 199 12 350 0 257 -7 341 -45 555 -178 982 -799 1814 -1686 2259 -318 159
-648 260 -1021 311 -104 15 -505 27 -607 19z"/>
<path d="M3395 4503 c-150 -18 -316 -85 -412 -165 -196 -163 -306 -431 -320
-783 -18 -429 94 -754 325 -947 65 -54 211 -123 307 -144 108 -24 295 -24 390
1 171 43 301 139 412 305 120 179 183 423 183 711 0 307 -69 548 -211 740 -81
110 -177 187 -295 237 -94 39 -264 60 -379 45z"/>
</g>
</svg>
