<?xml version="1.0" standalone="no"?>
<!DOCTYPE svg PUBLIC "-//W3C//DTD SVG 20010904//EN"
 "http://www.w3.org/TR/2001/REC-SVG-20010904/DTD/svg10.dtd">
<svg version="1.0" xmlns="http://www.w3.org/2000/svg"
 width="700.000000pt" height="700.000000pt" viewBox="0 0 700.000000 700.000000"
 preserveAspectRatio="xMidYMid meet">
<metadata>
Created by potrace 1.11, written by Peter Selinger 2001-2013
</metadata>
<g transform="translate(0.000000,700.000000) scale(0.100000,-0.100000)"
fill="#000000" stroke="none">
<path d="M1828 6148 c-3 -11 -2 -5206 1 -5230 1 -5 163 -8 361 -8 281 0 360 3
361 13 1 15 5 55 13 122 3 28 8 72 11 99 6 58 8 61 26 44 8 -7 46 -37 84 -66
185 -138 446 -238 695 -268 78 -9 343 -10 420 -2 140 16 323 64 410 108 19 10
37 17 41 16 11 -3 169 95 245 152 195 148 352 344 471 591 30 64 57 121 58
126 1 6 5 17 8 25 28 63 80 243 93 315 6 35 14 79 19 100 4 19 10 76 20 180 6
62 6 305 0 365 -12 124 -20 183 -35 255 -18 88 -21 99 -32 140 -6 22 -12 45
-14 50 -1 6 -12 38 -23 73 -21 64 -27 80 -77 187 -15 33 -28 62 -28 65 -6 32
-162 275 -212 330 -52 57 -158 160 -165 160 -5 0 -9 4 -9 9 0 14 -157 124
-249 175 -72 40 -220 100 -271 111 -8 2 -33 8 -56 14 -173 46 -446 58 -634 26
-14 -2 -41 -7 -60 -10 -101 -17 -274 -77 -385 -133 -62 -31 -174 -102 -241
-153 -28 -21 -54 -39 -57 -39 -4 0 -7 466 -7 1035 l0 1035 -389 0 c-302 0
-390 -3 -393 -12z m1812 -2372 c159 -25 294 -96 410 -215 169 -174 276 -419
307 -706 8 -79 8 -346 0 -410 -4 -27 -9 -70 -12 -95 -12 -89 -51 -225 -91
-315 -10 -22 -17 -43 -16 -47 1 -5 -3 -8 -9 -8 -5 0 -7 -4 -4 -10 3 -5 1 -10
-5 -10 -6 0 -8 -4 -5 -10 3 -5 1 -10 -4 -10 -6 0 -11 -5 -11 -11 0 -17 -97
-152 -141 -198 -107 -109 -240 -187 -354 -207 -16 -3 -47 -9 -67 -15 -46 -12
-286 -5 -353 10 -403 93 -635 384 -701 881 -18 129 -8 519 15 583 4 12 7 29 6
37 -1 8 3 21 8 28 6 7 7 15 4 18 -8 9 47 163 87 244 54 106 90 156 180 245 66
65 101 91 186 135 58 29 105 52 105 51 0 -2 20 2 45 9 118 33 305 44 420 26z"/>
</g>
</svg>
