<?xml version="1.0" standalone="no"?>
<!DOCTYPE svg PUBLIC "-//W3C//DTD SVG 20010904//EN"
 "http://www.w3.org/TR/2001/REC-SVG-20010904/DTD/svg10.dtd">
<svg version="1.0" xmlns="http://www.w3.org/2000/svg"
 width="512.000000pt" height="512.000000pt" viewBox="0 0 512.000000 512.000000"
 preserveAspectRatio="xMidYMid meet">
<metadata>
Created by potrace 1.11, written by Peter Selinger 2001-2013
</metadata>
<g transform="translate(0.000000,512.000000) scale(0.100000,-0.100000)"
fill="#000000" stroke="none">
<path d="M2335 4853 c-87 -11 -235 -35 -296 -49 l-69 -16 0 -644 c0 -354 2
-644 5 -644 2 0 28 18 57 41 71 54 235 133 331 159 154 42 378 42 541 0 468
-120 779 -623 753 -1215 -9 -209 -46 -361 -131 -541 -131 -276 -351 -471 -615
-543 -319 -88 -720 -11 -923 177 -33 30 -34 28 -45 -83 l-8 -80 -237 -3 -238
-2 0 1585 c0 872 -2 1585 -5 1585 -14 0 -200 -120 -283 -182 -120 -91 -302
-265 -396 -381 -274 -338 -448 -746 -502 -1177 -18 -150 -18 -419 1 -567 66
-504 280 -950 626 -1308 197 -204 392 -345 644 -470 325 -160 648 -235 1015
-235 370 0 702 78 1023 239 257 129 449 270 645 475 411 432 632 985 632 1586
0 351 -73 680 -217 982 -115 239 -243 424 -425 613 -368 384 -838 620 -1371
690 -107 14 -425 19 -512 8z"/>
<path d="M2396 3284 c-200 -48 -356 -216 -417 -449 -27 -102 -37 -332 -20
-459 41 -303 195 -500 441 -562 92 -23 273 -15 352 15 166 64 294 231 350 458
19 74 22 117 22 263 1 149 -3 188 -22 265 -36 144 -90 244 -180 335 -114 113
-205 150 -372 149 -52 0 -121 -7 -154 -15z"/>
</g>
</svg>
