<?xml version="1.0" encoding="utf-8"?>
<!-- Generator: Adobe Illustrator 22.1.0, SVG Export Plug-In . SVG Version: 6.00 Build 0)  -->
<svg version="1.1" id="Capa_1" xmlns="http://www.w3.org/2000/svg" xmlns:xlink="http://www.w3.org/1999/xlink" x="0px" y="0px"
	 width="300px" height="160px" viewBox="0 0 300 160" style="enable-background:new 0 0 300 160;" xml:space="preserve">
<style type="text/css">
	.st0{fill:#00A651;}
	.st1{fill:#A6CE3A;}
	.st2{fill:#FFF200;}
	.st3{fill:#FFFFFF;}
</style>
<g>
	<g>
		<path class="st0" d="M98.1,52.4c0,0,0.6-8.8,1.8-11.6c0,0,5.5,4.6,8.5,7.5c0,0,3.2-7.2,5.6-9.7c0,0,5.3,7.2,5.5,10
			c0,0,6.2-6.7,8.8-7.8c0,0,1.5,8.1,1.8,11.3c0,0,5.6-2.7,10.7-4.3c0,0-0.8,8.1-2.4,11.6c0,0,7.5-0.6,11.6-0.1c0,0-2.4,6.4-6.1,9.7
			c0,0,8.5,1.5,11.3,4c0,0-6.1,5-9.3,7.2c0,0,4.7,2.4,9.1,7c0,0-4.1,2.6-10.7,3.7c0,0,4.7,7,5.6,10c0,0-6.9,0.6-11.6-0.6
			c0,0,2.1,6.9,2.3,11.6c0,0-8.2-2.6-10.8-4.4c0,0-0.3,8.2-1.5,11.6c0,0-5.8-4.7-8.8-7.5c0,0-3.2,7.8-5.3,9.9c0,0-3.6-4.7-5.8-9.9
			c0,0-7.2,6.9-8.7,7.5c0,0-2-8.4-1.7-11.4c0,0-6.7,3.3-11,4.3c0,0,0.6-5.9,2.1-11.3c0,0-8.7,1.1-11.4,0c0,0,3.2-6.1,5.9-9.7
			c0,0-7.8-2-10.8-3.8c0,0,4.4-3.8,8.8-7c0,0-6.5-5.2-9-7.3c0,0,5.5-2.6,11-3.8c0,0-4.9-6.5-5.9-9.6c0,0,6.2-0.6,11.6,0
			c0,0-2.3-8.4-2.3-11.1C87.1,48.2,94.7,50,98.1,52.4z"/>
		<path class="st1" d="M98.1,52.4c0,0-0.5,6.2,0.5,9.4c0,0-3-1.4-9.1-2.5c0,0,2,6.2,3.9,8.8c0,0-4.5-0.4-9.5,0.8
			c0,0,4.3,5.6,6.5,6.9c0,0-6.4,2.3-8.5,4.3c0,0,4.4,3.4,8.7,4.3c0,0-6.4,3.8-6.7,6.6c0,0,4.6,1.7,9.6,1.1c0,0-4.1,6.2-4.1,8.7
			c0,0,6.7-0.8,9.4-2.4c0,0-1.2,5.6-0.6,9.4c0,0,6.1-2.9,7.9-5.2c0,0,1.1,6.9,2.5,9.1c0,0,4-3.7,5.7-7.7c0,0,3.3,6.3,5.4,7.7
			c0,0,2.8-5.9,2.8-9.1c0,0,5.6,5,7.5,5c0,0,0.3-7-0.5-9.1c0,0,6.1,2.4,9,2c0,0-1.5-6.2-3.6-8.3c0,0,6.8,0.1,9.5-1.1
			c0,0-4.9-6.2-6.8-6.8c0,0,7.7-2.5,8.3-3.9c0,0-5.6-4.6-8.1-4.5c0,0,4.8-4.3,6.2-6.6c0,0-5-1.4-9-1.2c0,0,2.9-5.3,3.5-8.4
			c0,0-5.3,0.8-8.8,2.1c0,0,0.8-6.9,0.6-9.4c0,0-6.1,2.4-8,5.3c0,0-1.3-8.2-2.7-8.8c0,0-4.4,4.7-5.5,7.3c0,0-3.3-5.5-5.6-7.6
			c0,0-2.7,6.9-2.5,9.3C105.9,57.6,101.7,52.9,98.1,52.4z"/>
		<path class="st2" d="M105.9,57.6c0,0-0.6,5.6,0.2,8.8c0,0-2.7-3.4-7.5-4.6c0,0,1.8,6.4,3.4,8.1c0,0-3.9-2.1-8.7-1.8
			c0,0,3,4.9,5.6,6.5c0,0-5.2-0.1-8.5,1.2c0,0,5,4,7.3,4.3c0,0-6.5,2.7-7.2,4.3c0,0,6.9,1.8,9.3,1c0,0-5.3,3-6.4,6.6
			c0,0,6.6,0.1,9-2c0,0-3.5,4.2-3.7,8.3c0,0,4-1,7.3-4.3c0,0-0.8,6.6-0.1,8.5c0,0,4.9-4.3,5.3-6.9c0,0,1.1,6.5,2.9,8.3
			c0,0,2.7-4.6,2.7-8.1c0,0,3.1,5.6,5.5,6.7c0,0,0.7-6-0.2-8.8c0,0,3,3,7.2,4.6c0,0-1.1-5.6-2.8-7.9c0,0,3.6,1.7,8.2,1.6
			c0,0-1.1-3.2-5.6-6.6c0,0,4.6,0.2,8.3-1.4c0,0-3.8-3.4-7.3-4.3c0,0,5.5-1.6,7.5-4.1c0,0-3.4-1.4-8.3-1.3c0,0,4.3-3.5,5.5-6.5
			c0,0-3.7,0-8.4,1.6c0,0,2.8-4,3.1-7.9c0,0-4.2,1.4-7.3,4.2c0,0,0.7-5.9-0.1-8.3c0,0-4.3,4-5.3,6.2c0,0-0.9-5.4-2.9-7.6
			c0,0-2.4,4.1-2.8,7.7C111.2,63.6,107.7,58.5,105.9,57.6z"/>
		<path class="st3" d="M114.1,71.3c0,0,1-5.5,2.7-7.2c0,0,1,3.7,0.2,7.7c0,0,2.4-4,5.1-5.7c0,0-0.7,4-2.7,7.1c0,0,3.8-2.7,6.8-3.4
			c0,0-2.1,4-4.9,5.8c0,0,5.5-1.4,7.5-1.1c0,0-2.7,3.1-6.5,3.9c0,0,6.2,0.3,7.9,1.7c0,0-3.7,1.2-7.6,1.3c0,0,5.8,2.4,6.6,4
			c0,0-3.7,0.2-7.7-1.1c0,0,4.6,4.1,5,6.1c0,0-4.3-1.2-7-4c0,0,2.5,5.3,2.5,7.6c0,0-3.7-3.3-5-5.9c0,0,0.8,5.9-0.2,7.8
			c0,0-2.3-4-2.9-7.2c0,0-1.8,5.8-3,7.1c0,0-0.5-5.5,0.1-7.8c0,0-3.4,4.8-5.2,5.9c0,0,0.8-4.8,2.7-7.5c0,0-4.6,3.3-7,3.8
			c0,0,0.6-2.1,5-6.2c0,0-5.7,1.8-7.8,1.3c0,0,1.3-1.7,6.6-4c0,0-7.1-0.7-7.8-1.4c0,0,3.9-1.5,8-1.4c0,0-6.3-2.8-6.8-4
			c0,0,5.4-0.2,7.8,1.4c0,0-5.2-5.3-5.3-6.5c0,0,5.5,2.2,7.1,4c0,0-2.5-5.3-2.5-7.3c0,0,3.5,2.5,5,5.8c0,0-0.5-5.9,0.3-7.9
			C111.3,63.9,114.1,69,114.1,71.3z"/>
		<path class="st0" d="M168.9,52.1"/>
	</g>
	<g>
		<path class="st0" d="M179.6,63.2c-7.8,0-10.7,5.3-10.7,5.3V52.1h-5.8L163,95.5h5.9v-4.7c3.5,5.8,10.7,5,10.7,5
			c13.6,0,13.6-16.3,13.6-16.3C193.2,62.8,179.6,63.2,179.6,63.2z M177.9,92.2c-5.1,0-9.3-5.6-9.3-12.6c0-6.9,4.2-12.6,9.3-12.6
			s9.3,5.6,9.3,12.6S183.1,92.2,177.9,92.2z"/>
		<path class="st0" d="M213.7,96.1c-7.8,0-10.7-5.2-10.7-5.2V107h-5.8l-0.1-42.6h5.9V69c3.5-5.7,10.7-4.9,10.7-4.9
			c13.6,0,13.6,16,13.6,16C227.2,96.5,213.7,96.1,213.7,96.1z M212,67.7c-5.1,0-9.3,5.5-9.3,12.3s4.2,12.3,9.3,12.3
			s9.3-5.5,9.3-12.3C221.2,73.2,217.1,67.7,212,67.7z"/>
	</g>
</g>
</svg>
