<?xml version="1.0" encoding="utf-8"?>
<!-- Generator: Adobe Illustrator 22.1.0, SVG Export Plug-In . SVG Version: 6.00 Build 0)  -->
<svg version="1.1" id="Layer_1" xmlns="http://www.w3.org/2000/svg" xmlns:xlink="http://www.w3.org/1999/xlink" x="0px" y="0px"
	 width="300px" height="160px" viewBox="0 0 300 160" style="enable-background:new 0 0 300 160;" xml:space="preserve">
<style type="text/css">
	.st0{display:none;fill:#FFFFFF;}
	.st1{fill:#33347E;}
	.st2{fill:#ED1B2E;}
	.st3{fill:#EB2E2E;}
</style>
<g>
	<polygon class="st0" points="96,25 204,25 204,133 96,133 	"/>
	<polygon class="st1" points="147.9,68.1 139.3,68.1 139.3,109.9 147.9,109.9 	"/>
	<path class="st1" d="M155.7,68.1v7.8h7.2v23.6c0,3.3,0.9,5.9,2.6,7.8c1.7,2,4.1,3.1,6.9,3.1c2.9,0.1,5.4-0.5,7.6-1.9l0.1-0.1v-0.1
		l2-8l-0.5,0.3c-2.2,1.4-4.4,2.1-6.3,2.1c-2.7,0-4.1-1.6-4.1-4.7V76h8.8v-7.8h-8.5V55.1l-8.4,4.5v8.5H155.7L155.7,68.1z"/>
	<polygon class="st1" points="197.1,68.1 188.4,68.1 188.4,109.9 197.1,109.9 	"/>
	<path class="st1" d="M134.4,74.6l-0.2-0.1c-3.9-4.8-8.9-7.2-14.8-7.2c-6.2,0-11.3,1.9-15.4,5.7c-4.4,3.9-6.5,9.3-6.5,16
		s2.1,12,6.5,16c4.1,3.7,9.2,5.7,15.4,5.7c5.9,0,10.9-2.3,14.8-7l0.2-0.1l-4.8-5.9l-0.2,0.2c-3.1,3.1-6.5,4.7-10.1,4.7
		c-3.7,0-6.9-1.3-9.4-3.8s-3.7-5.8-3.7-9.6c0-3.9,1.2-7.2,3.7-9.7s5.5-3.7,9.4-3.7c3.6,0,7,1.6,10.1,4.7l0.2,0.2L134.4,74.6
		L134.4,74.6z"/>
	<path class="st2" d="M143.5,61.2c3.4-3.4,7.2-6.1,11.4-7.9c4.2-1.8,8.5-2.7,13-2.7s9,0.9,13.1,2.7c4.2,1.8,8,4.5,11.3,7.9l0.1,0.1
		h9.8l-0.3-0.5c-3.9-5.4-9-9.8-15-13c-6.1-3.1-12.4-4.7-19.1-4.7c-6.6,0-13,1.5-19.1,4.7s-11.1,7.5-14.9,13l-0.4,0.5h9.9L143.5,61.2
		L143.5,61.2z"/>
	<polygon class="st1" points="147.9,68.1 139.3,68.1 139.3,109.9 147.9,109.9 	"/>
	<path class="st1" d="M155.7,68.1v7.8h7.2v23.6c0,3.3,0.9,5.9,2.6,7.8c1.7,2,4.1,3.1,6.9,3.1c2.9,0.1,5.4-0.5,7.6-1.9l0.1-0.1v-0.1
		l2-8l-0.5,0.3c-2.2,1.4-4.4,2.1-6.3,2.1c-2.7,0-4.1-1.6-4.1-4.7V76h8.8v-7.8h-8.5V55.1l-8.4,4.5v8.5H155.7L155.7,68.1z"/>
	<polygon class="st1" points="197.1,68.1 188.4,68.1 188.4,109.9 197.1,109.9 	"/>
	<path class="st1" d="M134.4,74.6l-0.2-0.1c-3.9-4.8-8.9-7.2-14.8-7.2c-6.2,0-11.3,1.9-15.4,5.7c-4.4,3.9-6.5,9.3-6.5,16
		s2.1,12,6.5,16c4.1,3.7,9.2,5.7,15.4,5.7c5.9,0,10.9-2.3,14.8-7l0.2-0.1l-4.8-5.9l-0.2,0.2c-3.1,3.1-6.5,4.7-10.1,4.7
		c-3.7,0-6.9-1.3-9.4-3.8s-3.7-5.8-3.7-9.6c0-3.9,1.2-7.2,3.7-9.7s5.5-3.7,9.4-3.7c3.6,0,7,1.6,10.1,4.7l0.2,0.2L134.4,74.6
		L134.4,74.6z"/>
	<path class="st3" d="M143.5,61.2c3.4-3.4,7.2-6.1,11.4-7.9c4.2-1.8,8.5-2.7,13-2.7s9,0.9,13.1,2.7c4.2,1.8,8,4.5,11.3,7.9l0.1,0.1
		h9.8l-0.3-0.5c-3.9-5.4-9-9.8-15-13c-6.1-3.1-12.4-4.7-19.1-4.7c-6.6,0-13,1.5-19.1,4.7s-11.1,7.5-14.9,13l-0.4,0.5h9.9L143.5,61.2
		L143.5,61.2z"/>
</g>
</svg>
