<?xml version="1.0" encoding="utf-8"?>
<!-- Generator: Adobe Illustrator 22.1.0, SVG Export Plug-In . SVG Version: 6.00 Build 0)  -->
<svg version="1.1" id="Layer_1" xmlns="http://www.w3.org/2000/svg" xmlns:xlink="http://www.w3.org/1999/xlink" x="0px" y="0px"
	 width="300px" height="160px" viewBox="0 0 300 160" style="enable-background:new 0 0 300 160;" xml:space="preserve">
<style type="text/css">
	.st0{fill:#0096D7;}
</style>
<g id="layer1">
	<g id="g2404" transform="matrix(1.0036824,0,0,1.0036824,4.3467438,1.9219095)">
		<path id="path2384" class="st0" d="M102.9,54.8H53.2v7.6h47.2l0,0c1.4,0,2.4,1.1,2.4,2.4v25.7l0,0c0,1.4-1.1,2.4-2.4,2.4H63.3
			c-1.4,0-2.4-1.1-2.4-2.4V80.2c0-1.4,1.1-2.4,2.4-2.4h31.9v-7.6H60.8c-4.2,0-7.6,3.4-7.6,7.6v15.4c0,4.2,3.4,7.6,7.6,7.6h42.2
			c4.2,0,7.6-3.4,7.6-7.6V62.4C110.6,58.2,107.2,54.8,102.9,54.8"/>
		<path id="path2386" d="M139,54.8l6,17.9c0.7,2.2,1.2,2.7,2.4,2.7h1.2v3.2h-13.1v-3.2h1.1c1.1,0,2-0.2,2-0.6c0-0.3-0.1-0.7-0.2-1.3
			l-0.7-2.6h-7.3l-0.4,1.5c-0.4,1.2-0.6,1.8-0.6,2.3c0,0.6,1.2,0.7,2.2,0.7h1.1v3.2h-10.5v-3.1h1.2c1.2,0,1.8-0.5,2.4-2.7l5.9-17.9
			L139,54.8 M131.5,67.8h5.2l-2.6-7.7H134L131.5,67.8z"/>
		<path id="path2388" d="M150.7,59.2c0-1-0.2-1.5-1.3-1.5h-1.6v-2.8h8.9v8.9c1.3-1.5,3-2.4,4.6-2.4c5.4,0,7.4,4.2,7.4,8.9
			s-2,8.9-7.4,8.9c-2.3,0-4.2-0.8-5.5-2.8l-1.1,2.2h-4L150.7,59.2 M156.7,70.2c0,3.7,0.8,5.9,2.8,5.9c2,0,2.8-2.2,2.8-5.9
			c0-3.7-0.8-5.9-2.8-5.9C157.5,64.3,156.7,66.5,156.7,70.2"/>
		<path id="path2390" d="M170.8,59.2c0-1-0.2-1.5-1.3-1.5h-1.6v-2.8h8.9v8.9c1.3-1.5,3-2.4,4.6-2.4c5.4,0,7.4,4.2,7.4,8.9
			s-2,8.9-7.4,8.9c-2.3,0-4.2-0.8-5.5-2.8l-1.1,2.2h-4L170.8,59.2 M176.7,70.2c0,3.7,0.8,5.9,2.8,5.9c2,0,2.8-2.2,2.8-5.9
			c0-3.7-0.8-5.9-2.8-5.9C177.5,64.3,176.7,66.5,176.7,70.2"/>
		<path id="path2392" d="M208.9,70.2c0,5.7-3.9,8.9-9.3,8.9c-5.4,0-9.3-3.2-9.3-8.9c0-5.7,3.9-8.9,9.3-8.9S208.9,64.4,208.9,70.2
			 M196.7,70.2c0,4.2,0.7,6,2.9,6c2.1,0,2.9-1.8,2.9-6c0-4.2-0.7-6-2.9-6C197.5,64.1,196.7,66,196.7,70.2"/>
		<path id="path2394" d="M234.3,70.4v2.8c0,1.6-0.3,2.6-1.7,2.6c-0.8,0-1.2-0.7-1.2-1.4v-9.8h4.4v-2.8h-4.4v-6.7h-3.6
			c-0.3,3-1.2,6.7-4.8,6.7h-5.6v-6.7h-3.6c-0.3,3-1.2,6.7-4.8,6.7v2.8h2.4v9c0,3.7,2,5.4,5.7,5.4c4.3,0,6-2,6-5.4v-3.2h-2.8v2.8
			c0,1.6-0.3,2.6-1.7,2.6c-0.8,0-1.2-0.7-1.2-1.4v-9.8h8v8.9c0,3.7,2,5.4,5.7,5.4c4.3,0,6-2,6-5.4v-3.2L234.3,70.4"/>
	</g>
</g>
</svg>
