<?xml version="1.0" encoding="utf-8"?>
<!-- Generator: Adobe Illustrator 22.1.0, SVG Export Plug-In . SVG Version: 6.00 Build 0)  -->
<svg version="1.1" id="Layer_1" xmlns="http://www.w3.org/2000/svg" xmlns:xlink="http://www.w3.org/1999/xlink" x="0px" y="0px"
	 width="300px" height="150px" viewBox="0 0 300 150" style="enable-background:new 0 0 300 150;" xml:space="preserve">
<style type="text/css">
	.st0{fill:#FFFFFF;}
	.st1{fill:#30B457;}
	.st2{fill:#024128;}
</style>
<g>
	<path class="st0" d="M95.3,94.2H77.7V62.4h8.9v26.2h8.5c5.9,0,8.4-4.1,8.4-14.6c0-10.6-2.8-13.6-8.8-13.6H75.2v33.9h-8.8V60.4H53.6
		v-5.6h43.8C108,54.8,113,60.3,113,74C113,92,105.5,94.2,95.3,94.2"/>
	<path class="st1" d="M45.6,108.9h75.8V41.1H45.6V108.9z M95.3,94.2H77.7V62.4h8.9v26.2h8.5c5.9,0,8.4-4.1,8.4-14.6
		c0-10.6-2.8-13.6-8.8-13.6H75.2v33.9h-8.8V60.4H53.6v-5.6h43.8C108,54.8,113,60.3,113,74C113,92,105.5,94.2,95.3,94.2"/>
	<g>
		<path class="st2" d="M149.7,71.9h3c2.1,0,4.2,0.5,4.2,3c0,2.2-2.2,3-4.2,3h-2.9v-6H149.7z M139.2,83.9H156c6,0,11.9-0.7,11.9-8.1
			c0-2.9-2.5-6.1-6.5-6.6v-0.1c3.9-1,6-3.1,6-7.1c0-5.5-5-7.2-10-7.2h-18.3v29.1H139.2z M149.7,60.3h3c2,0,3.8,0.7,3.8,2.8
			c0,2.2-2.1,2.8-4.1,2.8h-2.8v-5.6H149.7z"/>
		<path class="st2" d="M184.9,75c0,1.9-1.1,3.9-3.2,3.9c-1.6,0-2.5-0.6-2.5-2.1c0-2.2,2.5-2.5,4.7-2.5h1V75z M172.1,69
			c2.1-1,4.7-1.8,7.2-1.8c2.6,0,5.5,0.3,5.5,3.1c-1-0.1-2.6-0.3-4.1-0.3c-5.2,0-11.2,1.3-11.2,8c0,4.5,3.9,6.4,8,6.4
			c3,0,5.6-1.2,7.1-3.6h0.1v3.1h9.7V70.7c0-7.9-7.3-9-13.3-9c-4.1,0-6,0.4-9.1,1.2V69H172.1z"/>
		<path class="st2" d="M197.5,62.2h9.9v3.7h0.1c1.2-3,4.1-4.2,7.1-4.2c5.6,0,7.6,2.9,7.6,7.1v15.1h-10.5V71.4c0-1.2,0-3-1.8-3
			c-1.9,0-1.9,1.7-1.9,3v12.5h-10.5L197.5,62.2L197.5,62.2z"/>
		<polygon class="st2" points="236.2,70.8 236.2,70.8 242.2,62.2 254.1,62.2 246.8,71.8 254.4,83.9 242.2,83.9 236.2,73.3 
			236.2,73.3 236.2,83.9 225.7,83.9 225.7,52.7 236.2,52.7 		"/>
	</g>
</g>
</svg>
