<?xml version="1.0" encoding="utf-8"?>
<!-- Generator: Adobe Illustrator 22.1.0, SVG Export Plug-In . SVG Version: 6.00 Build 0)  -->
<svg version="1.1" id="Layer_1" xmlns="http://www.w3.org/2000/svg" xmlns:xlink="http://www.w3.org/1999/xlink" x="0px" y="0px"
	 width="300px" height="160px" viewBox="0 0 300 160" style="enable-background:new 0 0 300 160;" xml:space="preserve">
<g>
	<polygon points="222.8,80.8 222.8,82.5 229.4,82.5 229.4,89.1 231,89.1 231,80.8 	"/>
	<path d="M142.4,56.6h-7c-0.1,0-0.2,0.1-0.2,0.2v27.8c0,6.2-5,11.2-11.2,11.2c-0.8,0-1.8,0-2.6-0.2c0,0,0,0-0.1,0
		c-0.1,0-0.3-0.1-0.4-0.1l0,0c-0.2,0-0.3-0.1-0.4-0.1l0,0c-0.7-0.2-1.3-0.5-2.1-0.8l0,0c0,0,0,0-0.1,0c-0.3-0.1-0.8-0.5-1.8-1
		c-0.4-0.3-0.8-0.8-1.3-1.1c-0.2-0.2-0.4-0.1-0.4,0.1l-1.8,7.1c-0.1,0.2,0,0.4,0.2,0.5c0.5,0.3,0.8,0.7,1.3,0.8l0,0
		c1.7,0.9,4.9,2.3,9.3,2.3c0.1,0,0.2,0,0.3,0c4.2,0,8.1-1.3,11.2-3.8v3.5c0,0.1,0.1,0.2,0.2,0.2h7c0.1,0,0.2-0.1,0.2-0.2V56.8
		C142.6,56.7,142.5,56.6,142.4,56.6z"/>
	<path d="M97.2,68.3L97.2,68.3c-1.6-0.9-4.9-2.3-9.2-2.3c-0.1,0-0.2,0-0.3,0c-4.2,0-8.1,1.3-11.2,3.8v-3.5c0-0.1-0.1-0.2-0.2-0.2h-7
		c-0.2,0-0.3,0.1-0.3,0.2v37c0,0.1,0.1,0.2,0.2,0.2h7c0.1,0,0.2-0.1,0.2-0.2V84.6c0-6.2,5-11.2,11.2-11.2c0.8,0,1.8,0,2.6,0.2
		c0,0,0,0,0.1,0c0.1,0,0.3,0.1,0.4,0.1l0,0c0.2,0,0.3,0.1,0.4,0.1l0,0c0.7,0.2,1.3,0.5,2.1,0.8l0,0c0,0,0,0,0.1,0
		c0.3,0.1,0.8,0.5,1.8,1c0.4,0.3,0.8,0.8,1.3,1.1c0.2,0.2,0.4,0.1,0.4-0.1l1.8-7.1c0.1-0.2,0-0.4-0.2-0.5
		C98,68.8,97.5,68.5,97.2,68.3z"/>
	<path d="M121,73.4c0.8,0,1.8,0,2.6,0.2c0,0,0,0,0.1,0c0.1,0,0.3,0.1,0.4,0.1l0,0c0.2,0,0.3,0.1,0.4,0.1l0,0
		c0.7,0.2,1.3,0.5,2.1,0.8l0,0c0,0,0,0,0.1,0c0.3,0.1,0.8,0.5,1.8,1c0.4,0.3,0.8,0.8,1.3,1.1c0.2,0.2,0.4,0.1,0.4-0.1l1.8-7.1
		c0.1-0.2,0-0.4-0.2-0.5c-0.5-0.3-0.8-0.7-1.3-0.8l0,0c-1.6-0.8-4.9-2.3-9.2-2.3c-0.1,0-0.2,0-0.3,0c-4.2,0-8.1,1.3-11.2,3.8v-3.5
		c0-0.1-0.1-0.2-0.2-0.2h-7c-0.1,0-0.2,0.1-0.2,0.2v37c0,0.1,0.1,0.2,0.2,0.2h7c0.1,0,0.2-0.1,0.2-0.2V84.6
		C109.8,78.4,114.9,73.4,121,73.4z"/>
	<path d="M152.9,93.6c-1,0-1.8-0.8-1.8-1.8c0-1,0.8-1.8,1.8-1.8c0.6,0,1.1,0.3,1.4,0.8l0.5-0.7c-0.5-0.5-1.3-0.8-2-0.8
		c-1.6,0-2.8,1.1-2.8,2.6c0,1.5,1.2,2.6,2.7,2.6c0.8,0,1.5-0.3,2.1-0.8l-0.6-0.6C153.9,93.4,153.4,93.6,152.9,93.6z"/>
	<path d="M158.1,89.1c-1.6,0-2.8,1.1-2.8,2.6c0,1.5,1.2,2.6,2.8,2.6s2.8-1.2,2.8-2.6C160.8,90.2,159.6,89.1,158.1,89.1z M158.1,93.6
		c-1,0-1.9-0.8-1.9-1.8c0-1,0.8-1.8,1.9-1.8c1.1,0,1.8,0.8,1.8,1.8C160,92.8,159.1,93.6,158.1,93.6z"/>
	<polygon points="167.4,89.1 166.4,89.1 164.7,92.6 162.9,89.1 161.8,89.1 161.8,94.4 162.7,94.4 162.7,90.4 164.4,93.8 164.9,93.8 
		166.6,90.4 166.6,94.4 167.4,94.4 	"/>
	<polygon points="173.6,94.4 174.4,94.4 174.4,89.1 173.4,89.1 171.6,92.6 169.9,89.1 168.9,89.1 168.9,94.4 169.7,94.4 169.7,90.4 
		171.3,93.8 172,93.8 173.6,90.4 	"/>
	<path d="M180.3,92.2v-3h-0.8v3c0,0.8-0.6,1.4-1.3,1.4s-1.4-0.6-1.4-1.4v-3h-0.8v3c0,1.3,0.8,2.3,2.3,2.3
		C179.5,94.4,180.3,93.5,180.3,92.2z"/>
	<polygon points="182.5,90.6 185.4,94.4 186.2,94.4 186.2,89.1 185.4,89.1 185.4,92.9 182.5,89.1 181.7,89.1 181.7,94.4 182.5,94.4 
			"/>
	<rect x="187.6" y="89.1" width="0.8" height="5.3"/>
	<path d="M192.3,93.6c-1,0-1.8-0.8-1.8-1.8c0-1,0.8-1.8,1.8-1.8c0.6,0,1.1,0.3,1.4,0.8l0.5-0.7c-0.5-0.5-1.3-0.8-2-0.8
		c-1.6,0-2.8,1.1-2.8,2.6c0,1.5,1.2,2.6,2.7,2.6c0.8,0,1.5-0.3,2.1-0.8l-0.6-0.6C193.3,93.4,192.8,93.6,192.3,93.6z"/>
	<path d="M196.9,89.1l-2.3,5.2h0.9l0.5-1.2h2.6l0.5,1.2h0.9l-2.3-5.3C197.9,89.1,196.9,89.1,196.9,89.1z M196.4,92.4l0.9-2.3
		l0.9,2.3H196.4z"/>
	<polygon points="199.7,90 201.3,90 201.3,94.4 202.2,94.4 202.2,90 203.9,90 203.9,89.1 199.7,89.1 	"/>
	<rect x="204.7" y="89.1" width="0.8" height="5.3"/>
	<path d="M209.4,89.1c-1.6,0-2.8,1.1-2.8,2.6c0,1.5,1.2,2.6,2.8,2.6c1.6,0,2.8-1.2,2.8-2.6C212.2,90.2,210.9,89.1,209.4,89.1z
		 M209.4,93.6c-1,0-1.9-0.8-1.9-1.8c0-1,0.8-1.8,1.9-1.8c1,0,1.8,0.8,1.8,1.8C211.3,92.8,210.5,93.6,209.4,93.6z"/>
	<polygon points="216.9,92.9 214,89.1 213.2,89.1 213.2,94.4 214.1,94.4 214.1,90.6 216.9,94.4 217.7,94.4 217.7,89.1 216.9,89.1 	
		"/>
	<path d="M220,90.5c0-0.3,0.3-0.6,0.8-0.6c0.4,0,0.9,0.2,1.5,0.5l0.4-0.8c-0.5-0.3-1.2-0.6-1.8-0.6c-1.1,0-1.9,0.6-1.9,1.4
		c0,1.8,2.9,1.2,2.9,2.3c0,0.4-0.4,0.7-0.9,0.7c-0.5,0-1.3-0.3-1.8-0.8l-0.4,0.8c0.6,0.5,1.3,0.8,2.2,0.8c1.2,0,2-0.6,2-1.5
		C222.8,91,220,91.7,220,90.5z"/>
	<polygon points="151.4,101.1 153.9,101.1 153.9,100.3 151.4,100.3 151.4,99 154.3,99 154.3,98.1 150.6,98.1 150.6,103.3 
		154.4,103.3 154.4,102.6 151.4,102.6 	"/>
	<polygon points="159.2,101.9 156.5,98.1 155.5,98.1 155.5,103.3 156.5,103.3 156.5,99.6 159.2,103.3 160.1,103.3 160.1,98.1 
		159.2,98.1 	"/>
	<path d="M163.2,98.1l-2.3,5.3h0.9l0.5-1.2h2.6l0.5,1.2h0.9l-2.3-5.3H163.2z M162.6,101.4l0.9-2.3l0.9,2.3H162.6z"/>
	<path d="M170.3,100.6c0.6-0.2,0.9-0.6,0.9-1.2c0-0.8-0.8-1.3-1.8-1.3h-2.3v5.3h2.3c1.2,0,1.9-0.6,1.9-1.4
		C171.4,101.2,171,100.7,170.3,100.6z M168,98.9h1.3c0.6,0,0.8,0.3,0.8,0.8s-0.3,0.8-0.8,0.8H168V98.9z M169.4,102.6H168v-1.5h1.3
		c0.8,0,1.1,0.3,1.1,0.8C170.5,102.3,170,102.6,169.4,102.6z"/>
	<polygon points="173.4,98.1 172.6,98.1 172.6,103.3 175.7,103.3 175.7,102.6 173.4,102.6 	"/>
	<polygon points="177.5,101.1 180,101.1 180,100.3 177.5,100.3 177.5,99 180.3,99 180.3,98.1 176.6,98.1 176.6,103.3 180.4,103.3 
		180.4,102.6 177.5,102.6 	"/>
	<path d="M183.7,98.1h-2.2v5.3h2.2c1.6,0,2.8-1.1,2.8-2.6C186.5,99.3,185.3,98.1,183.7,98.1z M183.8,102.6h-1.3V99h1.3
		c1,0,1.8,0.8,1.8,1.8C185.5,101.8,184.8,102.6,183.8,102.6z"/>
</g>
</svg>
