<?xml version="1.0" encoding="utf-8"?>
<!-- Generator: Adobe Illustrator 22.1.0, SVG Export Plug-In . SVG Version: 6.00 Build 0)  -->
<svg version="1.1" id="Layer_1" xmlns="http://www.w3.org/2000/svg" xmlns:xlink="http://www.w3.org/1999/xlink" x="0px" y="0px"
	 width="300px" height="160px" viewBox="0 0 300 160" style="enable-background:new 0 0 300 160;" xml:space="preserve">
<style type="text/css">
	.st0{fill:#046D38;}
	.st1{fill:#6E7076;}
</style>
<g>
	<g>
		<path class="st0" d="M98.8,88h-2.7V75.3h2.7c3.7,0,6.3,2.7,6.3,6.3C105.2,85.2,102.6,88,98.8,88 M98.8,71.8h-6.1v19.4h6.1
			c2.8,0,5.3-1.1,7-2.8c1.8-1.7,2.9-4.1,2.9-6.9s-1.2-5.2-3-6.9C104,72.9,101.5,71.8,98.8,71.8"/>
	</g>
	<polygon class="st0" points="86.4,71.9 81.4,80.6 76,71.8 71.8,71.8 79.3,83.6 74.7,91.3 78.7,91.3 90.5,71.8 86.4,71.8 	"/>
	<g>
		<path class="st0" d="M61.6,88.3c-3.6,0-6.3-3-6.3-6.6v-0.1c0-3.6,2.8-6.4,6.3-6.4c3.6,0,6.3,3,6.3,6.6
			C67.8,85.3,65.2,88.3,61.6,88.3 M61.6,71.6c-2.8,0-5.3,1.1-7,2.9c-1.8,1.8-2.9,4.2-2.9,7c0,2.8,1.1,5.3,2.9,7.1
			c1.7,1.8,4.2,2.9,7.1,2.9c2.8,0,5.3-1.1,7-2.9c1.8-1.8,2.9-4.3,2.9-7.1c0-2.8-1.1-5.3-2.9-7C66.7,72.8,64.3,71.6,61.6,71.6"/>
		<path class="st0" d="M119.1,79.8c-1.5-0.5-2.6-0.9-3.2-1.3c-0.6-0.4-0.8-0.9-0.8-1.4c0-0.9,0.4-1.3,1.1-1.7
			c0.7-0.3,1.4-0.5,2.3-0.5c1.2,0,3,0.3,4.5,1.1l0,0h0.2v-3.3h-0.1c-1.4-0.7-3.1-1-4.9-1c-1.6,0-3.3,0.5-4.3,1.3
			c-1.3,1-2.1,2.4-2.1,4.1c0,3.3,2.6,4.8,5.2,5.6c1.2,0.4,2.2,0.7,2.9,1.2c0.8,0.5,1.2,1.1,1.2,1.9c0,0.9-0.4,1.4-1.1,1.8
			c-0.6,0.4-1.4,0.6-2.2,0.6c-2.1,0-4.1-0.9-5.3-1.6l-0.1-0.1l-0.2-0.1V90h0.2c1.2,0.7,3.3,1.4,5.6,1.4c3.5,0,6.6-2.2,6.6-5.9
			C124.4,82.4,122.1,80.8,119.1,79.8"/>
	</g>
	<polygon class="st0" points="26.5,71.8 23,71.8 23,91.3 35.2,91.3 35.2,87.9 26.5,87.9 	"/>
	<polygon class="st0" points="42,71.8 38.4,71.8 38.4,91.3 50.8,91.3 50.8,87.9 42,87.9 	"/>
	<polygon class="st0" points="190,86.4 190,86.4 181,71.8 176.4,71.8 176.4,91.3 179.9,91.3 179.9,76.3 180,76.3 189.2,91.3 
		193.6,91.3 193.6,71.8 190,71.8 	"/>
	<polygon class="st0" points="206.5,80.9 215.5,71.8 210.9,71.8 202.7,80.3 202.6,80.3 202.6,71.8 199.3,71.8 199.3,91.3 
		202.6,91.3 202.6,81.5 202.7,81.5 211.3,91.3 216.2,91.3 	"/>
	<path class="st0" d="M160.2,83.8l3.1-7.9l3,7.9H160.2z M161.8,71.8l-8.5,19.4h3.8l1.7-4.4h8.5l1.8,4.4h3.9l-8.4-19.4H161.8z"/>
	<path class="st0" d="M143.1,88.4H140v-5.7h3.3c2.8,0,4.2,0.7,4.2,2.8C147.4,88.1,144.9,88.4,143.1,88.4 M140,74.7h2.8
		c2.6,0,3.8,0.7,3.8,2.4c0,1.7-1.2,2.7-3.6,2.7H140V74.7z M146.7,81.1L146.7,81.1c2-0.7,3.4-2.1,3.4-4.3c0-3.6-3-4.9-6-4.9h-7.6
		v19.4h7c3.6,0,7.3-1.4,7.3-5.7C150.9,83.1,149.1,81.3,146.7,81.1"/>
	<path d="M275.2,81.1c1,0.7,1.9,1.2,1.9,2.2c0,0.3-0.4,0.6-1.2,0.6c-0.7,0-1.4-0.2-1.7-0.7c-0.3-0.4,0.1-0.9-0.1-1.2
		c-0.2-0.3-0.6-0.2-0.9-0.3c-0.3-0.2-0.4-0.4-0.6-0.8c-0.3-0.6-1.1-1.4-2-2.5c-0.9-0.9-1.7-1.2-2.1-1.2c-0.3,0-0.4,0-0.7,0
		c-0.7,0-1.3,0.7-2.3,1.2c-0.7,0.3-1.2,0.5-1.5,0.6l-0.2,0.2h1c0.9,0,2-0.1,2.9-0.1s1.3,0.8,1.6,1.6c0.7,1.6,1.7,4.1,2.9,6.1
		c0.6,1,1.1,1.5,1.1,2.8c0,0.4,0,0.9-0.5,0.9c-0.7,0-2.4-0.7-2.4-1.4c0-0.6,0.5-0.9,0.5-1.4c0-0.4-0.6-0.3-0.7-0.7
		c-0.4-1.8-1-3.6-2-4.7c-0.5-0.6-0.6-0.8-1.1-0.8c-0.3,0-0.6,0.1-0.8,0.2c-1.4,0.6-3.3,2.1-5.6,2.8c-0.9,0.3-1.1-0.3-2-0.1h0.1
		c-0.8,0.2-1.3,0.6-2.3,0.9c-1.4,0.4-3.8,0.6-5.8,0.3c-1.3-0.2-3.2-0.5-3.9-0.4c-0.6,1.7-1.8,3.9-3.6,4.8c-1,0.4-1.2,1.1-1,2.1
		c0.4,1.3,1.6,2.4,2.2,3.6c0.6,1.1,1.5,2.6,2.5,3.2c1.1,0.5,1.6,1.2,1.6,1.9c0,0.3-0.1,0.5-0.4,0.5h-2c-0.3,0-0.5-0.2-0.5-0.3
		c-0.3-0.5-0.1-1.1-0.5-1.4c-0.3-0.4-0.5-0.3-0.9-0.5c-0.6-0.6-0.2-1-0.6-1.6c-1.2-2-1.8-2.5-3-3.9c-0.6-0.8-1.3-1.2-1.3-2.1
		c0-1.2,1.2-1.4,1.2-2.7c-0.8,0.6-1.7,1.1-3.2,1.2c-0.2,0-0.7,0.4-0.9,0.7c-0.5,0.5-0.7,1-0.8,1.7c-0.1,1.6-0.5,3.4-0.3,5
		c0.3,1.1,0.5,1.4,1.3,2c0.6,0.4,1.2,0.9,1.2,1.6c0,0.2-0.1,0.5-0.4,0.5h-2.2c-0.2,0-0.4-0.2-0.5-0.3c-0.3-0.4-0.1-0.8-0.2-1.2
		c-0.2-1-1.3-1-1.3-2c0-0.3,0.2-0.7,0.2-1.3c0.1-1.4,0.5-3.6,0.1-6.4c-0.2-1.6,1.4-1.6,2.3-3.1c0.5-0.8,0.4-0.5,0.7-1.1
		c0.3-0.6,0.3-1.1,0.2-1.4c0-0.5-0.5-1.4-0.2-3.5c0.1-0.9,0.6-1.8,1.2-2.6c0,0,0-0.2-0.2-0.2c-0.9,0.1-0.9-0.2-1.4-0.2
		s-1,0.5-1.1,0.7c-0.3-0.1-0.4-0.4-0.4-0.6c0-0.3,0.1-0.6,0.4-0.9c0.1-0.1,0-0.2-0.2-0.2c-0.7,0-1.3,0.9-1.4,1.4
		c-0.4-0.1-0.4-0.6-0.6-0.6c-0.2,0-0.3,0.3-0.3,0.6c0,2,3.2,2.4,3.2,5c0,3-3.6,2.4-3.6,3.5c0,0.2,0.2,0.4,0.5,0.5
		c-0.1,0.3-0.5,0.4-0.8,0.4c-0.8,0-1.3-0.6-1.3-1.3c0-1.6,2.2-1.6,2.2-2.9c0-0.6-0.4-0.8-0.7-1.1c-2.1-1.4-3.3-3-3.3-5.4
		c0-2.6,1.8-4.6,4.2-4.6c3.5,0,3.6,3.9,6.6,4.3c1.2-0.8,2.6-1.2,3.9-1.2c2,0,2.9,0.5,5.1,0.5c0.9,0,2.3-0.2,4-1.4
		c0.7-0.4,1-0.5,1.5-1.1c1.3-1.2,2.6-3.5,2.6-5.1v0.1c0-0.6-0.1-0.9-0.4-0.9c-0.8,0-1.3,0.7-2.1,1.3c-0.5,0.5,0.3,0.7-0.8,1.2
		c-0.4,0.2-0.8-0.2-1.2-0.2c-0.9,0-1.2-1-1.2-1.8c0-0.5,0.3-0.6,0.5-1c0.4-0.9,0.4-1.2,0.8-2c0.3-0.6,0.7-1,0.7-1.3
		c0-0.2-0.1-0.2-0.1-0.4c0-0.9,1.2-1.3,1.2-2.2c0-0.5-0.5-0.7-0.7-1.1c-0.1-0.4,0-0.5,0-0.5c0-0.1,0.1-0.1,0.2-0.1
		c0.5,0,0.6,0.5,1.1,0.7c0-0.6-0.2-0.7-0.2-1.1c0-0.2,0-0.6,0.2-0.6c0.3,0,0.3,0.4,0.5,0.6c0.3,0.3,0.6,0.2,0.9,0.4
		c0.5,0.3,0.7,0.8,0.9,0.8c0.5,0.1,0.6-0.5,0.3-0.8c0.5,0,1,0.4,1.6,0.4c1.1,0,1.3,0.3,1.5,0.4c0.7,0.6,0.8,1,1.4,1
		c0.4,0,0.6-0.3,0.7-0.4c0.5,0.4,0.5,1.2,0,2c0.2,0.7,1.2,0.7,1.5,1.1c0.5,0.3,0.4,0.5,0.7,0.7c0.2,0.2,0.5,0.1,0.7,0
		c0.2,0.9-0.6,1.6-1.4,1.7c0,1.2,1.2,1.8,1.7,2c-0.3,0.7-0.9,0.9-1.3,1.1c0.2,0.7,0.9,1.6,0.6,2.6c-0.3-0.2-0.9,0-0.9,0.5
		c0,0.6,0.8,0.9,0,1.2c-0.3,0.2-0.4,0.7,0.2,1.2c0.8-0.2,1.5-0.2,2.4-0.2c0.6,0,1.2-0.2,1.8-0.2c1,0,1.4,0.4,2.1,1.1
		C271.9,77.8,273.4,79.8,275.2,81.1"/>
	<path class="st1" d="M229.6,76.2c0.4,0,1.1-2,2.4-2c0.4,0,0.5,0.2,0.5,0.3c0,0.3-0.5,0.5-0.5,0.9c0,0.1,0,0.2,0.2,0.2
		c0.4,0,0.6-0.8,2-0.8c0.4,0,0.7,0,1,0.1c0.2,0,0.5,0.2,0.4-0.2c-0.4-1-1.3-1.8-2.9-1.8c-1.4,0-3,1.3-3.2,2.9
		C229.4,76,229.4,76.2,229.6,76.2"/>
	<path class="st1" d="M255.1,63.6c-0.4-0.2-0.5-0.4-0.4-0.9c0.1-0.5,0.1-0.8-0.1-0.8c-0.2-0.1-0.5,0.1-0.8,0.4
		c-0.3,0.3-0.7,0.8-0.8,1.1c-0.1,0.5,0.4,0.4,0,1.1c-0.7,1.2-0.8,1.4-1.2,2.2c-0.3,0.9-0.5,1-0.7,1.2c-0.2,0.3,0.2,0.3,0.8,0.1
		c0.5-0.2,0.6,0.4,0.4,0.9c-0.2,0.3,0,0.4,0.4,0.1c0.4-0.3-0.2-0.6-0.1-1.5c0.2-0.9,0.4-1.3,0.9-2.3c0.5-0.8,0.9-1.3,1.6-1.1
		C255.6,64.3,255.5,63.7,255.1,63.6"/>
	<path class="st1" d="M272.2,89.6c0.2,0,0.2-0.2,0.2-0.4c0-0.4-0.3-1.1-0.6-1.3c-0.1,0.7-0.4,1.1-0.4,1.3
		C271.4,89.4,272,89.6,272.2,89.6"/>
	<path class="st1" d="M259.1,75c3.5,1.6,3.3,4.5,3.6,3.7c0.1-0.3,0.6-1.7-0.7-3.2c-1-1.2-1.3-0.9-1-1.7c1.5-3.6,2.5-9.2-2-11.1
		c-0.5-0.2-1-0.2-1-0.1c0,0.1,0.5,0.3,1.1,0.7c3,2,2.1,7.4-0.7,10.1C257.6,74.3,257.9,74.5,259.1,75"/>
	<path class="st1" d="M247.3,100.6c0.2,0,0.1-0.4,0-0.5c-0.2-0.4-0.6-0.7-1-0.8c0.1,0.4,0.1,1.2,0.5,1.2H247.3z"/>
	<path class="st1" d="M236.8,100.6c0.2,0,0.1-0.4,0-0.5c-0.2-0.4-0.7-0.6-1-0.8c0.1,0.4,0.1,1.2,0.5,1.2H236.8z"/>
	<path class="st1" d="M249.5,79.7c1.9-0.2,2.2-0.7,2.6-2.1c0.2-0.7,0.7-1.3,1.1-1.8c0.3-0.3,0.6-0.6,0.9-1c0.1-0.2,0.2-0.3,0-0.3
		c-0.2,0.2-0.9,0.6-1.2,0.8c-1.3,1-3.4,1.4-4.2,1.4c-1.7,0-3.3-0.5-4.8-0.5c-4.8,0-6.5,3.7-6.3,6c0,0.3,0.1,0.4,0.2,0.4
		c0.3,0,0.6-1.2,1.8-2.4c1.7-1.6,3.6-2.6,6.3-2.6c1.9,0,2.8,0.7,2.8,0.9c0,0.5-0.9,0.5-0.8,1.1C247.8,79.5,248.2,79.9,249.5,79.7"/>
	<g>
		<path class="st0" d="M98.8,88h-2.7V75.3h2.7c3.7,0,6.3,2.7,6.3,6.3C105.2,85.2,102.6,88,98.8,88 M98.8,71.8h-6.1v19.4h6.1
			c2.8,0,5.3-1.1,7-2.8c1.8-1.7,2.9-4.1,2.9-6.9s-1.2-5.2-3-6.9C104,72.9,101.5,71.8,98.8,71.8"/>
	</g>
	<polygon class="st0" points="86.4,71.9 81.4,80.6 76,71.8 71.8,71.8 79.3,83.6 74.7,91.3 78.7,91.3 90.5,71.8 86.4,71.8 	"/>
	<g>
		<path class="st0" d="M61.6,88.3c-3.6,0-6.3-3-6.3-6.6v-0.1c0-3.6,2.8-6.4,6.3-6.4c3.6,0,6.3,3,6.3,6.6
			C67.8,85.3,65.2,88.3,61.6,88.3 M61.6,71.6c-2.8,0-5.3,1.1-7,2.9c-1.8,1.8-2.9,4.2-2.9,7c0,2.8,1.1,5.3,2.9,7.1
			c1.7,1.8,4.2,2.9,7.1,2.9c2.8,0,5.3-1.1,7-2.9c1.8-1.8,2.9-4.3,2.9-7.1c0-2.8-1.1-5.3-2.9-7C66.7,72.8,64.3,71.6,61.6,71.6"/>
		<path class="st0" d="M119.1,79.8c-1.5-0.5-2.6-0.9-3.2-1.3c-0.6-0.4-0.8-0.9-0.8-1.4c0-0.9,0.4-1.3,1.1-1.7
			c0.7-0.3,1.4-0.5,2.3-0.5c1.2,0,3,0.3,4.5,1.1l0,0h0.2v-3.3h-0.1c-1.4-0.7-3.1-1-4.9-1c-1.6,0-3.3,0.5-4.3,1.3
			c-1.3,1-2.1,2.4-2.1,4.1c0,3.3,2.6,4.8,5.2,5.6c1.2,0.4,2.2,0.7,2.9,1.2c0.8,0.5,1.2,1.1,1.2,1.9c0,0.9-0.4,1.4-1.1,1.8
			c-0.6,0.4-1.4,0.6-2.2,0.6c-2.1,0-4.1-0.9-5.3-1.6l-0.1-0.1l-0.2-0.1V90h0.2c1.2,0.7,3.3,1.4,5.6,1.4c3.5,0,6.6-2.2,6.6-5.9
			C124.4,82.4,122.1,80.8,119.1,79.8"/>
	</g>
	<polygon class="st0" points="26.5,71.8 23,71.8 23,91.3 35.2,91.3 35.2,87.9 26.5,87.9 	"/>
	<polygon class="st0" points="42,71.8 38.4,71.8 38.4,91.3 50.8,91.3 50.8,87.9 42,87.9 	"/>
	<polygon class="st0" points="190,86.4 190,86.4 181,71.8 176.4,71.8 176.4,91.2 179.9,91.2 179.9,76.3 180,76.3 189.2,91.2 
		193.6,91.2 193.6,71.8 190,71.8 	"/>
	<polygon class="st0" points="206.5,80.9 215.5,71.8 210.9,71.8 202.7,80.3 202.6,80.3 202.6,71.8 199.3,71.8 199.3,91.3 
		202.6,91.3 202.6,81.5 202.7,81.5 211.3,91.3 216.2,91.3 	"/>
	<path class="st0" d="M160.2,83.8l3.1-7.9l3,7.9H160.2z M161.8,71.8l-8.5,19.4h3.8l1.7-4.4h8.5l1.8,4.4h3.9l-8.4-19.4H161.8z"/>
	<path class="st0" d="M143.1,88.4H140v-5.7h3.3c2.8,0,4.2,0.7,4.2,2.8C147.4,88.1,144.9,88.4,143.1,88.4 M140,74.7h2.8
		c2.6,0,3.8,0.7,3.8,2.4c0,1.7-1.2,2.7-3.6,2.7H140V74.7z M146.7,81.1L146.7,81.1c2-0.7,3.4-2.1,3.4-4.3c0-3.6-3-4.9-6-4.9h-7.6
		v19.4h7c3.6,0,7.3-1.4,7.3-5.7C150.9,83.1,149.1,81.3,146.7,81.1"/>
	<path d="M275.2,81.1c1,0.7,1.9,1.2,1.9,2.2c0,0.3-0.4,0.6-1.2,0.6c-0.7,0-1.4-0.2-1.7-0.7c-0.3-0.4,0.1-0.9-0.1-1.2
		c-0.2-0.3-0.6-0.2-0.9-0.3c-0.3-0.2-0.4-0.4-0.6-0.8c-0.3-0.6-1.1-1.4-2-2.5c-0.9-0.9-1.7-1.2-2.1-1.2c-0.3,0-0.4,0-0.7,0
		c-0.7,0-1.3,0.7-2.3,1.2c-0.7,0.3-1.2,0.5-1.5,0.6l-0.2,0.2h1c0.9,0,2-0.1,2.9-0.1s1.3,0.8,1.6,1.6c0.7,1.6,1.7,4.1,2.9,6.1
		c0.6,1,1.1,1.5,1.1,2.8c0,0.4,0,0.9-0.5,0.9c-0.7,0-2.4-0.7-2.4-1.4c0-0.6,0.5-0.9,0.5-1.4c0-0.4-0.6-0.3-0.7-0.7
		c-0.4-1.8-1-3.6-2-4.6c-0.5-0.6-0.6-0.8-1.1-0.8c-0.3,0-0.6,0.1-0.8,0.2c-1.4,0.6-3.3,2.1-5.6,2.8c-0.9,0.3-1.1-0.3-2-0.1h0.1
		c-0.8,0.2-1.3,0.6-2.3,0.9c-1.4,0.4-3.8,0.6-5.8,0.3c-1.3-0.2-3.2-0.5-3.9-0.4c-0.6,1.7-1.8,3.9-3.6,4.8c-1,0.4-1.2,1.1-1,2.1
		c0.4,1.3,1.6,2.4,2.2,3.6c0.6,1.1,1.5,2.6,2.5,3.2c1.1,0.5,1.6,1.2,1.6,1.9c0,0.3-0.1,0.5-0.4,0.5h-2c-0.3,0-0.5-0.2-0.5-0.3
		c-0.3-0.5-0.1-1.1-0.5-1.4c-0.3-0.4-0.5-0.3-0.9-0.5c-0.6-0.6-0.2-1-0.6-1.6c-1.2-2-1.8-2.5-3-3.9c-0.6-0.8-1.3-1.2-1.3-2.1
		c0-1.2,1.2-1.4,1.2-2.7c-0.8,0.6-1.7,1.1-3.2,1.2c-0.2,0-0.7,0.4-0.9,0.7c-0.5,0.5-0.7,1-0.8,1.7c-0.1,1.6-0.5,3.4-0.3,5
		c0.3,1.1,0.5,1.4,1.3,2c0.6,0.4,1.2,0.9,1.2,1.6c0,0.2-0.1,0.5-0.4,0.5h-2.2c-0.2,0-0.4-0.2-0.5-0.3c-0.3-0.4-0.1-0.8-0.2-1.2
		c-0.2-1-1.3-1-1.3-2c0-0.3,0.2-0.7,0.2-1.3c0.1-1.4,0.5-3.6,0.1-6.4c-0.2-1.6,1.4-1.6,2.3-3.1c0.5-0.8,0.4-0.5,0.7-1.1
		c0.3-0.6,0.3-1.1,0.2-1.4c0-0.5-0.5-1.4-0.2-3.5c0.1-0.9,0.6-1.8,1.2-2.6c0,0,0-0.2-0.2-0.2c-0.9,0.1-0.9-0.2-1.4-0.2
		s-1,0.5-1.1,0.7c-0.3-0.1-0.4-0.4-0.4-0.6c0-0.3,0.1-0.6,0.4-0.9c0.1-0.1,0-0.2-0.2-0.2c-0.7,0-1.3,0.9-1.4,1.4
		c-0.4-0.1-0.4-0.6-0.6-0.6c-0.2,0-0.3,0.3-0.3,0.6c0,2,3.2,2.4,3.2,5c0,3-3.6,2.4-3.6,3.5c0,0.2,0.2,0.4,0.5,0.5
		c-0.1,0.3-0.5,0.4-0.8,0.4c-0.8,0-1.3-0.6-1.3-1.3c0-1.6,2.2-1.6,2.2-2.9c0-0.6-0.4-0.8-0.7-1.1c-2.1-1.4-3.3-3-3.3-5.4
		c0-2.6,1.8-4.6,4.2-4.6c3.5,0,3.6,3.9,6.6,4.3c1.2-0.8,2.6-1.2,3.9-1.2c2,0,2.9,0.5,5.1,0.5c0.9,0,2.3-0.3,4-1.4
		c0.7-0.4,1-0.5,1.5-1.1c1.3-1.2,2.6-3.5,2.6-5.1v0c0-0.6-0.1-0.9-0.4-0.9c-0.8,0-1.3,0.7-2.1,1.3c-0.5,0.5,0.3,0.7-0.8,1.2
		c-0.4,0.2-0.8-0.2-1.2-0.2c-0.9,0-1.2-1-1.2-1.8c0-0.5,0.3-0.6,0.5-1c0.4-0.9,0.4-1.2,0.8-2c0.3-0.6,0.7-1,0.7-1.3
		c0-0.2-0.1-0.2-0.1-0.4c0-0.9,1.2-1.3,1.2-2.2c0-0.5-0.5-0.7-0.7-1.1c-0.1-0.4,0-0.5,0-0.5c0-0.1,0.1-0.1,0.2-0.1
		c0.5,0,0.6,0.5,1.1,0.7c0-0.6-0.2-0.7-0.2-1.1c0-0.2,0-0.6,0.2-0.6c0.3,0,0.3,0.4,0.5,0.6c0.3,0.3,0.6,0.2,0.9,0.4
		c0.5,0.3,0.7,0.8,0.9,0.8c0.5,0.1,0.6-0.5,0.3-0.8c0.5,0,1,0.4,1.6,0.4c1.1,0,1.3,0.3,1.5,0.4c0.7,0.6,0.8,1,1.4,1
		c0.4,0,0.6-0.3,0.7-0.4c0.5,0.4,0.5,1.2,0,2c0.2,0.7,1.2,0.7,1.5,1.1c0.5,0.3,0.4,0.5,0.7,0.7c0.2,0.2,0.5,0.1,0.7,0
		c0.2,0.9-0.6,1.6-1.4,1.7c0,1.2,1.2,1.8,1.7,2c-0.3,0.7-0.9,0.9-1.3,1.1c0.2,0.7,0.9,1.6,0.6,2.6c-0.3-0.2-0.9,0-0.9,0.5
		c0,0.6,0.8,0.9,0,1.2c-0.3,0.2-0.4,0.7,0.2,1.2c0.8-0.2,1.5-0.2,2.4-0.2c0.6,0,1.2-0.2,1.8-0.2c1,0,1.4,0.4,2.1,1.1
		C271.9,77.8,273.4,79.8,275.2,81.1"/>
	<path class="st1" d="M229.6,76.2c0.4,0,1.1-2,2.4-2c0.4,0,0.5,0.2,0.5,0.3c0,0.3-0.5,0.5-0.5,0.9c0,0.1,0,0.2,0.2,0.2
		c0.4,0,0.6-0.8,2-0.8c0.4,0,0.7,0,1,0.1c0.2,0,0.5,0.2,0.4-0.2c-0.4-1-1.3-1.8-2.9-1.8c-1.4,0-3,1.3-3.2,2.9
		C229.4,76,229.4,76.2,229.6,76.2"/>
	<path class="st1" d="M255.1,63.6c-0.4-0.2-0.5-0.4-0.4-0.9c0.1-0.5,0.1-0.8-0.1-0.8c-0.2-0.1-0.5,0.1-0.8,0.4
		c-0.3,0.4-0.7,0.8-0.8,1.1c-0.1,0.5,0.4,0.4,0,1.1c-0.7,1.2-0.8,1.4-1.2,2.2c-0.3,0.9-0.5,1-0.7,1.2c-0.2,0.3,0.2,0.3,0.8,0.1
		c0.5-0.2,0.6,0.4,0.4,0.9c-0.2,0.3,0,0.4,0.4,0.1c0.4-0.3-0.2-0.6-0.1-1.5c0.2-0.9,0.4-1.3,0.9-2.3c0.5-0.8,0.9-1.3,1.6-1.1
		C255.6,64.3,255.5,63.7,255.1,63.6"/>
	<path class="st1" d="M272.2,89.6c0.2,0,0.2-0.2,0.2-0.4c0-0.4-0.3-1.1-0.6-1.3c-0.1,0.7-0.4,1.1-0.4,1.3
		C271.4,89.4,272,89.6,272.2,89.6"/>
	<path class="st1" d="M259.1,75c3.5,1.6,3.3,4.5,3.6,3.7c0.1-0.3,0.6-1.7-0.7-3.2c-1-1.2-1.3-0.9-1-1.7c1.5-3.6,2.5-9.2-2-11.1
		c-0.5-0.2-1-0.2-1-0.1c0,0.1,0.5,0.3,1.1,0.7c3,2,2.1,7.4-0.7,10.1C257.6,74.3,257.9,74.5,259.1,75"/>
	<path class="st1" d="M247.3,100.6c0.2,0,0.1-0.4,0-0.5c-0.2-0.4-0.6-0.7-1-0.8c0.1,0.4,0.1,1.2,0.5,1.2H247.3z"/>
	<path class="st1" d="M236.8,100.6c0.2,0,0.1-0.4,0-0.5c-0.2-0.4-0.7-0.6-1-0.8c0.1,0.4,0.1,1.2,0.5,1.2H236.8z"/>
	<path class="st1" d="M249.5,79.7c1.9-0.2,2.2-0.7,2.6-2.1c0.2-0.7,0.7-1.3,1.1-1.8c0.3-0.3,0.6-0.6,0.9-1c0.1-0.2,0.2-0.3,0-0.3
		c-0.2,0.2-0.9,0.6-1.2,0.8c-1.3,1-3.4,1.4-4.2,1.4c-1.7,0-3.3-0.5-4.8-0.5c-4.8,0-6.5,3.7-6.3,6c0,0.3,0.1,0.4,0.2,0.4
		c0.3,0,0.6-1.2,1.8-2.4c1.7-1.6,3.6-2.6,6.3-2.6c1.9,0,2.8,0.7,2.8,0.9c0,0.5-0.9,0.5-0.8,1.1C247.8,79.5,248.2,79.9,249.5,79.7"/>
</g>
</svg>
