<?xml version="1.0" encoding="utf-8"?>
<!-- Generator: Adobe Illustrator 22.1.0, SVG Export Plug-In . SVG Version: 6.00 Build 0)  -->
<svg version="1.1" id="Layer_1" xmlns="http://www.w3.org/2000/svg" xmlns:xlink="http://www.w3.org/1999/xlink" x="0px" y="0px"
	 width="300px" height="160px" viewBox="0 0 300 160" style="enable-background:new 0 0 300 160;" xml:space="preserve">
<style type="text/css">
	.st0{fill:#D62A43;}
	.st1{fill:#FFFFFF;}
	.st2{fill:#001A70;}
</style>
<g>
	<polygon class="st0" points="44.7,53.7 44.7,94.5 79.3,106.3 114,94.5 114,53.7 	"/>
	<path class="st1" d="M79.3,93.3H68.7v-3.7h-0.1c-2,2.8-5,4.4-9.4,4.4c-5.2,0-9.9-3.1-9.9-9.8V64.6h10.9v15.1c0,3.3,0.4,5.7,3.6,5.7
		c1.9,0,4.4-0.9,4.4-5.6V64.6h10.9L79.3,93.3L79.3,93.3z"/>
	<path class="st1" d="M99.7,72.8c-0.1-0.9-0.6-1.7-1.3-2.2c-0.7-0.6-1.6-0.8-2.4-0.8c-1.6,0-3.3,0.4-3.3,2.2c0,0.8,0.7,1.2,1.3,1.5
		c1.9,0.8,6,1,9.7,2.2s6.9,3.3,6.9,8c0,8-7.6,10.1-14.6,10.1c-6.7,0-14.2-2.7-14.3-10.1H92c0.1,1,0.5,1.9,1.3,2.5
		c0.6,0.5,1.6,0.8,2.9,0.8c1.5,0,3.7-0.6,3.7-2.2s-0.9-2.1-6.1-3c-8.4-1.5-11.8-4.1-11.8-9c0-7.3,7.8-9.1,13.7-9.1
		c6.1,0,13.8,1.8,14,9.1C109.7,72.8,99.7,72.8,99.7,72.8z"/>
	<path class="st2" d="M117.9,53.7h10.9v14h0.1c1.7-2.4,4.6-3.9,7.9-3.9c9.7,0,12.2,8.2,12.2,15c0,7.2-4,15.3-12.1,15.3
		c-5.4,0-7.1-2-8.5-3.9h-0.1v3.1h-10.5L117.9,53.7L117.9,53.7z M133.3,71.7c-4,0-4.8,3.7-4.8,7.1s0.9,7.2,4.8,7.2
		c4,0,4.8-3.7,4.8-7.2C138.1,75.5,137.2,71.7,133.3,71.7"/>
	<path class="st2" d="M179.8,86.8c0,2.2,0.1,4.6,1.3,6.4h-11.2c-0.3-0.8-0.5-2-0.4-2.7h-0.1c-2.3,2.6-5.7,3.4-9.3,3.4
		c-5.6,0-10.1-2.6-10.1-8.8c0-9.1,10.6-8.8,16.3-9.9c1.5-0.3,3-0.8,3-2.5c0-2-1.9-2.6-3.6-2.6c-3.4,0-4,1.8-4.1,2.9h-10.2
		c0.4-8.1,8-9.4,14.8-9.4c13.8,0,13.7,5.7,13.7,11.2L179.8,86.8L179.8,86.8z M169.1,80.4c-1.3,0.7-2.8,1-4.3,1.4
		c-2.4,0.6-3.7,1.2-3.7,3.1c0,1.3,1.5,2.6,3.4,2.6c2.4,0,4.4-1.5,4.6-4.5V80.4z"/>
	<path class="st2" d="M183.7,64.6h10.5v3.7h0.1c2-2.8,5-4.4,9.4-4.4c5.2,0,9.9,3.1,9.9,9.8v19.7h-10.9V78.1c0-3.3-0.4-5.7-3.6-5.7
		c-1.9,0-4.4,0.9-4.4,5.6v15.2h-10.9L183.7,64.6L183.7,64.6z"/>
	<polygon class="st2" points="217.4,53.7 228.5,53.7 228.5,72.8 235.4,64.6 247.9,64.6 237.6,75.4 249.5,93.3 236.3,93.3 
		230.3,82.8 228.5,85 228.5,93.3 217.4,93.3 	"/>
	<path class="st2" d="M254.4,89.4c0.5,0.5,0.7,0.9,0.7,1.5s-0.2,1.1-0.7,1.6c-0.4,0.5-0.9,0.7-1.5,0.7c-0.6,0-1.1-0.2-1.5-0.7
		c-0.4-0.5-0.7-0.9-0.7-1.6c0-0.6,0.2-1.1,0.7-1.5c0.5-0.5,0.9-0.7,1.5-0.7C253.4,88.8,253.9,88.9,254.4,89.4 M254.5,89.1
		c-0.5-0.5-1.1-0.8-1.8-0.8c-0.7,0-1.3,0.3-1.8,0.8c-0.5,0.5-0.8,1.1-0.8,1.8c0,0.7,0.3,1.3,0.8,1.8c0.5,0.5,1.1,0.8,1.8,0.8
		c0.8,0,1.3-0.3,1.8-0.8c0.5-0.5,0.8-1.1,0.8-1.8C255.3,90.2,255.1,89.6,254.5,89.1 M253.2,90.7c-0.1,0-0.3,0.1-0.5,0.1h-0.5v-1h0.4
		c0.3,0,0.5,0,0.6,0.1s0.2,0.2,0.2,0.4C253.4,90.5,253.3,90.6,253.2,90.7 M251.8,92.2h0.5v-1.1h0.4c0.3,0,0.5,0,0.6,0.1
		c0.2,0.1,0.3,0.3,0.3,0.7v0.2v0.1l0,0l0,0h0.5l0,0V92v-0.2v-0.2c0-0.1-0.1-0.3-0.2-0.5c-0.1-0.2-0.3-0.3-0.5-0.3
		c0.2,0,0.3-0.1,0.4-0.1c0.2-0.1,0.3-0.3,0.3-0.6c0-0.4-0.1-0.6-0.5-0.8c-0.2-0.1-0.4-0.1-0.8-0.1h-0.9L251.8,92.2L251.8,92.2z"/>
</g>
</svg>
