<?xml version="1.0" encoding="utf-8"?>
<!-- Generator: Adobe Illustrator 22.1.0, SVG Export Plug-In . SVG Version: 6.00 Build 0)  -->
<svg version="1.1" id="Layer_1" xmlns="http://www.w3.org/2000/svg" xmlns:xlink="http://www.w3.org/1999/xlink" x="0px" y="0px"
	 width="300px" height="160px" viewBox="0 0 300 160" style="enable-background:new 0 0 300 160;" xml:space="preserve">
<style type="text/css">
	.st0{fill:#D62A43;}
	.st1{fill:#FFFFFF;}
	.st2{fill:#001A70;}
</style>
<g>
	<polygon class="st0" points="65.5,58.9 65.5,91.6 93.3,101.1 121.1,91.6 121.1,58.9 	"/>
	<path class="st1" d="M93.3,90.7h-8.5v-3h-0.1c-1.6,2.2-4,3.5-7.5,3.5c-4.2,0-7.9-2.5-7.9-7.9V67.6h8.7v12.1c0,2.6,0.3,4.6,2.9,4.6
		c1.5,0,3.5-0.7,3.5-4.5V67.6h8.7L93.3,90.7L93.3,90.7z"/>
	<path class="st1" d="M109.6,74.2c-0.1-0.7-0.5-1.4-1-1.8c-0.6-0.5-1.3-0.6-1.9-0.6c-1.3,0-2.6,0.3-2.6,1.8c0,0.6,0.6,1,1,1.2
		c1.5,0.6,4.8,0.8,7.8,1.8c3,1,5.5,2.6,5.5,6.4c0,6.4-6.1,8.1-11.7,8.1c-5.4,0-11.4-2.2-11.5-8.1h8.3c0.1,0.8,0.4,1.5,1,2
		c0.5,0.4,1.3,0.6,2.3,0.6c1.2,0,3-0.5,3-1.8c0-1.3-0.7-1.7-4.9-2.4c-6.7-1.2-9.5-3.3-9.5-7.2c0-5.9,6.3-7.3,11-7.3
		c4.9,0,11.1,1.4,11.2,7.3H109.6z"/>
	<path class="st2" d="M124.2,58.9h8.7v11.2h0.1c1.4-1.9,3.7-3.1,6.3-3.1c7.8,0,9.8,6.6,9.8,12c0,5.8-3.2,12.3-9.7,12.3
		c-4.3,0-5.7-1.6-6.8-3.1h-0.1v2.5h-8.4L124.2,58.9L124.2,58.9z M136.6,73.3c-3.2,0-3.9,3-3.9,5.7c0,2.7,0.7,5.8,3.9,5.8
		c3.2,0,3.9-3,3.9-5.8C140.5,76.4,139.7,73.3,136.6,73.3"/>
	<path class="st2" d="M173.9,85.5c0,1.8,0.1,3.7,1,5.1h-9c-0.2-0.6-0.4-1.6-0.3-2.2h-0.1c-1.8,2.1-4.6,2.7-7.5,2.7
		c-4.5,0-8.1-2.1-8.1-7.1c0-7.3,8.5-7.1,13.1-7.9c1.2-0.2,2.4-0.6,2.4-2c0-1.6-1.5-2.1-2.9-2.1c-2.7,0-3.2,1.4-3.3,2.3h-8.2
		c0.3-6.5,6.4-7.5,11.9-7.5c11.1,0,11,4.6,11,9L173.9,85.5L173.9,85.5z M165.3,80.3c-1,0.6-2.2,0.8-3.5,1.1c-1.9,0.5-3,1-3,2.5
		c0,1,1.2,2.1,2.7,2.1c1.9,0,3.5-1.2,3.7-3.6V80.3z"/>
	<path class="st2" d="M177,67.6h8.4v3h0.1c1.6-2.2,4-3.5,7.5-3.5c4.2,0,7.9,2.5,7.9,7.9v15.8h-8.7V78.5c0-2.6-0.3-4.6-2.9-4.6
		c-1.5,0-3.5,0.7-3.5,4.5v12.2h-8.7L177,67.6L177,67.6z"/>
	<polygon class="st2" points="204.1,58.9 213,58.9 213,74.2 218.5,67.6 228.6,67.6 220.3,76.3 229.8,90.7 219.2,90.7 214.4,82.2 
		213,84 213,90.7 204.1,90.7 	"/>
	<path class="st2" d="M233.8,87.5c0.4,0.4,0.6,0.7,0.6,1.2c0,0.5-0.2,0.9-0.6,1.3c-0.3,0.4-0.7,0.6-1.2,0.6c-0.5,0-0.9-0.2-1.2-0.6
		s-0.6-0.7-0.6-1.3c0-0.5,0.2-0.9,0.6-1.2c0.4-0.4,0.7-0.6,1.2-0.6C233,87.1,233.4,87.1,233.8,87.5 M233.8,87.3
		c-0.4-0.4-0.9-0.6-1.4-0.6s-1,0.2-1.4,0.6c-0.4,0.4-0.6,0.9-0.6,1.4s0.2,1,0.6,1.4c0.4,0.4,0.9,0.6,1.4,0.6c0.6,0,1-0.2,1.4-0.6
		s0.6-0.9,0.6-1.4C234.5,88.2,234.3,87.7,233.8,87.3 M232.8,88.6c-0.1,0-0.2,0.1-0.4,0.1H232v-0.8h0.3c0.2,0,0.4,0,0.5,0.1
		c0.1,0.1,0.2,0.2,0.2,0.3S232.9,88.5,232.8,88.6 M231.7,89.8h0.4v-0.9h0.3c0.2,0,0.4,0,0.5,0.1c0.2,0.1,0.2,0.2,0.2,0.6v0.2v0.1
		l0,0l0,0h0.4l0,0v-0.2v-0.2v-0.2c0-0.1-0.1-0.2-0.2-0.4c-0.1-0.2-0.2-0.2-0.4-0.2c0.2,0,0.2-0.1,0.3-0.1c0.2-0.1,0.2-0.2,0.2-0.5
		c0-0.3-0.1-0.5-0.4-0.6c-0.2-0.1-0.3-0.1-0.6-0.1h-0.7L231.7,89.8L231.7,89.8z"/>
</g>
</svg>
