<?xml version="1.0" encoding="utf-8"?>
<!-- Generator: Adobe Illustrator 22.1.0, SVG Export Plug-In . SVG Version: 6.00 Build 0)  -->
<svg version="1.1" id="Layer_1" xmlns="http://www.w3.org/2000/svg" xmlns:xlink="http://www.w3.org/1999/xlink" x="0px" y="0px"
	 width="300px" height="160px" viewBox="0 0 300 160" style="enable-background:new 0 0 300 160;" xml:space="preserve">
<style type="text/css">
	.st0{fill:#EE2529;}
</style>
<g>
	<path class="st0" d="M268.7,89.9v0.5h0.2c0.1,0,0.2-0.1,0.2-0.1c0.1,0,0.1-0.1,0.1-0.1c0-0.1,0-0.2-0.1-0.2c0,0-0.1-0.1-0.2-0.1
		L268.7,89.9L268.7,89.9z M268.4,89.8h0.5c0.2,0,0.4,0,0.5,0.1c0,0,0.1,0.1,0.1,0.2c0,0.1,0,0.2-0.1,0.3c0,0-0.1,0.1-0.2,0.1
		l0.3,0.6h-0.3l-0.3-0.6h-0.2V91h-0.3V89.8L268.4,89.8z M268.9,89.4c0.1,0,0.3,0.1,0.4,0.1c0.1,0.1,0.2,0.1,0.3,0.2
		c0.1,0.1,0.2,0.2,0.2,0.4c0.1,0.1,0.1,0.2,0.1,0.4c0,0.1,0,0.2-0.1,0.3c0,0.2-0.1,0.3-0.2,0.4c-0.1,0-0.2,0.1-0.3,0.2
		c-0.1,0-0.3,0-0.4,0c-0.1,0-0.3,0-0.4,0c-0.1-0.1-0.2-0.2-0.3-0.3c-0.1-0.1-0.2-0.2-0.2-0.3c-0.1-0.1-0.1-0.2-0.1-0.4
		c0-0.1,0-0.2,0.1-0.3c0-0.2,0.1-0.3,0.2-0.4c0.1-0.1,0.2-0.1,0.3-0.2C268.6,89.5,268.8,89.4,268.9,89.4L268.9,89.4z M268.9,89.3
		c0.2,0,0.3,0,0.5,0.1c0.1,0,0.2,0.1,0.3,0.2c0.2,0.1,0.2,0.3,0.3,0.4c0.1,0.1,0.1,0.3,0.1,0.4c0,0.2,0,0.4-0.1,0.5
		c-0.1,0.1-0.1,0.3-0.3,0.4c-0.1,0.1-0.2,0.2-0.3,0.2c-0.2,0.1-0.3,0.1-0.5,0.1c-0.1,0-0.3,0-0.4-0.1c-0.2,0-0.3-0.1-0.4-0.2
		c-0.1-0.1-0.2-0.3-0.3-0.4c0-0.2-0.1-0.3-0.1-0.5c0-0.1,0.1-0.3,0.1-0.4c0.1-0.2,0.2-0.3,0.3-0.4c0.1-0.1,0.2-0.2,0.4-0.2
		C268.6,89.3,268.7,89.3,268.9,89.3L268.9,89.3z"/>
	<path class="st0" d="M172.9,77.9H170v10.4h2.9c1.5,0,2.8-0.5,3.6-1.5c0.9-0.9,1.6-2.3,1.6-3.8c0-1.5-0.6-2.8-1.6-3.7
		C175.6,78.4,174.2,77.9,172.9,77.9L172.9,77.9z M185,74.2h16.9h0.4v0.4v4.5v0.4h-0.4h-5h-0.4v-0.4v-1.2h-2.8v1.2V81v0.6h2.8V81
		v-0.4h0.4h3.4h0.4V81v4.2v0.3h-0.4h-3.4h-0.4v-0.4v-0.5h-2.8v3.7h2.8v-1.1v-0.5h0.4h5h0.4v0.4v4.3v0.4h-0.4H185h-0.4v-0.4v-2.8
		v-0.4h0.4h3V77.9h-3h-0.4v-0.4v-3v-0.4H185L185,74.2z M215.1,77.9h-1.7v4.8h1.7c0.6,0,1.2-0.3,1.8-0.7c0.5-0.4,0.6-1,0.6-1.8
		c0-0.7-0.2-1.2-0.6-1.8C216.4,78.2,215.8,77.9,215.1,77.9L215.1,77.9z M204.6,74.2h12c0.1,0,0.1,0,0.1,0c0.5,0,0.9,0.1,1.6,0.1
		c0.5,0.1,0.9,0.2,1.5,0.4c2.5,0.6,4.4,2.5,4.5,5.4v0.1c0,2-0.9,3.5-2.5,4.5c-1.4,0.9-3.2,1.5-4.9,1.5h-0.1h-3.3v2h3h0.4v0.4v2.9
		v0.5h-0.4h-12h-0.4v-0.4v-2.9v-0.4h0.4h3V77.9h-3h-0.4v-0.4v-3v-0.4H204.6L204.6,74.2z M237.2,77.9L237.2,77.9
		c-1.5,0-2.8,0.6-3.7,1.6c-0.8,0.9-1.5,2.2-1.5,3.7c0,1.4,0.6,2.9,1.5,3.8c0.9,0.9,2.2,1.5,3.6,1.5h0.1c1.4,0,2.7-0.5,3.6-1.5
		c0.8-0.9,1.5-2.3,1.5-3.8c0-1.4-0.6-2.8-1.5-3.7C239.7,78.4,238.4,77.9,237.2,77.9L237.2,77.9z M236.7,73.9c0.4,0,0.6,0,1,0
		c3,0,5.5,0.6,7.6,2s3.4,3.4,3.6,5.9c0,0.1,0,0.3,0,0.5l0,0v0.1c0,0.7-0.1,1.6-0.3,2.2c-0.2,0.7-0.5,1.5-0.8,2
		c-1.8,3.2-5.6,5.2-10.2,5.4l0,0c-0.3,0-0.5,0.1-0.6,0.1c-3.1,0.1-5.7-0.6-7.8-1.9c-2.1-1.5-3.5-3.4-3.7-6c0-0.1,0-0.2,0-0.4l0,0
		l0,0c0-0.8,0.1-1.7,0.2-2.4c0.2-0.7,0.5-1.5,0.8-2C228.2,76.3,232.3,74.3,236.7,73.9L236.7,73.9z M249.7,74.2H270h0.4v0.4v4.5v0.4
		H270h-4.4h-0.3v-0.4v-1.2h-2.4v10.4h2.8h0.4v0.4v2.9v0.4h-0.4h-11.4h-0.4v-0.4v-2.9v-0.4h0.4h3V77.9h-2.7v1.2v0.4h-0.4h-4.3h-0.4
		v-0.4v-4.5v-0.4H249.7L249.7,74.2z M161.1,74.2h14.5c2.2,0,4.4,0.7,6,2.2c1.7,1.6,2.9,3.7,2.9,6.5c0,3-1.5,5.1-3.5,6.5
		c-2,1.5-4.6,2.2-6.8,2.2H161h-0.4v-0.4v-2.9v-0.2h0.4h3.1V77.9H161h-0.4v-0.4v-3v-0.4H161.1L161.1,74.2L161.1,74.2z"/>
	<path class="st0" d="M142.7,80.6c0-0.6-0.4-1.5-0.8-2c-0.6-0.6-1.5-1-2.6-1c-0.2,0-0.3,0-0.5,0c-1,0-1.9,0.4-2.7,0.8
		c-0.6,0.6-0.9,1.4-1,2.2L142.7,80.6L142.7,80.6z M43.5,67.3L43.5,67.3c0.4-0.1,0.6-0.1,1-0.1c3.7-0.1,6.9,0.8,9.6,2.8
		c2.6,1.9,4.2,4.6,4.4,8.2c0.1,0.2,0.1,0.4,0.1,0.6c0.1,5.4-3,9.8-7.7,12c-0.9,0.4-1.9,0.7-3,1c-0.9,0.2-2.1,0.4-3.2,0.5h-0.1
		c-0.2,0-0.5,0.1-0.6,0.1c-3.8,0.1-7.3-0.7-9.8-2.8c-2.7-1.8-4.3-4.6-4.6-8.3c0-0.1,0-0.3,0-0.5c-0.3-5.5,3-10,7.7-12.2
		c0.8-0.5,1.9-0.7,3-1C41.2,67.5,42.4,67.4,43.5,67.3L43.5,67.3z M44.2,71.9c-0.5,0-0.9,0.1-1.4,0.2c-0.6,0.1-1,0.2-1.6,0.4
		c-0.5,0.2-0.9,0.5-1.5,0.7c-2,1.5-3.5,3.8-3.5,6.4c0,0.5,0,0.8,0.1,1.4c0.3,1.7,0.9,3.1,2.1,4.2c1,1.1,2.5,1.9,4,2.2
		c0.5,0,0.9,0.1,1.5,0.1c0.4,0,0.8,0,1.2-0.1c0.6-0.1,1-0.3,1.6-0.5c0.6-0.2,1-0.5,1.5-0.7c2.1-1.4,3.5-3.8,3.5-6.4
		c0-0.4,0-0.8-0.1-1.2c-0.2-1.7-0.9-3.1-2-4.2c-1.1-1-2.6-1.8-4.2-2.1C45.1,72,44.7,71.9,44.2,71.9L44.2,71.9z M60.2,74.2H64v-2.6
		c0-1.6,0.6-3,1.8-4.2c1.1-1.1,3-1.9,4.9-1.9h5.6h0.4v0.4v3v0.4h-0.4h-2.7c-0.9,0-1.8,0.1-2.5,0.5c-0.6,0.3-0.9,0.8-0.9,1.8v2.8H75
		h0.4v0.4v3v0.4H75h-4.7v10.4h4.2h0.5v0.2v2.9v0.4h-0.4H60.2h-0.4v-0.4v-2.9v-0.4h0.4H64V77.9h-3.9h-0.4v-0.4v-3v-0.4H60.2
		L60.2,74.2z M77.9,74.2h3.8v-2.6c0-1.6,0.6-3,1.8-4.2c1.2-1.1,3-1.9,5-1.9h5.6h0.4v0.4v3v0.4h-0.4h-2.7c-0.9,0-1.8,0.1-2.6,0.5
		C88.4,70,88,70.5,88,71.4v2.8h4.6H93v0.4v3v0.4h-0.4H88v10.4h4.2h0.4v0.2v2.9v0.4h-0.4H77.9h-0.4v-0.4v-2.9v-0.4h0.4h3.8V77.9h-3.8
		h-0.4v-0.4v-3v-0.4H77.9L77.9,74.2z M102.2,65.6c1,0,2.1,0.4,3,0.8c0.7,0.6,1.2,1.5,1.2,2.3s-0.5,1.8-1.2,2.4
		c-0.7,0.5-1.8,0.8-3,0.8c-1.1,0-2.1-0.4-3-0.8c-0.7-0.6-1.2-1.5-1.2-2.4c0-0.8,0.5-1.8,1.2-2.3C100.1,66,101.2,65.6,102.2,65.6
		L102.2,65.6z M95.4,74.2h9.9h0.4v0.4v13.7h3.2h0.4v0.4v2.9v0.4h-0.4H95.4H95v-0.4v-2.9v-0.4h0.4h3.8V77.9h-3.8H95v-0.4v-3v-0.4
		H95.4L95.4,74.2z M126.6,74.6v5.1V80h-0.4h-3.9H122v-0.4v-1.8c-0.2,0-0.3,0-0.4,0c-0.3,0-0.6,0-0.7,0c-0.6,0-1.4,0.1-1.9,0.3
		c-0.1,0-0.2,0-0.2,0.1c-0.5,0.1-0.8,0.4-1.2,0.6c0,0.1-0.1,0.2-0.2,0.2c-0.2,0.2-0.3,0.3-0.5,0.5c-0.1,0.1-0.2,0.3-0.3,0.5
		c-0.6,0.7-0.8,1.7-0.8,2.7c0,0.1,0,0.2,0,0.3c0.1,0.2,0.1,0.4,0.1,0.6c0.1,0.2,0.1,0.4,0.2,0.6c0.3,0.9,0.8,1.8,1.8,2.6
		c1,0.7,2.6,1,4.2,1c1.6,0.1,3.2-0.2,4.4-0.4l0.5-0.1v0.3v3.3v0.6l-0.3,0.1c-1.1,0.3-2.1,0.5-3.2,0.6c-1,0.1-2.1,0.2-3.3,0.2
		c-0.2,0-0.4,0-0.6,0c-0.7,0-1.5-0.1-2.1-0.2c-0.7-0.2-1.5-0.4-2.1-0.6c-3.3-1.1-5.6-3.7-5.6-8.4c0,0,0,0,0-0.1l0,0
		c0-0.6,0.1-1.5,0.3-2.1c0.2-0.6,0.5-1.4,0.8-1.9c1.8-3,5.3-4.8,9.1-4.9h0.1c0.3,0,0.6,0,0.9,0c0.3,0,0.6,0,1,0
		c1.6,0.1,3.1,0.2,4.4,0.4l0.4,0.1L126.6,74.6L126.6,74.6z M140.7,88c0.4,0,0.6,0,0.9,0c0.3,0,0.6,0,0.9,0c1.8-0.1,3.5-0.4,4.7-0.9
		l0.6-0.3v0.6v3.4v0.4l-0.3,0.1c-0.3,0.1-0.6,0.2-0.9,0.3c-0.4,0.1-0.7,0.2-1,0.3c-1.9,0.4-4.2,0.6-6,0.6c-0.2,0-0.5,0-0.6-0.1
		c-0.7,0-1.6-0.1-2.4-0.2c-0.7-0.2-1.6-0.4-2.2-0.6c-3.6-1.2-5.9-3.7-6-8.4c0-0.1,0-0.2,0-0.2c0.1-0.8,0.2-1.8,0.4-2.5
		c0.3-0.7,0.6-1.5,0.9-2.1c1.9-3.2,5.6-4.7,9.8-4.7h0.1c0.7,0,1.6,0.1,2.2,0.2c0.6,0.1,1.4,0.3,1.9,0.6c3.2,1.1,5.3,3.8,5.3,7.9v1.4
		v0.4h-13.7c0,0.3,0.1,0.6,0.2,0.8c0.1,0.4,0.2,0.6,0.4,0.9C136.5,87.4,138.5,87.9,140.7,88L140.7,88L140.7,88z"/>
</g>
</svg>
