<?xml version="1.0" encoding="utf-8"?>
<!-- Generator: Adobe Illustrator 22.1.0, SVG Export Plug-In . SVG Version: 6.00 Build 0)  -->
<svg version="1.1" id="Layer_1" xmlns="http://www.w3.org/2000/svg" xmlns:xlink="http://www.w3.org/1999/xlink" x="0px" y="0px"
	 width="300px" height="160px" viewBox="0 0 300 160" style="enable-background:new 0 0 300 160;" xml:space="preserve">
<style type="text/css">
	.st0{fill:#FFFFFF;}
	.st1{fill:#EE3524;}
</style>
<g>
	<g>
		<path d="M82.2,80.5V69.9c0-1.4-0.7-2.9-4.1-2.9v-0.9h13.1V67c-3.4,0-4.1,1.5-4.1,2.9v23.6c0,1.4,0.7,2.9,4.1,2.9v0.9H78.1v-0.9
			c3.4,0,4.1-1.5,4.1-2.9V82.4H68v11.2c0,1.4,0.7,2.9,4.1,2.9v0.9H59.1v-0.9c3.4,0,4.1-1.5,4.1-2.9V70c0-1.4-0.7-2.9-4.1-2.9v-0.9
			h13.1v0.9c-3.4,0-4.1,1.5-4.1,2.9v10.5L82.2,80.5"/>
		<path d="M92.3,87.9h1.1c1.5,4.4,4.7,8.3,9.7,8.3c3.8,0,6.4-3.3,5.4-6.9c-1.9-6.6-14.8-6.8-14.8-15.9c0-4.7,3.7-7.9,8.3-7.9
			c5,0,7.3,3.5,8.4,0h1l1.1,10h-1.1c-1.1-4.4-4.2-8.1-8.6-8.1c-2.8,0-4.9,1.6-4.9,4.6c0,2.7,3,4.7,5,5.9c6.4,3.9,10.7,5.9,10.7,11.6
			c0,4.2-3.5,8.6-9.9,8.6c-4.9,0-8.3-3.4-8.8,0h-1.1L92.3,87.9"/>
		<path d="M129,80.1c4.7,0,7.6-2,7.6-5.9c0-3.6-2.3-5.5-5.5-6.1c-4.3-0.3-5.9-0.4-5.9,1.2V80L129,80.1 M125.2,93.2
			c0,1.7,0.4,2.5,3.9,2.5c4.9,0,8.5-1.5,8.5-6.9c0-5.6-5.6-6.7-10-6.7h-2.4C125.2,82,125.2,93.2,125.2,93.2z M120.4,70
			c0-1.4-0.7-2.9-4.6-2.9v-0.9h12.6c7.3,0,12.9,1.9,12.9,8c0,4-2.6,6-6.2,6.8v0.1c4,0.8,7.9,3.2,7.9,7.8c0,5.6-4.9,8.6-12.3,8.6
			h-14.8v-0.9c3.8,0,4.6-1.5,4.6-2.9L120.4,70L120.4,70z"/>
		<path d="M171.3,75.9h-1.1c-1.4-5.2-4.8-8.7-10.2-8.7c-7.8,0-11.2,6.2-11.2,14.8c0,6.6,3.4,13.7,11.2,13.7c4.7,0,7.8-1.5,11.1-4.7
			l0.8,1c-2.9,3.5-7.7,5.9-12.3,5.9c-9.2,0-16.2-5.9-16.2-16.2c0-9.4,6.7-16.3,16.2-16.3c6.5,0,8.8,3.9,10.4,0.1h1L171.3,75.9"/>
		<rect x="196.7" y="65.4" class="st0" width="31.7" height="31.7"/>
		<polyline class="st1" points="196.7,65.4 228.4,65.4 212.6,81.2 196.7,65.4 		"/>
		<polyline class="st1" points="196.7,97.1 228.4,97.1 212.6,81.2 196.7,97.1 		"/>
		<polyline class="st1" points="196.7,65.4 196.7,97.1 180.9,81.2 196.7,65.4 		"/>
		<polyline class="st1" points="228.4,65.4 228.4,97.1 244.3,81.2 228.4,65.4 		"/>
	</g>
</g>
</svg>
