<?xml version="1.0" encoding="utf-8"?>
<!-- Generator: Adobe Illustrator 22.1.0, SVG Export Plug-In . SVG Version: 6.00 Build 0)  -->
<svg version="1.1" id="Layer_1" xmlns="http://www.w3.org/2000/svg" xmlns:xlink="http://www.w3.org/1999/xlink" x="0px" y="0px"
	 width="300px" height="160px" viewBox="0 0 300 160" style="enable-background:new 0 0 300 160;" xml:space="preserve">
<style type="text/css">
	.st0{display:none;fill:#FFFFFF;}
	.st1{fill:#33347E;}
	.st2{fill:#ED1B2E;}
	.st3{fill:#EB2E2E;}
</style>
<g>
	<polygon class="st0" points="101.4,30.4 198.6,30.4 198.6,127.6 101.4,127.6 	"/>
	<polygon class="st1" points="148.1,69.2 140.4,69.2 140.4,106.8 148.1,106.8 	"/>
	<path class="st1" d="M155.1,69.2v7h6.5v21.3c0,3,0.8,5.3,2.3,7c1.5,1.8,3.7,2.8,6.2,2.8c2.6,0.1,4.9-0.5,6.8-1.7l0.1-0.1v-0.1
		l1.8-7.2l-0.5,0.3c-2,1.3-4,1.9-5.7,1.9c-2.4,0-3.7-1.4-3.7-4.2V76.3h7.9v-7h-7.7V57.5l-7.6,4.1v7.7H155.1L155.1,69.2z"/>
	<polygon class="st1" points="192.4,69.2 184.6,69.2 184.6,106.8 192.4,106.8 	"/>
	<path class="st1" d="M135.9,75l-0.2-0.1c-3.5-4.3-8-6.5-13.3-6.5c-5.6,0-10.2,1.7-13.9,5.1c-4,3.5-5.9,8.4-5.9,14.4
		s1.9,10.8,5.9,14.4c3.7,3.3,8.3,5.1,13.9,5.1c5.3,0,9.8-2.1,13.3-6.3l0.2-0.1l-4.3-5.3l-0.2,0.2c-2.8,2.8-5.9,4.2-9.1,4.2
		c-3.3,0-6.2-1.2-8.5-3.4c-2.3-2.3-3.3-5.2-3.3-8.6c0-3.5,1.1-6.5,3.3-8.7c2.3-2.3,5-3.3,8.5-3.3c3.2,0,6.3,1.4,9.1,4.2l0.2,0.2
		L135.9,75L135.9,75z"/>
	<path class="st2" d="M144.1,63c3.1-3.1,6.5-5.5,10.3-7.1c3.8-1.6,7.7-2.4,11.7-2.4c4.1,0,8.1,0.8,11.8,2.4
		c3.8,1.6,7.2,4.1,10.2,7.1l0.1,0.1h8.8l-0.3-0.5c-3.5-4.9-8.1-8.8-13.5-11.7c-5.5-2.8-11.2-4.2-17.2-4.2c-5.9,0-11.7,1.4-17.2,4.2
		c-5.5,2.9-10,6.8-13.4,11.7l-0.4,0.5h8.9L144.1,63L144.1,63z"/>
	<polygon class="st1" points="148.1,69.2 140.4,69.2 140.4,106.8 148.1,106.8 	"/>
	<path class="st1" d="M155.1,69.2v7h6.5v21.3c0,3,0.8,5.3,2.3,7c1.5,1.8,3.7,2.8,6.2,2.8c2.6,0.1,4.9-0.5,6.8-1.7l0.1-0.1v-0.1
		l1.8-7.2l-0.5,0.3c-2,1.3-4,1.9-5.7,1.9c-2.4,0-3.7-1.4-3.7-4.2V76.3h7.9v-7h-7.7V57.5l-7.6,4.1v7.7H155.1L155.1,69.2z"/>
	<polygon class="st1" points="192.4,69.2 184.6,69.2 184.6,106.8 192.4,106.8 	"/>
	<path class="st1" d="M135.9,75l-0.2-0.1c-3.5-4.3-8-6.5-13.3-6.5c-5.6,0-10.2,1.7-13.9,5.1c-4,3.5-5.9,8.4-5.9,14.4
		s1.9,10.8,5.9,14.4c3.7,3.3,8.3,5.1,13.9,5.1c5.3,0,9.8-2.1,13.3-6.3l0.2-0.1l-4.3-5.3l-0.2,0.2c-2.8,2.8-5.9,4.2-9.1,4.2
		c-3.3,0-6.2-1.2-8.5-3.4c-2.3-2.3-3.3-5.2-3.3-8.6c0-3.5,1.1-6.5,3.3-8.7c2.3-2.3,5-3.3,8.5-3.3c3.2,0,6.3,1.4,9.1,4.2l0.2,0.2
		L135.9,75L135.9,75z"/>
	<path class="st3" d="M144.1,63c3.1-3.1,6.5-5.5,10.3-7.1c3.8-1.6,7.7-2.4,11.7-2.4c4.1,0,8.1,0.8,11.8,2.4
		c3.8,1.6,7.2,4.1,10.2,7.1l0.1,0.1h8.8l-0.3-0.5c-3.5-4.9-8.1-8.8-13.5-11.7c-5.5-2.8-11.2-4.2-17.2-4.2c-5.9,0-11.7,1.4-17.2,4.2
		c-5.5,2.9-10,6.8-13.4,11.7l-0.4,0.5h8.9L144.1,63L144.1,63z"/>
</g>
</svg>
