<?xml version="1.0" encoding="utf-8"?>
<!-- Generator: Adobe Illustrator 22.1.0, SVG Export Plug-In . SVG Version: 6.00 Build 0)  -->
<svg version="1.1" id="Capa_1" xmlns="http://www.w3.org/2000/svg" xmlns:xlink="http://www.w3.org/1999/xlink" x="0px" y="0px"
	 width="300px" height="160px" viewBox="0 0 300 160" style="enable-background:new 0 0 300 160;" xml:space="preserve">
<style type="text/css">
	.st0{fill:#00A651;}
	.st1{fill:#A6CE3A;}
	.st2{fill:#FFF200;}
	.st3{fill:#FFFFFF;}
</style>
<g>
	<g>
		<path class="st0" d="M104.5,55.8c0,0,0.5-7.7,1.6-10.2c0,0,4.8,4,7.4,6.6c0,0,2.8-6.3,4.9-8.5c0,0,4.6,6.3,4.8,8.8
			c0,0,5.4-5.9,7.7-6.8c0,0,1.3,7.1,1.6,9.9c0,0,4.9-2.4,9.4-3.8c0,0-0.7,7.1-2.1,10.2c0,0,6.6-0.5,10.2-0.1c0,0-2.1,5.6-5.3,8.5
			c0,0,7.4,1.3,9.9,3.5c0,0-5.3,4.4-8.1,6.3c0,0,4.1,2.1,8,6.1c0,0-3.6,2.3-9.4,3.2c0,0,4.1,6.1,4.9,8.8c0,0-6,0.5-10.2-0.5
			c0,0,1.8,6,2,10.2c0,0-7.2-2.3-9.5-3.9c0,0-0.3,7.2-1.3,10.2c0,0-5.1-4.1-7.7-6.6c0,0-2.8,6.8-4.6,8.7c0,0-3.2-4.1-5.1-8.7
			c0,0-6.3,6-7.6,6.6c0,0-1.8-7.4-1.5-10c0,0-5.9,2.9-9.6,3.8c0,0,0.5-5.2,1.8-9.9c0,0-7.6,1-10,0c0,0,2.8-5.3,5.2-8.5
			c0,0-6.8-1.8-9.5-3.3c0,0,3.9-3.3,7.7-6.1c0,0-5.7-4.6-7.9-6.4c0,0,4.8-2.3,9.6-3.3c0,0-4.3-5.7-5.2-8.4c0,0,5.4-0.5,10.2,0
			c0,0-2-7.4-2-9.7C94.9,52.2,101.6,53.7,104.5,55.8z"/>
		<path class="st1" d="M104.5,55.8c0,0-0.4,5.4,0.4,8.2c0,0-2.6-1.2-8-2.2c0,0,1.8,5.4,3.4,7.7c0,0-3.9-0.4-8.3,0.7
			c0,0,3.8,4.9,5.7,6c0,0-5.6,2-7.4,3.8c0,0,3.9,3,7.6,3.8c0,0-5.6,3.3-5.9,5.8c0,0,4,1.5,8.4,1c0,0-3.6,5.4-3.6,7.6
			c0,0,5.9-0.7,8.2-2.1c0,0-1.1,4.9-0.5,8.2c0,0,5.3-2.5,6.9-4.6c0,0,1,6,2.2,8c0,0,3.5-3.2,5-6.7c0,0,2.9,5.5,4.7,6.7
			c0,0,2.5-5.2,2.5-8c0,0,4.9,4.4,6.6,4.4c0,0,0.3-6.1-0.4-8c0,0,5.3,2.1,7.9,1.8c0,0-1.3-5.4-3.2-7.3c0,0,6,0.1,8.3-1
			c0,0-4.3-5.4-6-6c0,0,6.7-2.2,7.3-3.4c0,0-4.9-4-7.1-3.9c0,0,4.2-3.8,5.4-5.8c0,0-4.4-1.2-7.9-1.1c0,0,2.5-4.6,3.1-7.4
			c0,0-4.6,0.7-7.7,1.8c0,0,0.7-6,0.5-8.2c0,0-5.3,2.1-7,4.6c0,0-1.1-7.2-2.4-7.7c0,0-3.9,4.1-4.8,6.4c0,0-2.9-4.8-4.9-6.7
			c0,0-2.4,6-2.2,8.1C111.4,60.4,107.7,56.3,104.5,55.8z"/>
		<path class="st2" d="M111.4,60.4c0,0-0.5,4.9,0.2,7.7c0,0-2.4-3-6.6-4c0,0,1.6,5.6,3,7.1c0,0-3.4-1.8-7.6-1.6c0,0,2.6,4.3,4.9,5.7
			c0,0-4.6-0.1-7.4,1.1c0,0,4.4,3.5,6.4,3.8c0,0-5.7,2.4-6.3,3.8c0,0,6,1.6,8.1,0.9c0,0-4.6,2.6-5.6,5.8c0,0,5.8,0.1,7.9-1.8
			c0,0-3.1,3.7-3.2,7.3c0,0,3.5-0.9,6.4-3.8c0,0-0.7,5.8-0.1,7.4c0,0,4.3-3.8,4.6-6c0,0,1,5.7,2.5,7.3c0,0,2.4-4,2.4-7.1
			c0,0,2.7,4.9,4.8,5.9c0,0,0.6-5.3-0.2-7.7c0,0,2.6,2.6,6.3,4c0,0-1-4.9-2.5-6.9c0,0,3.2,1.5,7.2,1.4c0,0-1-2.8-4.9-5.8
			c0,0,4,0.2,7.3-1.2c0,0-3.3-3-6.4-3.8c0,0,4.8-1.4,6.6-3.6c0,0-3-1.2-7.3-1.1c0,0,3.8-3.1,4.8-5.7c0,0-3.2,0-7.4,1.4
			c0,0,2.5-3.5,2.7-6.9c0,0-3.7,1.2-6.4,3.7c0,0,0.6-5.2-0.1-7.3c0,0-3.8,3.5-4.6,5.4c0,0-0.8-4.7-2.5-6.7c0,0-2.1,3.6-2.5,6.7
			C116,65.6,112.9,61.2,111.4,60.4z"/>
		<path class="st3" d="M118.5,72.4c0,0,0.9-4.8,2.4-6.3c0,0,0.9,3.2,0.2,6.7c0,0,2.1-3.5,4.5-5c0,0-0.6,3.5-2.4,6.2c0,0,3.3-2.4,6-3
			c0,0-1.8,3.5-4.3,5.1c0,0,4.8-1.2,6.6-1c0,0-2.4,2.7-5.7,3.4c0,0,5.4,0.3,6.9,1.5c0,0-3.2,1.1-6.7,1.1c0,0,5.1,2.1,5.8,3.5
			c0,0-3.2,0.2-6.7-1c0,0,4,3.6,4.4,5.3c0,0-3.8-1.1-6.1-3.5c0,0,2.2,4.6,2.2,6.7c0,0-3.2-2.9-4.4-5.2c0,0,0.7,5.2-0.2,6.8
			c0,0-2-3.5-2.5-6.3c0,0-1.6,5.1-2.6,6.2c0,0-0.4-4.8,0.1-6.8c0,0-3,4.2-4.6,5.2c0,0,0.7-4.2,2.4-6.6c0,0-4,2.9-6.1,3.3
			c0,0,0.5-1.8,4.4-5.4c0,0-5,1.6-6.8,1.1c0,0,1.1-1.5,5.8-3.5c0,0-6.2-0.6-6.8-1.2c0,0,3.4-1.3,7-1.2c0,0-5.5-2.5-6-3.5
			c0,0,4.7-0.2,6.8,1.2c0,0-4.6-4.6-4.6-5.7c0,0,4.8,1.9,6.2,3.5c0,0-2.2-4.6-2.2-6.4c0,0,3.1,2.2,4.4,5.1c0,0-0.4-5.2,0.3-6.9
			C116.1,65.9,118.5,70.4,118.5,72.4z"/>
		<path class="st0" d="M166.5,55.6"/>
	</g>
	<g>
		<path class="st0" d="M175.9,65.3c-6.8,0-9.4,4.6-9.4,4.6V55.6h-5.1l-0.1,38h5.2v-4.1c3.1,5.1,9.4,4.4,9.4,4.4
			c11.9,0,11.9-14.3,11.9-14.3C187.8,64.9,175.9,65.3,175.9,65.3z M174.4,90.7c-4.5,0-8.1-4.9-8.1-11c0-6,3.7-11,8.1-11
			c4.5,0,8.1,4.9,8.1,11C182.6,85.8,179,90.7,174.4,90.7z"/>
		<path class="st0" d="M205.8,94.1c-6.8,0-9.4-4.6-9.4-4.6v14.1h-5.1l-0.1-37.3h5.2v4c3.1-5,9.4-4.3,9.4-4.3c11.9,0,11.9,14,11.9,14
			C217.6,94.5,205.8,94.1,205.8,94.1z M204.3,69.2c-4.5,0-8.1,4.8-8.1,10.8s3.7,10.8,8.1,10.8c4.5,0,8.1-4.8,8.1-10.8
			C212.4,74,208.8,69.2,204.3,69.2z"/>
	</g>
</g>
</svg>
