<?xml version="1.0" encoding="utf-8"?>
<!-- Generator: Adobe Illustrator 22.1.0, SVG Export Plug-In . SVG Version: 6.00 Build 0)  -->
<svg version="1.1" id="Layer_1" xmlns="http://www.w3.org/2000/svg" xmlns:xlink="http://www.w3.org/1999/xlink" x="0px" y="0px"
	 width="300px" height="160px" viewBox="0 0 300 160" style="enable-background:new 0 0 300 160;" xml:space="preserve">
<style type="text/css">
	.st0{fill:#046D38;}
	.st1{fill:#6E7076;}
</style>
<g>
	<g>
		<path class="st0" d="M96.7,88.3h-2.8V75.1h2.8c3.9,0,6.6,2.8,6.6,6.6C103.3,85.4,100.6,88.3,96.7,88.3 M96.7,71.5h-6.4v20.2h6.4
			c2.9,0,5.5-1.1,7.3-2.9c1.9-1.8,3-4.3,3-7.2c0-2.9-1.2-5.4-3.1-7.2C102.1,72.6,99.5,71.5,96.7,71.5"/>
	</g>
	<polygon class="st0" points="83.8,71.6 78.6,80.6 72.9,71.5 68.6,71.5 76.4,83.8 71.6,91.8 75.8,91.8 88,71.5 83.8,71.5 	"/>
	<g>
		<path class="st0" d="M57.9,88.6c-3.8,0-6.6-3.1-6.6-6.9v-0.1c0-3.7,2.9-6.7,6.6-6.7c3.8,0,6.6,3.1,6.6,6.9
			C64.4,85.5,61.7,88.6,57.9,88.6 M57.9,71.3c-2.9,0-5.5,1.1-7.3,3c-1.9,1.9-3,4.4-3,7.3c0,2.9,1.1,5.5,3,7.4c1.8,1.9,4.4,3,7.4,3
			c2.9,0,5.5-1.1,7.3-3c1.9-1.9,3-4.5,3-7.4c0-2.9-1.1-5.5-3-7.3C63.3,72.5,60.8,71.3,57.9,71.3"/>
		<path class="st0" d="M117.8,79.8c-1.6-0.5-2.7-0.9-3.3-1.4c-0.6-0.4-0.8-0.9-0.8-1.5c0-0.9,0.4-1.4,1.1-1.8
			c0.7-0.3,1.5-0.5,2.4-0.5c1.3,0,3.1,0.3,4.7,1.1l0,0h0.2v-3.4l-0.1,0c-1.5-0.7-3.2-1-5.1-1c-1.7,0-3.4,0.5-4.5,1.4
			c-1.4,1-2.2,2.5-2.2,4.3c0,3.4,2.7,5,5.4,5.8c1.2,0.4,2.3,0.7,3,1.2c0.8,0.5,1.2,1.1,1.2,2c0,0.9-0.4,1.5-1.1,1.9
			c-0.6,0.4-1.5,0.6-2.3,0.6c-2.2,0-4.3-0.9-5.5-1.7l-0.1-0.1l-0.2-0.1v3.8h0.2c1.2,0.7,3.4,1.5,5.8,1.5c3.6,0,6.9-2.3,6.9-6.1
			C123.3,82.5,120.9,80.8,117.8,79.8"/>
	</g>
	<polygon class="st0" points="21.4,71.5 17.7,71.5 17.7,91.8 30.5,91.8 30.5,88.2 21.4,88.2 	"/>
	<polygon class="st0" points="37.5,71.5 33.8,71.5 33.8,91.8 46.7,91.8 46.7,88.2 37.5,88.2 	"/>
	<polygon class="st0" points="191.7,86.7 191.7,86.7 182.3,71.5 177.5,71.5 177.5,91.8 181.1,91.8 181.1,76.1 181.2,76.1 
		190.8,91.8 195.4,91.8 195.4,71.5 191.7,71.5 	"/>
	<polygon class="st0" points="208.8,80.9 218.2,71.5 213.4,71.5 204.9,80.3 204.8,80.3 204.8,71.5 201.3,71.5 201.3,91.8 
		204.8,91.8 204.8,81.6 204.9,81.6 213.8,91.8 218.9,91.8 	"/>
	<path class="st0" d="M160.6,84l3.2-8.2l3.1,8.2H160.6z M162.3,71.5l-8.8,20.2h4l1.8-4.6h8.8l1.9,4.6h4.1l-8.7-20.2H162.3z"/>
	<path class="st0" d="M142.8,88.7h-3.2v-5.9h3.4c2.9,0,4.4,0.7,4.4,2.9C147.3,88.4,144.7,88.7,142.8,88.7 M139.6,74.5h2.9
		c2.7,0,4,0.7,4,2.5c0,1.8-1.3,2.8-3.7,2.8h-3.2V74.5z M146.6,81.1L146.6,81.1c2.1-0.7,3.5-2.2,3.5-4.5c0-3.7-3.1-5.1-6.2-5.1H136
		v20.2h7.3c3.8,0,7.6-1.5,7.6-5.9C150.9,83.2,149.1,81.4,146.6,81.1"/>
	<path d="M280.4,81.1c1,0.7,2,1.2,2,2.3c0,0.3-0.4,0.6-1.3,0.6c-0.7,0-1.5-0.2-1.8-0.7c-0.3-0.4,0.1-0.9-0.1-1.3
		c-0.2-0.3-0.6-0.2-0.9-0.3c-0.3-0.2-0.4-0.4-0.6-0.8c-0.3-0.6-1.1-1.5-2.1-2.6c-0.9-0.9-1.8-1.3-2.2-1.3c-0.3,0-0.4,0-0.7,0
		c-0.7,0-1.4,0.7-2.4,1.2c-0.7,0.3-1.2,0.5-1.6,0.6l-0.2,0.2l1,0c0.9,0,2.1-0.1,3-0.1c0.9,0,1.4,0.8,1.7,1.7c0.7,1.7,1.8,4.3,3,6.4
		c0.6,1,1.1,1.6,1.1,2.9c0,0.4,0,0.9-0.5,0.9c-0.7,0-2.5-0.7-2.5-1.5c0-0.6,0.5-0.9,0.5-1.5c0-0.4-0.6-0.3-0.7-0.7
		c-0.4-1.9-1-3.7-2.1-4.9c-0.5-0.6-0.6-0.8-1.1-0.8c-0.3,0-0.6,0.1-0.8,0.2c-1.5,0.6-3.4,2.2-5.8,2.9c-0.9,0.3-1.1-0.3-2.1-0.1h0.1
		c-0.8,0.2-1.4,0.6-2.4,0.9c-1.5,0.4-4,0.6-6,0.3c-1.4-0.2-3.3-0.5-4.1-0.4c-0.6,1.8-1.9,4.1-3.8,5c-1,0.4-1.3,1.1-1,2.2
		c0.4,1.4,1.7,2.5,2.3,3.7c0.6,1.1,1.6,2.7,2.6,3.3c1.1,0.5,1.7,1.3,1.7,2c0,0.3-0.1,0.5-0.4,0.5h-2.1c-0.3,0-0.5-0.2-0.5-0.3
		c-0.3-0.5-0.1-1.1-0.5-1.5c-0.3-0.4-0.5-0.3-0.9-0.5c-0.6-0.6-0.2-1-0.6-1.7c-1.3-2.1-1.9-2.6-3.1-4.1c-0.6-0.8-1.4-1.2-1.4-2.2
		c0-1.3,1.3-1.5,1.2-2.8c-0.8,0.6-1.8,1.1-3.3,1.3c-0.2,0-0.7,0.4-0.9,0.7c-0.5,0.5-0.7,1-0.8,1.8c-0.1,1.7-0.5,3.5-0.3,5.2
		c0.3,1.1,0.5,1.5,1.4,2.1c0.6,0.4,1.3,0.9,1.3,1.7c0,0.2-0.1,0.5-0.4,0.5h-2.3c-0.2,0-0.4-0.2-0.5-0.3c-0.3-0.4-0.1-0.8-0.2-1.3
		c-0.2-1-1.4-1-1.4-2.1c0-0.3,0.2-0.7,0.2-1.4c0.1-1.5,0.5-3.8,0.1-6.7c-0.2-1.7,1.5-1.7,2.4-3.2c0.5-0.8,0.4-0.5,0.7-1.1
		c0.3-0.6,0.3-1.1,0.2-1.5c0-0.5-0.5-1.5-0.2-3.6c0.1-0.9,0.6-1.9,1.2-2.7c0,0,0-0.2-0.2-0.2c-0.9,0.1-0.9-0.2-1.5-0.2
		c-0.6,0-1,0.5-1.1,0.7c-0.3-0.1-0.4-0.4-0.4-0.6c0-0.3,0.1-0.6,0.4-0.9c0.1-0.1,0-0.2-0.2-0.2c-0.7,0-1.4,0.9-1.5,1.5
		c-0.4-0.1-0.4-0.6-0.6-0.6s-0.3,0.3-0.3,0.6c0,2.1,3.3,2.5,3.3,5.2c0,3.1-3.7,2.5-3.7,3.6c0,0.2,0.2,0.4,0.5,0.5
		c-0.1,0.3-0.5,0.4-0.8,0.4c-0.8,0-1.4-0.6-1.4-1.4c0-1.7,2.3-1.7,2.3-3c0-0.6-0.4-0.8-0.7-1.1c-2.2-1.5-3.4-3.1-3.4-5.6
		c0-2.7,1.9-4.8,4.4-4.8c3.6,0,3.7,4.1,6.9,4.5c1.2-0.8,2.7-1.3,4.1-1.3c2.1,0,3,0.5,5.3,0.5c0.9,0,2.4-0.2,4.2-1.5
		c0.7-0.4,1-0.5,1.6-1.1c1.4-1.2,2.7-3.6,2.7-5.3V68c0-0.6-0.1-0.9-0.4-0.9c-0.8,0-1.4,0.7-2.2,1.4c-0.5,0.5,0.3,0.7-0.8,1.3
		c-0.4,0.2-0.8-0.2-1.2-0.2c-0.9,0-1.2-1-1.2-1.9c0-0.5,0.3-0.6,0.5-1c0.4-0.9,0.4-1.2,0.8-2.1c0.3-0.6,0.7-1,0.7-1.4
		c0-0.2-0.1-0.2-0.1-0.4c0-0.9,1.2-1.4,1.2-2.3c0-0.5-0.5-0.7-0.7-1.1c-0.1-0.4,0-0.5,0-0.5c0-0.1,0.1-0.1,0.2-0.1
		c0.5,0,0.6,0.5,1.1,0.7c0-0.6-0.2-0.7-0.2-1.1c0-0.2,0-0.6,0.2-0.6c0.3,0,0.3,0.4,0.5,0.6c0.3,0.3,0.6,0.2,0.9,0.4
		c0.5,0.3,0.7,0.8,0.9,0.8c0.5,0.1,0.6-0.5,0.3-0.8c0.5,0,1,0.4,1.7,0.4c1.1,0,1.4,0.3,1.6,0.4c0.7,0.6,0.8,1,1.5,1
		c0.4,0,0.6-0.3,0.7-0.4c0.5,0.4,0.5,1.3,0,2.1c0.2,0.7,1.2,0.7,1.6,1.1c0.5,0.3,0.4,0.5,0.7,0.7c0.2,0.2,0.5,0.1,0.7,0
		c0.2,0.9-0.6,1.7-1.5,1.8c0,1.2,1.3,1.9,1.8,2.1c-0.3,0.7-0.9,0.9-1.4,1.1c0.2,0.7,0.9,1.7,0.6,2.7c-0.3-0.2-0.9,0-0.9,0.5
		c0,0.6,0.8,0.9,0,1.3c-0.3,0.2-0.4,0.7,0.2,1.2c0.8-0.2,1.6-0.2,2.5-0.2c0.6,0,1.3-0.2,1.9-0.2c1,0,1.5,0.4,2.2,1.1
		C276.9,77.7,278.5,79.8,280.4,81.1"/>
	<path class="st1" d="M232.9,76c0.4,0,1.1-2.1,2.5-2.1c0.4,0,0.5,0.2,0.5,0.3c0,0.3-0.5,0.5-0.5,0.9c0,0.1,0,0.2,0.2,0.2
		c0.4,0,0.6-0.8,2.1-0.8c0.4,0,0.7,0,1,0.1c0.2,0,0.5,0.2,0.4-0.2c-0.4-1-1.4-1.9-3-1.9c-1.5,0-3.1,1.4-3.3,3
		C232.7,75.8,232.7,76,232.9,76"/>
	<path class="st1" d="M259.4,62.9c-0.4-0.2-0.5-0.4-0.4-0.9c0.1-0.5,0.1-0.8-0.1-0.8c-0.2-0.1-0.5,0.1-0.8,0.4
		c-0.3,0.3-0.7,0.8-0.8,1.1c-0.1,0.5,0.4,0.4,0,1.1c-0.7,1.2-0.8,1.5-1.2,2.3c-0.3,0.9-0.5,1-0.7,1.3c-0.2,0.3,0.2,0.3,0.8,0.1
		c0.5-0.2,0.6,0.4,0.4,0.9c-0.2,0.3,0,0.4,0.4,0.1c0.4-0.3-0.2-0.6-0.1-1.6c0.2-0.9,0.4-1.4,0.9-2.4c0.5-0.8,0.9-1.4,1.7-1.1
		C260,63.6,259.9,63,259.4,62.9"/>
	<path class="st1" d="M277.2,90c0.2,0,0.2-0.2,0.2-0.4c0-0.4-0.3-1.1-0.6-1.4c-0.1,0.7-0.4,1.1-0.4,1.4C276.4,89.8,277,90,277.2,90"
		/>
	<path class="st1" d="M263.6,74.8c3.6,1.7,3.4,4.7,3.7,3.9c0.1-0.3,0.6-1.8-0.7-3.3c-1-1.2-1.4-0.9-1-1.8c1.6-3.8,2.6-9.6-2.1-11.6
		c-0.5-0.2-1-0.2-1-0.1c0,0.1,0.5,0.3,1.1,0.7c3.1,2.1,2.2,7.7-0.7,10.5C262,74.1,262.4,74.3,263.6,74.8"/>
	<path class="st1" d="M251.3,101.4c0.2,0,0.1-0.4,0-0.5c-0.2-0.4-0.6-0.7-1-0.8c0.1,0.4,0.1,1.3,0.5,1.3H251.3z"/>
	<path class="st1" d="M240.4,101.4c0.2,0,0.1-0.4,0-0.5c-0.2-0.4-0.7-0.6-1-0.8c0.1,0.4,0.1,1.3,0.5,1.3H240.4z"/>
	<path class="st1" d="M253.6,79.7c2-0.2,2.3-0.7,2.7-2.2c0.2-0.7,0.7-1.4,1.1-1.9c0.3-0.3,0.6-0.6,0.9-1c0.1-0.2,0.2-0.3,0-0.3
		c-0.2,0.2-0.9,0.6-1.2,0.8c-1.4,1-3.5,1.5-4.4,1.5c-1.8,0-3.4-0.5-5-0.5c-5,0-6.8,3.9-6.6,6.2c0,0.3,0.1,0.4,0.2,0.4
		c0.3,0,0.6-1.3,1.9-2.5c1.8-1.7,3.8-2.7,6.6-2.7c2,0,2.9,0.7,2.9,0.9c0,0.5-0.9,0.5-0.8,1.1C251.8,79.5,252.3,79.9,253.6,79.7"/>
	<g>
		<path class="st0" d="M96.7,88.3h-2.8V75.1h2.8c3.9,0,6.6,2.8,6.6,6.6C103.3,85.4,100.6,88.3,96.7,88.3 M96.7,71.5h-6.4v20.2h6.4
			c2.9,0,5.5-1.1,7.3-2.9c1.9-1.8,3-4.3,3-7.2c0-2.9-1.2-5.4-3.1-7.2C102.1,72.6,99.5,71.5,96.7,71.5"/>
	</g>
	<polygon class="st0" points="83.8,71.6 78.6,80.6 72.9,71.5 68.6,71.5 76.4,83.8 71.6,91.8 75.8,91.8 88,71.5 83.8,71.5 	"/>
	<g>
		<path class="st0" d="M57.9,88.6c-3.8,0-6.6-3.1-6.6-6.9v-0.1c0-3.7,2.9-6.7,6.6-6.7c3.8,0,6.6,3.1,6.6,6.9
			C64.4,85.5,61.7,88.6,57.9,88.6 M57.9,71.3c-2.9,0-5.5,1.1-7.3,3c-1.9,1.9-3,4.4-3,7.3c0,2.9,1.1,5.5,3,7.4c1.8,1.9,4.4,3,7.4,3
			c2.9,0,5.5-1.1,7.3-3c1.9-1.9,3-4.5,3-7.4c0-2.9-1.1-5.5-3-7.3C63.3,72.5,60.8,71.3,57.9,71.3"/>
		<path class="st0" d="M117.8,79.8c-1.6-0.5-2.7-0.9-3.3-1.4c-0.6-0.4-0.8-0.9-0.8-1.5c0-0.9,0.4-1.4,1.1-1.8
			c0.7-0.3,1.5-0.5,2.4-0.5c1.3,0,3.1,0.3,4.7,1.1l0,0h0.2v-3.4l-0.1,0c-1.5-0.7-3.2-1-5.1-1c-1.7,0-3.4,0.5-4.5,1.4
			c-1.4,1-2.2,2.5-2.2,4.3c0,3.4,2.7,5,5.4,5.8c1.2,0.4,2.3,0.7,3,1.2c0.8,0.5,1.2,1.1,1.2,2c0,0.9-0.4,1.5-1.1,1.9
			c-0.6,0.4-1.5,0.6-2.3,0.6c-2.2,0-4.3-0.9-5.5-1.7l-0.1-0.1l-0.2-0.1v3.8h0.2c1.2,0.7,3.4,1.5,5.8,1.5c3.6,0,6.9-2.3,6.9-6.1
			C123.3,82.5,120.9,80.8,117.8,79.8"/>
	</g>
	<polygon class="st0" points="21.4,71.5 17.7,71.5 17.7,91.8 30.5,91.8 30.5,88.2 21.4,88.2 	"/>
	<polygon class="st0" points="37.5,71.5 33.8,71.5 33.8,91.8 46.7,91.8 46.7,88.2 37.5,88.2 	"/>
	<polygon class="st0" points="191.7,86.7 191.7,86.7 182.3,71.5 177.5,71.5 177.5,91.7 181.1,91.7 181.1,76.1 181.2,76.1 
		190.8,91.7 195.4,91.7 195.4,71.5 191.7,71.5 	"/>
	<polygon class="st0" points="208.8,80.9 218.2,71.5 213.4,71.5 204.9,80.3 204.8,80.3 204.8,71.5 201.3,71.5 201.3,91.8 
		204.8,91.8 204.8,81.6 204.9,81.6 213.8,91.8 218.9,91.8 	"/>
	<path class="st0" d="M160.6,84l3.2-8.2l3.1,8.2H160.6z M162.3,71.5l-8.8,20.2h4l1.8-4.6h8.8l1.9,4.6h4.1l-8.7-20.2H162.3z"/>
	<path class="st0" d="M142.8,88.7h-3.2v-5.9h3.4c2.9,0,4.4,0.7,4.4,2.9C147.3,88.4,144.7,88.7,142.8,88.7 M139.6,74.5h2.9
		c2.7,0,4,0.7,4,2.5c0,1.8-1.3,2.8-3.7,2.8h-3.2V74.5z M146.6,81.1L146.6,81.1c2.1-0.7,3.5-2.2,3.5-4.5c0-3.7-3.1-5.1-6.2-5.1H136
		v20.2h7.3c3.8,0,7.6-1.5,7.6-5.9C150.9,83.2,149.1,81.4,146.6,81.1"/>
	<path d="M280.4,81.1c1,0.7,2,1.2,2,2.3c0,0.3-0.4,0.6-1.3,0.6c-0.7,0-1.5-0.2-1.8-0.7c-0.3-0.4,0.1-0.9-0.1-1.3
		c-0.2-0.3-0.6-0.2-0.9-0.3c-0.3-0.2-0.4-0.4-0.6-0.8c-0.3-0.6-1.1-1.5-2.1-2.6c-0.9-0.9-1.8-1.3-2.2-1.3c-0.3,0-0.4,0-0.7,0
		c-0.7,0-1.4,0.7-2.4,1.2c-0.7,0.3-1.2,0.5-1.6,0.6l-0.2,0.2l1,0c0.9,0,2.1-0.1,3-0.1c0.9,0,1.4,0.8,1.7,1.7c0.7,1.7,1.8,4.3,3,6.4
		c0.6,1,1.1,1.6,1.1,2.9c0,0.4,0,0.9-0.5,0.9c-0.7,0-2.5-0.7-2.5-1.5c0-0.6,0.5-0.9,0.5-1.5c0-0.4-0.6-0.3-0.7-0.7
		c-0.4-1.9-1-3.7-2.1-4.8c-0.5-0.6-0.6-0.8-1.1-0.8c-0.3,0-0.6,0.1-0.8,0.2c-1.5,0.6-3.4,2.2-5.8,2.9c-0.9,0.3-1.1-0.3-2.1-0.1h0.1
		c-0.8,0.2-1.4,0.6-2.4,0.9c-1.5,0.4-4,0.6-6,0.3c-1.4-0.2-3.3-0.5-4.1-0.4c-0.6,1.8-1.9,4.1-3.8,5c-1,0.4-1.3,1.1-1,2.2
		c0.4,1.4,1.7,2.5,2.3,3.7c0.6,1.1,1.6,2.7,2.6,3.3c1.1,0.5,1.7,1.3,1.7,2c0,0.3-0.1,0.5-0.4,0.5h-2.1c-0.3,0-0.5-0.2-0.5-0.3
		c-0.3-0.5-0.1-1.1-0.5-1.5c-0.3-0.4-0.5-0.3-0.9-0.5c-0.6-0.6-0.2-1-0.6-1.7c-1.3-2.1-1.9-2.6-3.1-4.1c-0.6-0.8-1.4-1.2-1.4-2.2
		c0-1.3,1.3-1.5,1.2-2.8c-0.8,0.6-1.8,1.1-3.3,1.3c-0.2,0-0.7,0.4-0.9,0.7c-0.5,0.5-0.7,1-0.8,1.8c-0.1,1.7-0.5,3.5-0.3,5.2
		c0.3,1.1,0.5,1.5,1.4,2.1c0.6,0.4,1.3,0.9,1.3,1.7c0,0.2-0.1,0.5-0.4,0.5h-2.3c-0.2,0-0.4-0.2-0.5-0.3c-0.3-0.4-0.1-0.8-0.2-1.3
		c-0.2-1-1.4-1-1.4-2.1c0-0.3,0.2-0.7,0.2-1.4c0.1-1.5,0.5-3.8,0.1-6.7c-0.2-1.7,1.5-1.7,2.4-3.2c0.5-0.8,0.4-0.5,0.7-1.1
		c0.3-0.6,0.3-1.1,0.2-1.5c0-0.5-0.5-1.5-0.2-3.6c0.1-0.9,0.6-1.9,1.2-2.7c0,0,0-0.2-0.2-0.2c-0.9,0.1-0.9-0.2-1.5-0.2
		c-0.6,0-1,0.5-1.1,0.7c-0.3-0.1-0.4-0.4-0.4-0.6c0-0.3,0.1-0.6,0.4-0.9c0.1-0.1,0-0.2-0.2-0.2c-0.7,0-1.4,0.9-1.5,1.5
		c-0.4-0.1-0.4-0.6-0.6-0.6s-0.3,0.3-0.3,0.6c0,2.1,3.3,2.5,3.3,5.2c0,3.1-3.7,2.5-3.7,3.6c0,0.2,0.2,0.4,0.5,0.5
		c-0.1,0.3-0.5,0.4-0.8,0.4c-0.8,0-1.4-0.6-1.4-1.4c0-1.7,2.3-1.7,2.3-3c0-0.6-0.4-0.8-0.7-1.1c-2.2-1.5-3.4-3.1-3.4-5.6
		c0-2.7,1.9-4.8,4.4-4.8c3.6,0,3.7,4.1,6.9,4.5c1.2-0.8,2.7-1.3,4.1-1.3c2.1,0,3,0.5,5.3,0.5c0.9,0,2.4-0.3,4.2-1.5
		c0.7-0.4,1-0.5,1.6-1.1c1.4-1.2,2.7-3.6,2.7-5.3V68c0-0.6-0.1-0.9-0.4-0.9c-0.8,0-1.4,0.7-2.2,1.4c-0.5,0.5,0.3,0.7-0.8,1.3
		c-0.4,0.2-0.8-0.2-1.2-0.2c-0.9,0-1.2-1-1.2-1.9c0-0.5,0.3-0.6,0.5-1c0.4-0.9,0.4-1.2,0.8-2.1c0.3-0.6,0.7-1,0.7-1.4
		c0-0.2-0.1-0.2-0.1-0.4c0-0.9,1.2-1.4,1.2-2.3c0-0.5-0.5-0.7-0.7-1.1c-0.1-0.4,0-0.5,0-0.5c0-0.1,0.1-0.1,0.2-0.1
		c0.5,0,0.6,0.5,1.1,0.7c0-0.6-0.2-0.7-0.2-1.1c0-0.2,0-0.6,0.2-0.6c0.3,0,0.3,0.4,0.5,0.6c0.3,0.3,0.6,0.2,0.9,0.4
		c0.5,0.3,0.7,0.8,0.9,0.8c0.5,0.1,0.6-0.5,0.3-0.8c0.5,0,1,0.4,1.7,0.4c1.1,0,1.4,0.3,1.6,0.4c0.7,0.6,0.8,1,1.5,1
		c0.4,0,0.6-0.3,0.7-0.4c0.5,0.4,0.5,1.3,0,2.1c0.2,0.7,1.2,0.7,1.6,1.1c0.5,0.3,0.4,0.5,0.7,0.7c0.2,0.2,0.5,0.1,0.7,0
		c0.2,0.9-0.6,1.7-1.5,1.8c0,1.2,1.3,1.9,1.8,2.1c-0.3,0.7-0.9,0.9-1.4,1.1c0.2,0.7,0.9,1.7,0.6,2.7c-0.3-0.2-0.9,0-0.9,0.5
		c0,0.6,0.8,0.9,0,1.3c-0.3,0.2-0.4,0.7,0.2,1.2c0.8-0.2,1.6-0.2,2.5-0.2c0.6,0,1.3-0.2,1.9-0.2c1,0,1.5,0.4,2.2,1.1
		C276.9,77.7,278.5,79.8,280.4,81.1"/>
	<path class="st1" d="M232.9,76c0.4,0,1.1-2.1,2.5-2.1c0.4,0,0.5,0.2,0.5,0.3c0,0.3-0.5,0.5-0.5,0.9c0,0.1,0,0.2,0.2,0.2
		c0.4,0,0.6-0.8,2.1-0.8c0.4,0,0.7,0,1,0.1c0.2,0,0.5,0.2,0.4-0.2c-0.4-1-1.4-1.9-3-1.9c-1.5,0-3.1,1.4-3.3,3
		C232.7,75.8,232.7,76,232.9,76"/>
	<path class="st1" d="M259.4,62.9c-0.4-0.2-0.5-0.4-0.4-0.9c0.1-0.5,0.1-0.8-0.1-0.8c-0.2-0.1-0.5,0.1-0.8,0.4
		c-0.3,0.4-0.7,0.8-0.8,1.1c-0.1,0.5,0.4,0.4,0,1.1c-0.7,1.2-0.8,1.5-1.2,2.3c-0.3,0.9-0.5,1-0.7,1.3c-0.2,0.3,0.2,0.3,0.8,0.1
		c0.5-0.2,0.6,0.4,0.4,0.9c-0.2,0.3,0,0.4,0.4,0.1c0.4-0.3-0.2-0.6-0.1-1.6c0.2-0.9,0.4-1.4,0.9-2.4c0.5-0.8,0.9-1.4,1.7-1.1
		C260,63.6,259.9,63,259.4,62.9"/>
	<path class="st1" d="M277.2,90c0.2,0,0.2-0.2,0.2-0.4c0-0.4-0.3-1.1-0.6-1.4c-0.1,0.7-0.4,1.1-0.4,1.4C276.4,89.8,277,90,277.2,90"
		/>
	<path class="st1" d="M263.6,74.8c3.6,1.7,3.4,4.7,3.7,3.9c0.1-0.3,0.6-1.8-0.7-3.3c-1-1.2-1.4-0.9-1-1.8c1.6-3.8,2.6-9.6-2.1-11.6
		c-0.5-0.2-1-0.2-1-0.1c0,0.1,0.5,0.3,1.1,0.7c3.1,2.1,2.2,7.7-0.7,10.5C262,74.1,262.4,74.3,263.6,74.8"/>
	<path class="st1" d="M251.3,101.4c0.2,0,0.1-0.4,0-0.5c-0.2-0.4-0.6-0.7-1-0.8c0.1,0.4,0.1,1.3,0.5,1.3H251.3z"/>
	<path class="st1" d="M240.4,101.4c0.2,0,0.1-0.4,0-0.5c-0.2-0.4-0.7-0.6-1-0.8c0.1,0.4,0.1,1.3,0.5,1.3H240.4z"/>
	<path class="st1" d="M253.6,79.7c2-0.2,2.3-0.7,2.7-2.2c0.2-0.7,0.7-1.4,1.1-1.9c0.3-0.3,0.6-0.6,0.9-1c0.1-0.2,0.2-0.3,0-0.3
		c-0.2,0.2-0.9,0.6-1.2,0.8c-1.4,1-3.5,1.5-4.4,1.5c-1.8,0-3.4-0.5-5-0.5c-5,0-6.8,3.9-6.6,6.2c0,0.3,0.1,0.4,0.2,0.4
		c0.3,0,0.6-1.3,1.9-2.5c1.8-1.7,3.8-2.7,6.6-2.7c2,0,2.9,0.7,2.9,0.9c0,0.5-0.9,0.5-0.8,1.1C251.8,79.5,252.3,79.9,253.6,79.7"/>
</g>
</svg>
