<?xml version="1.0" encoding="utf-8"?>
<!-- Generator: Adobe Illustrator 22.1.0, SVG Export Plug-In . SVG Version: 6.00 Build 0)  -->
<svg version="1.1" id="Layer_1" xmlns="http://www.w3.org/2000/svg" xmlns:xlink="http://www.w3.org/1999/xlink" x="0px" y="0px"
	 width="300px" height="160px" viewBox="0 0 300 160" style="enable-background:new 0 0 300 160;" xml:space="preserve">
<style type="text/css">
	.st0{fill:#006FBA;}
</style>
<g>
	<path class="st0" d="M211.6,67.7c-0.1,0.6-0.2,1-0.3,1.6c-0.2,1.1-0.3,0.9,0.5,1.7c0.4,0.4,0.7,0.7,1.1,1c0.1,0.1,0.1,0.2,0.2,0.3
		c-0.1,0-0.2,0.1-0.3,0.1c-0.7,0.1-1.4,0.2-2.1,0.2c-0.3,0-0.5,0.2-0.6,0.4c-0.3,0.7-0.6,1.3-1,1.9c-0.1,0.1-0.2,0.2-0.2,0.2
		c-0.1-0.1-0.2-0.2-0.2-0.2c-0.3-0.7-0.6-1.3-0.9-2c-0.2-0.3-0.3-0.4-0.6-0.5c-0.7-0.1-1.4-0.2-2.1-0.3c-0.1,0-0.2-0.1-0.2-0.2
		s0.1-0.2,0.1-0.2c0.6-0.6,1-1,1.7-1.5c0.2-0.2,0.3-0.4,0.2-0.6c-0.2-0.7-0.2-1.4-0.4-2.1c0-0.1,0-0.2,0.1-0.3c0.1,0,0.2,0,0.3,0
		c0.6,0.4,1.3,0.7,1.9,1c0.2,0.2,0.5,0.2,0.7,0c0.6-0.4,1.3-0.7,1.9-1C211.5,67.3,211.6,67.4,211.6,67.7z"/>
	<g>
		<path class="st0" d="M204.2,69.1c-0.1-0.1-0.2-0.1-0.3-0.2c-4.9-2.5-9.9-4.5-15.2-5.8c-2.2-0.6-4.6-1-6.9-1.3
			c-3.4-0.5-7-0.7-10.4-0.6c-2,0.1-4,0.2-6,0.5c-2.9,0.3-5.8,0.9-8.6,1.8c-2.9,1-5.7,2.2-8,4.1c-3,2.4-4.9,5.4-5.7,9.2
			c-0.6,3.9,0.1,7.6,2.5,10.8c0.8,1.1,1.9,2.1,3.1,2.9c0.1,0.1,0.2,0.1,0.3,0.2c0.1-0.2,0.1-0.2,0.2-0.3c1.8-4.9,3.6-9.7,5.4-14.6
			c0.1-0.2,0.2-0.4,0.6-0.4c0.7,0,1.4,0,2.1,0c0.3,0,0.4,0.1,0.5,0.3c1.7,4.5,3.3,9,4.9,13.4c0.2,0.5,0.4,1,0.6,1.5
			c2.3-1.5,3.9-3.5,4.9-6c0,0,0.1,0,0.1,0.1c0,0.2,0,0.3,0,0.4c-0.6,2.5-1.9,4.6-3.8,6.2c-0.2,0.2-0.4,0.3-0.6,0.5
			c-0.2,0.1-0.2,0.2-0.1,0.4c0.7,1.9,1.4,3.7,2.1,5.7c0.1,0.3,0.2,0.6,0.5,0.8c0.3,0.6,0.8,0.7,1.5,0.8c0.2,0,0.5,0.1,0.6,0
			c0.3,0,0.4,0.1,0.4,0.4c0,0.3,0,0.7,0,1c-3.3,0-6.4,0-9.7,0c0-0.5,0-0.8,0-1.3c0-0.1,0.2-0.2,0.2-0.2c0.4-0.1,0.8,0,1.2-0.1
			c1.1-0.2,1.7-0.9,1.4-2.1c-0.3-1.3-0.8-2.5-1.2-3.9c-3.4,1.1-6.8,1.2-10.2,0.2c0,0-0.1,0-0.1,0.1c-0.5,1.3-1,2.5-1.2,3.7
			c-0.2,1,0.3,1.7,1.2,1.9c0.6,0.1,1,0.2,1.6,0.2c0.2,0,0.3,0.1,0.3,0.3c0,0.2,0,0.6,0,0.7c0,0.3-0.1,0.4-0.4,0.4
			c-1.6,0-3.2,0-4.8,0c-1,0-2.1,0-3.2,0c-0.2,0-0.2,0-0.4,0c0-0.5,0-0.8,0-1.3c0-0.1,0.2-0.2,0.2-0.2c0.4-0.1,0.7-0.1,1-0.1
			c0.5-0.1,0.8-0.3,1-0.7c0.3-0.6,0.7-1.1,0.9-1.8c0.6-1.4,1-2.6,1.5-4c0-0.1,0-0.2,0.1-0.2c-0.5-0.3-0.9-0.6-1.4-0.8
			c-3.1-2.1-4.9-5.1-5.9-8.8c-1.1-4.7-0.6-9,2.1-13.1c1.5-2.4,3.6-4.3,6-5.8c2.6-1.7,5.6-2.8,8.6-3.6c2.1-0.6,4.5-1,6.8-1.4
			c3.2-0.4,6.2-0.6,9.4-0.5c2.5,0.1,4.9,0.4,7.4,0.7c5.5,0.9,10.7,2.5,15.8,4.9c2.5,1.1,4.9,2.5,7,4.1c0.1,0.1,0.2,0.2,0.2,0.2
			C204.3,69,204.2,69,204.2,69.1z M150.8,91.8c1.6,1.1,7.6,1.4,9,0.4c-1.5-4.2-3-8.4-4.5-12.7h-0.1
			C153.8,83.6,152.3,87.6,150.8,91.8z"/>
		<path class="st0" d="M56.4,78.1c0,0.1,0,0.2,0,0.3c0,6.2,0,12.5,0,18.7c0,0.2,0,0.6,0,0.7c0.1,0.7,0.6,1.2,1.4,1.2
			c0.2,0,0.3,0,0.5,0c0,0.6,0,1,0,1.4c-0.1,0-0.2,0-0.3,0c-1.8,0-3.4,0-5.3,0c-0.3,0-0.4-0.1-0.4-0.4c0-0.3,0-0.6,0-0.9
			c0-0.2,0.1-0.2,0.2-0.2s0.2,0,0.4,0c0.9-0.2,1.3-0.6,1.3-1.4c0-1.4,0-2.6,0-4c0-5,0-10.1,0-15.1c0-0.2,0-0.6-0.1-0.7
			c-0.1-0.6-0.5-0.9-1-1c-0.1,0-0.2,0-0.3-0.1c-0.5-0.1-0.5-0.1-0.5-0.6c0-0.3-0.1-0.7,0.1-0.8c0.2-0.2,0.6-0.1,0.8-0.1
			c1.8,0,3.5,0,5.3,0c0.3,0,0.4,0.1,0.5,0.3c2.3,6.5,4.8,13.1,7.1,19.6c0.1,0.1,0.1,0.2,0.2,0.4c0.1-0.2,0.2-0.3,0.2-0.5
			c2.3-6.5,4.7-13.1,7-19.6c0.1-0.2,0.2-0.3,0.5-0.3c1.9,0,3.7,0,5.7,0c0.1,0,0.2,0,0.3,0c0,0.6,0,1,0,1.4c-0.2,0-0.5,0.1-0.7,0.1
			c-0.7,0.1-1,0.5-1.1,1.2c0,0.2,0,0.6,0,0.7c0,6.2,0,12.3,0,18.5c0,0.2,0,0.6,0.1,0.7c0.1,0.7,0.6,1.1,1.4,1.2c0.2,0,0.3,0,0.5,0
			c0,0.6,0,1,0,1.4c-0.2,0-0.2,0-0.3,0c-2.1,0-4.3,0-6.4,0c-0.3,0-0.4-0.1-0.4-0.4s0-0.6,0-0.8c0-0.2,0.1-0.2,0.2-0.2
			c0.2,0,0.2,0,0.4,0c0.9-0.2,1.3-0.6,1.3-1.4c0-0.5,0-0.9,0-1.3c0-6,0-11.9,0-18c0-0.2,0-0.2,0-0.4h-0.1c0,0.1-0.1,0.2-0.1,0.2
			c-2.6,7.3-5.3,14.6-7.9,22c-0.1,0.2-0.2,0.3-0.5,0.3c-0.5,0-0.8,0-1.3,0c-0.2,0-0.4-0.1-0.5-0.3c-0.7-2.1-1.4-4.1-2.1-6
			c-2-5.3-3.8-10.6-5.8-15.8c0-0.1-0.1-0.2-0.1-0.2C56.4,78.1,56.4,78.1,56.4,78.1z"/>
		<path class="st0" d="M206.3,75.6c0,0.4,0,0.8,0,1.2c0,0.1-0.1,0.2-0.2,0.2c-0.8,0.1-1.4,0.6-1.7,1.4c-0.4,1-0.7,2.1-1,3
			c-1.8,6.2-3.6,12.6-5.4,18.9c-0.1,0.2-0.2,0.3-0.4,0.3c-0.8,0-1.7,0-2.5,0c-0.2,0-0.3-0.1-0.4-0.3c-1.8-6.3-3.7-12.7-5.5-18.9
			c0-0.1-0.1-0.2-0.2-0.4c-0.1,0.2-0.1,0.3-0.2,0.5c-1.8,6.2-3.4,12.6-5.1,18.8c-0.1,0.3-0.2,0.4-0.6,0.4c-0.8,0-1.7,0-2.4,0
			c-0.3,0-0.4-0.1-0.6-0.4c-1.8-5.9-3.4-11.7-5.2-17.5c-0.4-1.2-0.7-2.4-1-3.6c0-0.2-0.1-0.2-0.1-0.4c-0.5-1.3-1-1.7-2.3-1.8
			c-0.1,0-0.2,0-0.3,0c-0.1,0-0.2-0.2-0.2-0.2c0-0.4,0-0.8,0-1.2c3.3,0,6.4,0,9.6,0c0,0.5,0,0.8,0,1.3c0,0.1-0.2,0.1-0.2,0.2
			c-0.5,0-0.9,0-1.3,0.1c-1,0.2-1.6,1-1.3,2.1c0.5,1.9,1,3.7,1.5,5.6c1,3.8,2.1,7.7,3.3,11.6c0,0.2,0.1,0.2,0.2,0.4
			c0.2-0.6,0.3-1,0.4-1.5c1.8-6.4,3.4-12.7,5.1-19.1c0.1-0.2,0.2-0.3,0.4-0.3c0.7,0,1.3,0,2,0c0.2,0,0.3,0.1,0.4,0.3
			c1.3,4.3,2.5,8.7,3.7,13c0.7,2.2,1.3,4.5,2,6.8c0,0.1,0.1,0.2,0.1,0.3c0.1-0.2,0.1-0.2,0.2-0.3c1.5-5.1,3-10.3,4.5-15.3
			c0.2-0.5,0.2-1,0.3-1.4c0.2-1.3-0.5-2.1-1.8-2.1c-0.4,0-0.7,0-1,0c-0.2,0-0.3-0.1-0.3-0.3c0-0.3,0-0.6,0-0.9
			c0-0.2,0.1-0.2,0.2-0.2C201.4,75.6,203.8,75.6,206.3,75.6C206.2,75.6,206.2,75.6,206.3,75.6z"/>
		<path class="st0" d="M233.9,73.7c0,3.5,0,7,0,10.6c0.1-0.2,0.2-0.2,0.2-0.2c0.8-1.5,2.1-2.4,3.9-2.6c1.4-0.2,2.7-0.2,4,0.3
			c1.8,0.6,2.6,1.9,3.2,3.6c0.2,0.9,0.4,1.9,0.4,2.9c0,3,0,6,0,9c0,0.3,0,0.6,0.2,0.9c0.3,1,1,1.5,2.1,1.6c0.1,0,0.1,0,0.2,0
			c-0.1,0.4-0.3,0.7-0.6,0.9c-0.6,0.5-1.1,0.6-1.8,0.6c-1-0.1-1.8-0.3-2.5-1c-0.6-0.6-0.7-1.3-0.7-2.1c0-3.3,0-6.4,0-9.7
			c0-0.7-0.1-1.4-0.2-2.1c-0.4-1.8-1.4-2.5-3.3-2.7c-1.8-0.2-3,0.6-3.8,2.1c-0.3,0.6-0.6,1.2-0.7,1.9c-0.2,0.7-0.2,1.4-0.2,2.1
			c0,2.6,0,5.3,0,7.9c0,0.2,0,0.5,0.1,0.7c0.2,0.6,0.6,0.9,1.3,1c0.1,0,0.2,0,0.3,0c0.2,0,0.2,0.1,0.2,0.2c0,0.4,0,0.7,0,1
			c0,0.2-0.1,0.2-0.2,0.2c-0.1,0-0.2,0-0.2,0c-2.1,0-4.1,0-6.2,0c-0.2,0-0.2,0-0.4,0c0-0.6,0-1,0-1.4c0.3,0,0.6-0.1,0.7-0.1
			c0.7-0.2,1-0.5,1-1.1c0-0.3,0.1-0.6,0.1-1c0-6.7,0-13.4,0-20c0-0.2,0-0.6-0.1-0.7c-0.1-0.7-0.6-1-1.4-1c-0.6,0-0.6,0-0.6-0.6
			c0-0.3,0-0.6,0-0.9C230.5,73.7,232.1,73.7,233.9,73.7z"/>
		<path class="st0" d="M104.4,91.4c0.1-0.1,0.1-0.2,0.2-0.2c1.9-2.1,3.8-4.2,5.7-6.2c0.2-0.2,0.4-0.6,0.6-0.8
			c0.2-0.4,0.1-0.7-0.4-0.8c-0.3-0.1-0.6-0.1-0.9-0.2c-0.1,0-0.2-0.2-0.2-0.2c0-0.4,0-0.7,0-1c0-0.2,0.1-0.2,0.2-0.2
			c2.2,0,4.5,0,6.7,0h0.1c0,0.5,0,0.9,0,1.4c-1.5,0.1-2.5,0.9-3.5,1.9c-0.5,0.4-0.8,0.8-1.3,1.3c-0.8,0.9-1.7,1.9-2.5,2.8
			c-0.2,0.2-0.2,0.3,0,0.5c1.7,2.4,3.3,4.9,4.9,7.2c0.4,0.6,0.9,1.1,1.4,1.6c0.6,0.6,1.3,0.9,2.1,0.9c0.1,0,0.1,0,0.2,0
			c-0.2,0.7-0.6,1.2-1.1,1.5c-0.6,0.3-1.4,0.3-2.1,0.2c-1-0.1-1.8-0.7-2.5-1.6c-1.2-1.4-2.1-2.9-3.3-4.5c-0.7-1-1.4-2.1-2.1-3.1
			c0-0.1-0.1-0.1-0.2-0.3c-0.1,0.2-0.1,0.2-0.2,0.3c-0.7,0.7-1.4,1.5-2,2.2c-0.1,0.1-0.2,0.3-0.2,0.5c0,1,0,2,0,3
			c0,0.2,0,0.5,0.1,0.7c0.2,0.7,0.6,1,1.4,1c0.2,0,0.3,0,0.5,0c0,0.2,0,0.6,0,0.7c0,0.2,0,0.5,0,0.7c-0.2,0-0.2,0-0.3,0
			c-2.1,0-4.3,0-6.4,0c-0.3,0-0.4-0.1-0.4-0.4c0-0.3,0-0.6,0-0.8c0-0.2,0.1-0.3,0.2-0.2c0.1,0,0.2,0,0.3,0c0.9-0.2,1.2-0.6,1.3-1.4
			c0-0.2,0-0.4,0-0.6c0-6.7,0-13.4,0-20.1c0-0.3,0-0.6-0.1-0.8c-0.2-0.7-0.5-1-1.2-1.1c-0.6-0.1-0.6-0.1-0.6-0.7
			c0-0.7,0-0.7,0.7-0.7c1.3,0,2.6,0,3.9,0c0.5,0,0.5,0,0.5,0.5c0,5.6,0,11.2,0,16.8c0,0.2,0,0.2,0,0.4
			C104.3,91.3,104.3,91.3,104.4,91.4z"/>
		<path class="st0" d="M92.6,97.5c-0.1,0.2-0.2,0.3-0.2,0.4c-0.8,1.8-2.2,2.6-4.1,2.9c-1,0.2-2.1,0.2-3.2-0.1
			c-2.1-0.6-3.3-1.9-3.6-3.9c-0.2-1-0.2-2.1,0-3.1c0.3-1.4,1.2-2.4,2.5-3.1c1.2-0.6,2.5-1,3.9-1c1.4-0.1,2.7-0.1,4.1-0.2
			c0.1,0,0.2,0,0.4,0c0-0.2,0-0.2,0-0.4c0-1.1,0-2.2-0.1-3.4c0-0.5-0.2-0.8-0.3-1.3c-0.5-1-1.3-1.4-2.3-1.5c-0.6-0.1-1.1,0-1.7,0.1
			c-1.2,0.2-2,1.1-2.1,2.3c-0.1,0.5-0.1,0.9-0.2,1.4c-0.7,0-1.4-0.1-2-0.4c-0.6-0.3-0.8-0.7-0.9-1.4c-0.2-1.2,0.3-2.1,1.3-2.7
			c0.8-0.6,1.8-0.7,2.7-0.9c1.4-0.2,2.7-0.2,4.1-0.1c1.2,0.2,2.3,0.6,3.3,1.4c0.8,0.7,1.2,1.8,1.4,2.8c0.1,0.7,0.2,1.4,0.2,2.1
			c0,3,0,6,0,9.1c0,0.5,0.1,0.9,0.2,1.4c0.2,0.9,0.9,1.3,1.8,1.1c0.1,0,0.2,0,0.3,0c0,0.4-0.2,0.7-0.4,1c-0.5,0.6-1,0.7-1.8,0.7
			c-1.4,0.1-2.1-0.6-2.7-1.8c-0.2-0.5-0.3-1-0.5-1.4C92.6,97.7,92.6,97.7,92.6,97.5z M92.4,92.6L92.4,92.6c-0.1-0.3-0.1-0.6-0.1-0.8
			c0-0.7,0-0.7-0.7-0.7c-1.4,0-2.9,0-4.2,0.5c-1.2,0.4-2.1,1-2.5,2.3c-0.4,1-0.4,2.1-0.2,3.1c0.2,1,0.8,1.7,1.9,1.9
			c0.4,0.1,0.7,0.1,1.1,0.1c2.1,0,3.7-1.3,4.3-3.4C92.3,94.5,92.3,93.5,92.4,92.6z"/>
		<path class="st0" d="M132.4,91.3c-0.2,0-0.3,0-0.5,0c-3.7,0-7.4,0-11,0c-0.4,0-0.5,0-0.4,0.4c0.1,1.4,0.2,2.7,0.7,4
			c0.9,2.4,2.7,3.2,4.9,3.1c1.5-0.1,2.9-0.6,4-1.6c0.3-0.2,0.6-0.6,0.7-0.8c0.3,0.2,0.6,0.6,0.6,0.9c0.2,0.7-0.2,1.4-0.7,1.9
			c-0.7,0.7-1.7,1.2-2.6,1.5c-1.9,0.6-3.8,0.6-5.7-0.1c-2.5-0.7-3.9-2.5-4.8-4.9c-0.6-1.7-0.7-3.4-0.6-5.1c0.1-1.5,0.2-3,0.7-4.5
			c1-2.6,2.8-4.3,5.6-4.8c1.6-0.2,3.2-0.2,4.6,0.5c2.1,0.8,3.3,2.5,3.9,4.6C132.4,88,132.4,89.6,132.4,91.3z M128.8,89.4
			c0-0.4,0-0.7,0-1c-0.1-1.1-0.2-2.2-0.7-3.3c-0.4-0.8-1-1.5-1.8-1.8c-1.8-0.6-3.7-0.1-4.7,1.8c-0.6,1.1-0.8,2.3-1,3.6
			c0,0.2,0,0.5-0.1,0.7C123.3,89.4,126,89.4,128.8,89.4z"/>
		<path class="st0" d="M216.5,94.8c0.1,0.6,0.1,1,0.2,1.5c0.4,1.8,1.6,2.9,3.3,2.9c1,0.1,2-0.1,2.9-0.6c1.4-0.8,1.8-2.5,1.3-3.7
			c-0.2-0.4-0.5-0.7-0.7-1c-0.8-0.7-1.8-1-2.8-1.5c-1.2-0.6-2.3-1.1-3.4-1.8c-1-0.6-2-1.4-2.2-2.6c-0.5-1.8-0.4-3.4,1-4.9
			c0.8-0.8,1.9-1.3,3-1.6c1.8-0.4,3.4-0.5,5.1,0.1c0.9,0.3,1.8,0.7,2.2,1.7c0.6,1,0.4,2.3-0.6,2.9c-0.5,0.3-0.9,0.4-1.4,0.4
			c-0.2,0-0.2-0.1-0.2-0.2c-0.1-0.5-0.1-1-0.2-1.4c-0.4-1.4-1.2-2.1-2.6-2.1c-0.7-0.1-1.4,0.1-2.1,0.4c-1,0.5-1.4,1.2-1.5,2.2
			c-0.1,1.2,0.5,2.1,1.4,2.6c0.9,0.5,1.8,0.9,2.8,1.3c1.2,0.6,2.3,1,3.4,1.8c1.6,1,2.1,2.6,2.1,4.5c-0.1,1.8-0.8,3.3-2.4,4.2
			c-0.7,0.5-1.5,0.7-2.3,0.8c-1.8,0.3-3.4,0.3-5.2-0.2c-0.8-0.2-1.5-0.6-2.1-1.2c-0.8-0.9-1.1-2.5-0.6-3.4
			C215,95.2,215.8,94.7,216.5,94.8z"/>
		<path class="st0" d="M205.8,100.5c0-0.5,0-1,0-1.4c0.2,0,0.6-0.1,0.7-0.1c0.7-0.2,1-0.5,1-1.2c0-0.3,0.1-0.6,0.1-0.8
			c0-4,0-8,0-11.9c0-0.3,0-0.7-0.1-1c-0.2-0.7-0.5-1-1.1-1c-0.2,0-0.5-0.1-0.7-0.1c0.2-0.5,0.2-0.9,0.4-1.4c0-0.1,0.2-0.1,0.2-0.1
			c1.5,0,3,0,4.6,0c0,0.2,0,0.3,0,0.5c0,5,0,10.2,0,15.2c0,0.3,0,0.6,0.1,0.8c0.1,0.7,0.6,1,1.4,1.1c0.2,0,0.3,0,0.5,0
			c0,0.6,0,1,0,1.4C210.4,100.5,208.1,100.5,205.8,100.5z"/>
		<path class="st0" d="M138.1,91.3c-0.6,0-1.1,0-1.7,0c-0.4,0-0.6-0.2-0.6-0.6c0-0.2,0-0.2,0-0.4c0-0.3,0.2-0.5,0.6-0.5
			c1.1,0,2.3,0,3.4,0c0.3,0,0.5,0.2,0.5,0.5c0,0.9,0,1-0.9,1C138.9,91.3,138.4,91.3,138.1,91.3z"/>
		<path class="st0" d="M171.1,89.9c0.6,0,1.1,0,1.7,0c0.4,0,0.6,0.2,0.6,0.6c0,0.8-0.1,0.9-0.9,0.9c-1,0-2,0-2.9,0
			c-0.5,0-0.6-0.2-0.6-0.6c0-0.1,0-0.2,0-0.3c0-0.4,0.2-0.6,0.6-0.6C170,89.9,170.5,89.9,171.1,89.9z"/>
	</g>
</g>
</svg>
