<?xml version="1.0" encoding="utf-8"?>
<!-- Generator: Adobe Illustrator 22.1.0, SVG Export Plug-In . SVG Version: 6.00 Build 0)  -->
<svg version="1.1" id="Layer_1" xmlns="http://www.w3.org/2000/svg" xmlns:xlink="http://www.w3.org/1999/xlink" x="0px" y="0px"
	 width="300px" height="160px" viewBox="0 0 300 160" style="enable-background:new 0 0 300 160;" xml:space="preserve">
<style type="text/css">
	.st0{fill:#FFFFFF;}
	.st1{fill:#30B457;}
	.st2{fill:#024128;}
</style>
<g>
	<path class="st0" d="M102.3,96.7H87V69h7.8v22.8h7.4c5.1,0,7.3-3.6,7.3-12.7c0-9.2-2.4-11.9-7.7-11.9h-17v29.5h-7.7V67.3H66v-4.9
		h38.2c9.2,0,13.6,4.8,13.6,16.7C117.7,94.8,111.2,96.7,102.3,96.7"/>
	<path class="st1" d="M59,109.5h66.1V50.5H59V109.5z M102.3,96.7H87V69h7.8v22.8h7.4c5.1,0,7.3-3.6,7.3-12.7
		c0-9.2-2.4-11.9-7.7-11.9h-17v29.5h-7.7V67.3H66v-4.9h38.2c9.2,0,13.6,4.8,13.6,16.7C117.7,94.8,111.2,96.7,102.3,96.7"/>
	<g>
		<path class="st2" d="M149.7,77.3h2.6c1.8,0,3.7,0.4,3.7,2.6c0,1.9-1.9,2.6-3.7,2.6h-2.5L149.7,77.3L149.7,77.3z M140.6,87.8h14.6
			c5.2,0,10.4-0.6,10.4-7.1c0-2.5-2.2-5.3-5.7-5.8v-0.1c3.4-0.9,5.2-2.7,5.2-6.2c0-4.8-4.4-6.3-8.7-6.3h-16L140.6,87.8
			C140.5,87.8,140.6,87.8,140.6,87.8z M149.7,67.2h2.6c1.7,0,3.3,0.6,3.3,2.4c0,1.9-1.8,2.4-3.6,2.4h-2.4L149.7,67.2
			C149.7,67.2,149.7,67.2,149.7,67.2z"/>
		<path class="st2" d="M180.4,80c0,1.7-1,3.4-2.8,3.4c-1.4,0-2.2-0.5-2.2-1.8c0-1.9,2.2-2.2,4.1-2.2h0.9V80z M169.3,74.8
			c1.8-0.9,4.1-1.6,6.3-1.6c2.3,0,4.8,0.3,4.8,2.7c-0.9-0.1-2.3-0.3-3.6-0.3c-4.5,0-9.8,1.1-9.8,7c0,3.9,3.4,5.6,7,5.6
			c2.6,0,4.9-1,6.2-3.1h0.1v2.7h8.5V76.3c0-6.9-6.4-7.8-11.6-7.8c-3.6,0-5.2,0.3-7.9,1L169.3,74.8L169.3,74.8z"/>
		<path class="st2" d="M191.4,68.8h8.6v3.2h0.1c1-2.6,3.6-3.7,6.2-3.7c4.9,0,6.6,2.5,6.6,6.2v13.2h-9.2V76.9c0-1,0-2.6-1.6-2.6
			c-1.7,0-1.7,1.5-1.7,2.6v10.9h-9.2L191.4,68.8L191.4,68.8z"/>
		<polygon class="st2" points="225.1,76.3 225.1,76.3 230.4,68.8 240.7,68.8 234.4,77.2 241,87.8 230.4,87.8 225.1,78.5 225.1,78.5 
			225.1,87.8 216,87.8 216,60.6 225.1,60.6 		"/>
	</g>
</g>
</svg>
