<?xml version="1.0" encoding="utf-8"?>
<!-- Generator: Adobe Illustrator 22.1.0, SVG Export Plug-In . SVG Version: 6.00 Build 0)  -->
<svg version="1.1" id="Layer_1" xmlns="http://www.w3.org/2000/svg" xmlns:xlink="http://www.w3.org/1999/xlink" x="0px" y="0px"
	 width="300px" height="150px" viewBox="0 0 300 150" style="enable-background:new 0 0 300 150;" xml:space="preserve">
<g>
	<polygon points="236.9,76 236.9,78 244.7,78 244.7,85.8 246.6,85.8 246.6,76 	"/>
	<path d="M140.9,47.1h-8.4c-0.1,0-0.2,0.1-0.2,0.2v33.2c0,7.4-6,13.4-13.4,13.4c-1,0-2.2,0-3.1-0.2c0,0,0,0-0.1,0s-0.3-0.1-0.5-0.1
		l0,0c-0.2,0-0.4-0.1-0.5-0.1l0,0c-0.8-0.2-1.6-0.6-2.5-1l0,0c0,0,0,0-0.1,0c-0.3-0.1-1-0.6-2.1-1.2c-0.5-0.4-1-0.9-1.5-1.3
		c-0.2-0.2-0.5-0.1-0.5,0.1l-2.2,8.5c-0.1,0.2,0,0.5,0.2,0.6c0.6,0.4,1,0.8,1.5,0.9l0,0c2,1.1,5.9,2.8,11.1,2.8c0.1,0,0.2,0,0.3,0
		c5,0,9.7-1.6,13.4-4.5v4.2c0,0.1,0.1,0.2,0.2,0.2h8.4c0.1,0,0.2-0.1,0.2-0.2V47.3C141.2,47.2,141.1,47.1,140.9,47.1z"/>
	<path d="M87,61L87,61c-1.9-1.1-5.9-2.8-11-2.8c-0.1,0-0.2,0-0.3,0c-5,0-9.7,1.6-13.4,4.5v-4.2c0-0.1-0.1-0.2-0.2-0.2h-8.4
		c-0.2,0-0.3,0.1-0.3,0.2v44.1c0,0.1,0.1,0.2,0.2,0.2H62c0.1,0,0.2-0.1,0.2-0.2V80.5c0-7.4,6-13.4,13.4-13.4c1,0,2.2,0,3.1,0.2
		c0,0,0,0,0.1,0s0.3,0.1,0.5,0.1l0,0c0.2,0,0.4,0.1,0.5,0.1l0,0c0.8,0.2,1.6,0.6,2.5,1l0,0c0,0,0,0,0.1,0c0.3,0.1,1,0.6,2.1,1.2
		c0.5,0.4,1,0.9,1.5,1.3c0.2,0.2,0.5,0.1,0.5-0.1l2.2-8.5c0.1-0.2,0-0.5-0.2-0.6C88,61.6,87.4,61.3,87,61z"/>
	<path d="M115.4,67.1c1,0,2.2,0,3.1,0.2c0,0,0,0,0.1,0s0.3,0.1,0.5,0.1l0,0c0.2,0,0.4,0.1,0.5,0.1l0,0c0.8,0.2,1.6,0.6,2.5,1l0,0
		c0,0,0,0,0.1,0c0.3,0.1,1,0.6,2.1,1.2c0.5,0.4,1,0.9,1.5,1.3c0.2,0.2,0.5,0.1,0.5-0.1l2.2-8.5c0.1-0.2,0-0.5-0.2-0.6
		c-0.6-0.4-1-0.8-1.5-0.9l0,0c-1.9-1-5.9-2.8-11-2.8c-0.1,0-0.2,0-0.3,0c-5,0-9.7,1.6-13.4,4.5v-4.2c0-0.1-0.1-0.2-0.2-0.2h-8.4
		c-0.1,0-0.2,0.1-0.2,0.2v44.1c0,0.1,0.1,0.2,0.2,0.2h8.4c0.1,0,0.2-0.1,0.2-0.2v-22C102.1,73.1,108.1,67.1,115.4,67.1z"/>
	<path d="M153.4,91.2c-1.2,0-2.2-0.9-2.2-2.2c0-1.2,0.9-2.2,2.2-2.2c0.7,0,1.3,0.3,1.7,0.9l0.6-0.8c-0.6-0.6-1.5-0.9-2.4-0.9
		c-1.9,0-3.3,1.3-3.3,3.1c0,1.8,1.4,3.1,3.2,3.1c0.9,0,1.8-0.4,2.5-1l-0.7-0.7C154.7,91,154.1,91.2,153.4,91.2z"/>
	<path d="M159.7,85.9c-1.9,0-3.3,1.3-3.3,3.1c0,1.8,1.4,3.1,3.3,3.1c1.9,0,3.3-1.4,3.3-3.1C162.9,87.2,161.5,85.9,159.7,85.9z
		 M159.7,91.2c-1.2,0-2.3-0.9-2.3-2.2c0-1.2,1-2.2,2.3-2.2s2.2,0.9,2.2,2.2C161.9,90.2,160.8,91.2,159.7,91.2z"/>
	<polygon points="170.8,85.9 169.6,85.9 167.5,90 165.4,85.9 164.1,85.9 164.1,92.2 165.2,92.2 165.2,87.4 167.2,91.5 167.8,91.5 
		169.8,87.4 169.8,92.2 170.8,92.2 	"/>
	<polygon points="178.1,92.2 179.1,92.2 179.1,85.9 177.9,85.9 175.8,90 173.7,85.9 172.5,85.9 172.5,92.2 173.5,92.2 173.5,87.4 
		175.4,91.5 176.2,91.5 178.1,87.4 	"/>
	<path d="M186.2,89.5v-3.6h-1v3.6c0,1-0.7,1.7-1.6,1.7c-0.9,0-1.7-0.7-1.7-1.7v-3.6h-1v3.6c0,1.6,1,2.7,2.8,2.7
		C185.2,92.2,186.2,91.1,186.2,89.5z"/>
	<polygon points="188.8,87.6 192.2,92.2 193.2,92.2 193.2,85.9 192.2,85.9 192.2,90.4 188.8,85.9 187.8,85.9 187.8,92.2 188.8,92.2 
			"/>
	<rect x="194.9" y="85.9" width="1" height="6.3"/>
	<path d="M200.5,91.2c-1.2,0-2.2-0.9-2.2-2.2c0-1.2,0.9-2.2,2.2-2.2c0.7,0,1.3,0.3,1.7,0.9l0.6-0.8c-0.6-0.6-1.5-0.9-2.4-0.9
		c-1.9,0-3.3,1.3-3.3,3.1c0,1.8,1.4,3.1,3.2,3.1c0.9,0,1.8-0.4,2.5-1l-0.7-0.7C201.7,91,201.1,91.2,200.5,91.2z"/>
	<path d="M205.9,85.9l-2.8,6.2h1.1l0.6-1.4h3.1l0.6,1.4h1.1l-2.8-6.3C207.1,85.9,205.9,85.9,205.9,85.9z M205.3,89.8l1.1-2.8
		l1.1,2.8H205.3z"/>
	<polygon points="209.3,86.9 211.2,86.9 211.2,92.2 212.3,92.2 212.3,86.9 214.3,86.9 214.3,85.9 209.3,85.9 	"/>
	<rect x="215.3" y="85.9" width="1" height="6.3"/>
	<path d="M220.8,85.9c-1.9,0-3.3,1.3-3.3,3.1c0,1.8,1.4,3.1,3.3,3.1s3.3-1.4,3.3-3.1C224.2,87.2,222.7,85.9,220.8,85.9z M220.9,91.2
		c-1.2,0-2.3-0.9-2.3-2.2c0-1.2,1-2.2,2.3-2.2c1.2,0,2.2,0.9,2.2,2.2C223.1,90.2,222.2,91.2,220.9,91.2z"/>
	<polygon points="229.8,90.4 226.4,85.9 225.4,85.9 225.4,92.2 226.5,92.2 226.5,87.6 229.8,92.2 230.8,92.2 230.8,85.9 229.8,85.9 
			"/>
	<path d="M233.5,87.5c0-0.4,0.4-0.7,1-0.7c0.5,0,1.1,0.2,1.8,0.6l0.5-0.9c-0.6-0.4-1.4-0.7-2.2-0.7c-1.3,0-2.3,0.7-2.3,1.7
		c0,2.2,3.4,1.4,3.4,2.8c0,0.5-0.5,0.8-1.1,0.8s-1.5-0.4-2.1-0.9l-0.5,0.9c0.7,0.6,1.6,0.9,2.6,0.9c1.4,0,2.4-0.7,2.4-1.8
		C236.9,88.1,233.5,88.9,233.5,87.5z"/>
	<polygon points="151.7,100.2 154.7,100.2 154.7,99.2 151.7,99.2 151.7,97.6 155.1,97.6 155.1,96.6 150.7,96.6 150.7,102.8 
		155.2,102.8 155.2,102 151.7,102 	"/>
	<polygon points="161,101.1 157.7,96.6 156.6,96.6 156.6,102.8 157.7,102.8 157.7,98.4 161,102.8 162.1,102.8 162.1,96.6 161,96.6 	
		"/>
	<path d="M165.8,96.6l-2.8,6.3h1.1l0.6-1.4h3.1l0.6,1.4h1.1l-2.8-6.3H165.8z M165,100.5l1.1-2.8l1.1,2.8H165z"/>
	<path d="M174.2,99.6c0.7-0.2,1.1-0.7,1.1-1.4c0-0.9-0.9-1.5-2.1-1.5h-2.7v6.3h2.8c1.4,0,2.3-0.7,2.3-1.7
		C175.5,100.3,175,99.7,174.2,99.6z M171.5,97.5h1.6c0.7,0,1,0.3,1,0.9c0,0.6-0.4,0.9-1,0.9h-1.6V97.5z M173.1,102h-1.6v-1.8h1.6
		c0.9,0,1.3,0.4,1.3,0.9C174.4,101.6,173.9,102,173.1,102z"/>
	<polygon points="177.9,96.6 176.9,96.6 176.9,102.8 180.6,102.8 180.6,102 177.9,102 	"/>
	<polygon points="182.8,100.2 185.8,100.2 185.8,99.2 182.8,99.2 182.8,97.6 186.2,97.6 186.2,96.6 181.7,96.6 181.7,102.8 
		186.3,102.8 186.3,102 182.8,102 	"/>
	<path d="M190.2,96.6h-2.6v6.3h2.6c1.9,0,3.3-1.3,3.3-3.1C193.5,98,192.1,96.6,190.2,96.6z M190.3,102h-1.5v-4.4h1.5
		c1.2,0,2.2,0.9,2.2,2.2C192.3,101,191.5,102,190.3,102z"/>
</g>
</svg>
