<?xml version="1.0" encoding="utf-8"?>
<!-- Generator: Adobe Illustrator 22.1.0, SVG Export Plug-In . SVG Version: 6.00 Build 0)  -->
<svg version="1.1" id="Layer_1" xmlns="http://www.w3.org/2000/svg" xmlns:xlink="http://www.w3.org/1999/xlink" x="0px" y="0px"
	 width="300px" height="160px" viewBox="0 0 300 160" style="enable-background:new 0 0 300 160;" xml:space="preserve">
<style type="text/css">
	.st0{fill:#0388FE;}
	.st1{fill:#060606;}
	.st2{fill:#FEFEFE;}
</style>
<g id="hYzSLL.tif">
	<g>
		<g>
			<g>
				<path class="st0" d="M48.1,80.1c0,1.5,0,3,0,4.5c0,0.5,0.1,0.6,0.6,0.6c3,0,6.2,0,9.2,0c0.5,0,0.6-0.2,0.6-0.6c0-1.5,0-3,0-4.5
					c0-4.9,3.6-8.7,8.5-9.2c4.7-0.4,8.8,2.8,9.6,7.5c1,5.6-3.3,10.7-9,10.7c-1.5,0-2.9,0-4.4,0c-0.7,0-0.9,0.1-0.9,0.9
					c0,1.8,0.1,3.5-0.1,5.4c-0.5,4.3-4.3,7.8-8.6,7.9c-4.5,0.2-8.5-2.9-9.4-7.4c-0.4-2-0.1-3.9-0.2-6c0-0.6-0.1-0.8-0.8-0.8
					c-2,0-4,0.2-6-0.2c-4.4-0.8-7.8-5.1-7.4-9.5c0.4-4.9,4.2-8.5,8.9-8.6c1.5,0,2.8,0,4.3,0c0.7,0,0.9-0.1,0.9-0.9c0-2-0.2-4,0.1-6
					c0.8-4.9,5.5-8.2,10.3-7.4c4.8,0.7,8.3,5.3,7.6,10c-0.5,4.8-4.3,8.2-9.1,8.2c-1.5,0-3,0-4.5,0c-0.5,0-0.6,0.2-0.6,0.6
					C48.1,77.1,48.1,78.5,48.1,80.1z M53.3,89.3c-1.5,0-3.1,0-4.6,0c-0.5,0-0.6,0.1-0.6,0.6c0,1.5,0,3.1,0,4.7c0.1,2.6,2.3,4.8,5,5
					c2.5,0.2,4.9-1.7,5.4-4.3c0.3-1.7,0.1-3.5,0.2-5.4c0-0.5-0.2-0.6-0.6-0.6C56.3,89.3,54.8,89.3,53.3,89.3z M44.1,80.1
					c0-1.5,0-3.1,0-4.6c0-0.5-0.1-0.5-0.5-0.5c-1.5,0-2.9,0-4.4,0c-2.9,0.1-5.3,2.5-5.3,5.3c0.1,2.9,2.4,5.2,5.5,5.2
					c1.3,0,2.6,0,3.9,0c0.6,0,0.9-0.1,0.8-0.8C44.1,83,44.1,81.5,44.1,80.1z M48.1,67.8L48.1,67.8c0,0.8,0,1.7,0,2.5
					c0,0.5,0.1,0.6,0.5,0.5c1.7,0,3.4,0,5.2-0.1c2.7-0.2,4.9-2.6,4.8-5.4c-0.1-2.8-2.5-5.1-5.3-5.1c-2.7,0-5.1,2.2-5.3,5
					C48.1,66.3,48.1,67.1,48.1,67.8z M62.4,82.2c0,0.8,0,1.6,0,2.5c0,0.5,0.1,0.7,0.6,0.6c1.5,0,3,0,4.4,0c2.9,0,5.3-2.3,5.3-5.3
					c0-2.9-2.3-5.3-5.3-5.3c-2.7,0-5.2,2.5-5.2,5.4C62.4,80.8,62.4,81.5,62.4,82.2z"/>
				<path class="st1" d="M136.8,77.2c1-1.5,2.2-2.6,4.1-2.8c3.1-0.4,5.1,1.2,5.1,4.3c0.1,3.3,0,6.7,0,10c0,0.5-0.2,0.6-0.6,0.5
					c-0.8-0.1-1.8,0.4-2.4-0.2c-0.5-0.5-0.2-1.5-0.2-2.3c0-2.5,0-5.1-0.1-7.6c-0.1-2-1.7-2.8-3.4-1.7c-1.6,1.1-2.2,2.8-2.2,4.8
					c0,2.1,0,4.2,0,6.4c0,0.6-0.2,0.8-0.7,0.7c-0.7-0.1-1.7,0.3-2.2-0.2c-0.5-0.5-0.2-1.5-0.2-2.2c0-2.4,0-4.8,0-7.2
					c0-1.1,0-2.2-1.4-2.6c-1-0.4-2.3,0.1-3.1,1.2c-0.9,1.1-1.3,2.5-1.3,3.9c0,2.1,0,4.1,0,6.3c0,0.6-0.1,0.9-0.8,0.8
					c-0.7-0.1-1.7,0.3-2.2-0.2c-0.5-0.5-0.2-1.5-0.2-2.3c0-3.8,0-7.6,0-11.4c0-0.5,0.1-0.8,0.7-0.7c0.5,0.1,1.1,0,1.7,0
					c0.5,0,0.6,0.2,0.5,0.5c-0.1,0.5-0.1,1.2-0.1,2c1.2-1.8,2.6-2.8,4.7-2.9C134.7,74.2,135.8,74.9,136.8,77.2z"/>
				<path class="st1" d="M189.3,79.3c0-3,0-6.2,0-9.2c0-0.6,0.2-0.8,0.7-0.7c0.6,0.1,1.3,0.1,1.9,0c0.5-0.1,0.6,0.2,0.6,0.6
					c0,2.2,0,4.4,0,6.7c0,0.6,0.1,0.8,0.7,0.8c2.5,0,5.3,0,7.8,0c0.6,0,0.7-0.2,0.7-0.7c0-2.3,0-4.4,0-6.8c0-0.5,0.1-0.7,0.6-0.6
					c0.8,0.1,1.9-0.3,2.4,0.2c0.5,0.5,0.2,1.5,0.2,2.4c0,5.5,0,11,0,16.4c0,0.7-0.2,1-0.9,0.9c-0.7-0.1-1.7,0.4-2.2-0.2
					c-0.4-0.5-0.1-1.4-0.1-2.1c0-1.9,0-3.9,0-5.9c0-0.5-0.1-0.6-0.6-0.6c-2.7,0-5.4,0-8.2,0c-0.5,0-0.5,0.2-0.5,0.6c0,2.5,0,5,0,7.4
					c0,0.5-0.1,0.8-0.7,0.7c-0.5-0.1-1.2-0.1-1.8,0c-0.6,0.1-0.7-0.2-0.7-0.7C189.3,85.4,189.3,82.3,189.3,79.3z"/>
				<path class="st1" d="M260.9,76.5c0.4,0.1,0.5-0.2,0.6-0.4c1.5-1.7,4-2.4,6.2-1.6c1.6,0.6,2.4,1.9,2.4,3.5
					c0.1,3.4,0,7.1,0.1,10.5c0,0.5-0.2,0.5-0.5,0.5c-0.6,0-1.3-0.1-1.9,0c-0.5,0-0.6-0.2-0.6-0.6c0-2.8,0-5.7,0-8.4
					c0-0.3,0-0.5,0-0.8c-0.3-2.2-2-3-3.8-1.6c-1.5,1-1.9,2.5-2,4.2c-0.1,2.2-0.1,4.4,0,6.7c0,0.6-0.2,0.8-0.8,0.7
					c-0.5-0.1-1.2,0-1.8,0c-0.5,0-0.6-0.1-0.5-0.5c0-0.7,0-1.5,0-2.2c0-6,0-11.8,0-17.8c0-0.7,0.2-1,0.9-0.9s1.7-0.3,2.1,0.2
					c0.5,0.5,0.2,1.5,0.2,2.2c0,1.6,0,3.3,0,5C261.1,75.6,261.1,76.1,260.9,76.5z"/>
				<path class="st1" d="M84.9,79.3c0-3.1,0-6.2,0-9.3c0-0.4,0-0.7,0.5-0.7c2.2,0,4.3-0.3,6.5,0.1c2.9,0.4,4.8,2.1,5.4,4.7
					c0.5,2.7-0.8,5.5-3.3,6.9c-1.6,0.9-3.3,1.1-5.2,1c-0.5,0-0.6,0.1-0.6,0.5c0,1.9,0,3.9,0,5.9c0,0.6-0.2,0.8-0.8,0.8
					c-0.5-0.1-1.1-0.1-1.7,0c-0.5,0.1-0.7-0.2-0.7-0.7C84.9,85.4,84.9,82.3,84.9,79.3z M88.2,75.6c0,0.5,0,1,0,1.5
					c0,0.6-0.3,1.6,0.1,1.9c0.6,0.5,1.6,0.3,2.5,0.1c1.9-0.4,3.1-1.8,3.1-3.6c0-1.8-0.9-3-2.6-3.4c-0.8-0.2-1.6-0.2-2.5-0.1
					c-0.4,0-0.5,0.2-0.5,0.5C88.2,73.5,88.2,74.6,88.2,75.6z"/>
				<path class="st1" d="M232.2,86.9c-1.2,1.7-2.6,2.5-4.6,2.5c-2,0-3.3-0.9-3.9-2.5c-0.6-1.8-0.2-3.7,1.4-5
					c1.5-1.3,3.3-1.5,5.3-1.7c0.2,0,0.4,0,0.6,0c1.4-0.1,1.4-0.1,1.2-1.4c-0.2-1.4-1-2.1-2.5-2.2c-1.5-0.1-2.7,0.2-4,0.8
					c-0.5,0.3-0.7,0.2-0.8-0.5c0-0.2-0.1-0.3-0.1-0.4c-0.4-1.5-0.4-1.5,1.2-1.9c1.7-0.4,3.4-0.5,5.2-0.4c2.7,0.3,4.2,1.6,4.3,4.4
					c0.1,3.3-0.1,6.7,0.1,10c0,0.4-0.2,0.5-0.5,0.5s-0.5,0-0.8,0c-1.7,0-1.7,0-1.6-1.8C232.2,87.3,232.2,87.2,232.2,86.9z M232,83
					c0-0.2,0.2-0.6-0.4-0.6c-1.4,0.1-2.7,0.1-3.9,0.8c-1,0.5-1.4,1.5-1.1,2.5c0.3,0.9,1.2,1.4,2.3,1.3C230.4,86.7,231.9,85.1,232,83
					z"/>
				<path class="st1" d="M116.9,82.1c-1.4,0-2.6,0-4,0c-0.5,0-0.6,0.2-0.6,0.6c0.1,2.6,1.5,4,4.2,4.1c1.3,0,2.5-0.2,3.8-0.7
					c0.4-0.2,0.5-0.1,0.5,0.3v0.1c0.5,2.1,0.5,2.1-1.6,2.5c-1.6,0.4-3.3,0.5-5.1,0.2c-2.7-0.5-4.4-2-5-4.9c-0.5-2.7-0.4-5.5,1.4-7.8
					c1.5-2.1,4.4-2.9,7.2-2.1c2.3,0.7,3.6,2.6,3.8,5.4c0.1,2.2,0.1,2.2-2.1,2.2C118.6,82.1,117.8,82.1,116.9,82.1z M115.3,79.9
					c0.9,0,1.7,0,2.6,0c0.3,0,0.5,0,0.5-0.4c0-1.3-0.9-2.5-2.2-2.8c-1.8-0.5-3.5,0.8-3.8,2.7c-0.1,0.4,0.1,0.5,0.4,0.5
					C113.6,79.9,114.5,79.9,115.3,79.9z"/>
				<path class="st1" d="M216.3,82.1c-1.4,0-2.6,0-4,0c-0.5,0-0.6,0.2-0.6,0.6c0,2.5,1.5,4,3.9,4.1c1.4,0.1,2.7-0.2,4-0.6
					c0.5-0.2,0.5,0,0.6,0.4c0.5,2,0.5,2.1-1.6,2.5c-1.7,0.4-3.4,0.5-5.2,0.2c-2.6-0.5-4.3-2.1-4.8-4.7c-0.5-2.5-0.5-5.1,0.9-7.4
					c1.7-3,6.1-3.9,9-2c1.7,1.2,2.4,3,2.5,5.1c0.1,1.9,0.1,1.9-1.8,1.9C218.2,82.1,217.2,82.1,216.3,82.1z M214.7,79.9
					c0.8,0,1.7,0,2.5,0c0.2,0,0.5,0.1,0.5-0.4c0.1-1.3-0.8-2.5-2.1-2.8c-1.9-0.5-3.7,0.8-3.9,2.7c-0.1,0.4,0.1,0.5,0.5,0.5
					C213.1,79.9,213.9,79.9,214.7,79.9z"/>
				<path class="st1" d="M164.7,82.1c-1.3,0-2.6,0-3.9,0c-0.6,0-0.7,0.2-0.6,0.7c0.1,2.5,1.5,3.9,4,4c1.4,0,2.6-0.2,3.9-0.6
					c0.4-0.2,0.6-0.2,0.6,0.4c0,0.1,0,0.2,0,0.4c0.3,1.7,0.3,1.7-1.5,2.2c-1.7,0.4-3.4,0.5-5.3,0.3c-2.9-0.5-4.6-2.2-5.1-5.2
					c-0.4-2-0.3-4.1,0.5-6.1c0.9-2.1,2.5-3.4,4.8-3.7c2.3-0.3,4.4,0,6,2c1.2,1.5,1.3,3.4,1.2,5.4c0,0.5-0.3,0.4-0.5,0.4
					C167.5,82.1,166.1,82.1,164.7,82.1z M163.3,79.9c0.8,0,1.7,0,2.5,0c0.4,0,0.5-0.1,0.5-0.5c0-1.3-0.9-2.4-2.2-2.7
					c-1.8-0.5-3.5,0.8-3.8,2.7c-0.1,0.5,0.1,0.5,0.4,0.5C161.5,79.9,162.3,79.9,163.3,79.9z"/>
				<path class="st1" d="M247.7,82c0-1.6,0-3,0-4.4c0-0.5-0.1-0.6-0.5-0.5c-0.1,0-0.2,0-0.4,0c-1.9,0-1.9,0-1.9-1.9
					c0-0.5,0.1-0.7,0.6-0.6c0.1,0,0.2,0,0.4,0c1.8,0,1.8,0,1.8-1.8c0-0.7,0-1.5,0-2.2c0-0.5,0.2-0.6,0.5-0.7c0.8-0.2,2-0.8,2.5-0.5
					c0.5,0.4,0.2,1.6,0.2,2.5c0,0.7,0,1.5,0,2.3c0,0.5,0.1,0.5,0.5,0.5c0.9,0,1.8,0,2.7,0c0.4,0,0.5,0.1,0.5,0.5c0.1,2,0.1,2-1.8,2
					c-1.9,0-1.9,0-1.9,1.9c0,1.7,0,3.4,0,5.2c0,2.3,0.6,2.8,2.9,2.5c0.6-0.1,0.8,0.1,0.8,0.6c0.2,1.8,0.2,1.9-1.6,2.1
					c-0.9,0.1-1.7,0.1-2.6-0.1c-1.5-0.3-2.3-1.1-2.5-2.5C247.5,85.1,247.8,83.4,247.7,82z"/>
				<path class="st1" d="M242.8,78.4c0,3.4,0,6.7,0,10.1c0,0.5-0.1,0.7-0.7,0.7c-0.8-0.1-1.8,0.3-2.3-0.2c-0.5-0.5-0.2-1.5-0.2-2.3
					c0-6.1,0-12.2,0-18.2c0-0.6,0.2-0.9,0.8-0.8c0.5,0.1,1.1,0.1,1.6,0c0.6-0.1,0.7,0.2,0.7,0.7C242.7,71.7,242.8,75.1,242.8,78.4z"
					/>
				<path class="st1" d="M172.8,81.8c0-2.2,0-4.4,0-6.6c0-0.5,0.2-0.7,0.7-0.7c0.5,0.1,1,0.1,1.5,0c0.8-0.1,1,0.3,0.9,0.9
					c0,0.1-0.1,0.3,0,0.4c0.1,0.2-0.3,0.5,0.1,0.6c0.3,0.1,0.4-0.3,0.5-0.5c0.9-1.2,2-1.7,3.4-1.7c0.4,0,0.6,0.1,0.5,0.5
					c-0.1,0.2,0,0.5,0,0.6c0,0.5,0.1,1.2-0.1,1.6c-0.3,0.5-1,0.1-1.5,0.2c-1.1,0.3-1.7,1-2.2,2c-0.5,1.1-0.5,2.3-0.5,3.4
					c0,1.9,0,3.7,0,5.7c0,0.6-0.2,0.8-0.7,0.7c-0.5-0.1-1.2,0-1.8,0c-0.5,0-0.6-0.2-0.6-0.6C172.9,86.3,172.8,84.1,172.8,81.8z
					 M175.7,76.9c0.1,0.1,0.1,0.1,0.1,0.2c0-0.1,0.1-0.2,0.1-0.2H175.7C175.8,76.8,175.7,76.8,175.7,76.9z"/>
				<path class="st1" d="M103,77.1c0.4-0.2,0.5-0.5,0.5-0.7c0.8-1.4,2-2.2,3.7-2.2c0.5,0,0.6,0.1,0.5,0.5c0,0.2,0,0.4,0,0.5
					c0,0.6,0.1,1.3-0.1,1.7c-0.3,0.6-1,0.1-1.5,0.3c-1.1,0.4-1.7,1-2.1,1.9c-0.5,1.1-0.5,2.2-0.5,3.4c0,1.9,0,3.8,0,5.8
					c0,0.5-0.1,0.7-0.6,0.6c-0.8-0.1-1.9,0.4-2.5-0.2c-0.4-0.4-0.1-1.5-0.1-2.3c0-3.7,0-7.6,0-11.3c0-0.6,0.2-0.9,0.8-0.7
					c0.1,0,0.1,0,0.2,0C103.6,74.6,103.6,74.6,103,77.1z"/>
				<path class="st1" d="M153.6,81.7c0,2.2,0,4.4,0,6.7c0,0.5-0.1,0.7-0.7,0.7c-0.8-0.1-1.8,0.3-2.3-0.2c-0.5-0.5-0.2-1.5-0.2-2.3
					c0-3.8,0-7.6,0-11.4c0-0.5,0.2-0.8,0.7-0.7c0.5,0.1,1.2,0.1,1.8,0c0.5-0.1,0.6,0.2,0.6,0.6C153.6,77.5,153.6,79.5,153.6,81.7z"
					/>
				<path class="st1" d="M152,72c-1.2,0-2-0.8-2-1.9c0-1.1,0.9-2,2-2s2,0.9,2,2C154.1,71.1,153.2,72,152,72z"/>
				<path class="st2" d="M175.7,76.9c0-0.1,0.1-0.1,0.1-0.2l0.1,0.1C175.9,76.9,175.8,77,175.7,76.9C175.8,77,175.7,77,175.7,76.9z"
					/>
			</g>
		</g>
	</g>
</g>
</svg>
