<?xml version="1.0" encoding="utf-8"?>
<!-- Generator: Adobe Illustrator 22.1.0, SVG Export Plug-In . SVG Version: 6.00 Build 0)  -->
<svg version="1.1" id="Layer_1" xmlns="http://www.w3.org/2000/svg" xmlns:xlink="http://www.w3.org/1999/xlink" x="0px" y="0px"
	 width="300px" height="160px" viewBox="0 0 300 160" style="enable-background:new 0 0 300 160;" xml:space="preserve">
<style type="text/css">
	.st0{fill:#0096D7;}
</style>
<g id="layer1">
	<g id="g2404" transform="matrix(1.0036824,0,0,1.0036824,4.3467438,1.9219095)">
		<path id="path2384" class="st0" d="M93.1,49.6H31.9V59H90l0,0c1.7,0,3,1.4,3,3v31.6l0,0c0,1.7-1.4,3-3,3H44.3c-1.7,0-3-1.4-3-3
			V80.8c0-1.7,1.4-3,3-3h39.3v-9.4H41.2c-5.2,0-9.4,4.2-9.4,9.4v18.9c0,5.2,4.2,9.4,9.4,9.4h51.9c5.2,0,9.4-4.2,9.4-9.4V58.9
			C102.5,53.8,98.3,49.6,93.1,49.6"/>
		<path id="path2386" d="M137.5,49.6l7.4,22c0.9,2.7,1.5,3.3,3,3.3h1.5v3.9h-16.1v-3.9h1.3c1.3,0,2.4-0.2,2.4-0.7
			c0-0.4-0.1-0.9-0.2-1.6l-0.9-3.2h-9l-0.5,1.8c-0.5,1.5-0.7,2.2-0.7,2.8c0,0.7,1.5,0.8,2.7,0.8h1.3v3.9h-12.9v-3.8h1.5
			c1.5,0,2.2-0.6,3-3.3l7.3-22L137.5,49.6 M128.2,65.6h6.4l-3.2-9.5h-0.1L128.2,65.6z"/>
		<path id="path2388" d="M151.9,55c0-1.2-0.3-1.9-1.6-1.9h-2v-3.5h10.9v11c1.6-1.9,3.7-3,5.7-3c6.6,0,9.1,5.2,9.1,11
			c0,5.8-2.5,11-9.1,11c-2.8,0-5.2-1-6.8-3.4l-1.3,2.7h-4.9L151.9,55 M159.2,68.5c0,4.5,1,7.2,3.5,7.2s3.5-2.7,3.5-7.2
			c0-4.5-1-7.2-3.5-7.2C160.2,61.3,159.2,64,159.2,68.5"/>
		<path id="path2390" d="M176.6,55c0-1.2-0.3-1.9-1.6-1.9h-2v-3.5h10.9v11c1.6-1.9,3.7-3,5.7-3c6.6,0,9.1,5.2,9.1,11
			c0,5.8-2.5,11-9.1,11c-2.8,0-5.2-1-6.8-3.4l-1.3,2.7h-4.9L176.6,55 M183.9,68.5c0,4.5,1,7.2,3.5,7.2c2.5,0,3.5-2.7,3.5-7.2
			c0-4.5-1-7.2-3.5-7.2C184.9,61.3,183.9,64,183.9,68.5"/>
		<path id="path2392" d="M223.5,68.5c0,7-4.8,11-11.4,11c-6.6,0-11.4-3.9-11.4-11c0-7,4.8-11,11.4-11S223.5,61.4,223.5,68.5
			 M208.5,68.5c0,5.2,0.9,7.4,3.6,7.4c2.6,0,3.6-2.2,3.6-7.4s-0.9-7.4-3.6-7.4C209.5,61,208.5,63.3,208.5,68.5"/>
		<path id="path2394" d="M254.8,68.8v3.4c0,2-0.4,3.2-2.1,3.2c-1,0-1.5-0.8-1.5-1.7v-12h5.4v-3.5h-5.4V50h-4.4
			c-0.4,3.7-1.5,8.2-5.9,8.2H234V50h-4.4c-0.4,3.7-1.5,8.2-5.9,8.2v3.5h3v11.1c0,4.5,2.5,6.7,7,6.7c5.3,0,7.4-2.4,7.4-6.7v-3.9h-3.5
			v3.4c0,2-0.4,3.2-2.1,3.2c-1,0-1.5-0.8-1.5-1.7V61.7h9.8v11c0,4.5,2.5,6.7,7,6.7c5.3,0,7.4-2.4,7.4-6.7v-3.9H254.8"/>
	</g>
</g>
</svg>
