<?xml version="1.0" encoding="utf-8"?>
<!-- Generator: Adobe Illustrator 22.1.0, SVG Export Plug-In . SVG Version: 6.00 Build 0)  -->
<svg version="1.1" id="Layer_1" xmlns="http://www.w3.org/2000/svg" xmlns:xlink="http://www.w3.org/1999/xlink" x="0px" y="0px"
	 width="300px" height="160px" viewBox="0 0 300 160" style="enable-background:new 0 0 300 160;" xml:space="preserve">
<style type="text/css">
	.st0{fill:#FFFFFF;}
	.st1{fill:#EE3524;}
</style>
<g>
	<g>
		<path d="M72.6,80.3v-12c0-1.6-0.8-3.3-4.7-3.3v-1h14.9v1c-3.9,0-4.7,1.7-4.7,3.3v26.9c0,1.6,0.8,3.3,4.7,3.3v1H67.9v-1
			c3.9,0,4.7-1.7,4.7-3.3V82.5H56.4v12.8c0,1.6,0.8,3.3,4.7,3.3v1H46.2v-1c3.9,0,4.7-1.7,4.7-3.3V68.4c0-1.6-0.8-3.3-4.7-3.3v-1
			h14.9v1c-3.9,0-4.7,1.7-4.7,3.3v12L72.6,80.3"/>
		<path d="M84.1,88.8h1.2c1.7,5,5.4,9.5,11.1,9.5c4.3,0,7.3-3.8,6.1-7.9c-2.2-7.5-16.9-7.8-16.9-18.1c0-5.3,4.2-9,9.5-9
			c5.7,0,8.3,4,9.6,0h1.1l1.2,11.4h-1.3c-1.2-5-4.8-9.2-9.8-9.2c-3.2,0-5.6,1.8-5.6,5.2c0,3.1,3.4,5.3,5.7,6.7
			c7.3,4.4,12.2,6.7,12.2,13.2c0,4.8-4,9.8-11.3,9.8c-5.6,0-9.4-3.9-10,0h-1.2L84.1,88.8"/>
		<path d="M125.9,79.9c5.4,0,8.6-2.3,8.6-6.7c0-4.1-2.6-6.3-6.3-7c-4.9-0.3-6.7-0.4-6.7,1.4v12.2L125.9,79.9 M121.5,94.8
			c0,1.9,0.5,2.8,4.4,2.8c5.6,0,9.7-1.7,9.7-7.9c0-6.4-6.4-7.6-11.4-7.6h-2.7C121.5,82.1,121.5,94.8,121.5,94.8z M116,68.4
			c0-1.6-0.8-3.3-5.2-3.3v-1h14.4c8.3,0,14.7,2.2,14.7,9.1c0,4.5-3,6.8-7.1,7.7V81c4.6,0.9,9,3.7,9,8.9c0,6.4-5.6,9.8-14,9.8h-16.9
			v-1c4.3,0,5.2-1.7,5.2-3.3L116,68.4L116,68.4z"/>
		<path d="M174,75.1h-1.3c-1.6-5.9-5.5-9.9-11.6-9.9c-8.9,0-12.7,7.1-12.7,16.8c0,7.5,3.9,15.6,12.7,15.6c5.3,0,8.9-1.7,12.6-5.4
			l0.9,1.1c-3.3,4-8.8,6.7-14,6.7c-10.5,0-18.5-6.7-18.5-18.5c0-10.7,7.6-18.6,18.4-18.6c7.4,0,10,4.4,11.8,0.1h1.1L174,75.1"/>
		<rect x="203" y="63.1" class="st0" width="36.1" height="36.1"/>
		<polyline class="st1" points="203,63.1 239.1,63.1 221.1,81.1 203,63.1 		"/>
		<polyline class="st1" points="203,99.2 239.1,99.2 221.1,81.1 203,99.2 		"/>
		<polyline class="st1" points="203,63.1 203,99.2 185,81.1 203,63.1 		"/>
		<polyline class="st1" points="239.1,63.1 239.1,99.2 257.2,81.1 239.1,63.1 		"/>
	</g>
</g>
</svg>
