<?xml version="1.0" encoding="utf-8"?>
<!-- Generator: Adobe Illustrator 22.1.0, SVG Export Plug-In . SVG Version: 6.00 Build 0)  -->
<svg version="1.1" id="Layer_1" xmlns="http://www.w3.org/2000/svg" xmlns:xlink="http://www.w3.org/1999/xlink" x="0px" y="0px"
	 width="300px" height="150px" viewBox="0 0 300 150" style="enable-background:new 0 0 300 150;" xml:space="preserve">
<style type="text/css">
	.st0{fill:#006FBA;}
</style>
<g>
	<path class="st0" d="M227.4,59.5c-0.1,0.7-0.3,1.3-0.4,2c-0.3,1.4-0.4,1.1,0.6,2.1c0.5,0.5,0.9,0.9,1.4,1.3
		c0.1,0.1,0.1,0.3,0.2,0.4c-0.1,0-0.2,0.1-0.4,0.1c-0.9,0.1-1.8,0.2-2.6,0.3c-0.4,0-0.6,0.2-0.8,0.5c-0.4,0.9-0.8,1.6-1.2,2.4
		c-0.1,0.1-0.2,0.2-0.3,0.3c-0.1-0.1-0.2-0.2-0.3-0.3c-0.4-0.9-0.8-1.6-1.1-2.5c-0.2-0.4-0.4-0.5-0.8-0.6c-0.9-0.1-1.8-0.3-2.7-0.4
		c-0.1,0-0.3-0.1-0.3-0.2c0-0.1,0.1-0.2,0.1-0.3c0.7-0.7,1.3-1.2,2.1-1.9c0.3-0.2,0.4-0.5,0.3-0.8c-0.2-0.9-0.3-1.8-0.5-2.7
		c0-0.1,0-0.3,0.1-0.4c0.1,0,0.3,0,0.4,0c0.8,0.5,1.6,0.9,2.4,1.3c0.3,0.2,0.6,0.2,0.9,0c0.8-0.5,1.6-0.9,2.4-1.3
		C227.3,59.1,227.4,59.2,227.4,59.5z"/>
	<g>
		<path class="st0" d="M218.1,61.3c-0.1-0.1-0.3-0.1-0.4-0.2c-6.1-3.2-12.5-5.6-19.1-7.3c-2.8-0.7-5.8-1.2-8.7-1.6
			c-4.3-0.6-8.8-0.9-13.1-0.7c-2.5,0.1-5,0.3-7.5,0.6c-3.7,0.4-7.3,1.1-10.8,2.3c-3.7,1.2-7.1,2.8-10.1,5.2c-3.8,3-6.2,6.8-7.1,11.6
			c-0.8,4.9,0.1,9.5,3.1,13.6c1,1.4,2.4,2.6,3.9,3.6c0.1,0.1,0.2,0.1,0.4,0.2c0.1-0.2,0.1-0.3,0.2-0.4c2.3-6.1,4.5-12.2,6.8-18.3
			c0.1-0.3,0.3-0.5,0.7-0.5c0.9,0,1.7,0,2.6,0c0.4,0,0.5,0.1,0.6,0.4c2.1,5.6,4.1,11.3,6.1,16.8c0.2,0.6,0.5,1.2,0.7,1.9
			c2.9-1.9,4.9-4.4,6.2-7.6c0,0,0.1,0,0.1,0.1c0,0.2,0,0.4,0,0.5c-0.7,3.2-2.4,5.8-4.8,7.8c-0.2,0.2-0.5,0.4-0.8,0.6
			c-0.2,0.1-0.2,0.2-0.1,0.5c0.9,2.4,1.7,4.7,2.6,7.1c0.1,0.4,0.3,0.7,0.6,1c0.4,0.7,1,0.9,1.9,1c0.3,0,0.6,0.1,0.8,0
			c0.4,0,0.5,0.1,0.5,0.5s0,0.9,0,1.2c-4.1,0-8.1,0-12.2,0c0-0.6,0-1,0-1.6c0-0.1,0.2-0.2,0.3-0.2c0.5-0.1,1,0,1.5-0.1
			c1.4-0.3,2.1-1.1,1.8-2.6c-0.4-1.6-1-3.2-1.5-4.9c-4.3,1.4-8.5,1.5-12.8,0.2c0,0-0.1,0-0.1,0.1c-0.6,1.6-1.3,3.1-1.5,4.7
			c-0.2,1.2,0.4,2.1,1.5,2.4c0.7,0.1,1.3,0.2,2,0.2c0.3,0,0.4,0.1,0.4,0.4c0,0.3,0,0.7,0,0.9c0,0.4-0.1,0.5-0.5,0.5c-2,0-4,0-6,0
			c-1.3,0-2.6,0-4,0c-0.2,0-0.3,0-0.5,0c0-0.6,0-1,0-1.6c0-0.1,0.2-0.2,0.3-0.2c0.5-0.1,0.9-0.1,1.3-0.1c0.6-0.1,1-0.4,1.3-0.9
			c0.4-0.7,0.9-1.4,1.1-2.2c0.7-1.7,1.2-3.3,1.9-5c0-0.1,0-0.2,0.1-0.2c-0.6-0.4-1.1-0.7-1.7-1c-3.9-2.7-6.2-6.4-7.4-11
			c-1.4-5.9-0.7-11.3,2.6-16.5c1.9-3,4.5-5.4,7.6-7.3c3.3-2.1,7-3.5,10.8-4.5c2.7-0.8,5.6-1.3,8.5-1.7c4-0.5,7.8-0.7,11.8-0.6
			c3.1,0.1,6.1,0.5,9.3,0.9c6.9,1.1,13.5,3.2,19.9,6.1c3.1,1.4,6.1,3.1,8.8,5.1c0.1,0.1,0.2,0.2,0.3,0.3
			C218.2,61.2,218.1,61.2,218.1,61.3z M151,89.8c2,1.4,9.5,1.7,11.3,0.5c-1.9-5.3-3.8-10.6-5.7-16h-0.1
			C154.7,79.5,152.8,84.6,151,89.8z"/>
		<path class="st0" d="M32.3,72.6c0,0.1,0,0.3,0,0.4c0,7.8,0,15.7,0,23.5c0,0.3,0,0.7,0,0.9c0.1,0.9,0.7,1.5,1.8,1.5
			c0.2,0,0.4,0,0.6,0c0,0.7,0,1.2,0,1.8c-0.1,0-0.3,0-0.4,0c-2.2,0-4.3,0-6.6,0c-0.4,0-0.5-0.1-0.5-0.5s0-0.8,0-1.1
			c0-0.2,0.1-0.3,0.3-0.3s0.3,0,0.5,0c1.1-0.2,1.6-0.7,1.6-1.8c0-1.7,0-3.3,0-5c0-6.3,0-12.7,0-19c0-0.3,0-0.7-0.1-0.9
			c-0.1-0.8-0.6-1.1-1.3-1.3c-0.1,0-0.3,0-0.4-0.1c-0.6-0.1-0.6-0.1-0.6-0.7c0-0.4-0.1-0.9,0.1-1c0.2-0.2,0.7-0.1,1-0.1
			c2.3,0,4.4,0,6.7,0c0.4,0,0.5,0.1,0.6,0.4c2.9,8.2,6,16.4,8.9,24.6c0.1,0.1,0.1,0.3,0.2,0.5c0.1-0.3,0.2-0.4,0.2-0.6
			c2.9-8.2,5.9-16.4,8.8-24.6c0.1-0.3,0.2-0.4,0.6-0.4c2.4,0,4.7,0,7.2,0c0.1,0,0.3,0,0.4,0c0,0.7,0,1.2,0,1.8
			c-0.3,0-0.6,0.1-0.9,0.1c-0.9,0.1-1.3,0.6-1.4,1.5c0,0.3,0,0.7,0,0.9c0,7.8,0,15.5,0,23.2c0,0.3,0,0.7,0.1,0.9
			c0.1,0.9,0.7,1.4,1.7,1.5c0.2,0,0.4,0,0.6,0c0,0.7,0,1.2,0,1.8c-0.2,0-0.3,0-0.4,0c-2.6,0-5.4,0-8,0c-0.4,0-0.5-0.1-0.5-0.5
			c0-0.4,0-0.8,0-1c0-0.2,0.1-0.3,0.3-0.3c0.2,0,0.3,0,0.5,0c1.1-0.2,1.6-0.7,1.6-1.8c0-0.6,0-1.1,0-1.6c0-7.6,0-15,0-22.6
			c0-0.2,0-0.3,0-0.5h-0.1c0,0.1-0.1,0.2-0.1,0.3c-3.3,9.2-6.6,18.4-9.9,27.6c-0.1,0.3-0.2,0.4-0.6,0.4c-0.6,0-1,0-1.6,0
			c-0.3,0-0.5-0.1-0.6-0.4c-0.9-2.6-1.8-5.1-2.7-7.6c-2.5-6.6-4.8-13.3-7.3-19.9c0-0.1-0.1-0.2-0.1-0.3
			C32.3,72.6,32.3,72.6,32.3,72.6z"/>
		<path class="st0" d="M220.7,69.5c0,0.5,0,1,0,1.5c0,0.1-0.1,0.3-0.2,0.3c-1,0.1-1.7,0.8-2.1,1.7c-0.5,1.2-0.9,2.6-1.2,3.8
			c-2.3,7.8-4.5,15.8-6.8,23.7c-0.1,0.3-0.2,0.4-0.5,0.4c-1,0-2.1,0-3.2,0c-0.3,0-0.4-0.1-0.5-0.4c-2.3-7.9-4.6-15.9-6.9-23.8
			c0-0.1-0.1-0.2-0.2-0.5c-0.1,0.3-0.1,0.4-0.2,0.6c-2.2,7.8-4.3,15.8-6.4,23.6c-0.1,0.4-0.3,0.5-0.7,0.5c-1,0-2.1,0-3,0
			c-0.4,0-0.5-0.1-0.7-0.5c-2.2-7.4-4.3-14.7-6.5-22c-0.5-1.5-0.9-3-1.3-4.5c0-0.2-0.1-0.3-0.1-0.5c-0.6-1.6-1.2-2.1-2.9-2.2
			c-0.1,0-0.3,0-0.4,0c-0.1,0-0.3-0.2-0.3-0.2c0-0.5,0-1,0-1.5c4.1,0,8,0,12.1,0c0,0.6,0,1,0,1.6c0,0.1-0.2,0.1-0.3,0.2
			c-0.6,0-1.1,0-1.6,0.1c-1.3,0.3-2,1.2-1.6,2.6c0.6,2.4,1.2,4.6,1.9,7c1.3,4.8,2.7,9.7,4.1,14.6c0,0.2,0.1,0.3,0.2,0.5
			c0.2-0.7,0.4-1.2,0.5-1.9c2.2-8,4.3-16,6.4-24c0.1-0.3,0.2-0.4,0.5-0.4c0.9,0,1.6,0,2.5,0c0.3,0,0.4,0.1,0.5,0.4
			c1.6,5.4,3.1,10.9,4.7,16.3c0.9,2.8,1.6,5.7,2.5,8.6c0,0.1,0.1,0.2,0.1,0.4c0.1-0.2,0.1-0.3,0.2-0.4c1.9-6.4,3.8-12.9,5.6-19.2
			c0.2-0.6,0.3-1.2,0.4-1.8c0.3-1.6-0.6-2.6-2.2-2.6c-0.5,0-0.9,0-1.3,0c-0.3,0-0.4-0.1-0.4-0.4c0-0.4,0-0.8,0-1.1
			c0-0.2,0.1-0.3,0.3-0.3C214.6,69.5,217.6,69.5,220.7,69.5C220.6,69.5,220.6,69.5,220.7,69.5z"/>
		<path class="st0" d="M255.4,67.1c0,4.4,0,8.8,0,13.3c0.1-0.2,0.2-0.2,0.2-0.3c1-1.9,2.7-3,4.9-3.3c1.7-0.3,3.4-0.2,5,0.4
			c2.2,0.8,3.3,2.4,4,4.5c0.3,1.1,0.5,2.4,0.5,3.6c0,3.8,0,7.6,0,11.3c0,0.4,0,0.8,0.2,1.1c0.4,1.2,1.2,1.9,2.6,2c0.1,0,0.1,0,0.3,0
			c-0.1,0.5-0.4,0.9-0.8,1.1c-0.7,0.6-1.4,0.7-2.3,0.7c-1.2-0.1-2.3-0.4-3.1-1.3c-0.7-0.8-0.9-1.6-0.9-2.6c0-4.1,0-8.1,0-12.2
			c0-0.9-0.1-1.7-0.3-2.6c-0.5-2.2-1.8-3.2-4.1-3.4c-2.2-0.2-3.8,0.7-4.8,2.6c-0.4,0.8-0.7,1.5-0.9,2.4c-0.2,0.9-0.3,1.8-0.3,2.7
			c0,3.3,0,6.6,0,9.9c0,0.3,0,0.6,0.1,0.9c0.2,0.8,0.7,1.1,1.6,1.2c0.1,0,0.2,0,0.4,0c0.2,0,0.3,0.1,0.3,0.3c0,0.5,0,0.9,0,1.3
			c0,0.2-0.1,0.3-0.3,0.3c-0.1,0-0.2,0-0.3,0c-2.6,0-5.2,0-7.8,0c-0.2,0-0.3,0-0.5,0c0-0.7,0-1.2,0-1.8c0.4,0,0.7-0.1,0.9-0.1
			c0.9-0.2,1.2-0.6,1.3-1.4c0-0.4,0.1-0.8,0.1-1.2c0-8.4,0-16.8,0-25.1c0-0.3,0-0.7-0.1-0.9c-0.1-0.9-0.7-1.3-1.7-1.3
			c-0.7,0-0.7,0-0.7-0.7c0-0.4,0-0.8,0-1.1C251.1,67.1,253.1,67.1,255.4,67.1z"/>
		<path class="st0" d="M92.7,89.3c0.1-0.1,0.1-0.2,0.2-0.3c2.4-2.6,4.8-5.3,7.2-7.8c0.3-0.3,0.5-0.7,0.7-1c0.2-0.5,0.1-0.9-0.5-1
			c-0.4-0.1-0.8-0.1-1.1-0.2c-0.1,0-0.3-0.2-0.3-0.3c0-0.5,0-0.9,0-1.3c0-0.2,0.1-0.3,0.3-0.3c2.8,0,5.6,0,8.4,0h0.1
			c0,0.6,0,1.1,0,1.8c-1.9,0.1-3.2,1.1-4.4,2.4c-0.6,0.5-1,1-1.6,1.6c-1,1.1-2.1,2.4-3.1,3.5c-0.2,0.2-0.2,0.4,0,0.6
			c2.1,3,4.1,6.1,6.1,9.1c0.5,0.8,1.1,1.4,1.7,2c0.8,0.8,1.6,1.1,2.7,1.1c0.1,0,0.1,0,0.2,0c-0.2,0.9-0.7,1.5-1.4,1.9
			c-0.8,0.4-1.7,0.4-2.6,0.3c-1.3-0.1-2.3-0.9-3.1-2c-1.5-1.7-2.7-3.7-4.1-5.7c-0.9-1.3-1.7-2.6-2.6-3.9c0-0.1-0.1-0.1-0.3-0.4
			c-0.1,0.2-0.1,0.3-0.2,0.4c-0.9,0.9-1.7,1.9-2.5,2.8c-0.1,0.1-0.2,0.4-0.2,0.6c0,1.2,0,2.5,0,3.8c0,0.3,0,0.6,0.1,0.9
			c0.2,0.9,0.8,1.2,1.7,1.3c0.2,0,0.4,0,0.6,0c0,0.3,0,0.7,0,0.9s0,0.6,0,0.9c-0.2,0-0.3,0-0.4,0c-2.6,0-5.4,0-8,0
			c-0.4,0-0.5-0.1-0.5-0.5s0-0.8,0-1c0-0.2,0.1-0.4,0.3-0.3c0.1,0,0.3,0,0.4,0c1.1-0.2,1.5-0.7,1.6-1.7c0-0.2,0-0.5,0-0.7
			c0-8.4,0-16.9,0-25.3c0-0.4,0-0.7-0.1-1c-0.2-0.9-0.6-1.3-1.5-1.4c-0.8-0.1-0.8-0.1-0.8-0.9c0-0.9,0-0.9,0.9-0.9
			c1.6,0,3.3,0,4.9,0c0.6,0,0.6,0,0.6,0.6c0,7,0,14.1,0,21.1c0,0.2,0,0.3,0,0.5C92.6,89.2,92.6,89.2,92.7,89.3z"/>
		<path class="st0" d="M77.8,97c-0.1,0.2-0.2,0.4-0.3,0.5c-1,2.2-2.8,3.3-5.2,3.6c-1.3,0.2-2.6,0.2-4-0.1c-2.6-0.7-4.1-2.4-4.5-4.9
			c-0.3-1.3-0.3-2.6,0-3.9c0.4-1.8,1.5-3,3.2-3.9c1.5-0.8,3.2-1.2,4.9-1.3c1.7-0.1,3.4-0.1,5.1-0.2c0.1,0,0.3,0,0.5,0
			c0-0.2,0-0.3,0-0.5c0-1.4,0-2.8-0.1-4.3c0-0.6-0.2-1-0.4-1.6c-0.6-1.2-1.6-1.8-2.9-1.9c-0.7-0.1-1.4,0-2.1,0.1
			c-1.5,0.3-2.5,1.4-2.6,2.9c-0.1,0.6-0.1,1.1-0.2,1.8c-0.9,0-1.7-0.1-2.5-0.5s-1-0.9-1.1-1.8c-0.2-1.5,0.4-2.6,1.6-3.4
			c1-0.7,2.2-0.9,3.4-1.1c1.7-0.3,3.4-0.3,5.2-0.1c1.5,0.2,2.9,0.7,4.1,1.7c1,0.9,1.5,2.2,1.7,3.5c0.1,0.9,0.2,1.8,0.2,2.6
			c0,3.8,0,7.6,0,11.4c0,0.6,0.1,1.1,0.2,1.7c0.3,1.1,1.1,1.6,2.3,1.4c0.1,0,0.2,0,0.4,0c0,0.5-0.2,0.9-0.5,1.3
			c-0.6,0.7-1.3,0.9-2.2,0.9c-1.7,0.1-2.7-0.8-3.4-2.2c-0.3-0.6-0.4-1.2-0.6-1.8C77.9,97.3,77.9,97.2,77.8,97z M77.6,90.8L77.6,90.8
			c-0.1-0.4-0.1-0.7-0.1-1c0-0.9,0-0.9-0.9-0.9c-1.8,0-3.6,0-5.3,0.6c-1.5,0.5-2.6,1.3-3.1,2.9c-0.5,1.2-0.5,2.6-0.2,3.9
			c0.3,1.2,1,2.1,2.4,2.4c0.5,0.1,0.9,0.1,1.4,0.1c2.6,0,4.7-1.6,5.4-4.3C77.5,93.2,77.5,92,77.6,90.8z"/>
		<path class="st0" d="M127.8,89.2c-0.2,0-0.4,0-0.6,0c-4.6,0-9.3,0-13.8,0c-0.5,0-0.6,0-0.5,0.5c0.1,1.7,0.3,3.4,0.9,5
			c1.1,3,3.4,4,6.2,3.9c1.9-0.1,3.6-0.8,5-2c0.4-0.3,0.7-0.7,0.9-1c0.4,0.3,0.7,0.7,0.8,1.1c0.2,0.9-0.3,1.7-0.9,2.4
			c-0.9,0.9-2.1,1.5-3.3,1.9c-2.4,0.7-4.8,0.8-7.2-0.1c-3.1-0.9-4.9-3.2-6-6.2c-0.7-2.1-0.9-4.3-0.8-6.4c0.1-1.9,0.3-3.8,0.9-5.6
			c1.2-3.3,3.5-5.4,7-6c2-0.3,4-0.2,5.8,0.6c2.6,1,4.2,3.1,4.9,5.8C127.8,85,127.8,87.1,127.8,89.2z M123.3,86.8c0-0.5,0-0.9,0-1.3
			c-0.1-1.4-0.3-2.8-0.9-4.1c-0.5-1-1.2-1.9-2.3-2.3c-2.2-0.8-4.6-0.1-5.9,2.3c-0.8,1.4-1,2.9-1.2,4.5c0,0.3,0,0.6-0.1,0.9
			C116.4,86.8,119.8,86.8,123.3,86.8z"/>
		<path class="st0" d="M233.5,93.6c0.1,0.7,0.1,1.3,0.3,1.9c0.5,2.3,2,3.6,4.1,3.7c1.2,0.1,2.5-0.1,3.6-0.7c1.8-1,2.3-3.1,1.6-4.7
			c-0.2-0.5-0.6-0.9-0.9-1.2c-1-0.9-2.3-1.3-3.5-1.9c-1.5-0.7-2.9-1.4-4.3-2.2c-1.3-0.8-2.5-1.8-2.8-3.3c-0.6-2.3-0.5-4.3,1.2-6.1
			c1-1,2.4-1.6,3.8-2c2.2-0.5,4.3-0.6,6.4,0.1c1.1,0.4,2.3,0.9,2.8,2.1c0.8,1.3,0.5,2.9-0.8,3.7c-0.6,0.4-1.1,0.5-1.8,0.5
			c-0.2,0-0.2-0.1-0.3-0.3c-0.1-0.6-0.1-1.2-0.3-1.8c-0.5-1.7-1.5-2.6-3.3-2.6c-0.9-0.1-1.8,0.1-2.6,0.5c-1.2,0.6-1.8,1.5-1.9,2.8
			c-0.1,1.5,0.6,2.6,1.8,3.3c1.1,0.6,2.3,1.1,3.5,1.6c1.5,0.7,2.9,1.3,4.3,2.2c2,1.3,2.7,3.3,2.6,5.7c-0.1,2.3-1,4.1-3,5.3
			c-0.9,0.6-1.9,0.9-2.9,1c-2.2,0.4-4.3,0.4-6.5-0.2c-1-0.3-1.9-0.8-2.6-1.5c-1-1.1-1.4-3.1-0.7-4.3
			C231.6,94.1,232.6,93.5,233.5,93.6z"/>
		<path class="st0" d="M220.1,100.8c0-0.6,0-1.2,0-1.8c0.3,0,0.7-0.1,0.9-0.1c0.9-0.2,1.2-0.6,1.3-1.5c0-0.4,0.1-0.7,0.1-1
			c0-5,0-10,0-15c0-0.4,0-0.9-0.1-1.2c-0.2-0.9-0.6-1.2-1.4-1.3c-0.3,0-0.6-0.1-0.9-0.1c0.2-0.6,0.3-1.1,0.5-1.7
			c0-0.1,0.2-0.1,0.2-0.1c1.9,0,3.8,0,5.8,0c0,0.2,0,0.4,0,0.6c0,6.3,0,12.8,0,19.1c0,0.4,0,0.7,0.1,1c0.1,0.9,0.7,1.3,1.7,1.4
			c0.2,0,0.4,0,0.6,0c0,0.7,0,1.2,0,1.8C225.9,100.8,223,100.8,220.1,100.8z"/>
		<path class="st0" d="M135,89.2c-0.7,0-1.4,0-2.1,0c-0.5,0-0.8-0.2-0.8-0.8c0-0.2,0-0.3,0-0.5c0-0.4,0.3-0.6,0.7-0.6
			c1.4,0,2.9,0,4.3,0c0.4,0,0.6,0.2,0.6,0.6c0,1.1,0,1.2-1.1,1.2C136,89.2,135.4,89.2,135,89.2z"/>
		<path class="st0" d="M176.5,87.4c0.7,0,1.4,0,2.1,0c0.5,0,0.7,0.2,0.7,0.7c0,1-0.1,1.1-1.1,1.1c-1.2,0-2.5,0-3.7,0
			c-0.6,0-0.8-0.2-0.8-0.8c0-0.1,0-0.3,0-0.4c0-0.5,0.3-0.7,0.7-0.7C175.1,87.4,175.7,87.4,176.5,87.4z"/>
	</g>
</g>
</svg>
