<?xml version="1.0" encoding="utf-8"?>
<!-- Generator: Adobe Illustrator 22.1.0, SVG Export Plug-In . SVG Version: 6.00 Build 0)  -->
<svg version="1.1" id="primary_logo" xmlns="http://www.w3.org/2000/svg" xmlns:xlink="http://www.w3.org/1999/xlink" x="0px"
	 y="0px" width="300px" height="150px" viewBox="0 0 300 150" style="enable-background:new 0 0 300 150;" xml:space="preserve">
<style type="text/css">
	.st0{fill:#00B48D;}
</style>
<g>
	<path id="element" class="st0" d="M66.3,40v16.5l0,0h57.3V40H66.3z M119.9,53H69.9v-9.3H120L119.9,53L119.9,53z"/>
	<path d="M69.9,83.6h-3.6V67.2h3.6v6.5h6.4v-6.5h3.6v16.4h-3.6v-6.8h-6.4C69.9,76.8,69.9,83.6,69.9,83.6z M88,83.9
		c-3.6,0-6.1-2.3-6.1-6c0-3.7,2.5-6.3,5.6-6.3c3.5,0,5.3,2.3,5.3,5.8v1.3h-7.5c0.4,1.9,1.9,2.3,3.3,2.3c1.2,0,2.1-0.3,3.2-1h0.1v2.8
		C91,83.6,89.6,83.9,88,83.9z M85.3,76.5h4.2c-0.1-1.1-0.6-2-1.9-2C86.5,74.4,85.6,74.9,85.3,76.5z M102.1,76.8l-1.9,6.9h-3.2
		l-3.5-11.5V72H97l1.9,6.9l1.9-6.9h2.8l1.9,6.9l1.9-6.9h3.3v0.1l-3.6,11.5H104L102.1,76.8z M116.5,83.9c-2.8,0-4-1.1-4-3.8V67.2h3.5
		v12.7c0,0.8,0.3,1.1,1,1.1c0.2,0,0.6-0.1,0.8-0.2h0.1v2.9C117.6,83.8,117,83.9,116.5,83.9z M125,83.9c-3.6,0-6.1-2.3-6.1-6
		c0-3.7,2.5-6.3,5.6-6.3c3.5,0,5.3,2.3,5.3,5.8v1.3h-7.5c0.4,1.9,1.9,2.3,3.3,2.3c1.2,0,2.1-0.3,3.2-1h0.1v2.8
		C127.9,83.6,126.5,83.9,125,83.9z M122.2,76.5h4.2c-0.1-1.1-0.6-2-1.9-2C123.4,74.4,122.5,74.9,122.2,76.5z M144,72h2.6v2.8H144
		v4.8c0,1.1,0.4,1.5,1.5,1.5c0.3,0,0.7,0,1.1-0.2h0.1v2.7c-0.5,0.2-1.1,0.4-2.1,0.4c-2.8,0-3.9-1.2-3.9-4.2v-4.9h-4.5v4.8
		c0,1.1,0.4,1.5,1.5,1.5c0.3,0,0.7,0,1.1-0.2h0.1v2.7c-0.5,0.2-1.1,0.4-2.1,0.4c-2.8,0-3.9-1.2-3.9-4.2v-4.9h-1.8V72h1.8v-3.2h3.5
		V72h4.5v-3.2h3.5L144,72L144,72z M164.5,72.8c0,3.6-2.5,5.6-6,5.6H156v5.4h-3.6V67.2h6.1C162.2,67.2,164.5,69.2,164.5,72.8z
		 M158.3,75.3c1.9,0,2.7-1.1,2.7-2.6c0-1.6-0.9-2.6-2.7-2.6h-2.2v5C155.9,75.3,158.3,75.3,158.3,75.3z M172.2,82.6
		c-0.8,0.9-1.9,1.3-3.1,1.3c-2.3,0-4.1-1.3-4.1-3.9c0-2.3,1.9-3.8,4.6-3.8c0.9,0,1.8,0.1,2.6,0.4v-0.2c0-1.2-0.7-1.9-2.6-1.9
		c-1.1,0-2.3,0.4-3.3,0.9h-0.1v-2.8c0.9-0.5,2.5-1,4-1c3.5,0,5.5,1.7,5.5,4.7v7.4h-3.4V82.6C172.2,82.6,172.2,82.6,172.2,82.6z
		 M172.1,79.9v-1c-0.5-0.3-1.1-0.4-1.9-0.4c-1.1,0-1.9,0.4-1.9,1.3c0,1,0.7,1.3,1.8,1.3C171.2,81.4,171.9,80.8,172.1,79.9z
		 M177.4,77.8c0-3.8,2.6-6.1,6.1-6.1c1.2,0,2.5,0.3,3.3,0.9v3h-0.1c-0.8-0.6-1.7-0.9-2.7-0.9c-1.8,0-3,1.1-3,3.2s1.3,3.2,3,3.2
		c1.1,0,1.9-0.4,2.7-0.9h0.1v3c-0.9,0.7-2,0.9-3.3,0.9C180.1,83.9,177.4,81.6,177.4,77.8z M192.5,78.4v5.4H189V67.2h3.5v9.4L196,72
		h4v0.1l-4.1,5.4l4.1,6.1v0.1h-4L192.5,78.4z M207.8,82.6c-0.8,0.9-1.9,1.3-3.1,1.3c-2.3,0-4.1-1.3-4.1-3.9c0-2.3,1.9-3.8,4.6-3.8
		c0.9,0,1.8,0.1,2.6,0.4v-0.2c0-1.2-0.7-1.9-2.6-1.9c-1.1,0-2.3,0.4-3.3,0.9h-0.1v-2.8c0.9-0.5,2.5-1,4-1c3.5,0,5.5,1.7,5.5,4.7v7.4
		h-3.4V82.6L207.8,82.6z M207.7,79.9v-1c-0.5-0.3-1.1-0.4-1.9-0.4c-1.1,0-1.9,0.4-1.9,1.3c0,1,0.7,1.3,1.8,1.3
		C206.7,81.4,207.4,80.8,207.7,79.9z M217,73.8c0.6-1.2,1.6-2,2.8-2c0.5,0,1,0.1,1.1,0.2v3.3h-0.1c-0.4-0.2-0.9-0.3-1.6-0.3
		c-1.1,0-1.9,0.7-2.2,1.9v6.7h-3.5V72h3.4L217,73.8L217,73.8z M230.3,82.5c-0.8,1-1.9,1.5-3.5,1.5c-3,0-4.9-2.7-4.9-6.1
		c0-3.4,1.9-6.1,4.9-6.1c1.6,0,2.6,0.5,3.4,1.3v-5.8h3.5v16.4h-3.4V82.5z M230.2,79.8V76c-0.6-0.9-1.3-1.1-2.2-1.1
		c-1.6,0-2.6,1.1-2.6,3.1s1.1,3.1,2.6,3.1C228.9,80.9,229.7,80.5,230.2,79.8z M66.3,89.1h10.2v2h-7.8v5h7.1v1.9h-7.1v5.5h7.8v2H66.3
		V89.1z M84.8,93.7c2.6,0,4.1,1.8,4.1,4.6v7.3h-2.1v-7.2c0-1.5-0.8-2.6-2.5-2.6c-1.3,0-2.6,0.9-2.9,2.1v7.7h-2.1V93.9h2.1v1.7
		C82.1,94.6,83.2,93.7,84.8,93.7z M94.7,93.9h3v1.9h-3v6.3c0,1.3,0.7,1.8,1.9,1.8c0.4,0,0.7-0.1,1-0.2h0.1v1.9
		c-0.3,0.1-0.8,0.2-1.3,0.2c-2.7,0-3.8-1.2-3.8-3.5v-6.4h-2v-1.9h2v-3.1h2.1L94.7,93.9L94.7,93.9z M104.9,105.8
		c-3.4,0-5.7-2.2-5.7-5.9c0-3.6,2.1-6.1,5.3-6.1c3.2,0,4.8,2.3,4.8,5.7v1h-7.9c0.2,2.3,1.8,3.5,3.8,3.5c1.2,0,2.2-0.3,3.2-1.1h0.1
		v1.9C107.5,105.5,106.3,105.8,104.9,105.8z M101.4,98.6h5.7c-0.1-1.8-0.9-3-2.7-3C102.8,95.6,101.7,96.8,101.4,98.6z M114,95.7
		c0.5-1.2,1.7-1.9,2.9-1.9c0.5,0,1,0.1,1.1,0.2v2.1h-0.2c-0.3-0.2-0.9-0.2-1.3-0.2c-1.1,0-2.1,0.8-2.6,2.1v7.6h-2.1V93.9h2.1
		L114,95.7L114,95.7z M125.5,93.7c3.5,0,5.3,2.8,5.3,6c0,3.2-1.9,6-5.3,6c-1.5,0-2.6-0.8-3.2-1.6v5.8h-2.1v-16h2.1v1.3
		C122.8,94.4,124.1,93.7,125.5,93.7z M125.1,103.7c2.1,0,3.4-1.8,3.4-4.1s-1.2-4.1-3.4-4.1c-1.1,0-2.3,0.7-2.9,1.9v4.5
		C122.8,103.1,124,103.7,125.1,103.7z M135.5,95.7c0.5-1.2,1.7-1.9,2.9-1.9c0.5,0,1,0.1,1.1,0.2v2.1h-0.1c-0.3-0.2-0.9-0.2-1.3-0.2
		c-1.1,0-2.1,0.8-2.6,2.1v7.6h-2.1V93.9h2.1L135.5,95.7L135.5,95.7z M142.7,89.3c0.8,0,1.3,0.6,1.3,1.3c0,0.8-0.7,1.3-1.3,1.3
		c-0.8,0-1.3-0.6-1.3-1.3C141.3,89.9,142,89.3,142.7,89.3z M141.6,93.9h2.1v11.5h-2.1V93.9z M151.6,98.8c1.7,0.5,3.5,1.1,3.5,3.4
		c0,2.3-1.9,3.6-4.5,3.6c-1.6,0-3-0.4-3.9-1.1v-2h0.1c1,0.9,2.5,1.2,3.8,1.2c1.2,0,2.3-0.5,2.3-1.5c0-1.1-0.9-1.2-2.7-1.9
		c-1.7-0.5-3.5-1.1-3.5-3.3c0-2.2,1.9-3.6,4.1-3.6c1.3,0,2.6,0.3,3.6,1v2.1h0c-1-0.8-2-1.1-3.4-1.1c-1.3,0-2.1,0.6-2.1,1.5
		C148.9,97.9,149.7,98.1,151.6,98.8z M162.7,105.8c-3.4,0-5.7-2.2-5.7-5.9c0-3.6,2.1-6.1,5.3-6.1c3.2,0,4.8,2.3,4.8,5.7v1h-7.9
		c0.2,2.3,1.8,3.5,3.8,3.5c1.2,0,2.2-0.3,3.2-1.1h0.1v1.9C165.3,105.5,164.1,105.8,162.7,105.8z M159.3,98.6h5.7
		c-0.1-1.8-0.9-3-2.7-3C160.7,95.6,159.6,96.8,159.3,98.6z"/>
</g>
</svg>
