<?xml version="1.0" encoding="utf-8"?>
<!-- Generator: Adobe Illustrator 22.1.0, SVG Export Plug-In . SVG Version: 6.00 Build 0)  -->
<svg version="1.1" id="Layer_1" xmlns="http://www.w3.org/2000/svg" xmlns:xlink="http://www.w3.org/1999/xlink" x="0px" y="0px"
	 width="300px" height="160px" viewBox="0 0 300 160" style="enable-background:new 0 0 300 160;" xml:space="preserve">
<style type="text/css">
	.st0{fill:#0388FE;}
	.st1{fill:#060606;}
	.st2{fill:#FEFEFE;}
</style>
<g id="hYzSLL.tif">
	<g>
		<g>
			<g>
				<path class="st0" d="M37.7,80.1c0,1.7,0,3.3,0,5c0,0.6,0.1,0.7,0.7,0.7c3.3,0,6.8,0,10.1,0c0.5,0,0.7-0.2,0.7-0.7
					c0-1.7,0-3.3,0-5c0-5.4,4-9.6,9.4-10.1c5.2-0.4,9.7,3.1,10.6,8.3c1.1,6.2-3.6,11.8-9.9,11.8c-1.6,0-3.2,0-4.8,0
					c-0.8,0-1,0.1-1,1c0,2,0.1,3.9-0.1,6c-0.6,4.7-4.7,8.6-9.5,8.7c-5,0.2-9.4-3.2-10.3-8.1c-0.4-2.2-0.1-4.3-0.2-6.6
					c0-0.7-0.1-0.9-0.9-0.9c-2.2,0-4.4,0.2-6.6-0.2c-4.9-0.9-8.6-5.6-8.2-10.5c0.4-5.4,4.6-9.4,9.8-9.5c1.6,0,3.1,0,4.7,0
					c0.8,0,1-0.1,1-1c0-2.2-0.2-4.4,0.1-6.6c0.9-5.4,6.1-9,11.4-8.1c5.3,0.8,9.1,5.8,8.4,11c-0.6,5.3-4.7,9-10,9c-1.7,0-3.3,0-5,0
					c-0.5,0-0.7,0.2-0.7,0.7C37.7,76.8,37.7,78.4,37.7,80.1z M43.5,90.2c-1.7,0-3.4,0-5.1,0c-0.5,0-0.7,0.1-0.7,0.7
					c0,1.7,0,3.4,0,5.2c0.1,2.9,2.5,5.3,5.5,5.5c2.7,0.2,5.4-1.9,5.9-4.7c0.3-1.9,0.1-3.9,0.2-5.9c0-0.6-0.2-0.7-0.7-0.7
					C46.8,90.2,45.1,90.2,43.5,90.2z M33.4,80.1c0-1.7,0-3.4,0-5.1c0-0.5-0.1-0.6-0.6-0.6c-1.6,0-3.2,0-4.9,0
					c-3.2,0.1-5.8,2.7-5.8,5.8c0.1,3.2,2.6,5.7,6.1,5.7c1.4,0,2.9,0,4.3,0c0.7,0,1-0.1,0.9-0.9C33.3,83.3,33.4,81.7,33.4,80.1z
					 M37.7,66.6L37.7,66.6c0,0.9,0,1.9,0,2.8c0,0.5,0.1,0.7,0.6,0.6c1.9,0,3.7,0,5.7-0.1c3-0.2,5.4-2.9,5.3-5.9
					c-0.1-3.1-2.7-5.6-5.8-5.6c-3,0-5.6,2.4-5.8,5.5C37.7,64.9,37.7,65.8,37.7,66.6z M53.5,82.4c0,0.9,0,1.8,0,2.7
					c0,0.6,0.1,0.8,0.7,0.7c1.6,0,3.3,0,4.9,0c3.2,0,5.8-2.5,5.8-5.8c0-3.2-2.5-5.8-5.8-5.8c-3,0-5.7,2.7-5.7,5.9
					C53.5,80.9,53.5,81.6,53.5,82.4z"/>
				<path class="st1" d="M135.5,76.9c1.1-1.7,2.4-2.9,4.5-3.1c3.4-0.4,5.6,1.3,5.6,4.7c0.1,3.6,0,7.4,0,11c0,0.5-0.2,0.7-0.7,0.6
					c-0.9-0.1-2,0.4-2.6-0.2c-0.6-0.5-0.2-1.6-0.2-2.5c0-2.8,0-5.6-0.1-8.4c-0.1-2.2-1.9-3.1-3.8-1.9c-1.8,1.2-2.4,3.1-2.4,5.3
					c0,2.3,0,4.6,0,7c0,0.7-0.2,0.9-0.8,0.8c-0.8-0.1-1.9,0.3-2.4-0.2c-0.5-0.5-0.2-1.6-0.2-2.4c0-2.6,0-5.3,0-7.9
					c0-1.2,0-2.4-1.5-2.9c-1.1-0.4-2.5,0.1-3.4,1.3c-1,1.2-1.4,2.7-1.4,4.3c0,2.3,0,4.5,0,6.9c0,0.7-0.1,1-0.9,0.9s-1.9,0.3-2.4-0.2
					c-0.6-0.5-0.2-1.6-0.2-2.5c0-4.2,0-8.4,0-12.6c0-0.6,0.1-0.9,0.8-0.8c0.6,0.1,1.2,0,1.9,0c0.5,0,0.7,0.2,0.6,0.6
					c-0.1,0.6-0.1,1.3-0.1,2.2c1.3-2,2.9-3.1,5.2-3.2C133.1,73.6,134.4,74.4,135.5,76.9z"/>
				<path class="st1" d="M193.3,79.2c0-3.3,0-6.8,0-10.1c0-0.7,0.2-0.9,0.8-0.8c0.7,0.1,1.4,0.1,2.1,0c0.6-0.1,0.7,0.2,0.7,0.7
					c0,2.4,0,4.9,0,7.4c0,0.7,0.1,0.9,0.8,0.9c2.8,0,5.8,0,8.6,0c0.7,0,0.8-0.2,0.8-0.8c0-2.5,0-4.9,0-7.5c0-0.6,0.1-0.8,0.7-0.7
					c0.9,0.1,2.1-0.3,2.6,0.2c0.6,0.5,0.2,1.7,0.2,2.6c0,6.1,0,12.1,0,18.1c0,0.8-0.2,1.1-1,1s-1.9,0.4-2.4-0.2
					c-0.4-0.5-0.1-1.5-0.1-2.3c0-2.1,0-4.3,0-6.5c0-0.5-0.1-0.7-0.7-0.7c-3,0-6,0-9,0c-0.6,0-0.6,0.2-0.6,0.7c0,2.7,0,5.5,0,8.2
					c0,0.6-0.1,0.9-0.8,0.8c-0.6-0.1-1.3-0.1-2,0s-0.8-0.2-0.8-0.8C193.3,85.9,193.3,82.5,193.3,79.2z"/>
				<path class="st1" d="M272.2,76.2c0.4,0.1,0.5-0.2,0.7-0.4c1.6-1.9,4.4-2.6,6.8-1.8c1.8,0.7,2.6,2.1,2.6,3.9
					c0.1,3.8,0,7.8,0.1,11.6c0,0.5-0.2,0.6-0.6,0.6c-0.7,0-1.4-0.1-2.1,0c-0.6,0-0.7-0.2-0.7-0.7c0-3.1,0-6.3,0-9.3
					c0-0.3,0-0.6,0-0.9c-0.3-2.4-2.2-3.3-4.2-1.8c-1.6,1.1-2.1,2.8-2.2,4.6c-0.1,2.4-0.1,4.9,0,7.4c0,0.7-0.2,0.9-0.9,0.8
					c-0.6-0.1-1.3,0-2,0c-0.5,0-0.7-0.1-0.6-0.6c0-0.8,0-1.6,0-2.4c0-6.6,0-13,0-19.6c0-0.8,0.2-1.1,1-1s1.9-0.3,2.3,0.2
					c0.5,0.5,0.2,1.6,0.2,2.4c0,1.8,0,3.6,0,5.5C272.4,75.1,272.4,75.7,272.2,76.2z"/>
				<path class="st1" d="M78.3,79.2c0-3.4,0-6.8,0-10.2c0-0.4,0-0.8,0.6-0.8c2.4,0,4.7-0.3,7.2,0.1c3.2,0.4,5.3,2.3,5.9,5.2
					c0.5,3-0.9,6.1-3.6,7.6c-1.8,1-3.6,1.2-5.7,1.1c-0.6,0-0.7,0.1-0.7,0.6c0,2.1,0,4.3,0,6.5c0,0.7-0.2,0.9-0.9,0.9
					c-0.6-0.1-1.2-0.1-1.9,0c-0.6,0.1-0.8-0.2-0.8-0.8C78.3,86,78.3,82.5,78.3,79.2z M81.9,75.1c0,0.6,0,1.1,0,1.7
					c0,0.7-0.3,1.8,0.1,2.1c0.7,0.5,1.8,0.3,2.7,0.1c2.1-0.4,3.4-2,3.4-4c0-2-1-3.3-2.9-3.7c-0.9-0.2-1.8-0.2-2.8-0.1
					c-0.4,0-0.6,0.2-0.6,0.6C81.9,72.8,81.9,74,81.9,75.1z"/>
				<path class="st1" d="M240.5,87.6c-1.3,1.9-2.9,2.8-5.1,2.8s-3.6-1-4.3-2.7c-0.7-2-0.2-4.1,1.5-5.5s3.6-1.7,5.8-1.9
					c0.2,0,0.4,0,0.7,0c1.5-0.1,1.5-0.1,1.3-1.5c-0.2-1.5-1.1-2.3-2.7-2.4c-1.6-0.1-3,0.2-4.4,0.9c-0.6,0.3-0.8,0.2-0.9-0.5
					c0-0.2-0.1-0.3-0.1-0.4c-0.4-1.7-0.4-1.7,1.3-2.1c1.9-0.4,3.7-0.6,5.7-0.4c3,0.3,4.6,1.8,4.7,4.8c0.1,3.6-0.1,7.4,0.1,11
					c0,0.4-0.2,0.5-0.5,0.5c-0.3,0-0.6,0-0.9,0c-1.9,0-1.9,0-1.8-2C240.5,88,240.5,87.9,240.5,87.6z M240.3,83.3
					c0-0.2,0.2-0.7-0.4-0.7c-1.5,0.1-3,0.1-4.3,0.9c-1.1,0.6-1.5,1.6-1.2,2.7c0.3,1,1.3,1.5,2.5,1.4
					C238.6,87.4,240.2,85.6,240.3,83.3z"/>
				<path class="st1" d="M113.5,82.3c-1.5,0-2.9,0-4.4,0c-0.5,0-0.7,0.2-0.7,0.7c0.1,2.9,1.7,4.4,4.6,4.5c1.4,0,2.8-0.2,4.2-0.8
					c0.4-0.2,0.6-0.1,0.6,0.3v0.1c0.5,2.3,0.5,2.3-1.8,2.8c-1.8,0.4-3.6,0.5-5.6,0.2c-3-0.6-4.8-2.2-5.5-5.4c-0.6-3-0.4-6.1,1.5-8.6
					c1.7-2.3,4.9-3.2,7.9-2.3c2.5,0.8,4,2.9,4.2,6c0.1,2.4,0.1,2.4-2.3,2.4C115.4,82.3,114.5,82.3,113.5,82.3z M111.8,79.9
					c1,0,1.9,0,2.9,0c0.3,0,0.5,0,0.5-0.4c0-1.4-1-2.7-2.4-3.1c-2-0.5-3.9,0.9-4.2,3c-0.1,0.4,0.1,0.5,0.4,0.5
					C109.9,79.9,110.9,79.9,111.8,79.9z"/>
				<path class="st1" d="M223,82.3c-1.5,0-2.9,0-4.4,0c-0.5,0-0.7,0.2-0.7,0.7c0,2.7,1.6,4.4,4.3,4.5c1.5,0.1,3-0.2,4.4-0.7
					c0.5-0.2,0.6,0,0.7,0.4c0.5,2.2,0.5,2.3-1.8,2.8c-1.9,0.4-3.8,0.5-5.7,0.2c-2.9-0.5-4.7-2.3-5.3-5.2c-0.6-2.8-0.5-5.6,1-8.1
					c1.9-3.3,6.7-4.3,9.9-2.2c1.9,1.3,2.6,3.3,2.7,5.6c0.1,2.1,0.1,2.1-2,2.1C225.1,82.3,224,82.3,223,82.3z M221.3,79.9
					c0.9,0,1.9,0,2.8,0c0.2,0,0.6,0.1,0.6-0.4c0.1-1.4-0.9-2.8-2.3-3.1c-2.1-0.5-4.1,0.9-4.3,3c-0.1,0.4,0.1,0.5,0.5,0.5
					C219.5,79.9,220.4,79.9,221.3,79.9z"/>
				<path class="st1" d="M166.2,82.3c-1.4,0-2.9,0-4.3,0c-0.7,0-0.8,0.2-0.7,0.8c0.1,2.8,1.6,4.3,4.4,4.4c1.5,0,2.9-0.2,4.3-0.7
					c0.4-0.2,0.7-0.2,0.7,0.4c0,0.1,0,0.2,0,0.4c0.3,1.9,0.3,1.9-1.6,2.4c-1.9,0.4-3.8,0.6-5.8,0.3c-3.2-0.6-5.1-2.4-5.6-5.7
					c-0.4-2.2-0.3-4.5,0.6-6.7c1-2.3,2.7-3.8,5.3-4.1c2.5-0.3,4.8,0,6.6,2.2c1.3,1.7,1.4,3.8,1.3,6c0,0.5-0.3,0.4-0.6,0.4
					C169.3,82.3,167.7,82.3,166.2,82.3z M164.6,79.9c0.9,0,1.9,0,2.8,0c0.4,0,0.5-0.1,0.5-0.5c0-1.4-1-2.6-2.4-3
					c-2-0.5-3.9,0.9-4.2,3c-0.1,0.5,0.1,0.5,0.4,0.5C162.7,79.9,163.6,79.9,164.6,79.9z"/>
				<path class="st1" d="M257.6,82.2c0-1.8,0-3.3,0-4.8c0-0.5-0.1-0.7-0.6-0.6c-0.1,0-0.2,0-0.4,0c-2.1,0-2.1,0-2.1-2.1
					c0-0.5,0.1-0.8,0.7-0.7c0.1,0,0.2,0,0.4,0c2,0,2,0,2-2c0-0.8,0-1.6,0-2.4c0-0.5,0.2-0.7,0.6-0.8c0.9-0.2,2.2-0.9,2.7-0.6
					c0.6,0.4,0.2,1.8,0.2,2.7c0,0.8,0,1.7,0,2.5c0,0.5,0.1,0.6,0.6,0.6c1,0,2,0,3,0c0.4,0,0.6,0.1,0.6,0.6c0.1,2.2,0.1,2.2-2,2.2
					s-2.1,0-2.1,2.1c0,1.9,0,3.7,0,5.7c0,2.5,0.7,3.1,3.2,2.7c0.7-0.1,0.9,0.1,0.9,0.7c0.2,2,0.2,2.1-1.8,2.3
					c-1,0.1-1.9,0.1-2.9-0.1c-1.7-0.3-2.5-1.2-2.8-2.8C257.4,85.6,257.7,83.7,257.6,82.2z"/>
				<path class="st1" d="M252.2,78.2c0,3.7,0,7.4,0,11.1c0,0.6-0.1,0.8-0.8,0.8c-0.9-0.1-2,0.3-2.5-0.2c-0.6-0.5-0.2-1.6-0.2-2.5
					c0-6.7,0-13.4,0-20.1c0-0.7,0.2-1,0.9-0.9c0.6,0.1,1.2,0.1,1.8,0c0.7-0.1,0.8,0.2,0.8,0.8C252.1,70.9,252.2,74.6,252.2,78.2z"/>
				<path class="st1" d="M175.1,82c0-2.4,0-4.8,0-7.3c0-0.6,0.2-0.8,0.8-0.8c0.5,0.1,1.1,0.1,1.6,0c0.9-0.1,1.1,0.3,1,1
					c0,0.1-0.1,0.3,0,0.4c0.1,0.2-0.3,0.6,0.1,0.7c0.3,0.1,0.4-0.3,0.5-0.5c1-1.3,2.2-1.9,3.8-1.9c0.4,0,0.7,0.1,0.6,0.6
					c-0.1,0.2,0,0.5,0,0.7c0,0.6,0.1,1.3-0.1,1.8c-0.3,0.6-1.1,0.1-1.7,0.2c-1.2,0.3-1.9,1.1-2.4,2.2c-0.5,1.2-0.6,2.5-0.6,3.7
					c0,2.1,0,4.1,0,6.3c0,0.7-0.2,0.9-0.8,0.8s-1.3,0-2,0c-0.6,0-0.7-0.2-0.7-0.7C175.2,86.9,175.1,84.5,175.1,82z M178.3,76.6
					c0.1,0.1,0.1,0.1,0.1,0.2c0-0.1,0.1-0.2,0.1-0.2l-0.1-0.1C178.4,76.5,178.3,76.5,178.3,76.6z"/>
				<path class="st1" d="M98.2,76.8c0.4-0.2,0.5-0.5,0.6-0.8c0.9-1.5,2.2-2.4,4.1-2.4c0.5,0,0.7,0.1,0.6,0.6c0,0.2,0,0.4,0,0.6
					c0,0.7,0.1,1.4-0.1,1.9c-0.3,0.7-1.1,0.1-1.7,0.3c-1.2,0.4-1.9,1.1-2.3,2.1c-0.5,1.2-0.6,2.4-0.6,3.7c0,2.1,0,4.2,0,6.4
					c0,0.6-0.1,0.8-0.7,0.7c-0.9-0.1-2.1,0.4-2.7-0.2c-0.4-0.4-0.1-1.7-0.1-2.5c0-4.1,0-8.4,0-12.5c0-0.7,0.2-1,0.9-0.8
					c0.1,0,0.1,0,0.2,0C98.9,74,98.9,74,98.2,76.8z"/>
				<path class="st1" d="M154,81.9c0,2.4,0,4.9,0,7.4c0,0.6-0.1,0.8-0.8,0.8c-0.9-0.1-2,0.3-2.5-0.2c-0.6-0.5-0.2-1.6-0.2-2.5
					c0-4.2,0-8.4,0-12.6c0-0.6,0.2-0.9,0.8-0.8c0.6,0.1,1.3,0.1,2,0c0.6-0.1,0.7,0.2,0.7,0.7C154,77.2,154,79.5,154,81.9z"/>
				<path class="st1" d="M152.2,71.2c-1.3,0-2.2-0.9-2.2-2.1s1-2.2,2.2-2.2c1.2,0,2.2,1,2.2,2.2C154.5,70.2,153.5,71.2,152.2,71.2z"
					/>
				<path class="st2" d="M178.3,76.6c0-0.1,0.1-0.1,0.1-0.2l0.1,0.1c0,0.1-0.1,0.2-0.1,0.2C178.4,76.7,178.3,76.7,178.3,76.6z"/>
			</g>
		</g>
	</g>
</g>
</svg>
