<?xml version="1.0" encoding="utf-8"?>
<!-- Generator: Adobe Illustrator 22.1.0, SVG Export Plug-In . SVG Version: 6.00 Build 0)  -->
<svg version="1.1" id="Layer_1" xmlns="http://www.w3.org/2000/svg" xmlns:xlink="http://www.w3.org/1999/xlink" x="0px" y="0px"
	 width="300px" height="160px" viewBox="0 0 300 160" style="enable-background:new 0 0 300 160;" xml:space="preserve">
<style type="text/css">
	.st0{fill:#006C32;}
	.st1{fill:#231F20;}
	.st2{fill:#6D6E70;}
</style>
<g>
	<g>
		<path class="st0" d="M115.3,113.4c2.1-3.1,3.6-5.6,4.9-9.2h4c-1.8,4.7-4,8.3-7.1,12.5v6.2h-3.5v-6.2c-3.1-4.2-5.2-7.8-7.1-12.5h4
			C111.7,107.9,113.2,110.4,115.3,113.4"/>
		<path class="st0" d="M151.6,111.8c-1.7-0.6-2.7-0.8-3.3-1.3c-0.7-0.4-0.8-0.9-0.8-1.4c0-0.8,0.4-1.3,1.1-1.6
			c0.7-0.3,1.6-0.4,2.3-0.4c1.2,0,2.6,0.3,4.1,0.8l1.2-2.7c-1.4-0.7-3.4-1.2-5.2-1.2c-1.9,0-3.6,0.4-4.7,1.3c-1.4,0.9-2.2,2.3-2.2,4
			c0,3.2,2.7,4.5,5.4,5.3c1.1,0.4,2.3,0.7,3.1,1.1s1.2,1.1,1.2,1.8c0,0.9-0.6,1.5-1.1,1.8c-0.7,0.4-1.7,0.6-2.8,0.6
			c-2.5,0-4.3-0.9-5.6-1.8l-1.2,2.8c1.6,1.2,4.3,2.1,7,2.1c4.1,0,7.2-2.2,7.2-5.7C157.1,114.3,154.6,112.8,151.6,111.8"/>
		<path class="st0" d="M132.3,119.6h-2.6v-12.2h2.2c3.9,0,6.4,2.1,6.4,6C138.4,117.1,136.1,119.6,132.3,119.6 M131.9,104.2h-5.6V123
			h6c5.5,0,9.6-3.9,9.6-9.5S138,104.2,131.9,104.2"/>
		<path class="st0" d="M174.4,120.1h-3v-5.5h3.1c2.7,0,4.1,0.7,4.1,2.6C178.6,119.7,176.2,120.1,174.4,120.1 M171.4,107h2.7
			c2.5,0,3.7,0.6,3.7,2.2s-1.2,2.6-3.4,2.6h-2.9V107H171.4z M177.9,113.1L177.9,113.1c2-0.7,3.2-2.1,3.2-4.2c0-3.3-2.9-4.6-5.7-4.6
			h-7.3V123h6.8c3.5,0,7.1-1.4,7.1-5.3C181.9,115,180.3,113.4,177.9,113.1"/>
		<polygon class="st0" points="218.7,104.2 215.5,104.2 215.5,117.7 215.4,117.7 207.5,104.2 203.2,104.2 203.2,122.9 206.4,122.9 
			206.4,108.9 206.5,108.9 214.6,122.9 218.7,122.9 		"/>
		<polygon class="st0" points="229.6,113.2 238.3,104.2 233.9,104.2 226.1,112.6 226,112.6 226,104.2 222.7,104.2 222.7,122.9 
			226,122.9 226,113.8 226.1,113.8 234.4,122.9 239,122.9 		"/>
		<polygon class="st0" points="75.5,122.9 86,122.9 87.1,119.6 78.9,119.6 78.9,104.2 75.5,104.2 		"/>
		<polygon class="st0" points="61,122.9 71.5,122.9 72.7,119.6 64.5,119.6 64.5,104.2 61,104.2 		"/>
		<path class="st0" d="M97.2,119.9c-3.8,0-6-2.8-6-6.3c0-3.6,2.2-6.3,6-6.3s6,2.9,6,6.4C103.1,117.1,101,119.9,97.2,119.9 M97.2,104
			c-5.7,0-9.5,4.2-9.5,9.6c0,5.3,3.7,9.5,9.5,9.5c5.7,0,9.5-4.3,9.5-9.6C106.6,108.2,102.9,104,97.2,104"/>
		<path class="st0" d="M192,118.9c1.4,0,2.7-0.1,3.9-0.4l1.7,4.5h3.9l-8.1-18.7h-2.8l-8.1,18.7h3.9l1.7-4.5
			C189.2,118.8,190.6,118.9,192,118.9 M192,116.1c-1,0-1.9-0.1-2.9-0.3l2.9-7.4l2.9,7.4C193.9,116,193,116.1,192,116.1"/>
	</g>
	<g>
		<path class="st1" d="M181.3,67.9c1.3,0.9,2.6,1.6,2.6,3.1c0,0.4-0.6,0.9-1.8,0.9c-0.9,0-1.9-0.3-2.4-0.9c-0.4-0.5,0.2-1.2-0.2-1.7
			c-0.3-0.4-0.8-0.2-1.2-0.4c-0.4-0.3-0.5-0.4-0.8-1.1c-0.3-0.8-1.5-2.1-2.9-3.5c-1.2-1.2-2.4-1.8-2.9-1.7c-0.4,0.1-0.5,0.1-0.9,0.1
			c-1,0-1.8,0.9-3.3,1.6c-1,0.4-1.6,0.7-2.2,0.8l-0.2,0.3l1.3-0.1c1.2,0,2.8-0.2,4-0.2s1.8,1.1,2.3,2.3c0.9,2.3,2.3,5.7,4.1,8.6
			c0.8,1.3,1.5,2.2,1.5,3.8c0,0.5-0.1,1.2-0.7,1.2c-0.9,0-3.3-1-3.3-2.1c0-0.8,0.7-1.2,0.7-2c0-0.5-0.8-0.4-0.9-0.9
			c-0.6-2.5-1.3-5-2.7-6.5c-0.7-0.8-0.8-1.1-1.6-1.1c-0.4,0-0.8,0.1-1.1,0.2c-1.9,0.7-4.6,2.9-7.8,3.9c-1.2,0.4-1.4-0.3-2.7-0.1h0.1
			c-1.1,0.2-1.8,0.8-3.3,1.2c-1.9,0.6-5.3,0.8-8.1,0.4c-1.9-0.3-4.5-0.7-5.5-0.6c-0.8,2.3-2.6,5.5-5.2,6.7c-1.4,0.6-1.8,1.4-1.4,3
			c0.5,1.9,2.2,3.3,3.1,5c0.8,1.4,2.2,3.7,3.6,4.4c1.4,0.7,2.3,1.8,2.3,2.7c0,0.4-0.2,0.7-0.6,0.7h-2.8c-0.4,0-0.7-0.3-0.7-0.4
			c-0.4-0.7-0.1-1.4-0.7-2.1c-0.4-0.4-0.7-0.3-1.2-0.7c-0.8-0.8-0.2-1.3-0.8-2.3c-1.8-2.8-2.6-3.5-4.1-5.6c-0.8-1.1-1.9-1.6-1.9-3
			c0-1.7,1.7-2,1.7-3.7c-1.1,0.8-2.4,1.4-4.4,1.7c-0.3,0.1-0.9,0.6-1.2,0.9c-0.7,0.7-0.9,1.4-1.1,2.4c-0.2,2.3-0.7,4.7-0.4,7
			c0.4,1.5,0.7,2,1.9,2.8c0.8,0.5,1.7,1.2,1.8,2.3c0,0.3-0.1,0.7-0.5,0.7h-3.1c-0.3,0-0.6-0.2-0.7-0.4c-0.3-0.6-0.1-1-0.3-1.7
			c-0.3-1.4-1.9-1.3-1.9-2.8c0-0.4,0.3-1,0.3-1.9c0.1-1.9,0.7-5.2,0.1-9c-0.3-2.2,2.1-2.3,3.3-4.3c0.7-1.1,0.5-0.7,0.9-1.4
			c0.4-0.8,0.3-1.4,0.3-1.9c0-0.7-0.7-2-0.2-4.8c0.2-1.2,0.8-2.5,1.6-3.6c0-0.1,0-0.2-0.3-0.2c-1.2,0.1-1.2-0.2-2-0.2
			s-1.4,0.7-1.5,1c-0.4-0.2-0.6-0.6-0.6-0.8c0-0.4,0.1-0.8,0.5-1.2c0.2-0.2,0-0.3-0.2-0.3c-0.9,0-1.8,1.2-2.1,1.9
			c-0.6-0.1-0.6-0.8-0.8-0.8c-0.3,0-0.4,0.4-0.4,0.8c0,2.7,4.5,3.3,4.5,7c0,4.2-5,3.3-5,4.8c0,0.3,0.2,0.6,0.6,0.7
			c-0.2,0.4-0.6,0.6-1.1,0.6c-1.1,0-1.9-0.8-1.9-1.9c0-2.3,3.1-2.3,3.1-4.1c0-0.8-0.5-1.1-1-1.4c-2.9-2.1-4.6-4.1-4.6-7.5
			c0-3.7,2.6-6.5,5.8-6.5c4.8,0,5,5.6,9.3,6c1.6-1.1,3.6-1.8,5.5-1.8c2.8,0,4.1,0.7,7.1,0.7c1.2,0,3.2-0.3,5.6-2
			c0.9-0.6,1.3-0.7,2.1-1.4c1.9-1.6,3.7-4.8,3.7-7.1v0.1c0-0.7-0.2-1.2-0.5-1.2c-1,0-1.9,0.9-2.9,1.9c-0.7,0.7,0.3,1-1.1,1.8
			c-0.5,0.3-1.1-0.2-1.7-0.2c-1.2,0-1.7-1.4-1.7-2.6c0-0.6,0.4-0.8,0.7-1.3c0.6-1.2,0.6-1.6,1.1-2.7c0.3-0.8,0.9-1.3,0.9-1.8
			c0-0.2-0.2-0.3-0.2-0.6c0-1.2,1.6-1.9,1.6-3.1c0-0.7-0.7-0.9-0.9-1.4s-0.1-0.7-0.1-0.7c0.1-0.1,0.1-0.1,0.2-0.1
			c0.6,0,0.8,0.7,1.4,1c0.1-0.8-0.2-0.9-0.2-1.5c0-0.3-0.1-0.8,0.3-0.8c0.4,0,0.3,0.5,0.7,0.8s0.8,0.3,1.3,0.6
			c0.6,0.4,0.9,1.1,1.2,1.1c0.6,0.1,0.8-0.7,0.4-1.1c0.7-0.1,1.4,0.5,2.3,0.5c1.4,0,1.9,0.4,2.2,0.6c0.9,0.8,1.1,1.4,2.1,1.4
			c0.5,0,0.8-0.4,0.9-0.6c0.7,0.5,0.7,1.8,0,2.9c0.3,0.9,1.6,1,2.2,1.4c0.6,0.4,0.5,0.7,0.9,0.9c0.3,0.2,0.7,0.2,0.9,0
			c0.3,1.2-0.7,2.3-2,2.4c0.1,1.6,1.7,2.5,2.4,2.9c-0.4,0.9-1.2,1.2-1.9,1.4c0.2,0.9,1.2,2.3,0.7,3.6c-0.4-0.2-1.2,0-1.2,0.7
			c0,0.8,1,1.2-0.1,1.7c-0.4,0.3-0.6,0.9,0.3,1.6c1.1-0.3,2.2-0.3,3.5-0.3c0.8,0,1.8-0.2,2.5-0.2c1.3,0,2.1,0.5,3,1.6
			C176.7,63.3,178.9,66,181.3,67.9"/>
		<path class="st2" d="M117.6,61c0.5,0,1.4-2.8,3.4-2.8c0.6,0,0.7,0.2,0.7,0.4c0,0.4-0.7,0.7-0.7,1.2c0,0.1,0.1,0.2,0.2,0.2
			c0.4,0,0.8-1.1,2.7-1.1c0.5,0,0.9,0.1,1.4,0.2c0.2,0.1,0.7,0.3,0.4-0.3c-0.4-1.3-1.9-2.6-4-2.6s-4.2,1.8-4.5,4.1
			C117.4,60.7,117.4,61,117.6,61"/>
		<path class="st2" d="M153.2,43.3c-0.6-0.2-0.7-0.5-0.4-1.2c0.1-0.7,0.2-1.1-0.2-1.1c-0.3-0.1-0.7,0.1-1.1,0.5
			c-0.3,0.4-0.9,1.1-1.1,1.5c-0.2,0.6,0.6,0.5,0.1,1.5c-0.9,1.6-1.1,2-1.6,3.1c-0.4,1.2-0.7,1.4-0.9,1.8c-0.3,0.3,0.3,0.4,1,0.2
			c0.7-0.3,0.8,0.6,0.5,1.2c-0.2,0.4-0.1,0.6,0.6,0.1c0.6-0.4-0.3-0.8-0.1-2.2c0.2-1.2,0.4-1.9,1.2-3.2c0.7-1.1,1.2-1.8,2.3-1.4
			C154,44.3,153.8,43.6,153.2,43.3"/>
		<path class="st2" d="M177.1,79.8c0.2,0,0.3-0.3,0.3-0.6c0-0.6-0.3-1.5-0.8-1.9c-0.1,0.9-0.6,1.5-0.6,1.9
			C176,79.5,176.8,79.8,177.1,79.8"/>
		<path class="st2" d="M182.4,71.2c0.3,0,0.8-0.1,0.8-0.4c0-0.5-0.8-1.4-1.4-1.6C182.3,70,181.8,71.2,182.4,71.2"/>
		<path class="st2" d="M158.8,59.4c4.8,2.2,4.6,6.3,5,5.3c0.2-0.4,0.8-2.4-0.9-4.4c-1.3-1.6-1.8-1.2-1.3-2.4
			c2.1-5.1,3.5-12.9-2.9-15.5c-0.7-0.3-1.3-0.3-1.3-0.2s0.7,0.3,1.5,0.9c4.2,2.8,2.9,10.4-0.9,14.1
			C156.7,58.4,157.3,58.7,158.8,59.4"/>
		<path class="st2" d="M142.2,95c0.3,0,0.2-0.5,0.1-0.7c-0.3-0.5-0.8-0.8-1.3-1.1c0.1,0.5,0.2,1.8,0.7,1.8L142.2,95"/>
		<path class="st2" d="M127.6,95c0.3,0,0.1-0.5-0.1-0.7c-0.3-0.5-0.9-0.8-1.4-1.1c0.1,0.5,0.2,1.8,0.7,1.8L127.6,95"/>
		<path class="st2" d="M145.4,65.9c2.7-0.3,3.1-0.9,3.6-2.9c0.2-0.9,0.9-1.9,1.5-2.6c0.4-0.4,0.8-0.8,1.2-1.4c0.1-0.3,0.2-0.4,0-0.4
			c-0.3,0.2-1.2,0.8-1.6,1.1c-1.9,1.3-4.8,1.9-5.9,1.9c-2.4,0-4.6-0.7-6.8-0.7c-6.7,0-9.2,5.2-8.8,8.3c0.1,0.5,0.1,0.5,0.3,0.5
			c0.4,0,0.9-1.8,2.6-3.4c2.4-2.3,5.1-3.7,8.9-3.7c2.7,0,3.9,0.9,3.9,1.2c0,0.7-1.2,0.7-1.1,1.4C143,65.6,143.6,66.1,145.4,65.9"/>
	</g>
</g>
</svg>
