<svg height="700pt" preserveAspectRatio="xMidYMid meet" viewBox="0 0 700 700" width="700pt" xmlns="http://www.w3.org/2000/svg"><g transform="matrix(.1 0 0 -.1 0 700)"><path d="m3285 6644c-159-13-565-81-581-97-2-2-3-401-2-886l3-883 50 39c328 257 782 347 1208 239 602-153 1012-740 1044-1496 17-406-87-801-294-1114-79-120-262-309-368-378-148-97-326-169-495-199-116-21-421-18-545 5-217 40-430 136-578 259-26 22-50 38-52 35-2-2-9-44-15-93-5-50-13-107-16-127l-6-38h-324-324v2175c0 1196-2 2175-5 2175-10 0-208-121-275-168-441-309-787-707-1024-1179-164-327-263-660-318-1063-16-125-16-575 0-700 55-403 154-736 318-1063 445-887 1277-1508 2259-1686 214-38 298-45 555-45s341 7 555 45c982 178 1814 799 2259 1686 164 327 263 660 318 1063 7 56 12 199 12 350 0 257-7 341-45 555-178 982-799 1814-1686 2259-318 159-648 260-1021 311-104 15-505 27-607 19z"/><path d="m3395 4503c-150-18-316-85-412-165-196-163-306-431-320-783-18-429 94-754 325-947 65-54 211-123 307-144 108-24 295-24 390 1 171 43 301 139 412 305 120 179 183 423 183 711 0 307-69 548-211 740-81 110-177 187-295 237-94 39-264 60-379 45z"/></g></svg>