<svg xmlns="http://www.w3.org/2000/svg" viewBox="0 0 16.933 16.933"><path fill="#0060ff" d="M12.212 5.807c-.317-.253-.697-.506-1.14-.633-.443-.126-.95-.253-1.456-.253-.634 0-1.203.127-1.71.317-.507.19-.887.443-1.14.76v-4.94H4.233v14.818H6.45l.19-1.14c.316.506.76.823 1.266 1.076.57.254 1.14.317 1.71.317.506 0 1.013-.064 1.456-.253.443-.19.823-.38 1.14-.634a4.99 4.99 0 001.456-1.963c.317-.76.444-1.71.444-2.722 0-2.153-.634-3.736-1.9-4.75zm-.887 6.08c-.063.443-.253.886-.57 1.202a1.98 1.98 0 01-.696.57c-.253.19-.633.254-1.013.254-.317 0-.633-.064-.887-.127-.253-.127-.443-.253-.633-.38-.38-.317-.633-.76-.76-1.33a7.184 7.184 0 01-.19-1.583c0-.38 0-.76.064-1.203.063-.38.19-.76.38-1.14.19-.316.443-.633.76-.823.316-.19.696-.316 1.202-.316.38 0 .76.063 1.014.253.253.19.506.38.696.57.253.38.443.76.57 1.203.064.443.127.886.127 1.393.063.57.063 1.013-.064 1.456z"/></svg>